<svg xmlns="http://www.w3.org/2000/svg" viewBox="0 0 1400 900" role="img" aria-label="中部纵贯之路">
  <defs>
    
    <linearGradient id="paper" x1="0" x2="1" y1="0" y2="1">
      <stop offset="0" stop-color="#fffaf0"/>
      <stop offset="0.48" stop-color="#ebebd9"/>
      <stop offset="1" stop-color="#ddc3b6"/>
    </linearGradient>
    <filter id="paperGrain" x="0" y="0" width="100%" height="100%">
      <feTurbulence baseFrequency="0.74" numOctaves="2" seed="46" type="fractalNoise"/>
      <feColorMatrix type="saturate" values="0"/>
      <feComponentTransfer>
        <feFuncA type="table" tableValues="0 0.13"/>
      </feComponentTransfer>
    </filter>
    <filter id="assetShadow" x="-18%" y="-18%" width="136%" height="136%">
      <feDropShadow dx="0" dy="18" stdDeviation="18" flood-color="#2f261a" flood-opacity="0.16"/>
    </filter>
    <linearGradient id="inkWash" x1="0" x2="1" y1="0" y2="1">
      <stop offset="0" stop-color="#3a5627" stop-opacity="0.28"/>
      <stop offset="0.52" stop-color="#c48ba1" stop-opacity="0.18"/>
      <stop offset="1" stop-color="#62394b" stop-opacity="0.22"/>
    </linearGradient>
  </defs>
  <rect width="1400" height="900" fill="url(#paper)"/>
  <rect width="1400" height="900" fill="url(#inkWash)"/>
  <g opacity="0.8">
    <path d="M-900 900 L0 0" fill="none" stroke="#4f7f2d" stroke-width="1" stroke-opacity="0.07"/>
  <path d="M-862 900 L38 0" fill="none" stroke="#4f7f2d" stroke-width="1" stroke-opacity="0.07"/>
  <path d="M-824 900 L76 0" fill="none" stroke="#4f7f2d" stroke-width="1" stroke-opacity="0.07"/>
  <path d="M-786 900 L114 0" fill="none" stroke="#4f7f2d" stroke-width="1" stroke-opacity="0.07"/>
  <path d="M-748 900 L152 0" fill="none" stroke="#4f7f2d" stroke-width="1" stroke-opacity="0.07"/>
  <path d="M-710 900 L190 0" fill="none" stroke="#4f7f2d" stroke-width="1" stroke-opacity="0.07"/>
  <path d="M-672 900 L228 0" fill="none" stroke="#4f7f2d" stroke-width="1" stroke-opacity="0.07"/>
  <path d="M-634 900 L266 0" fill="none" stroke="#4f7f2d" stroke-width="1" stroke-opacity="0.07"/>
  <path d="M-596 900 L304 0" fill="none" stroke="#4f7f2d" stroke-width="1" stroke-opacity="0.07"/>
  <path d="M-558 900 L342 0" fill="none" stroke="#4f7f2d" stroke-width="1" stroke-opacity="0.07"/>
  <path d="M-520 900 L380 0" fill="none" stroke="#4f7f2d" stroke-width="1" stroke-opacity="0.07"/>
  <path d="M-482 900 L418 0" fill="none" stroke="#4f7f2d" stroke-width="1" stroke-opacity="0.07"/>
  <path d="M-444 900 L456 0" fill="none" stroke="#4f7f2d" stroke-width="1" stroke-opacity="0.07"/>
  <path d="M-406 900 L494 0" fill="none" stroke="#4f7f2d" stroke-width="1" stroke-opacity="0.07"/>
  <path d="M-368 900 L532 0" fill="none" stroke="#4f7f2d" stroke-width="1" stroke-opacity="0.07"/>
  <path d="M-330 900 L570 0" fill="none" stroke="#4f7f2d" stroke-width="1" stroke-opacity="0.07"/>
  <path d="M-292 900 L608 0" fill="none" stroke="#4f7f2d" stroke-width="1" stroke-opacity="0.07"/>
  <path d="M-254 900 L646 0" fill="none" stroke="#4f7f2d" stroke-width="1" stroke-opacity="0.07"/>
  <path d="M-216 900 L684 0" fill="none" stroke="#4f7f2d" stroke-width="1" stroke-opacity="0.07"/>
  <path d="M-178 900 L722 0" fill="none" stroke="#4f7f2d" stroke-width="1" stroke-opacity="0.07"/>
  <path d="M-140 900 L760 0" fill="none" stroke="#4f7f2d" stroke-width="1" stroke-opacity="0.07"/>
  <path d="M-102 900 L798 0" fill="none" stroke="#4f7f2d" stroke-width="1" stroke-opacity="0.07"/>
  <path d="M-64 900 L836 0" fill="none" stroke="#4f7f2d" stroke-width="1" stroke-opacity="0.07"/>
  <path d="M-26 900 L874 0" fill="none" stroke="#4f7f2d" stroke-width="1" stroke-opacity="0.07"/>
  <path d="M12 900 L912 0" fill="none" stroke="#4f7f2d" stroke-width="1" stroke-opacity="0.07"/>
  <path d="M50 900 L950 0" fill="none" stroke="#4f7f2d" stroke-width="1" stroke-opacity="0.07"/>
  <path d="M88 900 L988 0" fill="none" stroke="#4f7f2d" stroke-width="1" stroke-opacity="0.07"/>
  <path d="M126 900 L1026 0" fill="none" stroke="#4f7f2d" stroke-width="1" stroke-opacity="0.07"/>
  <path d="M164 900 L1064 0" fill="none" stroke="#4f7f2d" stroke-width="1" stroke-opacity="0.07"/>
  <path d="M202 900 L1102 0" fill="none" stroke="#4f7f2d" stroke-width="1" stroke-opacity="0.07"/>
  <path d="M240 900 L1140 0" fill="none" stroke="#4f7f2d" stroke-width="1" stroke-opacity="0.07"/>
  <path d="M278 900 L1178 0" fill="none" stroke="#4f7f2d" stroke-width="1" stroke-opacity="0.07"/>
  <path d="M316 900 L1216 0" fill="none" stroke="#4f7f2d" stroke-width="1" stroke-opacity="0.07"/>
  <path d="M354 900 L1254 0" fill="none" stroke="#4f7f2d" stroke-width="1" stroke-opacity="0.07"/>
  <path d="M392 900 L1292 0" fill="none" stroke="#4f7f2d" stroke-width="1" stroke-opacity="0.07"/>
  <path d="M430 900 L1330 0" fill="none" stroke="#4f7f2d" stroke-width="1" stroke-opacity="0.07"/>
  <path d="M468 900 L1368 0" fill="none" stroke="#4f7f2d" stroke-width="1" stroke-opacity="0.07"/>
  <path d="M506 900 L1406 0" fill="none" stroke="#4f7f2d" stroke-width="1" stroke-opacity="0.07"/>
  <path d="M544 900 L1444 0" fill="none" stroke="#4f7f2d" stroke-width="1" stroke-opacity="0.07"/>
  <path d="M582 900 L1482 0" fill="none" stroke="#4f7f2d" stroke-width="1" stroke-opacity="0.07"/>
  <path d="M620 900 L1520 0" fill="none" stroke="#4f7f2d" stroke-width="1" stroke-opacity="0.07"/>
  <path d="M658 900 L1558 0" fill="none" stroke="#4f7f2d" stroke-width="1" stroke-opacity="0.07"/>
  <path d="M696 900 L1596 0" fill="none" stroke="#4f7f2d" stroke-width="1" stroke-opacity="0.07"/>
  <path d="M734 900 L1634 0" fill="none" stroke="#4f7f2d" stroke-width="1" stroke-opacity="0.07"/>
  <path d="M772 900 L1672 0" fill="none" stroke="#4f7f2d" stroke-width="1" stroke-opacity="0.07"/>
  <path d="M810 900 L1710 0" fill="none" stroke="#4f7f2d" stroke-width="1" stroke-opacity="0.07"/>
  <path d="M848 900 L1748 0" fill="none" stroke="#4f7f2d" stroke-width="1" stroke-opacity="0.07"/>
  <path d="M886 900 L1786 0" fill="none" stroke="#4f7f2d" stroke-width="1" stroke-opacity="0.07"/>
  <path d="M924 900 L1824 0" fill="none" stroke="#4f7f2d" stroke-width="1" stroke-opacity="0.07"/>
  <path d="M962 900 L1862 0" fill="none" stroke="#4f7f2d" stroke-width="1" stroke-opacity="0.07"/>
  <path d="M1000 900 L1900 0" fill="none" stroke="#4f7f2d" stroke-width="1" stroke-opacity="0.07"/>
  <path d="M1038 900 L1938 0" fill="none" stroke="#4f7f2d" stroke-width="1" stroke-opacity="0.07"/>
  <path d="M1076 900 L1976 0" fill="none" stroke="#4f7f2d" stroke-width="1" stroke-opacity="0.07"/>
  <path d="M1114 900 L2014 0" fill="none" stroke="#4f7f2d" stroke-width="1" stroke-opacity="0.07"/>
  <path d="M1152 900 L2052 0" fill="none" stroke="#4f7f2d" stroke-width="1" stroke-opacity="0.07"/>
  <path d="M1190 900 L2090 0" fill="none" stroke="#4f7f2d" stroke-width="1" stroke-opacity="0.07"/>
  <path d="M1228 900 L2128 0" fill="none" stroke="#4f7f2d" stroke-width="1" stroke-opacity="0.07"/>
  <path d="M1266 900 L2166 0" fill="none" stroke="#4f7f2d" stroke-width="1" stroke-opacity="0.07"/>
  <path d="M1304 900 L2204 0" fill="none" stroke="#4f7f2d" stroke-width="1" stroke-opacity="0.07"/>
  <path d="M1342 900 L2242 0" fill="none" stroke="#4f7f2d" stroke-width="1" stroke-opacity="0.07"/>
  <path d="M1380 900 L2280 0" fill="none" stroke="#4f7f2d" stroke-width="1" stroke-opacity="0.07"/>
    <path d="M-112 -128 C252 -200 448 -56 728 -128 S1148 -200 1512 -110" fill="none" stroke="#a44f77" stroke-width="1.2" stroke-opacity="0.16" stroke-linecap="round"/>
  <path d="M-112 0 C252 -72 448 72 728 0 S1148 -72 1512 18" fill="none" stroke="#a44f77" stroke-width="1.2" stroke-opacity="0.16" stroke-linecap="round"/>
  <path d="M-112 128 C252 56 448 200 728 128 S1148 56 1512 146" fill="none" stroke="#a44f77" stroke-width="1.2" stroke-opacity="0.16" stroke-linecap="round"/>
  <path d="M-112 256 C252 184 448 328 728 256 S1148 184 1512 274" fill="none" stroke="#a44f77" stroke-width="1.2" stroke-opacity="0.16" stroke-linecap="round"/>
  <path d="M-112 384 C252 312 448 456 728 384 S1148 312 1512 402" fill="none" stroke="#a44f77" stroke-width="1.2" stroke-opacity="0.16" stroke-linecap="round"/>
  <path d="M-112 512 C252 440 448 584 728 512 S1148 440 1512 530" fill="none" stroke="#a44f77" stroke-width="1.2" stroke-opacity="0.16" stroke-linecap="round"/>
  <path d="M-112 640 C252 568 448 712 728 640 S1148 568 1512 658" fill="none" stroke="#a44f77" stroke-width="1.2" stroke-opacity="0.16" stroke-linecap="round"/>
  <path d="M-112 768 C252 696 448 840 728 768 S1148 696 1512 786" fill="none" stroke="#a44f77" stroke-width="1.2" stroke-opacity="0.16" stroke-linecap="round"/>
  <path d="M-112 896 C252 824 448 968 728 896 S1148 824 1512 914" fill="none" stroke="#a44f77" stroke-width="1.2" stroke-opacity="0.16" stroke-linecap="round"/>
  <path d="M-112 1024 C252 952 448 1096 728 1024 S1148 952 1512 1042" fill="none" stroke="#a44f77" stroke-width="1.2" stroke-opacity="0.16" stroke-linecap="round"/>
  <path d="M-112 1152 C252 1080 448 1224 728 1152 S1148 1080 1512 1170" fill="none" stroke="#a44f77" stroke-width="1.2" stroke-opacity="0.16" stroke-linecap="round"/>
  <path d="M-112 1280 C252 1208 448 1352 728 1280 S1148 1208 1512 1298" fill="none" stroke="#a44f77" stroke-width="1.2" stroke-opacity="0.16" stroke-linecap="round"/>
  </g>
  <text x="82" y="260" fill="#20231f" fill-opacity="0.07" font-family="'Songti SC','STSong','Source Han Serif SC','Noto Serif CJK SC','SimSun',serif" font-size="168" font-weight="900" writing-mode="vertical-rl">中纵之路</text>
  <text x="1296" y="730" text-anchor="end" fill="#20231f" fill-opacity="0.08" font-family="'Avenir Next',Avenir,Arial,sans-serif" font-size="54" font-weight="900" letter-spacing="7">ROUTE 07</text>
  <g transform="translate(978 86)">
    <g transform="rotate(2 41 41)">
    <rect x="0" y="0" width="82" height="82" rx="11.48" fill="#9f3525"/>
    <rect x="8.200000000000001" y="8.200000000000001" width="65.60000000000001" height="65.60000000000001" rx="8.200000000000001" fill="none" stroke="#fff2df" stroke-opacity="0.72" stroke-width="2.87"/>
    <text x="41" y="49.199999999999996" text-anchor="middle" fill="#fff7e8" font-family="'Kaiti SC','STKaiti','FZKai-Z03S','KaiTi','Songti SC','STSong','Noto Serif CJK SC',serif" font-size="37.72" font-weight="900">路</text>
    <text x="41" y="63.96" text-anchor="middle" fill="#fff2df" font-family="'Avenir Next',Avenir,Arial,sans-serif" font-size="11.48" font-weight="900" letter-spacing="0.8">07</text>
  </g>
  </g>
  <g transform="translate(1060 86)">
    <text x="0" y="28" fill="#20231f" fill-opacity="0.68" font-family="'Kaiti SC','STKaiti','FZKai-Z03S','KaiTi','Songti SC','STSong','Noto Serif CJK SC',serif" font-size="25" font-weight="900">从桂中山地到祁连关城</text>
    <text x="0" y="64" fill="#4f7f2d" font-family="'Songti SC','STSong','Source Han Serif SC','Noto Serif CJK SC','SimSun',serif" font-size="36" font-weight="900">中部纵贯之路</text>
  </g>
  <g transform="translate(128 628)" opacity="0.82">
    <g transform="translate(0 0) scale(1.1)">
      <path d="M52 126 C88 80 119 83 134 33 C151 82 183 81 220 126" fill="none" stroke-linecap="round" stroke-linejoin="round" stroke="#4f7f2d" stroke-width="7"/>
      <path d="M17 89 H254 M47 57 H224 M75 136 H194" fill="none" stroke-linecap="round" stroke-linejoin="round" stroke="#a44f77" stroke-width="4.5"/>
      <path d="M134 33 V150" fill="none" stroke-linecap="round" stroke-linejoin="round" stroke="#4f7f2d" stroke-width="3.4" stroke-dasharray="9 11" opacity="0.68"/>
      <circle cx="134" cy="33" r="6.2" fill="#a44f77"/></g>
  </g>
  <g fill="none" filter="url(#assetShadow)">
    <path d="M868.5 736 L863.4 735.2 L862 735.4 L858.2 733.2 L850 733.9 L847.1 732.8 L845.6 731.5 L845.8 732.5 L845 733 L842.4 732.8 L840.2 734.1 L841 737.4 L840.2 739.9 L837.8 740.4 L832.4 743.1 L830.4 743.7 L829.6 744.6 L829.2 743.7 L827.8 743.8 L827.6 745.4 L828.3 745.4 L828.2 747.2 L826.6 748.5 L825.5 750.6 L822.4 752 L822.6 753.2 L817.8 752.8 L817.2 750.8 L813.7 752.5 L813.5 753.3 L811.9 754.1 L810.4 754.1 L808.5 753.1 L806.7 754.3 L807 754.5 L806.9 755.6 L804.7 757.1 L801.4 757.6 L801.2 756.9 L800.1 756.4 L799 756.7 L797.7 756.2 L798.2 754.4 L797.5 753.4 L796.4 753 L795.9 751.7 L794.2 750.8 L793.2 749.6 L792.6 750 L791.3 749.5 L789.5 749.7 L787.1 748.3 L784.6 746.3 L785.3 745.9 L785.1 745.1 L783.6 744.6 L783 744.9 L781.3 743.9 L782.8 742.5 L779.4 739.3 L774.3 738 L773.5 736.7 L772.3 736 L773.9 735.2 L774.3 734 L776.4 733.9 L778.2 732.6 L778 731.2 L778.5 730.4 L777.7 729.6 L783.5 725.4 L784.7 725.3 L783.8 724.1 L785.5 723.1 L781.5 719.4 L782 718.6 L783.3 717.9 L783.5 717 L782 716.3 L779.9 714.2 L779.5 712.6 L778.6 711.8 L778.5 710.6 L776 707.6 L769.3 703.2 L766 699.6 L758.9 693.9 L756.3 690.8 L751.2 687.8 L744.6 686 L745.1 682 L739.5 675.9 L740.1 673.3 L741.2 671.8 L744.1 670.5 L746.7 668.6 L747.4 665.4 L747 663.5 L747.4 662 L747 661.3 L747.4 660.1 L745.9 657.6 L746.9 656.3 L746.6 654.5 L747.1 653 L746.1 650.9 L745 650.3 L744.3 648.9 L743.9 645.9 L742.8 643.5 L744.1 641.7 L741.8 639.8 L741.4 638.5 L738.8 636.7 L736.5 636.7 L735.9 635.3 L734.3 634.8 L732.4 632.8 L728.4 631.3 L726 629 L724.1 628.9 L722.8 628 L721 628.2 L718.5 625.5 L713.3 623.2 L711 623.8 L710 623.5 L709 622.6 L708.6 620.9 L707 618.8 L705.4 618.4 L701 619.2 L698.8 618.4 L697 617.2 L696.5 616.3 L694.3 615.7 L692.9 614.3 L692.3 611.7 L691.1 610.3 L689.4 610.4 L687.2 609.6 L684.5 610.3 L679.9 614.1 L677.9 617.4 L677.3 617.2 L676.3 618 L675.4 620.1 L676.1 620.4 L676.5 621.5 L676 622 L674.9 622.2 L673.4 620.9 L671.4 622.6 L671.8 622.5 L670.8 623.9 L669.7 624.2 L667.5 623.7 L667.7 622.7 L667.1 622.5 L667.1 621.7 L666.6 621.9 L665 618.4 L663.5 618.1 L662.4 618.4 L660.4 616.9 L659.8 615.3 L658.8 615.1 L657.5 612.6 L656.4 611.3 L655.7 611.1 L654.5 608.1 L654.1 605.4 L651.1 601.9 L650.3 598.3 L648.3 596.6 L647 593.8 L643.7 589.9 L642.6 587.7 L642.2 579.1 L643.7 573.9 L643.5 570.4 L645.2 565.8 L644.8 563.4 L646.7 559.4 L646.3 558.6 L646.3 557.8 L646.7 557.9 L646.3 557.8 L646.3 556.7 L646.7 556.8 L646.2 556.5 L647.6 554.1 L647.3 552.5 L648.9 550.7 L648.2 549.6 L647.3 549.4 L645.9 548.1 L645.6 546.6 L644.3 544.7 L644.2 543.2 L643.9 543.5 L642.2 542 L642.1 540.1 L642.6 539 L642 537.1 L643.1 536.3 L643.1 533.8 L643.9 532.6 L643.3 531.9 L643.3 530.6 L644.1 527.9 L643.4 527.1 L643.3 525.9 L641.9 524.2 L642.4 523.9 L642.4 521.7 L643.3 519.2 L642.9 519 L642.3 516.5 L640.7 514.4 L640.6 511.3 L638.7 509.6 L639 506.5 L638.3 505.9 L638.4 504.4 L636.4 502.7 L636.2 501.8 L635.3 501.6 L634.9 499.9 L634.2 499.1 L633.4 499 L632.9 492.4 L634.9 490.1 L637.4 489 L637.2 487.7 L638.5 486.6 L637.6 486.2 L637.6 485.5 L636.9 485.5 L636.6 484.7 L639.7 481.1 L639.1 480.7 L638.9 476.7 L637.7 475.1 L638.1 474.2 L636.7 472.1 L634.3 470.6 L634.6 469.9 L636.5 469.3 L638.4 467.7 L640.2 467.4 L641.6 466.6 L646.1 468.8 L646.8 468.5 L647.9 469.1 L651.7 468.9 L653.7 470 L655.3 470.1 L656.8 467.8 L656.6 465.7 L655.7 463.8 L653.1 460.9 L651.9 458.7 L652 455.8 L650.9 454.9 L649.3 452.1 L648.2 451.4 L648.3 449.3 L647.1 446.6 L647 445.6 L644.9 444.5 L643.3 444.4 L642.1 443.2 L640.7 443.2 L639.8 442.1 L639.7 442.5 L638.8 441.8 L638 439.2 L636 438 L635.1 438 L632.8 436.7 L628.8 437.3 L626.7 436.6 L621.2 430.7 L620.7 427.8 L621.6 426.5 L622 422.8 L621.6 421.2 L620.6 421.2 L621.5 420.8 L622.3 418.5 L623 417.8 L623.4 413.6 L625.3 413.7 L626.2 412.8 L626.3 411.9 L627.5 411 L629.6 410.9 L631.6 410 L632.1 408.9 L634.6 408 L635.2 407.1 L637.9 405.8 L639 403.6 L640.1 403.9 L643 403.1 L646 403.6 L646.8 403.1 L650.1 403.4 L655 402.9 L659.1 400.7 L656.3 400.3 L654.2 399.1 L654 398.5 L649.4 397.2 L646.4 394.1 L646.3 389.5 L651.2 386.3 L651 385.6 L652 382.6 L654.1 380.8 L655.2 380.9 L658.4 379 L662.6 378.6 L662 376.3 L663.4 376.3 L663.6 375.1 L664.6 374.4 L664.7 373.3 L665.3 372.9 L665.3 372.4 L664.7 370.6 L663.3 369.8 L662.1 367.8 L662.2 366.5 L660 367 L657.8 366.7 L657 367.5 L653.8 367.2 L653.8 366.2 L652.7 365.4 L652.4 364.5 L652.2 361.8 L652.6 361 L650.8 359.6 L647.3 359.2 L646.2 358.3 L645.2 358.2 L643.8 356.3 L641.9 355.7 L639.4 354 L638.5 350.8 L639.1 350 L638.9 349.2 L640.2 347.9 L638.5 344.7 L638.5 343.1 L636.3 341.5 L638.5 338.1 L640.2 337 L641.7 337.5 L643.1 338.8 L645 339.2 L645.4 337.7 L645 336.8 L645 335.2 L646.4 333.5 L646 333.4 L646.3 333 L645.3 333 L648.5 330.7 L649.5 329.4 L649.2 328.6 L648.2 328.4 L649.4 328.4 L644 328.4 L639.9 327.4 L637 327.3 L629.2 323 L630 318.6 L629.1 315.8 L626 312.8 L626.3 312.2 L623.9 311.7 L624 308.1 L622.9 305.7 L622.3 305.2 L619.2 304.7 L619.6 303.1 L618.7 302 L618.8 301.1 L619.3 301 L618.7 300.8 L619.2 300.3 L619 299.1 L619.6 298.1 L619.2 295.1 L616.6 292.7 L615.8 290.6 L611.4 288.1 L610.9 286.8 L607.8 285.7 L603.4 281.4 L603.1 280.2 L604.2 279.1 L604 278.1 L604.7 277 L604.8 275.2 L600.6 267.2 L599.7 262.3 L596.5 260.4 L593.3 256.1 L590.9 254.2 L588.5 254 L588.2 252.8 L586.8 252 L587.1 250.9 L584.3 248.4 L582.6 247.6 L581.1 248.1 L579.1 246.3 L575.9 245.3 L573.3 242.8 L567.5 241.3 L562.8 243.2 L560.9 243.2 L560.5 244.1 L559.4 244.5 L556.3 243.6 L554.6 242.5 L545.7 239.8 L544.9 238.7 L545.1 237.1 L543.4 234.6 L537.1 233.3 L531.5 229.3 L531.6 227.5 L532.9 225.5 L537.9 224.6 L541.6 223.2 L541.7 220.7 L543.7 220 L547.7 213.9 L548.5 213.3 L551.5 212.9 L559.1 213.4 L566.8 208.4 L569.9 208 L574.3 203.4 L576 197.9 L581.2 193.2 L583.5 193.9 L586.7 192.7 L587.3 191.7 L587.5 189.3 L588.7 187.3 L593 184 L597.2 178.7 L601.2 175.2 L606.2 169.5 L606.9 164.9 L606.3 163.5 L607.4 162.5 L605.4 160 L605.3 159 L606.9 155.5 L609.7 151.7 L610.9 150.9 L613.6 146 L613.5 142.4 L615 142.4" stroke="#ced8b9" stroke-width="34" stroke-linecap="round" stroke-linejoin="round" opacity="0.92"/>
    <path d="M689.7 538 L689.1 538.5 L690 537.6 L688.8 538.3 L688.9 539.1 L685.6 538.5 L685.2 536.1 L683.5 533.2 L682.5 532.9 L681.2 531.3 L679.5 530.7 L678.8 529.5 L677.2 529.3 L676.9 530.1 L675 530.7 L675.1 530.1 L673.8 530.1 L672.4 528 L670.4 527.1 L669.4 524.9 L670.1 524.2 L670.4 525.1 L669.1 525 L668.1 525.9 L666.6 525.8 L665.9 526.2 L667 525.8 L665.8 526.2 L664.4 525 L663.6 525.7 L663.3 525.1 L661.2 525.2 L659.2 523.2 L657.3 523.3 L653.6 525.5 L650.8 525.7 L650.5 526.6 L648.9 527.5 L647.9 529.6 L647.4 529.5 L646.6 530.3 L643.9 531.2 L643.6 529 L644.1 527.8 L643.4 527.1 L643.3 525.9 L641.9 524.2 L642.4 523.8 L642.1 523.5 L640.8 523.9 L638.5 522.7 L637.1 524 L635.8 523.7 L635.6 525.6 L634.9 526.3 L633.4 526 L631.2 523.5 L628.7 524.3 L627.5 523.1 L624.9 523.6 L622.8 525.3 L621.4 524.4 L621.2 523.7 L619.2 523.7 L618.7 524.2 L615.6 524.1 L614.7 524.7 L613.3 524.6 L611.9 523.6 L609.9 523.5 L607.2 524.8 L606.3 524.6 L606.1 525.2 L603.6 526.5 L601 524.9 L600.8 525.3 L600.3 525.2 L599.5 523.8 L599.4 524.1 L598 523.1 L597.7 521.5 L596.7 520.9 L596.6 521.5 L595.1 521.5 L592.5 520.6 L592 522.3 L591.1 522.5 L590.5 523.7 L588.9 523.2 L587.4 524.9 L586 525 L584.9 526 L584.9 526.6 L584.4 526.7 L581 525.5 L577.8 521.5 L574.8 520.3 L573.1 519.1 L569.2 519.1 L566.3 516.8 L564.5 517.4 L562.4 517.3 L562.4 516.7 L562 517.2 L560.8 517.1 L558.9 517.9 L557.8 517.2 L557.7 516.5 L556.8 516.7 L556.2 516.1 L555.5 519.1 L553.9 519.8 L552.3 519.6 L552 520.1 L550.1 524.6 L547.5 527.3 L547.7 528 L546 531.3 L545.9 532.9 L543.3 533.2 L543.1 535.4 L542.3 535.4 L540.4 533.7 L540.1 534.4 L538 534.4 L537.1 533.8 L536.4 534 L535.2 533.4 L534.4 533.7 L534.2 534.7 L533.1 535.1" stroke="#ced8b9" stroke-width="25" stroke-linecap="round" stroke-linejoin="round" stroke-dasharray="28 30" opacity="0.76"/>
    <path d="M868.5 736 L863.4 735.2 L862 735.4 L858.2 733.2 L850 733.9 L847.1 732.8 L845.6 731.5 L845.8 732.5 L845 733 L842.4 732.8 L840.2 734.1 L841 737.4 L840.2 739.9 L837.8 740.4 L832.4 743.1 L830.4 743.7 L829.6 744.6 L829.2 743.7 L827.8 743.8 L827.6 745.4 L828.3 745.4 L828.2 747.2 L826.6 748.5 L825.5 750.6 L822.4 752 L822.6 753.2 L817.8 752.8 L817.2 750.8 L813.7 752.5 L813.5 753.3 L811.9 754.1 L810.4 754.1 L808.5 753.1 L806.7 754.3 L807 754.5 L806.9 755.6 L804.7 757.1 L801.4 757.6 L801.2 756.9 L800.1 756.4 L799 756.7 L797.7 756.2 L798.2 754.4 L797.5 753.4 L796.4 753 L795.9 751.7 L794.2 750.8 L793.2 749.6 L792.6 750 L791.3 749.5 L789.5 749.7 L787.1 748.3 L784.6 746.3 L785.3 745.9 L785.1 745.1 L783.6 744.6 L783 744.9 L781.3 743.9 L782.8 742.5 L779.4 739.3 L774.3 738 L773.5 736.7 L772.3 736 L773.9 735.2 L774.3 734 L776.4 733.9 L778.2 732.6 L778 731.2 L778.5 730.4 L777.7 729.6 L783.5 725.4 L784.7 725.3 L783.8 724.1 L785.5 723.1 L781.5 719.4 L782 718.6 L783.3 717.9 L783.5 717 L782 716.3 L779.9 714.2 L779.5 712.6 L778.6 711.8 L778.5 710.6 L776 707.6 L769.3 703.2 L766 699.6 L758.9 693.9 L756.3 690.8 L751.2 687.8 L744.6 686 L745.1 682 L739.5 675.9 L740.1 673.3 L741.2 671.8 L744.1 670.5 L746.7 668.6 L747.4 665.4 L747 663.5 L747.4 662 L747 661.3 L747.4 660.1 L745.9 657.6 L746.9 656.3 L746.6 654.5 L747.1 653 L746.1 650.9 L745 650.3 L744.3 648.9 L743.9 645.9 L742.8 643.5 L744.1 641.7 L741.8 639.8 L741.4 638.5 L738.8 636.7 L736.5 636.7 L735.9 635.3 L734.3 634.8 L732.4 632.8 L728.4 631.3 L726 629 L724.1 628.9 L722.8 628 L721 628.2 L718.5 625.5 L713.3 623.2 L711 623.8 L710 623.5 L709 622.6 L708.6 620.9 L707 618.8 L705.4 618.4 L701 619.2 L698.8 618.4 L697 617.2 L696.5 616.3 L694.3 615.7 L692.9 614.3 L692.3 611.7 L691.1 610.3 L689.4 610.4 L687.2 609.6 L684.5 610.3 L679.9 614.1 L677.9 617.4 L677.3 617.2 L676.3 618 L675.4 620.1 L676.1 620.4 L676.5 621.5 L676 622 L674.9 622.2 L673.4 620.9 L671.4 622.6 L671.8 622.5 L670.8 623.9 L669.7 624.2 L667.5 623.7 L667.7 622.7 L667.1 622.5 L667.1 621.7 L666.6 621.9 L665 618.4 L663.5 618.1 L662.4 618.4 L660.4 616.9 L659.8 615.3 L658.8 615.1 L657.5 612.6 L656.4 611.3 L655.7 611.1 L654.5 608.1 L654.1 605.4 L651.1 601.9 L650.3 598.3 L648.3 596.6 L647 593.8 L643.7 589.9 L642.6 587.7 L642.2 579.1 L643.7 573.9 L643.5 570.4 L645.2 565.8 L644.8 563.4 L646.7 559.4 L646.3 558.6 L646.3 557.8 L646.7 557.9 L646.3 557.8 L646.3 556.7 L646.7 556.8 L646.2 556.5 L647.6 554.1 L647.3 552.5 L648.9 550.7 L648.2 549.6 L647.3 549.4 L645.9 548.1 L645.6 546.6 L644.3 544.7 L644.2 543.2 L643.9 543.5 L642.2 542 L642.1 540.1 L642.6 539 L642 537.1 L643.1 536.3 L643.1 533.8 L643.9 532.6 L643.3 531.9 L643.3 530.6 L644.1 527.9 L643.4 527.1 L643.3 525.9 L641.9 524.2 L642.4 523.9 L642.4 521.7 L643.3 519.2 L642.9 519 L642.3 516.5 L640.7 514.4 L640.6 511.3 L638.7 509.6 L639 506.5 L638.3 505.9 L638.4 504.4 L636.4 502.7 L636.2 501.8 L635.3 501.6 L634.9 499.9 L634.2 499.1 L633.4 499 L632.9 492.4 L634.9 490.1 L637.4 489 L637.2 487.7 L638.5 486.6 L637.6 486.2 L637.6 485.5 L636.9 485.5 L636.6 484.7 L639.7 481.1 L639.1 480.7 L638.9 476.7 L637.7 475.1 L638.1 474.2 L636.7 472.1 L634.3 470.6 L634.6 469.9 L636.5 469.3 L638.4 467.7 L640.2 467.4 L641.6 466.6 L646.1 468.8 L646.8 468.5 L647.9 469.1 L651.7 468.9 L653.7 470 L655.3 470.1 L656.8 467.8 L656.6 465.7 L655.7 463.8 L653.1 460.9 L651.9 458.7 L652 455.8 L650.9 454.9 L649.3 452.1 L648.2 451.4 L648.3 449.3 L647.1 446.6 L647 445.6 L644.9 444.5 L643.3 444.4 L642.1 443.2 L640.7 443.2 L639.8 442.1 L639.7 442.5 L638.8 441.8 L638 439.2 L636 438 L635.1 438 L632.8 436.7 L628.8 437.3 L626.7 436.6 L621.2 430.7 L620.7 427.8 L621.6 426.5 L622 422.8 L621.6 421.2 L620.6 421.2 L621.5 420.8 L622.3 418.5 L623 417.8 L623.4 413.6 L625.3 413.7 L626.2 412.8 L626.3 411.9 L627.5 411 L629.6 410.9 L631.6 410 L632.1 408.9 L634.6 408 L635.2 407.1 L637.9 405.8 L639 403.6 L640.1 403.9 L643 403.1 L646 403.6 L646.8 403.1 L650.1 403.4 L655 402.9 L659.1 400.7 L656.3 400.3 L654.2 399.1 L654 398.5 L649.4 397.2 L646.4 394.1 L646.3 389.5 L651.2 386.3 L651 385.6 L652 382.6 L654.1 380.8 L655.2 380.9 L658.4 379 L662.6 378.6 L662 376.3 L663.4 376.3 L663.6 375.1 L664.6 374.4 L664.7 373.3 L665.3 372.9 L665.3 372.4 L664.7 370.6 L663.3 369.8 L662.1 367.8 L662.2 366.5 L660 367 L657.8 366.7 L657 367.5 L653.8 367.2 L653.8 366.2 L652.7 365.4 L652.4 364.5 L652.2 361.8 L652.6 361 L650.8 359.6 L647.3 359.2 L646.2 358.3 L645.2 358.2 L643.8 356.3 L641.9 355.7 L639.4 354 L638.5 350.8 L639.1 350 L638.9 349.2 L640.2 347.9 L638.5 344.7 L638.5 343.1 L636.3 341.5 L638.5 338.1 L640.2 337 L641.7 337.5 L643.1 338.8 L645 339.2 L645.4 337.7 L645 336.8 L645 335.2 L646.4 333.5 L646 333.4 L646.3 333 L645.3 333 L648.5 330.7 L649.5 329.4 L649.2 328.6 L648.2 328.4 L649.4 328.4 L644 328.4 L639.9 327.4 L637 327.3 L629.2 323 L630 318.6 L629.1 315.8 L626 312.8 L626.3 312.2 L623.9 311.7 L624 308.1 L622.9 305.7 L622.3 305.2 L619.2 304.7 L619.6 303.1 L618.7 302 L618.8 301.1 L619.3 301 L618.7 300.8 L619.2 300.3 L619 299.1 L619.6 298.1 L619.2 295.1 L616.6 292.7 L615.8 290.6 L611.4 288.1 L610.9 286.8 L607.8 285.7 L603.4 281.4 L603.1 280.2 L604.2 279.1 L604 278.1 L604.7 277 L604.8 275.2 L600.6 267.2 L599.7 262.3 L596.5 260.4 L593.3 256.1 L590.9 254.2 L588.5 254 L588.2 252.8 L586.8 252 L587.1 250.9 L584.3 248.4 L582.6 247.6 L581.1 248.1 L579.1 246.3 L575.9 245.3 L573.3 242.8 L567.5 241.3 L562.8 243.2 L560.9 243.2 L560.5 244.1 L559.4 244.5 L556.3 243.6 L554.6 242.5 L545.7 239.8 L544.9 238.7 L545.1 237.1 L543.4 234.6 L537.1 233.3 L531.5 229.3 L531.6 227.5 L532.9 225.5 L537.9 224.6 L541.6 223.2 L541.7 220.7 L543.7 220 L547.7 213.9 L548.5 213.3 L551.5 212.9 L559.1 213.4 L566.8 208.4 L569.9 208 L574.3 203.4 L576 197.9 L581.2 193.2 L583.5 193.9 L586.7 192.7 L587.3 191.7 L587.5 189.3 L588.7 187.3 L593 184 L597.2 178.7 L601.2 175.2 L606.2 169.5 L606.9 164.9 L606.3 163.5 L607.4 162.5 L605.4 160 L605.3 159 L606.9 155.5 L609.7 151.7 L610.9 150.9 L613.6 146 L613.5 142.4 L615 142.4" stroke="#4f7f2d" stroke-width="18" stroke-linecap="round" stroke-linejoin="round"/>
    <path d="M689.7 538 L689.1 538.5 L690 537.6 L688.8 538.3 L688.9 539.1 L685.6 538.5 L685.2 536.1 L683.5 533.2 L682.5 532.9 L681.2 531.3 L679.5 530.7 L678.8 529.5 L677.2 529.3 L676.9 530.1 L675 530.7 L675.1 530.1 L673.8 530.1 L672.4 528 L670.4 527.1 L669.4 524.9 L670.1 524.2 L670.4 525.1 L669.1 525 L668.1 525.9 L666.6 525.8 L665.9 526.2 L667 525.8 L665.8 526.2 L664.4 525 L663.6 525.7 L663.3 525.1 L661.2 525.2 L659.2 523.2 L657.3 523.3 L653.6 525.5 L650.8 525.7 L650.5 526.6 L648.9 527.5 L647.9 529.6 L647.4 529.5 L646.6 530.3 L643.9 531.2 L643.6 529 L644.1 527.8 L643.4 527.1 L643.3 525.9 L641.9 524.2 L642.4 523.8 L642.1 523.5 L640.8 523.9 L638.5 522.7 L637.1 524 L635.8 523.7 L635.6 525.6 L634.9 526.3 L633.4 526 L631.2 523.5 L628.7 524.3 L627.5 523.1 L624.9 523.6 L622.8 525.3 L621.4 524.4 L621.2 523.7 L619.2 523.7 L618.7 524.2 L615.6 524.1 L614.7 524.7 L613.3 524.6 L611.9 523.6 L609.9 523.5 L607.2 524.8 L606.3 524.6 L606.1 525.2 L603.6 526.5 L601 524.9 L600.8 525.3 L600.3 525.2 L599.5 523.8 L599.4 524.1 L598 523.1 L597.7 521.5 L596.7 520.9 L596.6 521.5 L595.1 521.5 L592.5 520.6 L592 522.3 L591.1 522.5 L590.5 523.7 L588.9 523.2 L587.4 524.9 L586 525 L584.9 526 L584.9 526.6 L584.4 526.7 L581 525.5 L577.8 521.5 L574.8 520.3 L573.1 519.1 L569.2 519.1 L566.3 516.8 L564.5 517.4 L562.4 517.3 L562.4 516.7 L562 517.2 L560.8 517.1 L558.9 517.9 L557.8 517.2 L557.7 516.5 L556.8 516.7 L556.2 516.1 L555.5 519.1 L553.9 519.8 L552.3 519.6 L552 520.1 L550.1 524.6 L547.5 527.3 L547.7 528 L546 531.3 L545.9 532.9 L543.3 533.2 L543.1 535.4 L542.3 535.4 L540.4 533.7 L540.1 534.4 L538 534.4 L537.1 533.8 L536.4 534 L535.2 533.4 L534.4 533.7 L534.2 534.7 L533.1 535.1" stroke="#4f7f2d" stroke-width="11" stroke-linecap="round" stroke-linejoin="round" stroke-dasharray="24 26" opacity="0.92"/>
  </g>
  <g fill="#fffaf0" stroke="#20231f" stroke-opacity="0.18" stroke-width="3.5">
    <circle cx="868.5" cy="736" r="13"/>
    <circle cx="615" cy="142.4" r="13"/>
    <circle cx="689.7" cy="538" r="10"/>
    <circle cx="533.1" cy="535.1" r="10"/>
  </g>
  <path d="M72 76H1328V824H72Z" fill="none" stroke="#fffaf0" stroke-opacity="0.42" stroke-width="2"/>
  <rect width="1400" height="900" fill="#3b3020" filter="url(#paperGrain)" opacity="0.24"/>
</svg>
