<svg xmlns="http://www.w3.org/2000/svg" viewBox="0 0 1400 900" role="img" aria-label="中国海岸之路">
  <defs>
    
    <linearGradient id="paper" x1="0" x2="1" y1="0" y2="1">
      <stop offset="0" stop-color="#fffaf0"/>
      <stop offset="0.48" stop-color="#e6eae5"/>
      <stop offset="1" stop-color="#e3c2af"/>
    </linearGradient>
    <filter id="paperGrain" x="0" y="0" width="100%" height="100%">
      <feTurbulence baseFrequency="0.74" numOctaves="2" seed="81" type="fractalNoise"/>
      <feColorMatrix type="saturate" values="0"/>
      <feComponentTransfer>
        <feFuncA type="table" tableValues="0 0.13"/>
      </feComponentTransfer>
    </filter>
    <filter id="assetShadow" x="-18%" y="-18%" width="136%" height="136%">
      <feDropShadow dx="0" dy="18" stdDeviation="18" flood-color="#2f261a" flood-opacity="0.16"/>
    </filter>
    <linearGradient id="inkWash" x1="0" x2="1" y1="0" y2="1">
      <stop offset="0" stop-color="#1f526a" stop-opacity="0.28"/>
      <stop offset="0.52" stop-color="#d88b89" stop-opacity="0.18"/>
      <stop offset="1" stop-color="#723939" stop-opacity="0.22"/>
    </linearGradient>
  </defs>
  <rect width="1400" height="900" fill="url(#paper)"/>
  <rect width="1400" height="900" fill="url(#inkWash)"/>
  <g opacity="0.8">
    <path d="M-900 900 L0 0" fill="none" stroke="#1f78a8" stroke-width="1" stroke-opacity="0.07"/>
  <path d="M-862 900 L38 0" fill="none" stroke="#1f78a8" stroke-width="1" stroke-opacity="0.07"/>
  <path d="M-824 900 L76 0" fill="none" stroke="#1f78a8" stroke-width="1" stroke-opacity="0.07"/>
  <path d="M-786 900 L114 0" fill="none" stroke="#1f78a8" stroke-width="1" stroke-opacity="0.07"/>
  <path d="M-748 900 L152 0" fill="none" stroke="#1f78a8" stroke-width="1" stroke-opacity="0.07"/>
  <path d="M-710 900 L190 0" fill="none" stroke="#1f78a8" stroke-width="1" stroke-opacity="0.07"/>
  <path d="M-672 900 L228 0" fill="none" stroke="#1f78a8" stroke-width="1" stroke-opacity="0.07"/>
  <path d="M-634 900 L266 0" fill="none" stroke="#1f78a8" stroke-width="1" stroke-opacity="0.07"/>
  <path d="M-596 900 L304 0" fill="none" stroke="#1f78a8" stroke-width="1" stroke-opacity="0.07"/>
  <path d="M-558 900 L342 0" fill="none" stroke="#1f78a8" stroke-width="1" stroke-opacity="0.07"/>
  <path d="M-520 900 L380 0" fill="none" stroke="#1f78a8" stroke-width="1" stroke-opacity="0.07"/>
  <path d="M-482 900 L418 0" fill="none" stroke="#1f78a8" stroke-width="1" stroke-opacity="0.07"/>
  <path d="M-444 900 L456 0" fill="none" stroke="#1f78a8" stroke-width="1" stroke-opacity="0.07"/>
  <path d="M-406 900 L494 0" fill="none" stroke="#1f78a8" stroke-width="1" stroke-opacity="0.07"/>
  <path d="M-368 900 L532 0" fill="none" stroke="#1f78a8" stroke-width="1" stroke-opacity="0.07"/>
  <path d="M-330 900 L570 0" fill="none" stroke="#1f78a8" stroke-width="1" stroke-opacity="0.07"/>
  <path d="M-292 900 L608 0" fill="none" stroke="#1f78a8" stroke-width="1" stroke-opacity="0.07"/>
  <path d="M-254 900 L646 0" fill="none" stroke="#1f78a8" stroke-width="1" stroke-opacity="0.07"/>
  <path d="M-216 900 L684 0" fill="none" stroke="#1f78a8" stroke-width="1" stroke-opacity="0.07"/>
  <path d="M-178 900 L722 0" fill="none" stroke="#1f78a8" stroke-width="1" stroke-opacity="0.07"/>
  <path d="M-140 900 L760 0" fill="none" stroke="#1f78a8" stroke-width="1" stroke-opacity="0.07"/>
  <path d="M-102 900 L798 0" fill="none" stroke="#1f78a8" stroke-width="1" stroke-opacity="0.07"/>
  <path d="M-64 900 L836 0" fill="none" stroke="#1f78a8" stroke-width="1" stroke-opacity="0.07"/>
  <path d="M-26 900 L874 0" fill="none" stroke="#1f78a8" stroke-width="1" stroke-opacity="0.07"/>
  <path d="M12 900 L912 0" fill="none" stroke="#1f78a8" stroke-width="1" stroke-opacity="0.07"/>
  <path d="M50 900 L950 0" fill="none" stroke="#1f78a8" stroke-width="1" stroke-opacity="0.07"/>
  <path d="M88 900 L988 0" fill="none" stroke="#1f78a8" stroke-width="1" stroke-opacity="0.07"/>
  <path d="M126 900 L1026 0" fill="none" stroke="#1f78a8" stroke-width="1" stroke-opacity="0.07"/>
  <path d="M164 900 L1064 0" fill="none" stroke="#1f78a8" stroke-width="1" stroke-opacity="0.07"/>
  <path d="M202 900 L1102 0" fill="none" stroke="#1f78a8" stroke-width="1" stroke-opacity="0.07"/>
  <path d="M240 900 L1140 0" fill="none" stroke="#1f78a8" stroke-width="1" stroke-opacity="0.07"/>
  <path d="M278 900 L1178 0" fill="none" stroke="#1f78a8" stroke-width="1" stroke-opacity="0.07"/>
  <path d="M316 900 L1216 0" fill="none" stroke="#1f78a8" stroke-width="1" stroke-opacity="0.07"/>
  <path d="M354 900 L1254 0" fill="none" stroke="#1f78a8" stroke-width="1" stroke-opacity="0.07"/>
  <path d="M392 900 L1292 0" fill="none" stroke="#1f78a8" stroke-width="1" stroke-opacity="0.07"/>
  <path d="M430 900 L1330 0" fill="none" stroke="#1f78a8" stroke-width="1" stroke-opacity="0.07"/>
  <path d="M468 900 L1368 0" fill="none" stroke="#1f78a8" stroke-width="1" stroke-opacity="0.07"/>
  <path d="M506 900 L1406 0" fill="none" stroke="#1f78a8" stroke-width="1" stroke-opacity="0.07"/>
  <path d="M544 900 L1444 0" fill="none" stroke="#1f78a8" stroke-width="1" stroke-opacity="0.07"/>
  <path d="M582 900 L1482 0" fill="none" stroke="#1f78a8" stroke-width="1" stroke-opacity="0.07"/>
  <path d="M620 900 L1520 0" fill="none" stroke="#1f78a8" stroke-width="1" stroke-opacity="0.07"/>
  <path d="M658 900 L1558 0" fill="none" stroke="#1f78a8" stroke-width="1" stroke-opacity="0.07"/>
  <path d="M696 900 L1596 0" fill="none" stroke="#1f78a8" stroke-width="1" stroke-opacity="0.07"/>
  <path d="M734 900 L1634 0" fill="none" stroke="#1f78a8" stroke-width="1" stroke-opacity="0.07"/>
  <path d="M772 900 L1672 0" fill="none" stroke="#1f78a8" stroke-width="1" stroke-opacity="0.07"/>
  <path d="M810 900 L1710 0" fill="none" stroke="#1f78a8" stroke-width="1" stroke-opacity="0.07"/>
  <path d="M848 900 L1748 0" fill="none" stroke="#1f78a8" stroke-width="1" stroke-opacity="0.07"/>
  <path d="M886 900 L1786 0" fill="none" stroke="#1f78a8" stroke-width="1" stroke-opacity="0.07"/>
  <path d="M924 900 L1824 0" fill="none" stroke="#1f78a8" stroke-width="1" stroke-opacity="0.07"/>
  <path d="M962 900 L1862 0" fill="none" stroke="#1f78a8" stroke-width="1" stroke-opacity="0.07"/>
  <path d="M1000 900 L1900 0" fill="none" stroke="#1f78a8" stroke-width="1" stroke-opacity="0.07"/>
  <path d="M1038 900 L1938 0" fill="none" stroke="#1f78a8" stroke-width="1" stroke-opacity="0.07"/>
  <path d="M1076 900 L1976 0" fill="none" stroke="#1f78a8" stroke-width="1" stroke-opacity="0.07"/>
  <path d="M1114 900 L2014 0" fill="none" stroke="#1f78a8" stroke-width="1" stroke-opacity="0.07"/>
  <path d="M1152 900 L2052 0" fill="none" stroke="#1f78a8" stroke-width="1" stroke-opacity="0.07"/>
  <path d="M1190 900 L2090 0" fill="none" stroke="#1f78a8" stroke-width="1" stroke-opacity="0.07"/>
  <path d="M1228 900 L2128 0" fill="none" stroke="#1f78a8" stroke-width="1" stroke-opacity="0.07"/>
  <path d="M1266 900 L2166 0" fill="none" stroke="#1f78a8" stroke-width="1" stroke-opacity="0.07"/>
  <path d="M1304 900 L2204 0" fill="none" stroke="#1f78a8" stroke-width="1" stroke-opacity="0.07"/>
  <path d="M1342 900 L2242 0" fill="none" stroke="#1f78a8" stroke-width="1" stroke-opacity="0.07"/>
  <path d="M1380 900 L2280 0" fill="none" stroke="#1f78a8" stroke-width="1" stroke-opacity="0.07"/>
    <path d="M-112 -128 C252 -200 448 -56 728 -128 S1148 -200 1512 -110" fill="none" stroke="#c44e52" stroke-width="1.2" stroke-opacity="0.16" stroke-linecap="round"/>
  <path d="M-112 0 C252 -72 448 72 728 0 S1148 -72 1512 18" fill="none" stroke="#c44e52" stroke-width="1.2" stroke-opacity="0.16" stroke-linecap="round"/>
  <path d="M-112 128 C252 56 448 200 728 128 S1148 56 1512 146" fill="none" stroke="#c44e52" stroke-width="1.2" stroke-opacity="0.16" stroke-linecap="round"/>
  <path d="M-112 256 C252 184 448 328 728 256 S1148 184 1512 274" fill="none" stroke="#c44e52" stroke-width="1.2" stroke-opacity="0.16" stroke-linecap="round"/>
  <path d="M-112 384 C252 312 448 456 728 384 S1148 312 1512 402" fill="none" stroke="#c44e52" stroke-width="1.2" stroke-opacity="0.16" stroke-linecap="round"/>
  <path d="M-112 512 C252 440 448 584 728 512 S1148 440 1512 530" fill="none" stroke="#c44e52" stroke-width="1.2" stroke-opacity="0.16" stroke-linecap="round"/>
  <path d="M-112 640 C252 568 448 712 728 640 S1148 568 1512 658" fill="none" stroke="#c44e52" stroke-width="1.2" stroke-opacity="0.16" stroke-linecap="round"/>
  <path d="M-112 768 C252 696 448 840 728 768 S1148 696 1512 786" fill="none" stroke="#c44e52" stroke-width="1.2" stroke-opacity="0.16" stroke-linecap="round"/>
  <path d="M-112 896 C252 824 448 968 728 896 S1148 824 1512 914" fill="none" stroke="#c44e52" stroke-width="1.2" stroke-opacity="0.16" stroke-linecap="round"/>
  <path d="M-112 1024 C252 952 448 1096 728 1024 S1148 952 1512 1042" fill="none" stroke="#c44e52" stroke-width="1.2" stroke-opacity="0.16" stroke-linecap="round"/>
  <path d="M-112 1152 C252 1080 448 1224 728 1152 S1148 1080 1512 1170" fill="none" stroke="#c44e52" stroke-width="1.2" stroke-opacity="0.16" stroke-linecap="round"/>
  <path d="M-112 1280 C252 1208 448 1352 728 1280 S1148 1208 1512 1298" fill="none" stroke="#c44e52" stroke-width="1.2" stroke-opacity="0.16" stroke-linecap="round"/>
  </g>
  <text x="82" y="260" fill="#20231f" fill-opacity="0.07" font-family="'Songti SC','STSong','Source Han Serif SC','Noto Serif CJK SC','SimSun',serif" font-size="168" font-weight="900" writing-mode="vertical-rl">沿海之路</text>
  <text x="1296" y="730" text-anchor="end" fill="#20231f" fill-opacity="0.08" font-family="'Avenir Next',Avenir,Arial,sans-serif" font-size="54" font-weight="900" letter-spacing="7">ROUTE 02</text>
  <g transform="translate(978 86)">
    <g transform="rotate(2 41 41)">
    <rect x="0" y="0" width="82" height="82" rx="11.48" fill="#9f3525"/>
    <rect x="8.200000000000001" y="8.200000000000001" width="65.60000000000001" height="65.60000000000001" rx="8.200000000000001" fill="none" stroke="#fff2df" stroke-opacity="0.72" stroke-width="2.87"/>
    <text x="41" y="49.199999999999996" text-anchor="middle" fill="#fff7e8" font-family="'Kaiti SC','STKaiti','FZKai-Z03S','KaiTi','Songti SC','STSong','Noto Serif CJK SC',serif" font-size="37.72" font-weight="900">路</text>
    <text x="41" y="63.96" text-anchor="middle" fill="#fff2df" font-family="'Avenir Next',Avenir,Arial,sans-serif" font-size="11.48" font-weight="900" letter-spacing="0.8">02</text>
  </g>
  </g>
  <g transform="translate(1060 86)">
    <text x="0" y="28" fill="#20231f" fill-opacity="0.68" font-family="'Kaiti SC','STKaiti','FZKai-Z03S','KaiTi','Songti SC','STSong','Noto Serif CJK SC',serif" font-size="25" font-weight="900">沿陆地边缘听海</text>
    <text x="0" y="64" fill="#1f78a8" font-family="'Songti SC','STSong','Source Han Serif SC','Noto Serif CJK SC','SimSun',serif" font-size="36" font-weight="900">中国海岸之路</text>
  </g>
  <g transform="translate(128 628)" opacity="0.82">
    <g transform="translate(0 0) scale(1.1)">
      <path d="M17 91 C43 63 69 113 97 89 S154 63 183 88 S230 114 254 88" fill="none" stroke-linecap="round" stroke-linejoin="round" stroke="#1f78a8" stroke-width="7"/>
      <path d="M34 49 C61 22 93 28 119 55 C141 78 171 81 196 58 C215 42 237 41 254 53" fill="none" stroke-linecap="round" stroke-linejoin="round" stroke="#c44e52" stroke-width="5"/>
      <path d="M105 38 L158 13 L194 39" fill="none" stroke-linecap="round" stroke-linejoin="round" stroke="#1f78a8" stroke-width="4.4" opacity="0.74"/></g>
  </g>
  <g fill="none" filter="url(#assetShadow)">
    <path d="M1022.7 158 L1020.7 157.2 L1021.2 156.4 L1019.5 154.3 L1019.8 153.5 L1019.4 152.3 L1016.9 151.8 L1015.9 151.1 L1016 150.3 L1014.7 147.3 L1015.2 146.3 L1014.3 145.3 L1013 145.1 L1011.8 144.1 L1010.4 144.1 L1010.2 143 L1009.2 141.7 L1006 142.4 L1004.1 140.8 L1001.2 141.5 L1001.3 142.2 L999.9 142.3 L1000.6 143.7 L999.9 143.8 L999.6 145.2 L998.9 145.9 L998.8 147.6 L997.3 149 L997.9 150.2 L997.5 150.8 L998.2 151.5 L997.4 151.4 L997.8 152 L997.4 152.3 L998.2 152.7 L997.6 152.7 L996.6 153.8 L997.1 156.3 L996.2 157.5 L994.4 157.7 L993.7 156.8 L993.2 156.9 L992.6 157.3 L993.3 157.4 L992.9 158.2 L992.4 158.2 L991.6 159.4 L988.8 157.4 L988.1 157.6 L987.3 157.1 L986.8 157.8 L986.3 157.6 L986.4 157 L985.7 157.2 L985.2 158 L984.7 158 L984.9 158.4 L984.6 158.5 L985.1 159 L982.9 159.1 L982.4 159.9 L982.9 160.7 L981.5 161 L982.5 161.3 L981 162.7 L981.1 163.3 L981.7 163.2 L981.7 164 L979.4 165.4 L979.3 166 L978 165.5 L976.6 166.4 L976.4 167.1 L974.9 167.2 L974.4 167.7 L974.6 168.8 L974 169.5 L968.5 168.5 L967 169.4 L965.5 168.9 L964.4 169.3 L963.9 170 L961.6 170 L959.7 169.1 L955.5 168.8 L954 167.5 L952.4 162.9 L950.3 159.8 L950.9 157.8 L949.5 157.6 L947.8 159.4 L945.3 160.4 L943.7 160.4 L941.4 162.3 L941 164.5 L941.3 165.3 L939.4 167.4 L938.6 167.6 L937.9 169.7 L937.4 170.1 L935 170.3 L938.5 173.7 L941.5 174.3 L943.5 174.1 L944.8 174.5 L945.7 175.1 L945.7 176.2 L949.4 177.9 L949.6 178.4 L949.6 177.9 L950.3 177.7 L950.9 176.7 L950.2 175.8 L951.6 176.3 L952.2 178.2 L955.3 179.7 L955.6 180.7 L956 180.6 L955.7 181 L956.4 181.3 L956.4 182.1 L955.8 182.5 L955.9 183.1 L954.1 184.3 L954.2 185.7 L951.9 187.5 L950.6 188 L950.1 187.8 L950.4 187.1 L948.7 187.2 L948.4 186.2 L947.7 186.2 L947.9 185.8 L947.1 186.5 L945.6 185.4 L945 185.9 L943.7 185.7 L943.7 186.6 L942.8 186.5 L942.7 186.8 L942 186.4 L941.6 186.8 L941.2 186.3 L938.2 186.6 L937.7 186.2 L937.7 186.8 L936.6 186.1 L934.9 185.9 L934.5 184.9 L933.8 185.1 L932.4 184.7 L932 185.3 L930.9 185.3 L930.1 184.7 L928.9 185.2 L926.3 184.7 L927.1 183.9 L926 184.1 L925 183.3 L922.3 182.9 L923.1 181.9 L924.2 181.5 L922.6 181.3 L922.7 180.7 L921.6 180.7 L922 180.1 L921.2 180.1 L920.2 179.4 L920.4 178.8 L921.1 178.9 L921.3 178.4 L920.6 178.3 L920.5 177.3 L917.3 176.3 L917.6 175.5 L916.9 175.3 L915.7 176 L914.4 177.7 L913.5 177.1 L912.8 178.5 L911.7 177.3 L910.3 177 L910 177.6 L910.9 178.3 L910.1 179.3 L909.1 179.6 L908 179.2 L907.4 180.7 L905.3 180.7 L905.5 182 L907.1 182.5 L905.5 184.4 L903.3 184.8 L902.4 185.4 L903.3 188 L902.8 188.9 L900.6 190.5 L900.7 191.3 L899.7 191.9 L898.6 193.6 L895.5 194.9 L895.2 195.7 L894.1 195.8 L893.8 196.5 L892 197.2 L891.4 198.1 L888.9 198.7 L885.9 201 L884.5 201.3 L883.7 199.9 L882.4 199.4 L880.9 199.7 L879.8 201 L879.9 201.4 L880.7 201 L881.6 201.5 L882 202 L881.4 202.3 L881.7 202.6 L879.5 204.2 L878.7 204.5 L878.2 204.1 L878.4 204.4 L878 204.4 L878.3 204.5 L877.4 205.4 L877 205.2 L876.8 206.2 L874.4 205.4 L874.8 206.9 L874.5 207 L871.8 207.5 L870.9 207.2 L869.9 206.1 L869.4 207.2 L868.8 207.4 L867.9 207.3 L867.4 206.7 L866.7 207 L866.9 207.4 L864.3 207.1 L863.2 208.2 L862.9 207.8 L861.6 208.2 L860.3 207.6 L857.3 211.3 L856.4 214.3 L855.9 214.5 L856.4 214.9 L856.2 215.4 L849.2 220.1 L848.1 220.2 L847.5 221.5 L846.4 222 L843.4 224.7 L843.1 225.4 L844.1 226.1 L843.8 227.1 L841.8 228 L841.6 228.8 L840 229.2 L839.4 230.9 L837.4 230.9 L837.2 231.4 L833.8 232.4 L828.9 231.3 L825 232.2 L823.9 231.4 L824.5 230.6 L823.9 229.2 L822 230.1 L821.1 229.9 L817.4 230.9 L816.3 232.2 L812.6 232.8 L811.6 233.9 L811.6 235 L810.2 236.1 L809.1 236.3 L808.1 235.5 L806.3 236 L803.9 237.6 L801.4 237.8 L797.3 239.7 L795 239.9 L793.5 241.8 L789.6 242 L787.9 242.5 L787.5 242.9 L787.8 243.7 L782.9 245.9 L783.6 247.3 L779.4 249.3 L779.3 250.3 L780.4 251 L778.9 252 L778.1 251.7 L777.3 252 L777.1 252.7 L777.4 253.1 L776.2 253.4 L775.7 254.4 L774 253.1 L771.3 254.2 L771.8 254.9 L770.9 255.2 L770.7 254.6 L769.1 254.3 L765.9 254.8 L765.3 256.8 L766.4 256.3 L766.8 257.5 L768.6 258 L768.1 259.2 L767.4 258.8 L767.4 259.2 L765.9 259.2 L764.9 258.4 L762.8 259.8 L761.3 259.4 L759.8 260.2 L758.6 259.5 L758.2 260.3 L757 261 L755.1 260.8 L753.7 261.2 L752.2 260.4 L749.8 264.9 L747 275.2 L743.3 283.7 L742.8 286.8 L744.1 289.2 L743.8 290.1 L746.7 290.4 L754.7 297 L758.1 296.7 L760.3 297.2 L761.8 300.2 L764.1 301.1 L771.2 300.4 L773.4 300 L773.3 299.4 L776.6 298.5 L776.9 298 L779.1 298 L780.3 298.6 L779.8 298.6 L780.5 299.1 L780.2 299.5 L780.7 300.8 L781.9 300.7 L782.1 300.1 L784.2 300 L786.2 300.7 L789.8 300.4 L792.8 301 L794.5 300.6 L794.5 301.3 L792.3 301.8 L792.3 304.3 L793.3 306.7 L790.6 307.8 L789.9 308.7 L788.6 308.8 L788.8 311 L789.4 311.8 L789.3 314.3 L788.3 314.7 L788.8 315.6 L786.1 316.1 L785.1 315.7 L784.9 314.2 L782.6 314 L781.1 313.2 L776.3 313 L775.2 313.6 L773.1 313.9 L772.5 314.7 L769.9 315.7 L769.4 316.7 L768.2 317.1 L765.4 317.9 L763.4 317.9 L761.5 318.7 L760.3 318.6 L759 319.4 L754.2 320.1 L751 321.5 L748.3 322 L748.7 323.5 L747.1 324 L747.2 325.4 L746.2 327.2 L744.8 327.6 L742.6 326.7 L741.2 327.2 L739.2 329.6 L739.2 330.4 L733.7 336.2 L733.5 337.5 L731.3 338.4 L728.8 338.6 L728 339.4 L727.8 341.2 L720.2 344.5 L717.2 347.7 L717.2 349.1 L716.3 350.8 L712.2 350.3 L711 351 L709.5 351 L706.5 353.8 L705.5 353.7 L704 355.1 L703.2 356.6 L701.7 357.1 L701.7 358.2 L703.1 359.1 L701.2 363.8 L697.6 367.1 L696.5 370.3 L694.7 372.9 L696.5 373.3 L697 376 L700 376.7 L703.7 378.5 L705.4 380.6 L709.9 384.2 L711.6 384.8 L713.2 386.2 L714.5 386.1 L718.1 388.2 L722.5 389.4 L724.8 391.9 L728 394 L730.7 398.6 L730.5 405.2 L731.6 407.5 L732 410.1 L733 411.8 L734.6 413.1 L736.1 415.1 L736.2 417 L738.4 420.7 L739.7 421.3 L740.6 423.2 L740.5 424.4 L741.8 426.6 L743.9 428 L745.8 430.9 L745 434.1 L745 437.6 L754.4 441.6 L755.3 442.3 L756.3 442.5 L756.4 443 L756.9 443 L757 443.5 L759.2 443.7 L759.4 447.5 L758.8 448.6 L759.2 451.9 L763.6 451.7 L768.9 453.6 L771.6 456.3 L771.9 458.1 L774.1 461.4 L774.1 461.8 L772.4 462.2 L768.2 460.6 L766.9 464.2 L767.2 464.7 L771.9 467 L768.9 471.5 L767.8 474.1 L766.9 474.3 L768.1 474.9 L769.6 477.3 L770.5 479.8 L770.7 484 L770.3 484.8 L772.9 486.1 L772.4 486.4 L768.6 486.6 L765.2 486.4 L762.2 487.4 L759.1 489.9 L754 491.7 L748.8 494.3 L752.9 499.6 L753.8 503.1 L757.7 503.7 L754 503.5 L754.7 503.2 L754.4 505.1 L756.6 505.5 L755.5 511.1 L759.2 512.1 L762.8 513.7 L762.7 515.7 L761.1 518.7 L761 521.9 L760.2 522.7 L760.3 524.7 L761.5 525.8 L760.8 527.9 L761.8 529.9 L760.4 532.5 L762.6 534.8 L761.9 535.5 L762.1 537.3 L764.1 537 L765.9 538 L765.5 539.5 L765.8 544.4 L764.9 544.6 L764.7 546 L765.4 547.4 L761.8 548.3 L761.7 549.2 L765.1 557.3 L765 557 L765 557.3 L763.5 557.8 L761.1 557.8 L758.9 557.3 L758.3 556.8 L756.7 556.9 L755.5 558.7 L755.2 560.5 L754 562.1 L754.5 562.9 L752.7 561.7 L751.2 561.6 L751.2 561 L751.8 561.3 L751.6 562.4 L750.3 564 L748.9 564.9 L747.7 568.3 L744.5 570.1 L741.7 573.5 L738.3 576.4 L737.5 577.8 L736.3 578.8 L737.3 583.1 L737.1 583.7 L735.9 584.5 L735.9 584.2 L735.4 585.5 L735.1 585.6 L734.7 588.2 L733.3 589.6 L731.8 589 L731.9 588.7 L730.7 589.8 L729 587.9 L728.5 588.8 L729.1 589.4 L727.8 590.5 L728.7 590.9 L729.3 592.1 L726.8 593.3 L727.1 594.9 L725.9 596.9 L725.4 597 L725 598.1 L722.2 599 L721.9 599.9 L720.5 599.9 L720.8 601.8 L719.8 602.6 L717 602.6 L715.7 603.1 L715.7 602.2 L714.9 601.7 L716.2 601 L715.3 600.8 L714.5 601.5 L714.2 601 L710.6 602.1 L711 602.5 L710.5 603.7 L708.8 603.7 L709.2 603.4 L709.1 602.5 L708.3 603 L707.8 602.7 L707.5 603.5 L706.9 603.8 L707 605 L706 606.1 L707.4 608.2 L708.5 608.7 L708.4 609.3 L709.4 608.2 L710.4 608 L709.4 608.2 L708.8 608.7 L710 608 L711.9 607.8 L712.7 608.3 L713 609.8 L713.6 610 L711.6 612.3 L711.2 612 L710 612.8 L710.1 613.9 L709.7 614.8 L710.4 615.3 L710.3 616.3 L711.7 616.6 L711.5 616.9 L710.9 617.5 L708.2 618.2 L709.1 618.7 L709.1 620.1 L707.2 621.1 L706.3 622.3 L707.8 623 L707.6 623.9 L708.3 624 L711.1 626 L710.1 627.1 L708.9 627.6 L707.4 629.5 L708.6 631.9 L708.3 633.2 L707.8 634 L707.3 633.8 L704.6 634.6 L704.6 635.7 L703.8 635.6 L703.4 635 L702.7 635.4 L701.2 638 L702.6 637.9 L702.4 638.2 L701.1 638 L699.7 636.8 L698 639.8 L697.1 639.7 L697.2 640.4 L695.3 641.4 L694.7 642.6 L694.9 643.6 L692.4 644.6 L691.7 645.7 L687.9 646.8 L688.2 647.3 L689.4 647.5 L690.6 648.6 L689.6 649.7 L689.6 650.7 L687 651.4 L689.2 654.5 L688.1 656.7 L683.3 658.1 L682.2 659.5 L682.1 660.1 L681.5 659.9 L683.2 659.6 L683.8 660.3 L685.1 660.3 L684.9 661 L682.8 663 L681.9 662.6 L681.4 663 L681.6 664.6 L682.3 664.4 L681.5 665.8 L679.8 667 L678.9 665.6 L676.5 663.7 L675.9 662.2 L675.3 662.7 L674.8 664.3 L672.8 665.2 L671.6 665.1 L669.5 665.6 L667.5 668 L665.6 668.3 L664 667.8 L663.3 668.3 L661.3 668.4 L661.8 668.6 L661.5 669.7 L662.5 671.6 L662.3 672.2 L663.4 672.2 L664.1 672.8 L665.1 672.3 L666.3 673.5 L666.5 674.3 L664.7 674.7 L663.4 676.3 L660.9 678 L658.8 681.2 L658.2 681.4 L657 680.8 L655.1 681 L654.2 682 L654.2 683.6 L653 684.5 L648.9 684.5 L648.4 685.5 L648.7 686.5 L647.5 687.8 L646.1 688.3 L645.4 686.6 L644.5 687.8 L643.2 687.7 L642.2 688.4 L641.1 690.6 L640.4 689.6 L639.7 689.6 L638.2 690 L637.8 690.8 L634.4 692.2 L633.6 692.9 L632.4 691.8 L631.6 692.2 L630.7 693.2 L631.1 693.4 L629 695.7 L628.1 698.8 L626.4 699.8 L625 699.8 L624.9 701.4 L624.3 701.8 L625.2 703.8 L624 704.8 L623.5 704.6 L621.9 705.1 L620.6 706.8 L621 708.1 L618.4 709.7 L615 709.7 L611.8 710.5 L610.6 711.1 L610.3 712 L607.8 714.2 L603.3 713.4 L601.4 715.6 L600.3 715.7 L597.5 714.7 L597 713.8 L596.2 713.9 L595.4 712 L591 712 L588.3 711.3 L587.2 712 L584.2 712.7 L582.3 715.1 L582.3 716.2 L579.9 716.4 L579.1 715.5 L576 715.5 L575.4 716.4 L573.9 717.2 L573.1 716.8 L571.4 714.3 L570.4 715.8 L567.9 716.4 L566.8 717.3 L563.5 717.8 L563.9 718.9 L562.9 721 L560.8 721.7 L557.7 722 L557.7 722.3 L557.6 722 L556.3 722.8 L554 721.4 L553.9 720.5 L548.8 719.5 L546.8 720.4 L545.4 720.6 L544.7 721.7 L540.6 723.6 L539 723.3 L534.9 723.7 L533.6 724.4 L534.6 724.4 L535.9 726.3 L534.5 728.9 L536.3 728.4 L537.6 728.8 L537.4 729.3 L537.7 730 L537 730.6 L537 731.8 L536.4 732.9 L536.2 732.4 L533.5 733.2 L528.9 736.4 L527.2 734.5 L527 733 L522.9 733 L521.2 735.2 L519.6 735.9 L518.9 737.4 L516.7 737.8 L516.3 739.7 L514.2 740.3 L512.8 741.3 L511.7 743.1 L510.7 742.8 L509.9 743.8 L508.1 744 L504.5 742.2 L503.2 742.1 L503.8 744.5 L502.1 747.1 L500.6 746.7 L499.2 747.1 L498.1 746.4 L497.8 745.4 L498.4 744.8 L498.2 743.9 L491.1 744.5 L489.1 744.1 L489 742.8 L485.9 742.7 L484.1 744 L481.8 744.4 L479.6 747.7 L477.4 749.1 L477 749.8 L473 752 L472.7 752.8 L468.5 752.3 L467.9 752.9 L466.6 753 L463.7 752.3 L463.1 753.4 L460.3 755 L458.1 755.3 L453.4 757.7 L450.3 757.7 L446.6 756.3 L445.7 757.4 L445.8 758.2 L444.3 759.2 L443.1 758.9 L442.3 757.3 L441.3 757.9 L438.4 756.2 L436.3 753.2 L429.9 750.4 L427.6 750.4 L427.2 749.2 L427.4 748.4 L426.7 748.4 L425.3 746 L423.8 745.1 L420.9 747.4 L420.4 749.8 L421.3 751.6 L420.6 752.1 L414.9 753.2 L411.3 753.2 L412.4 749.4 L410.9 747.5 L410.2 747.4 L410.6 747.5 L410.1 746.4 L407.8 745.8 L406 744.8 L404.1 744.6 L400.4 742.7 L399.6 741.8 L398.3 741.4 L398 742.5 L398.4 744 L399.7 745.6 L399.8 747.2 L398.6 747.8 L395.2 746.1 L393.6 746.3 L391.3 747.7 L389 747.7 L388.1 749.5 L384.6 749.8 L381.1 751.2 L377.3 751.9" stroke="#c0d6dc" stroke-width="34" stroke-linecap="round" stroke-linejoin="round" opacity="0.92"/>
    <path d="M759.7 649.2 L760.7 649.3 L761.5 650.2 L761 648.3 L761.4 646.8 L762.7 646.4 L763.2 645.7 L764.8 645.4 L766.3 646.3 L766.4 647.6 L768.5 648.9 L768.4 649.8 L769.5 650.2 L770.2 649.5 L771.7 650.4 L774.4 650.3 L774.7 653.1 L776.9 653.6 L774.6 654.7 L771.8 658 L771.5 660 L772.1 664 L771.9 664.7 L772.9 665.6 L773.1 667.1 L772 667.6 L772.1 668.1 L771.7 668.9 L770.5 669.3 L770.7 671.7 L770.1 673.1 L769.4 673.1 L769.8 673.8 L769.3 675 L767.3 676.4 L766.8 678.8 L765.9 679.3 L766.4 682.5 L765.3 684 L765.5 685.4 L764.2 688.7 L764 690.9 L762.7 695.7 L762.8 697 L762.2 697.5 L762.4 698.2 L761.4 701.7 L759.6 704.9 L759.7 707.1 L758.5 708 L757.1 711.6 L755.7 713.5 L753.7 715 L753.9 716.6 L752.6 718 L749.9 719.1 L748.9 720.7 L745.3 729.5 L745.2 730.8 L742.8 732.3 L742.4 733.1 L739.6 733.7 L740.2 737.3 L740.9 738.2 L741.4 740.2 L744.2 742 L743.7 739.4" stroke="#c0d6dc" stroke-width="25" stroke-linecap="round" stroke-linejoin="round" stroke-dasharray="28 30" opacity="0.76"/>
    <path d="M1022.7 158 L1020.7 157.2 L1021.2 156.4 L1019.5 154.3 L1019.8 153.5 L1019.4 152.3 L1016.9 151.8 L1015.9 151.1 L1016 150.3 L1014.7 147.3 L1015.2 146.3 L1014.3 145.3 L1013 145.1 L1011.8 144.1 L1010.4 144.1 L1010.2 143 L1009.2 141.7 L1006 142.4 L1004.1 140.8 L1001.2 141.5 L1001.3 142.2 L999.9 142.3 L1000.6 143.7 L999.9 143.8 L999.6 145.2 L998.9 145.9 L998.8 147.6 L997.3 149 L997.9 150.2 L997.5 150.8 L998.2 151.5 L997.4 151.4 L997.8 152 L997.4 152.3 L998.2 152.7 L997.6 152.7 L996.6 153.8 L997.1 156.3 L996.2 157.5 L994.4 157.7 L993.7 156.8 L993.2 156.9 L992.6 157.3 L993.3 157.4 L992.9 158.2 L992.4 158.2 L991.6 159.4 L988.8 157.4 L988.1 157.6 L987.3 157.1 L986.8 157.8 L986.3 157.6 L986.4 157 L985.7 157.2 L985.2 158 L984.7 158 L984.9 158.4 L984.6 158.5 L985.1 159 L982.9 159.1 L982.4 159.9 L982.9 160.7 L981.5 161 L982.5 161.3 L981 162.7 L981.1 163.3 L981.7 163.2 L981.7 164 L979.4 165.4 L979.3 166 L978 165.5 L976.6 166.4 L976.4 167.1 L974.9 167.2 L974.4 167.7 L974.6 168.8 L974 169.5 L968.5 168.5 L967 169.4 L965.5 168.9 L964.4 169.3 L963.9 170 L961.6 170 L959.7 169.1 L955.5 168.8 L954 167.5 L952.4 162.9 L950.3 159.8 L950.9 157.8 L949.5 157.6 L947.8 159.4 L945.3 160.4 L943.7 160.4 L941.4 162.3 L941 164.5 L941.3 165.3 L939.4 167.4 L938.6 167.6 L937.9 169.7 L937.4 170.1 L935 170.3 L938.5 173.7 L941.5 174.3 L943.5 174.1 L944.8 174.5 L945.7 175.1 L945.7 176.2 L949.4 177.9 L949.6 178.4 L949.6 177.9 L950.3 177.7 L950.9 176.7 L950.2 175.8 L951.6 176.3 L952.2 178.2 L955.3 179.7 L955.6 180.7 L956 180.6 L955.7 181 L956.4 181.3 L956.4 182.1 L955.8 182.5 L955.9 183.1 L954.1 184.3 L954.2 185.7 L951.9 187.5 L950.6 188 L950.1 187.8 L950.4 187.1 L948.7 187.2 L948.4 186.2 L947.7 186.2 L947.9 185.8 L947.1 186.5 L945.6 185.4 L945 185.9 L943.7 185.7 L943.7 186.6 L942.8 186.5 L942.7 186.8 L942 186.4 L941.6 186.8 L941.2 186.3 L938.2 186.6 L937.7 186.2 L937.7 186.8 L936.6 186.1 L934.9 185.9 L934.5 184.9 L933.8 185.1 L932.4 184.7 L932 185.3 L930.9 185.3 L930.1 184.7 L928.9 185.2 L926.3 184.7 L927.1 183.9 L926 184.1 L925 183.3 L922.3 182.9 L923.1 181.9 L924.2 181.5 L922.6 181.3 L922.7 180.7 L921.6 180.7 L922 180.1 L921.2 180.1 L920.2 179.4 L920.4 178.8 L921.1 178.9 L921.3 178.4 L920.6 178.3 L920.5 177.3 L917.3 176.3 L917.6 175.5 L916.9 175.3 L915.7 176 L914.4 177.7 L913.5 177.1 L912.8 178.5 L911.7 177.3 L910.3 177 L910 177.6 L910.9 178.3 L910.1 179.3 L909.1 179.6 L908 179.2 L907.4 180.7 L905.3 180.7 L905.5 182 L907.1 182.5 L905.5 184.4 L903.3 184.8 L902.4 185.4 L903.3 188 L902.8 188.9 L900.6 190.5 L900.7 191.3 L899.7 191.9 L898.6 193.6 L895.5 194.9 L895.2 195.7 L894.1 195.8 L893.8 196.5 L892 197.2 L891.4 198.1 L888.9 198.7 L885.9 201 L884.5 201.3 L883.7 199.9 L882.4 199.4 L880.9 199.7 L879.8 201 L879.9 201.4 L880.7 201 L881.6 201.5 L882 202 L881.4 202.3 L881.7 202.6 L879.5 204.2 L878.7 204.5 L878.2 204.1 L878.4 204.4 L878 204.4 L878.3 204.5 L877.4 205.4 L877 205.2 L876.8 206.2 L874.4 205.4 L874.8 206.9 L874.5 207 L871.8 207.5 L870.9 207.2 L869.9 206.1 L869.4 207.2 L868.8 207.4 L867.9 207.3 L867.4 206.7 L866.7 207 L866.9 207.4 L864.3 207.1 L863.2 208.2 L862.9 207.8 L861.6 208.2 L860.3 207.6 L857.3 211.3 L856.4 214.3 L855.9 214.5 L856.4 214.9 L856.2 215.4 L849.2 220.1 L848.1 220.2 L847.5 221.5 L846.4 222 L843.4 224.7 L843.1 225.4 L844.1 226.1 L843.8 227.1 L841.8 228 L841.6 228.8 L840 229.2 L839.4 230.9 L837.4 230.9 L837.2 231.4 L833.8 232.4 L828.9 231.3 L825 232.2 L823.9 231.4 L824.5 230.6 L823.9 229.2 L822 230.1 L821.1 229.9 L817.4 230.9 L816.3 232.2 L812.6 232.8 L811.6 233.9 L811.6 235 L810.2 236.1 L809.1 236.3 L808.1 235.5 L806.3 236 L803.9 237.6 L801.4 237.8 L797.3 239.7 L795 239.9 L793.5 241.8 L789.6 242 L787.9 242.5 L787.5 242.9 L787.8 243.7 L782.9 245.9 L783.6 247.3 L779.4 249.3 L779.3 250.3 L780.4 251 L778.9 252 L778.1 251.7 L777.3 252 L777.1 252.7 L777.4 253.1 L776.2 253.4 L775.7 254.4 L774 253.1 L771.3 254.2 L771.8 254.9 L770.9 255.2 L770.7 254.6 L769.1 254.3 L765.9 254.8 L765.3 256.8 L766.4 256.3 L766.8 257.5 L768.6 258 L768.1 259.2 L767.4 258.8 L767.4 259.2 L765.9 259.2 L764.9 258.4 L762.8 259.8 L761.3 259.4 L759.8 260.2 L758.6 259.5 L758.2 260.3 L757 261 L755.1 260.8 L753.7 261.2 L752.2 260.4 L749.8 264.9 L747 275.2 L743.3 283.7 L742.8 286.8 L744.1 289.2 L743.8 290.1 L746.7 290.4 L754.7 297 L758.1 296.7 L760.3 297.2 L761.8 300.2 L764.1 301.1 L771.2 300.4 L773.4 300 L773.3 299.4 L776.6 298.5 L776.9 298 L779.1 298 L780.3 298.6 L779.8 298.6 L780.5 299.1 L780.2 299.5 L780.7 300.8 L781.9 300.7 L782.1 300.1 L784.2 300 L786.2 300.7 L789.8 300.4 L792.8 301 L794.5 300.6 L794.5 301.3 L792.3 301.8 L792.3 304.3 L793.3 306.7 L790.6 307.8 L789.9 308.7 L788.6 308.8 L788.8 311 L789.4 311.8 L789.3 314.3 L788.3 314.7 L788.8 315.6 L786.1 316.1 L785.1 315.7 L784.9 314.2 L782.6 314 L781.1 313.2 L776.3 313 L775.2 313.6 L773.1 313.9 L772.5 314.7 L769.9 315.7 L769.4 316.7 L768.2 317.1 L765.4 317.9 L763.4 317.9 L761.5 318.7 L760.3 318.6 L759 319.4 L754.2 320.1 L751 321.5 L748.3 322 L748.7 323.5 L747.1 324 L747.2 325.4 L746.2 327.2 L744.8 327.6 L742.6 326.7 L741.2 327.2 L739.2 329.6 L739.2 330.4 L733.7 336.2 L733.5 337.5 L731.3 338.4 L728.8 338.6 L728 339.4 L727.8 341.2 L720.2 344.5 L717.2 347.7 L717.2 349.1 L716.3 350.8 L712.2 350.3 L711 351 L709.5 351 L706.5 353.8 L705.5 353.7 L704 355.1 L703.2 356.6 L701.7 357.1 L701.7 358.2 L703.1 359.1 L701.2 363.8 L697.6 367.1 L696.5 370.3 L694.7 372.9 L696.5 373.3 L697 376 L700 376.7 L703.7 378.5 L705.4 380.6 L709.9 384.2 L711.6 384.8 L713.2 386.2 L714.5 386.1 L718.1 388.2 L722.5 389.4 L724.8 391.9 L728 394 L730.7 398.6 L730.5 405.2 L731.6 407.5 L732 410.1 L733 411.8 L734.6 413.1 L736.1 415.1 L736.2 417 L738.4 420.7 L739.7 421.3 L740.6 423.2 L740.5 424.4 L741.8 426.6 L743.9 428 L745.8 430.9 L745 434.1 L745 437.6 L754.4 441.6 L755.3 442.3 L756.3 442.5 L756.4 443 L756.9 443 L757 443.5 L759.2 443.7 L759.4 447.5 L758.8 448.6 L759.2 451.9 L763.6 451.7 L768.9 453.6 L771.6 456.3 L771.9 458.1 L774.1 461.4 L774.1 461.8 L772.4 462.2 L768.2 460.6 L766.9 464.2 L767.2 464.7 L771.9 467 L768.9 471.5 L767.8 474.1 L766.9 474.3 L768.1 474.9 L769.6 477.3 L770.5 479.8 L770.7 484 L770.3 484.8 L772.9 486.1 L772.4 486.4 L768.6 486.6 L765.2 486.4 L762.2 487.4 L759.1 489.9 L754 491.7 L748.8 494.3 L752.9 499.6 L753.8 503.1 L757.7 503.7 L754 503.5 L754.7 503.2 L754.4 505.1 L756.6 505.5 L755.5 511.1 L759.2 512.1 L762.8 513.7 L762.7 515.7 L761.1 518.7 L761 521.9 L760.2 522.7 L760.3 524.7 L761.5 525.8 L760.8 527.9 L761.8 529.9 L760.4 532.5 L762.6 534.8 L761.9 535.5 L762.1 537.3 L764.1 537 L765.9 538 L765.5 539.5 L765.8 544.4 L764.9 544.6 L764.7 546 L765.4 547.4 L761.8 548.3 L761.7 549.2 L765.1 557.3 L765 557 L765 557.3 L763.5 557.8 L761.1 557.8 L758.9 557.3 L758.3 556.8 L756.7 556.9 L755.5 558.7 L755.2 560.5 L754 562.1 L754.5 562.9 L752.7 561.7 L751.2 561.6 L751.2 561 L751.8 561.3 L751.6 562.4 L750.3 564 L748.9 564.9 L747.7 568.3 L744.5 570.1 L741.7 573.5 L738.3 576.4 L737.5 577.8 L736.3 578.8 L737.3 583.1 L737.1 583.7 L735.9 584.5 L735.9 584.2 L735.4 585.5 L735.1 585.6 L734.7 588.2 L733.3 589.6 L731.8 589 L731.9 588.7 L730.7 589.8 L729 587.9 L728.5 588.8 L729.1 589.4 L727.8 590.5 L728.7 590.9 L729.3 592.1 L726.8 593.3 L727.1 594.9 L725.9 596.9 L725.4 597 L725 598.1 L722.2 599 L721.9 599.9 L720.5 599.9 L720.8 601.8 L719.8 602.6 L717 602.6 L715.7 603.1 L715.7 602.2 L714.9 601.7 L716.2 601 L715.3 600.8 L714.5 601.5 L714.2 601 L710.6 602.1 L711 602.5 L710.5 603.7 L708.8 603.7 L709.2 603.4 L709.1 602.5 L708.3 603 L707.8 602.7 L707.5 603.5 L706.9 603.8 L707 605 L706 606.1 L707.4 608.2 L708.5 608.7 L708.4 609.3 L709.4 608.2 L710.4 608 L709.4 608.2 L708.8 608.7 L710 608 L711.9 607.8 L712.7 608.3 L713 609.8 L713.6 610 L711.6 612.3 L711.2 612 L710 612.8 L710.1 613.9 L709.7 614.8 L710.4 615.3 L710.3 616.3 L711.7 616.6 L711.5 616.9 L710.9 617.5 L708.2 618.2 L709.1 618.7 L709.1 620.1 L707.2 621.1 L706.3 622.3 L707.8 623 L707.6 623.9 L708.3 624 L711.1 626 L710.1 627.1 L708.9 627.6 L707.4 629.5 L708.6 631.9 L708.3 633.2 L707.8 634 L707.3 633.8 L704.6 634.6 L704.6 635.7 L703.8 635.6 L703.4 635 L702.7 635.4 L701.2 638 L702.6 637.9 L702.4 638.2 L701.1 638 L699.7 636.8 L698 639.8 L697.1 639.7 L697.2 640.4 L695.3 641.4 L694.7 642.6 L694.9 643.6 L692.4 644.6 L691.7 645.7 L687.9 646.8 L688.2 647.3 L689.4 647.5 L690.6 648.6 L689.6 649.7 L689.6 650.7 L687 651.4 L689.2 654.5 L688.1 656.7 L683.3 658.1 L682.2 659.5 L682.1 660.1 L681.5 659.9 L683.2 659.6 L683.8 660.3 L685.1 660.3 L684.9 661 L682.8 663 L681.9 662.6 L681.4 663 L681.6 664.6 L682.3 664.4 L681.5 665.8 L679.8 667 L678.9 665.6 L676.5 663.7 L675.9 662.2 L675.3 662.7 L674.8 664.3 L672.8 665.2 L671.6 665.1 L669.5 665.6 L667.5 668 L665.6 668.3 L664 667.8 L663.3 668.3 L661.3 668.4 L661.8 668.6 L661.5 669.7 L662.5 671.6 L662.3 672.2 L663.4 672.2 L664.1 672.8 L665.1 672.3 L666.3 673.5 L666.5 674.3 L664.7 674.7 L663.4 676.3 L660.9 678 L658.8 681.2 L658.2 681.4 L657 680.8 L655.1 681 L654.2 682 L654.2 683.6 L653 684.5 L648.9 684.5 L648.4 685.5 L648.7 686.5 L647.5 687.8 L646.1 688.3 L645.4 686.6 L644.5 687.8 L643.2 687.7 L642.2 688.4 L641.1 690.6 L640.4 689.6 L639.7 689.6 L638.2 690 L637.8 690.8 L634.4 692.2 L633.6 692.9 L632.4 691.8 L631.6 692.2 L630.7 693.2 L631.1 693.4 L629 695.7 L628.1 698.8 L626.4 699.8 L625 699.8 L624.9 701.4 L624.3 701.8 L625.2 703.8 L624 704.8 L623.5 704.6 L621.9 705.1 L620.6 706.8 L621 708.1 L618.4 709.7 L615 709.7 L611.8 710.5 L610.6 711.1 L610.3 712 L607.8 714.2 L603.3 713.4 L601.4 715.6 L600.3 715.7 L597.5 714.7 L597 713.8 L596.2 713.9 L595.4 712 L591 712 L588.3 711.3 L587.2 712 L584.2 712.7 L582.3 715.1 L582.3 716.2 L579.9 716.4 L579.1 715.5 L576 715.5 L575.4 716.4 L573.9 717.2 L573.1 716.8 L571.4 714.3 L570.4 715.8 L567.9 716.4 L566.8 717.3 L563.5 717.8 L563.9 718.9 L562.9 721 L560.8 721.7 L557.7 722 L557.7 722.3 L557.6 722 L556.3 722.8 L554 721.4 L553.9 720.5 L548.8 719.5 L546.8 720.4 L545.4 720.6 L544.7 721.7 L540.6 723.6 L539 723.3 L534.9 723.7 L533.6 724.4 L534.6 724.4 L535.9 726.3 L534.5 728.9 L536.3 728.4 L537.6 728.8 L537.4 729.3 L537.7 730 L537 730.6 L537 731.8 L536.4 732.9 L536.2 732.4 L533.5 733.2 L528.9 736.4 L527.2 734.5 L527 733 L522.9 733 L521.2 735.2 L519.6 735.9 L518.9 737.4 L516.7 737.8 L516.3 739.7 L514.2 740.3 L512.8 741.3 L511.7 743.1 L510.7 742.8 L509.9 743.8 L508.1 744 L504.5 742.2 L503.2 742.1 L503.8 744.5 L502.1 747.1 L500.6 746.7 L499.2 747.1 L498.1 746.4 L497.8 745.4 L498.4 744.8 L498.2 743.9 L491.1 744.5 L489.1 744.1 L489 742.8 L485.9 742.7 L484.1 744 L481.8 744.4 L479.6 747.7 L477.4 749.1 L477 749.8 L473 752 L472.7 752.8 L468.5 752.3 L467.9 752.9 L466.6 753 L463.7 752.3 L463.1 753.4 L460.3 755 L458.1 755.3 L453.4 757.7 L450.3 757.7 L446.6 756.3 L445.7 757.4 L445.8 758.2 L444.3 759.2 L443.1 758.9 L442.3 757.3 L441.3 757.9 L438.4 756.2 L436.3 753.2 L429.9 750.4 L427.6 750.4 L427.2 749.2 L427.4 748.4 L426.7 748.4 L425.3 746 L423.8 745.1 L420.9 747.4 L420.4 749.8 L421.3 751.6 L420.6 752.1 L414.9 753.2 L411.3 753.2 L412.4 749.4 L410.9 747.5 L410.2 747.4 L410.6 747.5 L410.1 746.4 L407.8 745.8 L406 744.8 L404.1 744.6 L400.4 742.7 L399.6 741.8 L398.3 741.4 L398 742.5 L398.4 744 L399.7 745.6 L399.8 747.2 L398.6 747.8 L395.2 746.1 L393.6 746.3 L391.3 747.7 L389 747.7 L388.1 749.5 L384.6 749.8 L381.1 751.2 L377.3 751.9" stroke="#1f78a8" stroke-width="18" stroke-linecap="round" stroke-linejoin="round"/>
    <path d="M759.7 649.2 L760.7 649.3 L761.5 650.2 L761 648.3 L761.4 646.8 L762.7 646.4 L763.2 645.7 L764.8 645.4 L766.3 646.3 L766.4 647.6 L768.5 648.9 L768.4 649.8 L769.5 650.2 L770.2 649.5 L771.7 650.4 L774.4 650.3 L774.7 653.1 L776.9 653.6 L774.6 654.7 L771.8 658 L771.5 660 L772.1 664 L771.9 664.7 L772.9 665.6 L773.1 667.1 L772 667.6 L772.1 668.1 L771.7 668.9 L770.5 669.3 L770.7 671.7 L770.1 673.1 L769.4 673.1 L769.8 673.8 L769.3 675 L767.3 676.4 L766.8 678.8 L765.9 679.3 L766.4 682.5 L765.3 684 L765.5 685.4 L764.2 688.7 L764 690.9 L762.7 695.7 L762.8 697 L762.2 697.5 L762.4 698.2 L761.4 701.7 L759.6 704.9 L759.7 707.1 L758.5 708 L757.1 711.6 L755.7 713.5 L753.7 715 L753.9 716.6 L752.6 718 L749.9 719.1 L748.9 720.7 L745.3 729.5 L745.2 730.8 L742.8 732.3 L742.4 733.1 L739.6 733.7 L740.2 737.3 L740.9 738.2 L741.4 740.2 L744.2 742 L743.7 739.4" stroke="#1f78a8" stroke-width="11" stroke-linecap="round" stroke-linejoin="round" stroke-dasharray="24 26" opacity="0.92"/>
  </g>
  <g fill="#fffaf0" stroke="#20231f" stroke-opacity="0.18" stroke-width="3.5">
    <circle cx="1022.7" cy="158" r="13"/>
    <circle cx="377.3" cy="751.9" r="13"/>
    <circle cx="759.7" cy="649.2" r="10"/>
    <circle cx="743.7" cy="739.4" r="10"/>
  </g>
  <path d="M72 76H1328V824H72Z" fill="none" stroke="#fffaf0" stroke-opacity="0.42" stroke-width="2"/>
  <rect width="1400" height="900" fill="#3b3020" filter="url(#paperGrain)" opacity="0.24"/>
</svg>
