<svg xmlns="http://www.w3.org/2000/svg" viewBox="0 0 1400 900" role="img" aria-label="中国东西极之路">
  <defs>
    
    <linearGradient id="paper" x1="0" x2="1" y1="0" y2="1">
      <stop offset="0" stop-color="#fffaf0"/>
      <stop offset="0.48" stop-color="#efe8e8"/>
      <stop offset="1" stop-color="#e5d0a9"/>
    </linearGradient>
    <filter id="paperGrain" x="0" y="0" width="100%" height="100%">
      <feTurbulence baseFrequency="0.74" numOctaves="2" seed="70" type="fractalNoise"/>
      <feColorMatrix type="saturate" values="0"/>
      <feComponentTransfer>
        <feFuncA type="table" tableValues="0 0.13"/>
      </feComponentTransfer>
    </filter>
    <filter id="assetShadow" x="-18%" y="-18%" width="136%" height="136%">
      <feDropShadow dx="0" dy="18" stdDeviation="18" flood-color="#2f261a" flood-opacity="0.16"/>
    </filter>
    <linearGradient id="inkWash" x1="0" x2="1" y1="0" y2="1">
      <stop offset="0" stop-color="#53427a" stop-opacity="0.28"/>
      <stop offset="0.52" stop-color="#e0bb72" stop-opacity="0.18"/>
      <stop offset="1" stop-color="#785f26" stop-opacity="0.22"/>
    </linearGradient>
  </defs>
  <rect width="1400" height="900" fill="url(#paper)"/>
  <rect width="1400" height="900" fill="url(#inkWash)"/>
  <g opacity="0.8">
    <path d="M-900 900 L0 0" fill="none" stroke="#7c5cc4" stroke-width="1" stroke-opacity="0.07"/>
  <path d="M-862 900 L38 0" fill="none" stroke="#7c5cc4" stroke-width="1" stroke-opacity="0.07"/>
  <path d="M-824 900 L76 0" fill="none" stroke="#7c5cc4" stroke-width="1" stroke-opacity="0.07"/>
  <path d="M-786 900 L114 0" fill="none" stroke="#7c5cc4" stroke-width="1" stroke-opacity="0.07"/>
  <path d="M-748 900 L152 0" fill="none" stroke="#7c5cc4" stroke-width="1" stroke-opacity="0.07"/>
  <path d="M-710 900 L190 0" fill="none" stroke="#7c5cc4" stroke-width="1" stroke-opacity="0.07"/>
  <path d="M-672 900 L228 0" fill="none" stroke="#7c5cc4" stroke-width="1" stroke-opacity="0.07"/>
  <path d="M-634 900 L266 0" fill="none" stroke="#7c5cc4" stroke-width="1" stroke-opacity="0.07"/>
  <path d="M-596 900 L304 0" fill="none" stroke="#7c5cc4" stroke-width="1" stroke-opacity="0.07"/>
  <path d="M-558 900 L342 0" fill="none" stroke="#7c5cc4" stroke-width="1" stroke-opacity="0.07"/>
  <path d="M-520 900 L380 0" fill="none" stroke="#7c5cc4" stroke-width="1" stroke-opacity="0.07"/>
  <path d="M-482 900 L418 0" fill="none" stroke="#7c5cc4" stroke-width="1" stroke-opacity="0.07"/>
  <path d="M-444 900 L456 0" fill="none" stroke="#7c5cc4" stroke-width="1" stroke-opacity="0.07"/>
  <path d="M-406 900 L494 0" fill="none" stroke="#7c5cc4" stroke-width="1" stroke-opacity="0.07"/>
  <path d="M-368 900 L532 0" fill="none" stroke="#7c5cc4" stroke-width="1" stroke-opacity="0.07"/>
  <path d="M-330 900 L570 0" fill="none" stroke="#7c5cc4" stroke-width="1" stroke-opacity="0.07"/>
  <path d="M-292 900 L608 0" fill="none" stroke="#7c5cc4" stroke-width="1" stroke-opacity="0.07"/>
  <path d="M-254 900 L646 0" fill="none" stroke="#7c5cc4" stroke-width="1" stroke-opacity="0.07"/>
  <path d="M-216 900 L684 0" fill="none" stroke="#7c5cc4" stroke-width="1" stroke-opacity="0.07"/>
  <path d="M-178 900 L722 0" fill="none" stroke="#7c5cc4" stroke-width="1" stroke-opacity="0.07"/>
  <path d="M-140 900 L760 0" fill="none" stroke="#7c5cc4" stroke-width="1" stroke-opacity="0.07"/>
  <path d="M-102 900 L798 0" fill="none" stroke="#7c5cc4" stroke-width="1" stroke-opacity="0.07"/>
  <path d="M-64 900 L836 0" fill="none" stroke="#7c5cc4" stroke-width="1" stroke-opacity="0.07"/>
  <path d="M-26 900 L874 0" fill="none" stroke="#7c5cc4" stroke-width="1" stroke-opacity="0.07"/>
  <path d="M12 900 L912 0" fill="none" stroke="#7c5cc4" stroke-width="1" stroke-opacity="0.07"/>
  <path d="M50 900 L950 0" fill="none" stroke="#7c5cc4" stroke-width="1" stroke-opacity="0.07"/>
  <path d="M88 900 L988 0" fill="none" stroke="#7c5cc4" stroke-width="1" stroke-opacity="0.07"/>
  <path d="M126 900 L1026 0" fill="none" stroke="#7c5cc4" stroke-width="1" stroke-opacity="0.07"/>
  <path d="M164 900 L1064 0" fill="none" stroke="#7c5cc4" stroke-width="1" stroke-opacity="0.07"/>
  <path d="M202 900 L1102 0" fill="none" stroke="#7c5cc4" stroke-width="1" stroke-opacity="0.07"/>
  <path d="M240 900 L1140 0" fill="none" stroke="#7c5cc4" stroke-width="1" stroke-opacity="0.07"/>
  <path d="M278 900 L1178 0" fill="none" stroke="#7c5cc4" stroke-width="1" stroke-opacity="0.07"/>
  <path d="M316 900 L1216 0" fill="none" stroke="#7c5cc4" stroke-width="1" stroke-opacity="0.07"/>
  <path d="M354 900 L1254 0" fill="none" stroke="#7c5cc4" stroke-width="1" stroke-opacity="0.07"/>
  <path d="M392 900 L1292 0" fill="none" stroke="#7c5cc4" stroke-width="1" stroke-opacity="0.07"/>
  <path d="M430 900 L1330 0" fill="none" stroke="#7c5cc4" stroke-width="1" stroke-opacity="0.07"/>
  <path d="M468 900 L1368 0" fill="none" stroke="#7c5cc4" stroke-width="1" stroke-opacity="0.07"/>
  <path d="M506 900 L1406 0" fill="none" stroke="#7c5cc4" stroke-width="1" stroke-opacity="0.07"/>
  <path d="M544 900 L1444 0" fill="none" stroke="#7c5cc4" stroke-width="1" stroke-opacity="0.07"/>
  <path d="M582 900 L1482 0" fill="none" stroke="#7c5cc4" stroke-width="1" stroke-opacity="0.07"/>
  <path d="M620 900 L1520 0" fill="none" stroke="#7c5cc4" stroke-width="1" stroke-opacity="0.07"/>
  <path d="M658 900 L1558 0" fill="none" stroke="#7c5cc4" stroke-width="1" stroke-opacity="0.07"/>
  <path d="M696 900 L1596 0" fill="none" stroke="#7c5cc4" stroke-width="1" stroke-opacity="0.07"/>
  <path d="M734 900 L1634 0" fill="none" stroke="#7c5cc4" stroke-width="1" stroke-opacity="0.07"/>
  <path d="M772 900 L1672 0" fill="none" stroke="#7c5cc4" stroke-width="1" stroke-opacity="0.07"/>
  <path d="M810 900 L1710 0" fill="none" stroke="#7c5cc4" stroke-width="1" stroke-opacity="0.07"/>
  <path d="M848 900 L1748 0" fill="none" stroke="#7c5cc4" stroke-width="1" stroke-opacity="0.07"/>
  <path d="M886 900 L1786 0" fill="none" stroke="#7c5cc4" stroke-width="1" stroke-opacity="0.07"/>
  <path d="M924 900 L1824 0" fill="none" stroke="#7c5cc4" stroke-width="1" stroke-opacity="0.07"/>
  <path d="M962 900 L1862 0" fill="none" stroke="#7c5cc4" stroke-width="1" stroke-opacity="0.07"/>
  <path d="M1000 900 L1900 0" fill="none" stroke="#7c5cc4" stroke-width="1" stroke-opacity="0.07"/>
  <path d="M1038 900 L1938 0" fill="none" stroke="#7c5cc4" stroke-width="1" stroke-opacity="0.07"/>
  <path d="M1076 900 L1976 0" fill="none" stroke="#7c5cc4" stroke-width="1" stroke-opacity="0.07"/>
  <path d="M1114 900 L2014 0" fill="none" stroke="#7c5cc4" stroke-width="1" stroke-opacity="0.07"/>
  <path d="M1152 900 L2052 0" fill="none" stroke="#7c5cc4" stroke-width="1" stroke-opacity="0.07"/>
  <path d="M1190 900 L2090 0" fill="none" stroke="#7c5cc4" stroke-width="1" stroke-opacity="0.07"/>
  <path d="M1228 900 L2128 0" fill="none" stroke="#7c5cc4" stroke-width="1" stroke-opacity="0.07"/>
  <path d="M1266 900 L2166 0" fill="none" stroke="#7c5cc4" stroke-width="1" stroke-opacity="0.07"/>
  <path d="M1304 900 L2204 0" fill="none" stroke="#7c5cc4" stroke-width="1" stroke-opacity="0.07"/>
  <path d="M1342 900 L2242 0" fill="none" stroke="#7c5cc4" stroke-width="1" stroke-opacity="0.07"/>
  <path d="M1380 900 L2280 0" fill="none" stroke="#7c5cc4" stroke-width="1" stroke-opacity="0.07"/>
    <path d="M-112 -128 C252 -200 448 -56 728 -128 S1148 -200 1512 -110" fill="none" stroke="#d09a2d" stroke-width="1.2" stroke-opacity="0.16" stroke-linecap="round"/>
  <path d="M-112 0 C252 -72 448 72 728 0 S1148 -72 1512 18" fill="none" stroke="#d09a2d" stroke-width="1.2" stroke-opacity="0.16" stroke-linecap="round"/>
  <path d="M-112 128 C252 56 448 200 728 128 S1148 56 1512 146" fill="none" stroke="#d09a2d" stroke-width="1.2" stroke-opacity="0.16" stroke-linecap="round"/>
  <path d="M-112 256 C252 184 448 328 728 256 S1148 184 1512 274" fill="none" stroke="#d09a2d" stroke-width="1.2" stroke-opacity="0.16" stroke-linecap="round"/>
  <path d="M-112 384 C252 312 448 456 728 384 S1148 312 1512 402" fill="none" stroke="#d09a2d" stroke-width="1.2" stroke-opacity="0.16" stroke-linecap="round"/>
  <path d="M-112 512 C252 440 448 584 728 512 S1148 440 1512 530" fill="none" stroke="#d09a2d" stroke-width="1.2" stroke-opacity="0.16" stroke-linecap="round"/>
  <path d="M-112 640 C252 568 448 712 728 640 S1148 568 1512 658" fill="none" stroke="#d09a2d" stroke-width="1.2" stroke-opacity="0.16" stroke-linecap="round"/>
  <path d="M-112 768 C252 696 448 840 728 768 S1148 696 1512 786" fill="none" stroke="#d09a2d" stroke-width="1.2" stroke-opacity="0.16" stroke-linecap="round"/>
  <path d="M-112 896 C252 824 448 968 728 896 S1148 824 1512 914" fill="none" stroke="#d09a2d" stroke-width="1.2" stroke-opacity="0.16" stroke-linecap="round"/>
  <path d="M-112 1024 C252 952 448 1096 728 1024 S1148 952 1512 1042" fill="none" stroke="#d09a2d" stroke-width="1.2" stroke-opacity="0.16" stroke-linecap="round"/>
  <path d="M-112 1152 C252 1080 448 1224 728 1152 S1148 1080 1512 1170" fill="none" stroke="#d09a2d" stroke-width="1.2" stroke-opacity="0.16" stroke-linecap="round"/>
  <path d="M-112 1280 C252 1208 448 1352 728 1280 S1148 1208 1512 1298" fill="none" stroke="#d09a2d" stroke-width="1.2" stroke-opacity="0.16" stroke-linecap="round"/>
  </g>
  <text x="82" y="260" fill="#20231f" fill-opacity="0.07" font-family="'Songti SC','STSong','Source Han Serif SC','Noto Serif CJK SC','SimSun',serif" font-size="168" font-weight="900" writing-mode="vertical-rl">东西极</text>
  <text x="1296" y="730" text-anchor="end" fill="#20231f" fill-opacity="0.08" font-family="'Avenir Next',Avenir,Arial,sans-serif" font-size="54" font-weight="900" letter-spacing="7">ROUTE 04</text>
  <g transform="translate(978 86)">
    <g transform="rotate(2 41 41)">
    <rect x="0" y="0" width="82" height="82" rx="11.48" fill="#9f3525"/>
    <rect x="8.200000000000001" y="8.200000000000001" width="65.60000000000001" height="65.60000000000001" rx="8.200000000000001" fill="none" stroke="#fff2df" stroke-opacity="0.72" stroke-width="2.87"/>
    <text x="41" y="49.199999999999996" text-anchor="middle" fill="#fff7e8" font-family="'Kaiti SC','STKaiti','FZKai-Z03S','KaiTi','Songti SC','STSong','Noto Serif CJK SC',serif" font-size="37.72" font-weight="900">路</text>
    <text x="41" y="63.96" text-anchor="middle" fill="#fff2df" font-family="'Avenir Next',Avenir,Arial,sans-serif" font-size="11.48" font-weight="900" letter-spacing="0.8">04</text>
  </g>
  </g>
  <g transform="translate(1060 86)">
    <text x="0" y="28" fill="#20231f" fill-opacity="0.68" font-family="'Kaiti SC','STKaiti','FZKai-Z03S','KaiTi','Songti SC','STSong','Noto Serif CJK SC',serif" font-size="25" font-weight="900">从西陲绿洲到东方界江</text>
    <text x="0" y="64" fill="#7c5cc4" font-family="'Songti SC','STSong','Source Han Serif SC','Noto Serif CJK SC','SimSun',serif" font-size="36" font-weight="900">中国东西极之路</text>
  </g>
  <g transform="translate(128 628)" opacity="0.82">
    <g transform="translate(0 0) scale(1.1)">
      <path d="M10 74 H256" fill="none" stroke-linecap="round" stroke-linejoin="round" stroke="#7c5cc4" stroke-width="8"/>
      <path d="M230 51 L260 74 L230 97" fill="none" stroke-linecap="round" stroke-linejoin="round" stroke="#7c5cc4" stroke-width="6.4"/>
      <path d="M21 46 H100 M31 104 H162" fill="none" stroke-linecap="round" stroke-linejoin="round" stroke="#d09a2d" stroke-width="5"/>
      <circle cx="28" cy="74" r="7.2" fill="#d09a2d"/>
      <circle cx="260" cy="74" r="5.2" fill="#fffaf0" stroke="#7c5cc4" stroke-width="4"/></g>
  </g>
  <g fill="none" filter="url(#assetShadow)">
    <path d="M136.5 493.5 L137.4 493.1 L137.2 492.9 L137.6 492.4 L139.8 491.2 L141.4 492.1 L143.8 491.2 L145.7 491.2 L146.8 491.8 L147.2 491.2 L148.1 491.3 L148.2 490.9 L148.7 490.8 L153 491.5 L154.6 492.1 L156.4 492.3 L157.5 493.4 L160.4 493 L162.1 493.1 L162.9 493.9 L163.7 493 L167.7 492.2 L168.7 492.5 L170.5 494.2 L172.1 495.1 L174.5 495.4 L174.9 496.7 L175.6 496.7 L175.8 497 L175.6 497.5 L175.9 497.7 L177.7 497.1 L180.1 496.8 L183.5 497.2 L185.7 497.9 L188 497.4 L188 497.6 L188.5 497.6 L188.9 500.4 L189.4 501.1 L188.9 501.3 L188.6 501.9 L189 502.2 L189.7 502.3 L194.2 504.6 L195.9 504.7 L195.9 505.2 L197.8 506.2 L201.5 506.6 L201.7 507.6 L202.8 507.6 L203.4 508.1 L200.6 511.3 L199.1 512.4 L198 514.5 L198.1 516.8 L197.7 517.5 L198.4 517.6 L198.5 517.8 L198.3 519.8 L198.7 520.2 L198.4 520.7 L198.6 522.2 L199.9 525.4 L201 526.9 L203.3 527.4 L213 532.1 L214.8 532.5 L216 533.8 L218.8 534.6 L222 536.1 L223.2 536 L228 537.9 L229.1 539.1 L233.5 539 L236.3 539.6 L236.1 539.7 L237.1 540.1 L239.5 540.9 L241.6 540.9 L243.4 538.9 L244.7 538.7 L246.6 540.1 L247.3 540.9 L248 541 L248.3 541.4 L249.6 542 L252 542.1 L254.9 543.2 L258.8 546 L263.9 544.9 L264.1 543.4 L265.5 543 L271.5 544.2 L273.2 544.1 L276.4 546.1 L278 546.2 L280.8 545.9 L281.7 546.5 L284 547.3 L285.7 546.9 L287.8 547 L291 546.3 L293.2 546.4 L295 546.1 L298.4 544.8 L298.9 542.4 L300.2 542.1 L300.8 539.8 L302 540.1 L305.2 538.5 L306.9 538.1 L309.1 536.6 L310.8 536.6 L316 534.5 L317.3 533.6 L318.5 533.4 L321.2 531.3 L322.8 530.9 L323.5 530.2 L324.6 530.1 L326.4 529.3 L327.3 528 L328 527.6 L327.3 528 L326.5 529.3 L325.3 529.5 L324.9 528.8 L326.9 527.7 L331.2 525.7 L333 525.5 L336.4 524.3 L337.9 523.1 L339.3 522.6 L340.7 521.5 L343.9 521.3 L345.7 520.6 L347.5 520.4 L348.4 520.8 L349 520.7 L349.9 521.2 L351.2 521.2 L351.3 520.4 L352.7 517.8 L354.4 516.3 L355.4 516.1 L356.3 516.2 L359.7 515.3 L362.6 515.2 L364.1 514.5 L366 514.2 L369.2 513.1 L372.4 511.6 L378.5 512.2 L380.7 511.6 L384 512.3 L385.9 512.1 L388.5 510.7 L392 510 L398.3 506.7 L401.3 506.1 L405.2 506.5 L408.4 505.6 L413.7 502.7 L417.8 502.4 L424.7 502.5 L431.8 503.4 L432.7 503.9 L432.6 504.5 L433.8 504.7 L434 505 L435.3 505.1 L436.4 504.8 L438.2 505.3 L438.4 505.8 L437.7 506.6 L437.7 507 L437.3 507.2 L438 507.5 L437.5 507.7 L437.5 508.1 L439.3 508.6 L439.4 509.2 L437.6 512 L437.3 514.2 L436.6 515.7 L436.9 517.6 L437.3 517.6 L438.2 518.4 L441.1 518.8 L446 518.8 L447.6 519.1 L449.7 520.2 L450.9 521.9 L455.2 523.8 L457.4 525.6 L459.9 526.7 L461.7 526.8 L465.9 527.7 L467 527.4 L467.2 527 L467.8 527.1 L468.5 526.8 L467.6 525.7 L467.6 524.8 L468.8 524.4 L468.6 524.1 L469.9 523.3 L471.2 523.6 L476.7 523.9 L480.1 523.4 L488.1 524.1 L489.4 523.6 L490.5 524 L492.4 523.7 L493.9 524.2 L495.2 525.4 L495.7 526.2 L496.3 526.5 L496.8 528.8 L497.2 529.2 L499.6 530.5 L501.1 530.3 L503.2 531.5 L505.2 531.9 L508.3 533.6 L512.1 537 L518 537.2 L529.4 535.9 L530.7 536.1 L531.7 535.6 L539.1 534.8 L540.9 533.7 L544.6 534.4 L545.5 535.5 L547.6 535.1 L548.4 535.5 L549.2 535.2 L551.5 535.2 L553.5 535.8 L556.1 535.9 L557.5 536.7 L558.2 536.8 L568.5 537.2 L570 536.7 L572.5 536.4 L575 537 L586 537 L588.7 537.6 L589.9 538.4 L590.1 539.7 L589.7 541.2 L590.5 542.5 L589.8 542.8 L589.8 543.7 L590.6 544.4 L591.8 544.4 L592.8 543.3 L597.7 543.1 L599.2 544.1 L599.2 545.5 L599.5 545.8 L606.8 548.9 L607.7 549.9 L610.1 548.9 L611.4 548.9 L612.3 548.1 L612.3 547.8 L613.6 547.4 L616.1 548.9 L617.2 549 L619.6 549.9 L622.1 550.4 L625.8 550.6 L632.9 552.2 L634.6 550.2 L633.9 548.1 L634.4 546.8 L636.8 545.7 L636.9 546.9 L639 548.2 L639 548.6 L639.4 549 L639.1 548.9 L639.1 549.2 L639.9 549.7 L640.1 550.2 L643.4 549.2 L649 550.1 L650.6 549.9 L652.4 550.5 L653.4 551.4 L655.6 551.9 L656.5 552.5 L658.2 552.4 L661 553.1 L661.8 552.9 L664.5 553.3 L663.5 554.7 L661.7 555.9 L662.3 556 L662.2 556.2 L662.4 556.3 L661.5 557.3 L661.5 558.3 L661.8 558.8 L661.6 559.7 L661.1 559.8 L659.5 558.7 L658.6 558.4 L657.6 559.1 L656.5 561 L657.6 562.1 L657.6 563.1 L658.6 565 L657.8 565.8 L657.9 566.3 L657.6 566.8 L658 567.6 L657.7 568.6 L660.8 570.2 L661.6 571.3 L662.2 571.3 L662.9 571.9 L665.1 572.1 L666.2 573 L665.9 573.5 L666 575.1 L666.2 575.7 L666.8 576.1 L666.8 576.8 L668.8 576.9 L669.3 576.5 L670.6 576.6 L672 576.3 L671.9 577.1 L672.6 578.4 L673.5 578.8 L673.8 579.9 L673.9 580.2 L673.5 580.4 L673.4 581.1 L672.8 581.5 L672.7 582.2 L671.8 582.3 L672.2 583.7 L669.7 583.9 L667.7 585 L667 585 L665.8 586.1 L665.1 588 L665.3 588.3 L662.3 590.3 L662.4 593 L662.8 593.6 L664.6 595.2 L667 595.8 L667.1 596.1 L668.4 596.8 L670.2 597.1 L670.4 597.5 L670 598.2 L670.2 598.6 L673.1 600.4 L674.5 602.7 L674.4 603.7 L674.7 604.8 L674.2 605.6 L674.3 606.2 L674 606.6 L673.5 606.6 L672.4 607.6 L669.8 607.9 L668.2 609.4 L665.7 610.3 L666.1 611.9 L667.1 613.6 L668 614.5 L668.4 615.6 L669.2 615.9 L669.9 615.6 L670.7 616 L671.2 615.7 L672.6 616.1 L673.2 616.7 L673.7 616.5 L674 617.2 L674.9 617.5 L675 618 L675.8 618.5 L676.5 618 L677.9 618.7 L678.3 618.5 L679.5 619.3 L680.4 618.8 L681.2 618.9 L681.7 618.3 L681.7 618.9 L683.4 618.9 L683.8 619.7 L684.8 619.3 L685.6 620.3 L685.9 621.3 L686.6 621.6 L686.6 621.9 L687.1 621.2 L687.2 620.2 L688.2 618.8 L688.1 617.8 L688.8 616.6 L688.5 616.3 L688.4 615.5 L688.7 614.9 L689 613 L689.5 612.5 L689.5 611.8 L690.9 611.8 L692.3 612.4 L692.6 611.7 L695 611 L698 612.4 L698.3 612.7 L698.4 614.3 L699.4 614.9 L700.2 616 L700.5 615.9 L701.3 616.5 L702 616.3 L702.9 617.3 L704.7 617.5 L706.2 618.6 L707.6 618.9 L707.8 619.4 L708.1 619.3 L710 620.5 L712.3 620.4 L712.9 620.8 L714.1 620.8 L715 621 L715.7 621.8 L716.7 621.9 L716.8 622.3 L718.1 622.2 L719.3 621.7 L720.6 621.9 L721 622.3 L720.6 622.6 L721.1 622.9 L720.8 623 L721 623.5 L722 624 L721.8 624.3 L722.7 624.9 L722.1 625.5 L722.6 625.7 L722.4 626.1 L723.1 625.9 L723.2 626.4 L723.6 626.5 L724.1 627.2 L724.2 628.9 L724.5 629.4 L725.5 629.2 L726.4 628.4 L727.1 628.4 L727.9 628.1 L728.3 627.3 L728 627.1 L727.8 626 L728 625.3 L728.5 625 L728.5 624.3 L730.5 623.4 L732 623 L732.4 622.6 L733.1 622.6 L733.3 621.9 L734.2 621.7 L735.3 620.9 L735.3 620.2 L735.7 619.7 L735.4 618.1 L735.6 616.9 L735.9 616.6 L737.5 616.4 L737.8 616 L742 614.8 L742.8 615.3 L744.8 615.1 L745 614.7 L747.3 614.5 L748.6 613.8 L748.6 612.9 L748.1 612.5 L748 612 L748.9 611.2 L749.3 610.2 L749.4 608.6 L748.9 607.6 L749 607.1 L749.3 607.1 L749 607.2 L749.3 607 L749.3 605.6 L749.7 604.5 L750.4 604 L750.5 603 L751.2 602.2 L751.1 601.8 L751.8 600.4 L752.2 600.1 L753.1 600.2 L753.4 599.8 L753.3 598.7 L755.1 597.9 L754.7 597.2 L754.8 596.5 L755.3 595.9 L755.2 595.4 L754.9 595.2 L755.3 593.2 L755 592.7 L755.5 592.9 L755.7 592.5 L756.6 592.5 L756.6 589.5 L754.1 588.6 L753.6 587.9 L753.6 587.2 L753 587.3 L752.5 586.9 L751.4 586.9 L749.3 584.2 L748.3 583.9 L747.4 582.6 L746.9 583 L746.3 582.7 L746 581.5 L745 580.6 L745.3 580.1 L745.1 579.2 L745.5 578.1 L745.8 578 L745.4 577.3 L745.4 576.6 L743.4 577.3 L742.9 576.5 L741 576.8 L741 576.1 L740.3 576 L739.5 575.1 L739.7 575 L739.3 574.7 L739.3 574.1 L738.7 573.8 L738.3 572.7 L738.6 572.2 L736.8 571.2 L737.1 570.9 L736.5 570.5 L736.9 570.1 L736.2 569.8 L735.8 568.8 L736.1 568.3 L736.9 568 L736.3 567.7 L735.7 566.8 L736.2 565.7 L735.4 565 L736 563.7 L736.1 562.2 L734.7 561.6 L735 560.8 L734.7 561.6 L735 559.7 L733 554.5 L733 553.9 L733.7 552.5 L733 550 L732.7 549.1 L731.7 548.3 L730.4 545.4 L730 544.8 L729.1 544.7 L728.6 544.3 L728.6 543.8 L726.9 541.2 L726 540.3 L724.9 538.4 L723.4 536.7 L723.9 535.8 L725.1 535.1 L725.2 534.6 L724.7 533.2 L727.6 531.9 L728.1 530.9 L729.3 527.2 L731 526.6 L734.2 524.1 L734.8 523 L735.2 520.1 L736.2 516.8 L736.4 515.9 L736.1 515.6 L736.5 515.5 L736.8 514.7 L737.2 512.5 L739.1 510.2 L740.6 506.6 L741.4 505.9 L742.1 504.6 L744.1 502.8 L744 501.3 L744.6 501.2 L745 500.4 L744.1 498.4 L744.3 497.9 L744.2 497.4 L744.8 497 L745.4 495.9 L745.6 494.2 L744.8 489.9 L744.8 487.5 L747 485.4 L749.7 483.4 L750.4 482.5 L749.8 482 L749.8 481.5 L751.8 476.4 L755.4 474.4 L756.1 473.4 L761.3 471.4 L762.7 471.4 L767 470.4 L769.1 469.2 L773.2 467.6 L774.4 468 L777.2 470.3 L778.3 470.7 L778.5 471.4 L779.5 472 L780.2 473.4 L780.3 474.6 L781.3 475.4 L784 476.2 L787.3 476.2 L789.7 475.8 L791.2 476.2 L794.8 476.3 L798.5 475.6 L798.4 476.4 L798.7 476.4 L798.7 476.9 L802.6 477.3 L804.8 478.1 L808.8 477.7 L812.3 479.5 L814 480.1 L814.4 480.5 L814.2 481.1 L814.6 481.4 L814.1 483.4 L818.9 484.2 L823.3 483.8 L824.9 483.9 L825.7 484.1 L826.6 484.9 L828.1 485.1 L829.8 486 L830.7 487.2 L831.1 487.2 L831.3 488.8 L831.7 489.4 L831.3 490.1 L831.1 491.3 L832.3 491.7 L832.8 492.2 L833.5 491.7 L835.1 492.4 L836.8 492.3 L837.8 493.4 L837.6 494.1 L836.5 495.3 L836.8 496.5 L836.5 497.4 L838.6 496.7 L842.3 496.1 L843.3 496.3 L843.5 497.1 L847.5 497.1 L849.5 498.8 L849.5 499.4 L848.9 499.5 L848.9 501 L850 501.2 L849.9 500.8 L851.9 501.3 L854.1 501.2 L854.9 502.5 L856.5 502.3 L857.8 502.9 L857.4 503.3 L858.2 504.8 L858.3 506 L859.2 505.5 L859 505 L860.8 504.5 L863.7 503 L866.4 502.7 L868.1 502.1 L868.9 502.2 L869.9 501.8 L871.5 501.9 L871.6 501.4 L872.5 501.2 L873.7 501.1 L874.4 501.3 L875.7 500 L876 498.8 L877.2 498.2 L877.1 497.6 L876 497 L875.6 495.8 L873.8 494.4 L873.6 494 L872.9 493.6 L872.7 493.8 L871.3 492.4 L870.6 490.7 L869.3 490.1 L869.3 489.5 L867.8 487.2 L868.4 487.1 L868.2 485.5 L871.3 484.9 L873.5 481.9 L874.8 481.8 L874.6 481.5 L875.1 481.4 L875.3 480.9 L880.4 479.8 L880.8 480.1 L883.2 479.7 L885 480.1 L887.2 479.7 L888.7 478 L890.5 477.4 L891.8 476.4 L892.7 474 L894.1 473.8 L894.6 474.4 L895.9 474.5 L896.3 475.5 L897.5 475.9 L898 476.4 L898.9 476.5 L899.2 477.2 L900.6 477.9 L901.8 478.1 L902.5 478.9 L903.6 478.8 L903.7 479.3 L904.5 479.5 L904.5 479.7 L906.7 480.2 L907.6 480.1 L907.8 480.5 L910 481.2 L910.6 481.3 L912.3 479.5 L914.2 478.5 L915.3 478.2 L916.1 479.4 L916.1 479.2 L916.5 479.7 L917.3 480.1 L917.6 480.8 L918.7 481.7 L919.8 482.4 L920 483.7 L920.5 484.8 L922.5 487.4 L924.9 487.6 L926 488.9 L926.1 489.6 L927.8 489.6 L930.3 490.8 L930.6 491.8 L932.1 492.8 L933.5 494.4 L934.7 497.3 L935.5 497.9 L935.9 498.9 L936.6 499.2 L937.4 501.2 L938.9 502.9 L941.1 503.4 L942.4 504.4 L947.2 505.6 L948.1 505.9 L948 506.2 L947.7 506.1 L948.5 504.6 L950.2 503.1 L949.8 502.3 L949.8 501.4 L951 500.1 L951.2 499.6 L954.7 497 L955.9 496.7 L956.5 495.9 L958.2 495.2 L958.7 494.7 L958.9 493.7 L960 493.2 L963.6 492.3 L966.3 492.3 L967.8 492.5 L968.6 492.9 L970.7 492.8 L971.5 493.2 L973.7 493.1 L974.9 493.6 L975.8 492.6 L981 490 L982.4 489 L985.1 488.8 L986.4 488.1 L987.8 488 L990.3 486.1 L992.5 485.9 L995.3 484.9 L995.8 484.4 L998.1 484.1 L998.8 483.5 L998.7 482.9 L999.8 481.3 L1001.1 481 L1000.8 480.6 L1001.2 479.8 L1001.1 479.2 L1002.5 477.9 L1004.1 477.3 L1005.5 475.8 L1005.3 475.4 L1005.9 474.7 L1007.8 474.9 L1007.7 474.5 L1008 474.4 L1007.5 473.9 L1007.6 473.5 L1008 473.3 L1008.2 472.7 L1010.2 472.4 L1010.4 471.7 L1012.5 471.2 L1012.4 470.4 L1012 470.1 L1012.6 469.9 L1012.7 469.1 L1012.6 468.7 L1012.1 468.5 L1014.7 466.7 L1015.5 466.5 L1015.6 466.1 L1018.2 464.5 L1020.1 462.6 L1021 462.3 L1023.2 462.6 L1025.5 463.6 L1027.1 464.6 L1029.6 463.1 L1032.6 462.1 L1034.4 461.7 L1036 461.9 L1038.3 461 L1040.2 460.9 L1041.4 459.9 L1043.4 460.1 L1044.3 459.3 L1044.7 458.7 L1045.9 458.4 L1048.1 456.6 L1050.8 455.3 L1052.2 455.2 L1052.2 454.9 L1051.8 455 L1051.8 454.4 L1052.3 453.6 L1053.7 453.4 L1055 453.7 L1056.6 451.8 L1057.3 449.5 L1058.2 448.1 L1061.6 445.8 L1062 445.3 L1062.1 444.7 L1065 442.1 L1065.2 440 L1065.8 439.8 L1064.4 439.3 L1064.9 437.6 L1066.9 436.4 L1067 435.9 L1066.8 435.4 L1068 434.3 L1068.6 432.6 L1070.6 430.7 L1071.6 428.6 L1072.9 428.1 L1074.6 426.3 L1075.4 426.1 L1075.6 425.5 L1078.8 423.1 L1079.6 423 L1079.8 423.4 L1082.3 421.1 L1084.1 419.9 L1087.1 418.4 L1089.5 417.5 L1091 416.3 L1091.3 415.4 L1091.1 414.3 L1089.5 413.1 L1090.9 410.5 L1091.9 409.5 L1092 408.8 L1093.2 408.8 L1093.8 407.6 L1095.6 406 L1096.2 404.3 L1097.8 403.4 L1101.5 400 L1101.7 398 L1102.4 396.8 L1104.9 393.9 L1104.9 393 L1104.6 392.5 L1104.9 391.5 L1107.2 389.6 L1108.3 387.7 L1108.5 386.9 L1110.5 384.8 L1111 383.5 L1113.6 383.3 L1113.2 382.1 L1113.4 381.7 L1113.2 382.1 L1113.5 383.4 L1115.7 383.5 L1119 385.6 L1120.6 386 L1121.7 386.9 L1121.6 387.4 L1122.2 388 L1126.7 389.4 L1127.1 389.8 L1129 390.2 L1129.7 389.5 L1130.6 389.2 L1130.6 388.6 L1132 387.7 L1133.2 388.2 L1133.7 389.1 L1135.2 389.2 L1135.7 389.7 L1137.1 390.4 L1137.8 391.3 L1139.4 391 L1141 391.2 L1143.5 390.4 L1143.9 391.1 L1144.6 391.3 L1145.2 392.6 L1146.3 392.7 L1147.8 393.5 L1147.3 394.4 L1147.9 395.2 L1149.5 395.2 L1150.5 395.5 L1150.6 395.9 L1151.9 395.6 L1152.5 395.9 L1154 395.9 L1155.4 396.5 L1156.8 396.6 L1157.3 397.5 L1157.1 398 L1159.8 399.5 L1161 400.4 L1161.9 401.7 L1166.2 403.1 L1167.4 402.8 L1167.8 403.2 L1168.2 403.1 L1168.1 402.9 L1169.6 402.6 L1170 400.8 L1170.4 400.3 L1171.6 399.8 L1171.8 399 L1171.6 398.6 L1172.4 398.4 L1172.4 398 L1173.1 397.2 L1174.7 396.8 L1174.7 395.9 L1174.5 395 L1176.6 392.5 L1176.6 392 L1177.8 391.3 L1178.6 390.5 L1180.7 390.1 L1181 389.6 L1182.1 390.4 L1182.8 390.2 L1183.2 390.5 L1184.2 390.4 L1184.9 391.2 L1185.9 391.4 L1186.1 391.2 L1185.8 390.7 L1186.2 390.6 L1186.2 390.2 L1188.8 389.5 L1189.9 388.6 L1192.5 389 L1193.7 388.6 L1193.2 387.7 L1193.7 387.2 L1193.7 386.7 L1193.1 386.3 L1192.3 384.6 L1190.4 383 L1190.1 382.1 L1189.6 381.4 L1188.4 381.1 L1186.8 381.2 L1186.1 380.7 L1188.4 377.8 L1189.8 377.1 L1189.1 376.1 L1188.2 376.3 L1187.8 374.9 L1186.6 374.3 L1186.5 373.9 L1186.8 373.3 L1186.1 372.9 L1186.2 372.6 L1185.4 372.2 L1184.5 370.5 L1183.2 369.3 L1183.4 368 L1183.3 367.4 L1182.2 366.7 L1180.9 365.3 L1181 364.5 L1180.4 363.3 L1181 362.3 L1181 361.4 L1181.7 361.8 L1186 360.3 L1187.6 359.7 L1188.4 358.6 L1189.6 358 L1194.6 357.8 L1197.4 356.8 L1197.7 356.4 L1199.5 355.9 L1207.5 355.2 L1209.7 354.2 L1212.1 353.8 L1212.3 354.1 L1213.8 353.6 L1214.3 353 L1215.2 353.1 L1215.6 352.7 L1217 352.5 L1221.2 352.4 L1221.6 351.8 L1221.2 350.4 L1221.4 348.1 L1221.9 347.1 L1222.6 346.7 L1222.4 345.9 L1224.7 345.2 L1226.4 344.1 L1229.2 343.3 L1229.7 342.2 L1234.4 340.3 L1234.7 339.8 L1236.1 339.6 L1236.8 338.4 L1237.8 338.2 L1239.1 338.5 L1239.4 338.9 L1241.9 337.7 L1245.4 336.5 L1251.6 335.9 L1255 336.1 L1255.7 335.3 L1255 334.5 L1254.6 333.8 L1255.5 333 L1257.3 333.1 L1259.5 334.5 L1261.8 334.9 L1263 333 L1263.5 333.1" stroke="#dacee4" stroke-width="34" stroke-linecap="round" stroke-linejoin="round" opacity="0.92"/>
    <path d="M1181 361.5 L1180.2 360.8 L1181.2 360.7 L1181.3 360.1 L1180.9 357 L1181.1 356.5 L1180.8 356.4 L1180.9 354.4 L1180.6 353.5 L1179.9 353.3 L1179.8 352.5 L1179.4 352.5 L1179.3 352.9 L1177.4 351.4 L1170.8 350.3 L1170.2 350.6 L1169.2 350.5 L1168.4 351 L1168.2 351.7 L1166.7 351.3 L1165.2 350.4 L1164.5 349.5 L1163 349 L1163 348.6 L1161.8 347.8 L1161.4 347.2 L1160 346.7 L1159.7 345.9 L1158.3 344.9 L1157.5 344.9 L1156.8 345.3 L1155.4 344.6 L1154.4 344.9 L1151.3 344.6 L1150.1 345.2 L1147 347.5 L1144.8 347.9 L1143.6 347.7 L1142.7 346.9 L1140 346.1 L1138.2 344.6 L1136.5 344.2 L1135.7 342.3 L1134.4 341.6 L1129.4 340.8 L1127.9 339.7 L1124.5 339.2 L1119.6 336.8 L1118.4 336.6 L1115 337 L1114.7 335.4 L1112.4 334.9 L1111.1 334.2 L1110.4 334.3 L1110.9 332.9 L1110.3 331.8 L1111.6 330.3 L1112.6 330.3 L1112.5 329.3 L1112.1 328.7 L1112.8 327.6 L1114.2 326.9 L1116.7 323.4 L1117.2 323.3 L1118.2 322.2 L1119.2 321.8 L1119.9 320.9 L1120.9 320.2 L1123.8 319.6 L1124 318.8 L1124.6 318.5 L1124.8 316.8 L1124.5 315.6 L1125.1 314.9 L1125.1 313.6 L1126.4 313.4 L1126.5 312.9 L1126.2 311.9 L1126.6 310.6 L1126 309.7 L1126.1 309.2 L1125.3 308.8 L1127.1 307.2 L1126.5 306.1 L1126.6 305.1 L1127 304.5 L1126.2 304.2 L1125.9 301.9 L1126.2 301.4 L1127.4 300.9 L1127.8 300 L1127.5 299.6 L1128 298.6 L1128.5 298.9 L1130.5 298.8 L1128.4 298.8 L1127.9 298.4 L1128 297.6 L1125.6 296.7 L1125.3 296.1 L1125.7 295.1 L1125 293.7 L1125.1 292.8 L1126 291.2 L1125 291 L1124.6 290.3 L1124.1 290.2 L1124.6 289.8 L1124.4 289.6 L1124.7 288.8 L1124.4 288.5 L1123.7 288.7 L1123.3 288.4 L1123.1 288 L1123.6 287.6 L1122.4 285.8 L1122 285.5 L1121.6 285.7 L1121 285.2 L1120.6 285.2 L1119.7 283.8 L1118.2 283 L1118.1 281.3 L1116.2 280.8 L1116.3 280.5 L1114.6 279.3 L1114.4 277.9 L1113.9 277.4 L1113.2 277.4 L1113.8 276.5 L1113.1 275.9 L1113.4 275.5 L1112.4 274.6 L1112.4 273.8 L1111.4 273.3 L1111.3 272.8 L1112.6 272 L1112.8 271.7 L1112.5 271.5 L1113.5 270.6" stroke="#dacee4" stroke-width="25" stroke-linecap="round" stroke-linejoin="round" stroke-dasharray="28 30" opacity="0.76"/>
    <path d="M136.5 493.5 L137.4 493.1 L137.2 492.9 L137.6 492.4 L139.8 491.2 L141.4 492.1 L143.8 491.2 L145.7 491.2 L146.8 491.8 L147.2 491.2 L148.1 491.3 L148.2 490.9 L148.7 490.8 L153 491.5 L154.6 492.1 L156.4 492.3 L157.5 493.4 L160.4 493 L162.1 493.1 L162.9 493.9 L163.7 493 L167.7 492.2 L168.7 492.5 L170.5 494.2 L172.1 495.1 L174.5 495.4 L174.9 496.7 L175.6 496.7 L175.8 497 L175.6 497.5 L175.9 497.7 L177.7 497.1 L180.1 496.8 L183.5 497.2 L185.7 497.9 L188 497.4 L188 497.6 L188.5 497.6 L188.9 500.4 L189.4 501.1 L188.9 501.3 L188.6 501.9 L189 502.2 L189.7 502.3 L194.2 504.6 L195.9 504.7 L195.9 505.2 L197.8 506.2 L201.5 506.6 L201.7 507.6 L202.8 507.6 L203.4 508.1 L200.6 511.3 L199.1 512.4 L198 514.5 L198.1 516.8 L197.7 517.5 L198.4 517.6 L198.5 517.8 L198.3 519.8 L198.7 520.2 L198.4 520.7 L198.6 522.2 L199.9 525.4 L201 526.9 L203.3 527.4 L213 532.1 L214.8 532.5 L216 533.8 L218.8 534.6 L222 536.1 L223.2 536 L228 537.9 L229.1 539.1 L233.5 539 L236.3 539.6 L236.1 539.7 L237.1 540.1 L239.5 540.9 L241.6 540.9 L243.4 538.9 L244.7 538.7 L246.6 540.1 L247.3 540.9 L248 541 L248.3 541.4 L249.6 542 L252 542.1 L254.9 543.2 L258.8 546 L263.9 544.9 L264.1 543.4 L265.5 543 L271.5 544.2 L273.2 544.1 L276.4 546.1 L278 546.2 L280.8 545.9 L281.7 546.5 L284 547.3 L285.7 546.9 L287.8 547 L291 546.3 L293.2 546.4 L295 546.1 L298.4 544.8 L298.9 542.4 L300.2 542.1 L300.8 539.8 L302 540.1 L305.2 538.5 L306.9 538.1 L309.1 536.6 L310.8 536.6 L316 534.5 L317.3 533.6 L318.5 533.4 L321.2 531.3 L322.8 530.9 L323.5 530.2 L324.6 530.1 L326.4 529.3 L327.3 528 L328 527.6 L327.3 528 L326.5 529.3 L325.3 529.5 L324.9 528.8 L326.9 527.7 L331.2 525.7 L333 525.5 L336.4 524.3 L337.9 523.1 L339.3 522.6 L340.7 521.5 L343.9 521.3 L345.7 520.6 L347.5 520.4 L348.4 520.8 L349 520.7 L349.9 521.2 L351.2 521.2 L351.3 520.4 L352.7 517.8 L354.4 516.3 L355.4 516.1 L356.3 516.2 L359.7 515.3 L362.6 515.2 L364.1 514.5 L366 514.2 L369.2 513.1 L372.4 511.6 L378.5 512.2 L380.7 511.6 L384 512.3 L385.9 512.1 L388.5 510.7 L392 510 L398.3 506.7 L401.3 506.1 L405.2 506.5 L408.4 505.6 L413.7 502.7 L417.8 502.4 L424.7 502.5 L431.8 503.4 L432.7 503.9 L432.6 504.5 L433.8 504.7 L434 505 L435.3 505.1 L436.4 504.8 L438.2 505.3 L438.4 505.8 L437.7 506.6 L437.7 507 L437.3 507.2 L438 507.5 L437.5 507.7 L437.5 508.1 L439.3 508.6 L439.4 509.2 L437.6 512 L437.3 514.2 L436.6 515.7 L436.9 517.6 L437.3 517.6 L438.2 518.4 L441.1 518.8 L446 518.8 L447.6 519.1 L449.7 520.2 L450.9 521.9 L455.2 523.8 L457.4 525.6 L459.9 526.7 L461.7 526.8 L465.9 527.7 L467 527.4 L467.2 527 L467.8 527.1 L468.5 526.8 L467.6 525.7 L467.6 524.8 L468.8 524.4 L468.6 524.1 L469.9 523.3 L471.2 523.6 L476.7 523.9 L480.1 523.4 L488.1 524.1 L489.4 523.6 L490.5 524 L492.4 523.7 L493.9 524.2 L495.2 525.4 L495.7 526.2 L496.3 526.5 L496.8 528.8 L497.2 529.2 L499.6 530.5 L501.1 530.3 L503.2 531.5 L505.2 531.9 L508.3 533.6 L512.1 537 L518 537.2 L529.4 535.9 L530.7 536.1 L531.7 535.6 L539.1 534.8 L540.9 533.7 L544.6 534.4 L545.5 535.5 L547.6 535.1 L548.4 535.5 L549.2 535.2 L551.5 535.2 L553.5 535.8 L556.1 535.9 L557.5 536.7 L558.2 536.8 L568.5 537.2 L570 536.7 L572.5 536.4 L575 537 L586 537 L588.7 537.6 L589.9 538.4 L590.1 539.7 L589.7 541.2 L590.5 542.5 L589.8 542.8 L589.8 543.7 L590.6 544.4 L591.8 544.4 L592.8 543.3 L597.7 543.1 L599.2 544.1 L599.2 545.5 L599.5 545.8 L606.8 548.9 L607.7 549.9 L610.1 548.9 L611.4 548.9 L612.3 548.1 L612.3 547.8 L613.6 547.4 L616.1 548.9 L617.2 549 L619.6 549.9 L622.1 550.4 L625.8 550.6 L632.9 552.2 L634.6 550.2 L633.9 548.1 L634.4 546.8 L636.8 545.7 L636.9 546.9 L639 548.2 L639 548.6 L639.4 549 L639.1 548.9 L639.1 549.2 L639.9 549.7 L640.1 550.2 L643.4 549.2 L649 550.1 L650.6 549.9 L652.4 550.5 L653.4 551.4 L655.6 551.9 L656.5 552.5 L658.2 552.4 L661 553.1 L661.8 552.9 L664.5 553.3 L663.5 554.7 L661.7 555.9 L662.3 556 L662.2 556.2 L662.4 556.3 L661.5 557.3 L661.5 558.3 L661.8 558.8 L661.6 559.7 L661.1 559.8 L659.5 558.7 L658.6 558.4 L657.6 559.1 L656.5 561 L657.6 562.1 L657.6 563.1 L658.6 565 L657.8 565.8 L657.9 566.3 L657.6 566.8 L658 567.6 L657.7 568.6 L660.8 570.2 L661.6 571.3 L662.2 571.3 L662.9 571.9 L665.1 572.1 L666.2 573 L665.9 573.5 L666 575.1 L666.2 575.7 L666.8 576.1 L666.8 576.8 L668.8 576.9 L669.3 576.5 L670.6 576.6 L672 576.3 L671.9 577.1 L672.6 578.4 L673.5 578.8 L673.8 579.9 L673.9 580.2 L673.5 580.4 L673.4 581.1 L672.8 581.5 L672.7 582.2 L671.8 582.3 L672.2 583.7 L669.7 583.9 L667.7 585 L667 585 L665.8 586.1 L665.1 588 L665.3 588.3 L662.3 590.3 L662.4 593 L662.8 593.6 L664.6 595.2 L667 595.8 L667.1 596.1 L668.4 596.8 L670.2 597.1 L670.4 597.5 L670 598.2 L670.2 598.6 L673.1 600.4 L674.5 602.7 L674.4 603.7 L674.7 604.8 L674.2 605.6 L674.3 606.2 L674 606.6 L673.5 606.6 L672.4 607.6 L669.8 607.9 L668.2 609.4 L665.7 610.3 L666.1 611.9 L667.1 613.6 L668 614.5 L668.4 615.6 L669.2 615.9 L669.9 615.6 L670.7 616 L671.2 615.7 L672.6 616.1 L673.2 616.7 L673.7 616.5 L674 617.2 L674.9 617.5 L675 618 L675.8 618.5 L676.5 618 L677.9 618.7 L678.3 618.5 L679.5 619.3 L680.4 618.8 L681.2 618.9 L681.7 618.3 L681.7 618.9 L683.4 618.9 L683.8 619.7 L684.8 619.3 L685.6 620.3 L685.9 621.3 L686.6 621.6 L686.6 621.9 L687.1 621.2 L687.2 620.2 L688.2 618.8 L688.1 617.8 L688.8 616.6 L688.5 616.3 L688.4 615.5 L688.7 614.9 L689 613 L689.5 612.5 L689.5 611.8 L690.9 611.8 L692.3 612.4 L692.6 611.7 L695 611 L698 612.4 L698.3 612.7 L698.4 614.3 L699.4 614.9 L700.2 616 L700.5 615.9 L701.3 616.5 L702 616.3 L702.9 617.3 L704.7 617.5 L706.2 618.6 L707.6 618.9 L707.8 619.4 L708.1 619.3 L710 620.5 L712.3 620.4 L712.9 620.8 L714.1 620.8 L715 621 L715.7 621.8 L716.7 621.9 L716.8 622.3 L718.1 622.2 L719.3 621.7 L720.6 621.9 L721 622.3 L720.6 622.6 L721.1 622.9 L720.8 623 L721 623.5 L722 624 L721.8 624.3 L722.7 624.9 L722.1 625.5 L722.6 625.7 L722.4 626.1 L723.1 625.9 L723.2 626.4 L723.6 626.5 L724.1 627.2 L724.2 628.9 L724.5 629.4 L725.5 629.2 L726.4 628.4 L727.1 628.4 L727.9 628.1 L728.3 627.3 L728 627.1 L727.8 626 L728 625.3 L728.5 625 L728.5 624.3 L730.5 623.4 L732 623 L732.4 622.6 L733.1 622.6 L733.3 621.9 L734.2 621.7 L735.3 620.9 L735.3 620.2 L735.7 619.7 L735.4 618.1 L735.6 616.9 L735.9 616.6 L737.5 616.4 L737.8 616 L742 614.8 L742.8 615.3 L744.8 615.1 L745 614.7 L747.3 614.5 L748.6 613.8 L748.6 612.9 L748.1 612.5 L748 612 L748.9 611.2 L749.3 610.2 L749.4 608.6 L748.9 607.6 L749 607.1 L749.3 607.1 L749 607.2 L749.3 607 L749.3 605.6 L749.7 604.5 L750.4 604 L750.5 603 L751.2 602.2 L751.1 601.8 L751.8 600.4 L752.2 600.1 L753.1 600.2 L753.4 599.8 L753.3 598.7 L755.1 597.9 L754.7 597.2 L754.8 596.5 L755.3 595.9 L755.2 595.4 L754.9 595.2 L755.3 593.2 L755 592.7 L755.5 592.9 L755.7 592.5 L756.6 592.5 L756.6 589.5 L754.1 588.6 L753.6 587.9 L753.6 587.2 L753 587.3 L752.5 586.9 L751.4 586.9 L749.3 584.2 L748.3 583.9 L747.4 582.6 L746.9 583 L746.3 582.7 L746 581.5 L745 580.6 L745.3 580.1 L745.1 579.2 L745.5 578.1 L745.8 578 L745.4 577.3 L745.4 576.6 L743.4 577.3 L742.9 576.5 L741 576.8 L741 576.1 L740.3 576 L739.5 575.1 L739.7 575 L739.3 574.7 L739.3 574.1 L738.7 573.8 L738.3 572.7 L738.6 572.2 L736.8 571.2 L737.1 570.9 L736.5 570.5 L736.9 570.1 L736.2 569.8 L735.8 568.8 L736.1 568.3 L736.9 568 L736.3 567.7 L735.7 566.8 L736.2 565.7 L735.4 565 L736 563.7 L736.1 562.2 L734.7 561.6 L735 560.8 L734.7 561.6 L735 559.7 L733 554.5 L733 553.9 L733.7 552.5 L733 550 L732.7 549.1 L731.7 548.3 L730.4 545.4 L730 544.8 L729.1 544.7 L728.6 544.3 L728.6 543.8 L726.9 541.2 L726 540.3 L724.9 538.4 L723.4 536.7 L723.9 535.8 L725.1 535.1 L725.2 534.6 L724.7 533.2 L727.6 531.9 L728.1 530.9 L729.3 527.2 L731 526.6 L734.2 524.1 L734.8 523 L735.2 520.1 L736.2 516.8 L736.4 515.9 L736.1 515.6 L736.5 515.5 L736.8 514.7 L737.2 512.5 L739.1 510.2 L740.6 506.6 L741.4 505.9 L742.1 504.6 L744.1 502.8 L744 501.3 L744.6 501.2 L745 500.4 L744.1 498.4 L744.3 497.9 L744.2 497.4 L744.8 497 L745.4 495.9 L745.6 494.2 L744.8 489.9 L744.8 487.5 L747 485.4 L749.7 483.4 L750.4 482.5 L749.8 482 L749.8 481.5 L751.8 476.4 L755.4 474.4 L756.1 473.4 L761.3 471.4 L762.7 471.4 L767 470.4 L769.1 469.2 L773.2 467.6 L774.4 468 L777.2 470.3 L778.3 470.7 L778.5 471.4 L779.5 472 L780.2 473.4 L780.3 474.6 L781.3 475.4 L784 476.2 L787.3 476.2 L789.7 475.8 L791.2 476.2 L794.8 476.3 L798.5 475.6 L798.4 476.4 L798.7 476.4 L798.7 476.9 L802.6 477.3 L804.8 478.1 L808.8 477.7 L812.3 479.5 L814 480.1 L814.4 480.5 L814.2 481.1 L814.6 481.4 L814.1 483.4 L818.9 484.2 L823.3 483.8 L824.9 483.9 L825.7 484.1 L826.6 484.9 L828.1 485.1 L829.8 486 L830.7 487.2 L831.1 487.2 L831.3 488.8 L831.7 489.4 L831.3 490.1 L831.1 491.3 L832.3 491.7 L832.8 492.2 L833.5 491.7 L835.1 492.4 L836.8 492.3 L837.8 493.4 L837.6 494.1 L836.5 495.3 L836.8 496.5 L836.5 497.4 L838.6 496.7 L842.3 496.1 L843.3 496.3 L843.5 497.1 L847.5 497.1 L849.5 498.8 L849.5 499.4 L848.9 499.5 L848.9 501 L850 501.2 L849.9 500.8 L851.9 501.3 L854.1 501.2 L854.9 502.5 L856.5 502.3 L857.8 502.9 L857.4 503.3 L858.2 504.8 L858.3 506 L859.2 505.5 L859 505 L860.8 504.5 L863.7 503 L866.4 502.7 L868.1 502.1 L868.9 502.2 L869.9 501.8 L871.5 501.9 L871.6 501.4 L872.5 501.2 L873.7 501.1 L874.4 501.3 L875.7 500 L876 498.8 L877.2 498.2 L877.1 497.6 L876 497 L875.6 495.8 L873.8 494.4 L873.6 494 L872.9 493.6 L872.7 493.8 L871.3 492.4 L870.6 490.7 L869.3 490.1 L869.3 489.5 L867.8 487.2 L868.4 487.1 L868.2 485.5 L871.3 484.9 L873.5 481.9 L874.8 481.8 L874.6 481.5 L875.1 481.4 L875.3 480.9 L880.4 479.8 L880.8 480.1 L883.2 479.7 L885 480.1 L887.2 479.7 L888.7 478 L890.5 477.4 L891.8 476.4 L892.7 474 L894.1 473.8 L894.6 474.4 L895.9 474.5 L896.3 475.5 L897.5 475.9 L898 476.4 L898.9 476.5 L899.2 477.2 L900.6 477.9 L901.8 478.1 L902.5 478.9 L903.6 478.8 L903.7 479.3 L904.5 479.5 L904.5 479.7 L906.7 480.2 L907.6 480.1 L907.8 480.5 L910 481.2 L910.6 481.3 L912.3 479.5 L914.2 478.5 L915.3 478.2 L916.1 479.4 L916.1 479.2 L916.5 479.7 L917.3 480.1 L917.6 480.8 L918.7 481.7 L919.8 482.4 L920 483.7 L920.5 484.8 L922.5 487.4 L924.9 487.6 L926 488.9 L926.1 489.6 L927.8 489.6 L930.3 490.8 L930.6 491.8 L932.1 492.8 L933.5 494.4 L934.7 497.3 L935.5 497.9 L935.9 498.9 L936.6 499.2 L937.4 501.2 L938.9 502.9 L941.1 503.4 L942.4 504.4 L947.2 505.6 L948.1 505.9 L948 506.2 L947.7 506.1 L948.5 504.6 L950.2 503.1 L949.8 502.3 L949.8 501.4 L951 500.1 L951.2 499.6 L954.7 497 L955.9 496.7 L956.5 495.9 L958.2 495.2 L958.7 494.7 L958.9 493.7 L960 493.2 L963.6 492.3 L966.3 492.3 L967.8 492.5 L968.6 492.9 L970.7 492.8 L971.5 493.2 L973.7 493.1 L974.9 493.6 L975.8 492.6 L981 490 L982.4 489 L985.1 488.8 L986.4 488.1 L987.8 488 L990.3 486.1 L992.5 485.9 L995.3 484.9 L995.8 484.4 L998.1 484.1 L998.8 483.5 L998.7 482.9 L999.8 481.3 L1001.1 481 L1000.8 480.6 L1001.2 479.8 L1001.1 479.2 L1002.5 477.9 L1004.1 477.3 L1005.5 475.8 L1005.3 475.4 L1005.9 474.7 L1007.8 474.9 L1007.7 474.5 L1008 474.4 L1007.5 473.9 L1007.6 473.5 L1008 473.3 L1008.2 472.7 L1010.2 472.4 L1010.4 471.7 L1012.5 471.2 L1012.4 470.4 L1012 470.1 L1012.6 469.9 L1012.7 469.1 L1012.6 468.7 L1012.1 468.5 L1014.7 466.7 L1015.5 466.5 L1015.6 466.1 L1018.2 464.5 L1020.1 462.6 L1021 462.3 L1023.2 462.6 L1025.5 463.6 L1027.1 464.6 L1029.6 463.1 L1032.6 462.1 L1034.4 461.7 L1036 461.9 L1038.3 461 L1040.2 460.9 L1041.4 459.9 L1043.4 460.1 L1044.3 459.3 L1044.7 458.7 L1045.9 458.4 L1048.1 456.6 L1050.8 455.3 L1052.2 455.2 L1052.2 454.9 L1051.8 455 L1051.8 454.4 L1052.3 453.6 L1053.7 453.4 L1055 453.7 L1056.6 451.8 L1057.3 449.5 L1058.2 448.1 L1061.6 445.8 L1062 445.3 L1062.1 444.7 L1065 442.1 L1065.2 440 L1065.8 439.8 L1064.4 439.3 L1064.9 437.6 L1066.9 436.4 L1067 435.9 L1066.8 435.4 L1068 434.3 L1068.6 432.6 L1070.6 430.7 L1071.6 428.6 L1072.9 428.1 L1074.6 426.3 L1075.4 426.1 L1075.6 425.5 L1078.8 423.1 L1079.6 423 L1079.8 423.4 L1082.3 421.1 L1084.1 419.9 L1087.1 418.4 L1089.5 417.5 L1091 416.3 L1091.3 415.4 L1091.1 414.3 L1089.5 413.1 L1090.9 410.5 L1091.9 409.5 L1092 408.8 L1093.2 408.8 L1093.8 407.6 L1095.6 406 L1096.2 404.3 L1097.8 403.4 L1101.5 400 L1101.7 398 L1102.4 396.8 L1104.9 393.9 L1104.9 393 L1104.6 392.5 L1104.9 391.5 L1107.2 389.6 L1108.3 387.7 L1108.5 386.9 L1110.5 384.8 L1111 383.5 L1113.6 383.3 L1113.2 382.1 L1113.4 381.7 L1113.2 382.1 L1113.5 383.4 L1115.7 383.5 L1119 385.6 L1120.6 386 L1121.7 386.9 L1121.6 387.4 L1122.2 388 L1126.7 389.4 L1127.1 389.8 L1129 390.2 L1129.7 389.5 L1130.6 389.2 L1130.6 388.6 L1132 387.7 L1133.2 388.2 L1133.7 389.1 L1135.2 389.2 L1135.7 389.7 L1137.1 390.4 L1137.8 391.3 L1139.4 391 L1141 391.2 L1143.5 390.4 L1143.9 391.1 L1144.6 391.3 L1145.2 392.6 L1146.3 392.7 L1147.8 393.5 L1147.3 394.4 L1147.9 395.2 L1149.5 395.2 L1150.5 395.5 L1150.6 395.9 L1151.9 395.6 L1152.5 395.9 L1154 395.9 L1155.4 396.5 L1156.8 396.6 L1157.3 397.5 L1157.1 398 L1159.8 399.5 L1161 400.4 L1161.9 401.7 L1166.2 403.1 L1167.4 402.8 L1167.8 403.2 L1168.2 403.1 L1168.1 402.9 L1169.6 402.6 L1170 400.8 L1170.4 400.3 L1171.6 399.8 L1171.8 399 L1171.6 398.6 L1172.4 398.4 L1172.4 398 L1173.1 397.2 L1174.7 396.8 L1174.7 395.9 L1174.5 395 L1176.6 392.5 L1176.6 392 L1177.8 391.3 L1178.6 390.5 L1180.7 390.1 L1181 389.6 L1182.1 390.4 L1182.8 390.2 L1183.2 390.5 L1184.2 390.4 L1184.9 391.2 L1185.9 391.4 L1186.1 391.2 L1185.8 390.7 L1186.2 390.6 L1186.2 390.2 L1188.8 389.5 L1189.9 388.6 L1192.5 389 L1193.7 388.6 L1193.2 387.7 L1193.7 387.2 L1193.7 386.7 L1193.1 386.3 L1192.3 384.6 L1190.4 383 L1190.1 382.1 L1189.6 381.4 L1188.4 381.1 L1186.8 381.2 L1186.1 380.7 L1188.4 377.8 L1189.8 377.1 L1189.1 376.1 L1188.2 376.3 L1187.8 374.9 L1186.6 374.3 L1186.5 373.9 L1186.8 373.3 L1186.1 372.9 L1186.2 372.6 L1185.4 372.2 L1184.5 370.5 L1183.2 369.3 L1183.4 368 L1183.3 367.4 L1182.2 366.7 L1180.9 365.3 L1181 364.5 L1180.4 363.3 L1181 362.3 L1181 361.4 L1181.7 361.8 L1186 360.3 L1187.6 359.7 L1188.4 358.6 L1189.6 358 L1194.6 357.8 L1197.4 356.8 L1197.7 356.4 L1199.5 355.9 L1207.5 355.2 L1209.7 354.2 L1212.1 353.8 L1212.3 354.1 L1213.8 353.6 L1214.3 353 L1215.2 353.1 L1215.6 352.7 L1217 352.5 L1221.2 352.4 L1221.6 351.8 L1221.2 350.4 L1221.4 348.1 L1221.9 347.1 L1222.6 346.7 L1222.4 345.9 L1224.7 345.2 L1226.4 344.1 L1229.2 343.3 L1229.7 342.2 L1234.4 340.3 L1234.7 339.8 L1236.1 339.6 L1236.8 338.4 L1237.8 338.2 L1239.1 338.5 L1239.4 338.9 L1241.9 337.7 L1245.4 336.5 L1251.6 335.9 L1255 336.1 L1255.7 335.3 L1255 334.5 L1254.6 333.8 L1255.5 333 L1257.3 333.1 L1259.5 334.5 L1261.8 334.9 L1263 333 L1263.5 333.1" stroke="#7c5cc4" stroke-width="18" stroke-linecap="round" stroke-linejoin="round"/>
    <path d="M1181 361.5 L1180.2 360.8 L1181.2 360.7 L1181.3 360.1 L1180.9 357 L1181.1 356.5 L1180.8 356.4 L1180.9 354.4 L1180.6 353.5 L1179.9 353.3 L1179.8 352.5 L1179.4 352.5 L1179.3 352.9 L1177.4 351.4 L1170.8 350.3 L1170.2 350.6 L1169.2 350.5 L1168.4 351 L1168.2 351.7 L1166.7 351.3 L1165.2 350.4 L1164.5 349.5 L1163 349 L1163 348.6 L1161.8 347.8 L1161.4 347.2 L1160 346.7 L1159.7 345.9 L1158.3 344.9 L1157.5 344.9 L1156.8 345.3 L1155.4 344.6 L1154.4 344.9 L1151.3 344.6 L1150.1 345.2 L1147 347.5 L1144.8 347.9 L1143.6 347.7 L1142.7 346.9 L1140 346.1 L1138.2 344.6 L1136.5 344.2 L1135.7 342.3 L1134.4 341.6 L1129.4 340.8 L1127.9 339.7 L1124.5 339.2 L1119.6 336.8 L1118.4 336.6 L1115 337 L1114.7 335.4 L1112.4 334.9 L1111.1 334.2 L1110.4 334.3 L1110.9 332.9 L1110.3 331.8 L1111.6 330.3 L1112.6 330.3 L1112.5 329.3 L1112.1 328.7 L1112.8 327.6 L1114.2 326.9 L1116.7 323.4 L1117.2 323.3 L1118.2 322.2 L1119.2 321.8 L1119.9 320.9 L1120.9 320.2 L1123.8 319.6 L1124 318.8 L1124.6 318.5 L1124.8 316.8 L1124.5 315.6 L1125.1 314.9 L1125.1 313.6 L1126.4 313.4 L1126.5 312.9 L1126.2 311.9 L1126.6 310.6 L1126 309.7 L1126.1 309.2 L1125.3 308.8 L1127.1 307.2 L1126.5 306.1 L1126.6 305.1 L1127 304.5 L1126.2 304.2 L1125.9 301.9 L1126.2 301.4 L1127.4 300.9 L1127.8 300 L1127.5 299.6 L1128 298.6 L1128.5 298.9 L1130.5 298.8 L1128.4 298.8 L1127.9 298.4 L1128 297.6 L1125.6 296.7 L1125.3 296.1 L1125.7 295.1 L1125 293.7 L1125.1 292.8 L1126 291.2 L1125 291 L1124.6 290.3 L1124.1 290.2 L1124.6 289.8 L1124.4 289.6 L1124.7 288.8 L1124.4 288.5 L1123.7 288.7 L1123.3 288.4 L1123.1 288 L1123.6 287.6 L1122.4 285.8 L1122 285.5 L1121.6 285.7 L1121 285.2 L1120.6 285.2 L1119.7 283.8 L1118.2 283 L1118.1 281.3 L1116.2 280.8 L1116.3 280.5 L1114.6 279.3 L1114.4 277.9 L1113.9 277.4 L1113.2 277.4 L1113.8 276.5 L1113.1 275.9 L1113.4 275.5 L1112.4 274.6 L1112.4 273.8 L1111.4 273.3 L1111.3 272.8 L1112.6 272 L1112.8 271.7 L1112.5 271.5 L1113.5 270.6" stroke="#7c5cc4" stroke-width="11" stroke-linecap="round" stroke-linejoin="round" stroke-dasharray="24 26" opacity="0.92"/>
  </g>
  <g fill="#fffaf0" stroke="#20231f" stroke-opacity="0.18" stroke-width="3.5">
    <circle cx="136.5" cy="493.5" r="13"/>
    <circle cx="1263.5" cy="333.1" r="13"/>
    <circle cx="1181" cy="361.5" r="10"/>
    <circle cx="1113.5" cy="270.6" r="10"/>
  </g>
  <path d="M72 76H1328V824H72Z" fill="none" stroke="#fffaf0" stroke-opacity="0.42" stroke-width="2"/>
  <rect width="1400" height="900" fill="#3b3020" filter="url(#paperGrain)" opacity="0.24"/>
</svg>
