<svg xmlns="http://www.w3.org/2000/svg" viewBox="0 0 1400 900" role="img" aria-label="丝路与运河之路">
  <defs>
    
    <linearGradient id="paper" x1="0" x2="1" y1="0" y2="1">
      <stop offset="0" stop-color="#fffaf0"/>
      <stop offset="0.48" stop-color="#f7e8d9"/>
      <stop offset="1" stop-color="#c6c8b3"/>
    </linearGradient>
    <filter id="paperGrain" x="0" y="0" width="100%" height="100%">
      <feTurbulence baseFrequency="0.74" numOctaves="2" seed="5" type="fractalNoise"/>
      <feColorMatrix type="saturate" values="0"/>
      <feComponentTransfer>
        <feFuncA type="table" tableValues="0 0.13"/>
      </feComponentTransfer>
    </filter>
    <filter id="assetShadow" x="-18%" y="-18%" width="136%" height="136%">
      <feDropShadow dx="0" dy="18" stdDeviation="18" flood-color="#2f261a" flood-opacity="0.16"/>
    </filter>
    <linearGradient id="inkWash" x1="0" x2="1" y1="0" y2="1">
      <stop offset="0" stop-color="#7d4726" stop-opacity="0.28"/>
      <stop offset="0.52" stop-color="#729d98" stop-opacity="0.18"/>
      <stop offset="1" stop-color="#224744" stop-opacity="0.22"/>
    </linearGradient>
  </defs>
  <rect width="1400" height="900" fill="url(#paper)"/>
  <rect width="1400" height="900" fill="url(#inkWash)"/>
  <g opacity="0.8">
    <path d="M-900 900 L0 0" fill="none" stroke="#c9652c" stroke-width="1" stroke-opacity="0.07"/>
  <path d="M-862 900 L38 0" fill="none" stroke="#c9652c" stroke-width="1" stroke-opacity="0.07"/>
  <path d="M-824 900 L76 0" fill="none" stroke="#c9652c" stroke-width="1" stroke-opacity="0.07"/>
  <path d="M-786 900 L114 0" fill="none" stroke="#c9652c" stroke-width="1" stroke-opacity="0.07"/>
  <path d="M-748 900 L152 0" fill="none" stroke="#c9652c" stroke-width="1" stroke-opacity="0.07"/>
  <path d="M-710 900 L190 0" fill="none" stroke="#c9652c" stroke-width="1" stroke-opacity="0.07"/>
  <path d="M-672 900 L228 0" fill="none" stroke="#c9652c" stroke-width="1" stroke-opacity="0.07"/>
  <path d="M-634 900 L266 0" fill="none" stroke="#c9652c" stroke-width="1" stroke-opacity="0.07"/>
  <path d="M-596 900 L304 0" fill="none" stroke="#c9652c" stroke-width="1" stroke-opacity="0.07"/>
  <path d="M-558 900 L342 0" fill="none" stroke="#c9652c" stroke-width="1" stroke-opacity="0.07"/>
  <path d="M-520 900 L380 0" fill="none" stroke="#c9652c" stroke-width="1" stroke-opacity="0.07"/>
  <path d="M-482 900 L418 0" fill="none" stroke="#c9652c" stroke-width="1" stroke-opacity="0.07"/>
  <path d="M-444 900 L456 0" fill="none" stroke="#c9652c" stroke-width="1" stroke-opacity="0.07"/>
  <path d="M-406 900 L494 0" fill="none" stroke="#c9652c" stroke-width="1" stroke-opacity="0.07"/>
  <path d="M-368 900 L532 0" fill="none" stroke="#c9652c" stroke-width="1" stroke-opacity="0.07"/>
  <path d="M-330 900 L570 0" fill="none" stroke="#c9652c" stroke-width="1" stroke-opacity="0.07"/>
  <path d="M-292 900 L608 0" fill="none" stroke="#c9652c" stroke-width="1" stroke-opacity="0.07"/>
  <path d="M-254 900 L646 0" fill="none" stroke="#c9652c" stroke-width="1" stroke-opacity="0.07"/>
  <path d="M-216 900 L684 0" fill="none" stroke="#c9652c" stroke-width="1" stroke-opacity="0.07"/>
  <path d="M-178 900 L722 0" fill="none" stroke="#c9652c" stroke-width="1" stroke-opacity="0.07"/>
  <path d="M-140 900 L760 0" fill="none" stroke="#c9652c" stroke-width="1" stroke-opacity="0.07"/>
  <path d="M-102 900 L798 0" fill="none" stroke="#c9652c" stroke-width="1" stroke-opacity="0.07"/>
  <path d="M-64 900 L836 0" fill="none" stroke="#c9652c" stroke-width="1" stroke-opacity="0.07"/>
  <path d="M-26 900 L874 0" fill="none" stroke="#c9652c" stroke-width="1" stroke-opacity="0.07"/>
  <path d="M12 900 L912 0" fill="none" stroke="#c9652c" stroke-width="1" stroke-opacity="0.07"/>
  <path d="M50 900 L950 0" fill="none" stroke="#c9652c" stroke-width="1" stroke-opacity="0.07"/>
  <path d="M88 900 L988 0" fill="none" stroke="#c9652c" stroke-width="1" stroke-opacity="0.07"/>
  <path d="M126 900 L1026 0" fill="none" stroke="#c9652c" stroke-width="1" stroke-opacity="0.07"/>
  <path d="M164 900 L1064 0" fill="none" stroke="#c9652c" stroke-width="1" stroke-opacity="0.07"/>
  <path d="M202 900 L1102 0" fill="none" stroke="#c9652c" stroke-width="1" stroke-opacity="0.07"/>
  <path d="M240 900 L1140 0" fill="none" stroke="#c9652c" stroke-width="1" stroke-opacity="0.07"/>
  <path d="M278 900 L1178 0" fill="none" stroke="#c9652c" stroke-width="1" stroke-opacity="0.07"/>
  <path d="M316 900 L1216 0" fill="none" stroke="#c9652c" stroke-width="1" stroke-opacity="0.07"/>
  <path d="M354 900 L1254 0" fill="none" stroke="#c9652c" stroke-width="1" stroke-opacity="0.07"/>
  <path d="M392 900 L1292 0" fill="none" stroke="#c9652c" stroke-width="1" stroke-opacity="0.07"/>
  <path d="M430 900 L1330 0" fill="none" stroke="#c9652c" stroke-width="1" stroke-opacity="0.07"/>
  <path d="M468 900 L1368 0" fill="none" stroke="#c9652c" stroke-width="1" stroke-opacity="0.07"/>
  <path d="M506 900 L1406 0" fill="none" stroke="#c9652c" stroke-width="1" stroke-opacity="0.07"/>
  <path d="M544 900 L1444 0" fill="none" stroke="#c9652c" stroke-width="1" stroke-opacity="0.07"/>
  <path d="M582 900 L1482 0" fill="none" stroke="#c9652c" stroke-width="1" stroke-opacity="0.07"/>
  <path d="M620 900 L1520 0" fill="none" stroke="#c9652c" stroke-width="1" stroke-opacity="0.07"/>
  <path d="M658 900 L1558 0" fill="none" stroke="#c9652c" stroke-width="1" stroke-opacity="0.07"/>
  <path d="M696 900 L1596 0" fill="none" stroke="#c9652c" stroke-width="1" stroke-opacity="0.07"/>
  <path d="M734 900 L1634 0" fill="none" stroke="#c9652c" stroke-width="1" stroke-opacity="0.07"/>
  <path d="M772 900 L1672 0" fill="none" stroke="#c9652c" stroke-width="1" stroke-opacity="0.07"/>
  <path d="M810 900 L1710 0" fill="none" stroke="#c9652c" stroke-width="1" stroke-opacity="0.07"/>
  <path d="M848 900 L1748 0" fill="none" stroke="#c9652c" stroke-width="1" stroke-opacity="0.07"/>
  <path d="M886 900 L1786 0" fill="none" stroke="#c9652c" stroke-width="1" stroke-opacity="0.07"/>
  <path d="M924 900 L1824 0" fill="none" stroke="#c9652c" stroke-width="1" stroke-opacity="0.07"/>
  <path d="M962 900 L1862 0" fill="none" stroke="#c9652c" stroke-width="1" stroke-opacity="0.07"/>
  <path d="M1000 900 L1900 0" fill="none" stroke="#c9652c" stroke-width="1" stroke-opacity="0.07"/>
  <path d="M1038 900 L1938 0" fill="none" stroke="#c9652c" stroke-width="1" stroke-opacity="0.07"/>
  <path d="M1076 900 L1976 0" fill="none" stroke="#c9652c" stroke-width="1" stroke-opacity="0.07"/>
  <path d="M1114 900 L2014 0" fill="none" stroke="#c9652c" stroke-width="1" stroke-opacity="0.07"/>
  <path d="M1152 900 L2052 0" fill="none" stroke="#c9652c" stroke-width="1" stroke-opacity="0.07"/>
  <path d="M1190 900 L2090 0" fill="none" stroke="#c9652c" stroke-width="1" stroke-opacity="0.07"/>
  <path d="M1228 900 L2128 0" fill="none" stroke="#c9652c" stroke-width="1" stroke-opacity="0.07"/>
  <path d="M1266 900 L2166 0" fill="none" stroke="#c9652c" stroke-width="1" stroke-opacity="0.07"/>
  <path d="M1304 900 L2204 0" fill="none" stroke="#c9652c" stroke-width="1" stroke-opacity="0.07"/>
  <path d="M1342 900 L2242 0" fill="none" stroke="#c9652c" stroke-width="1" stroke-opacity="0.07"/>
  <path d="M1380 900 L2280 0" fill="none" stroke="#c9652c" stroke-width="1" stroke-opacity="0.07"/>
    <path d="M-112 -128 C252 -200 448 -56 728 -128 S1148 -200 1512 -110" fill="none" stroke="#246b68" stroke-width="1.2" stroke-opacity="0.16" stroke-linecap="round"/>
  <path d="M-112 0 C252 -72 448 72 728 0 S1148 -72 1512 18" fill="none" stroke="#246b68" stroke-width="1.2" stroke-opacity="0.16" stroke-linecap="round"/>
  <path d="M-112 128 C252 56 448 200 728 128 S1148 56 1512 146" fill="none" stroke="#246b68" stroke-width="1.2" stroke-opacity="0.16" stroke-linecap="round"/>
  <path d="M-112 256 C252 184 448 328 728 256 S1148 184 1512 274" fill="none" stroke="#246b68" stroke-width="1.2" stroke-opacity="0.16" stroke-linecap="round"/>
  <path d="M-112 384 C252 312 448 456 728 384 S1148 312 1512 402" fill="none" stroke="#246b68" stroke-width="1.2" stroke-opacity="0.16" stroke-linecap="round"/>
  <path d="M-112 512 C252 440 448 584 728 512 S1148 440 1512 530" fill="none" stroke="#246b68" stroke-width="1.2" stroke-opacity="0.16" stroke-linecap="round"/>
  <path d="M-112 640 C252 568 448 712 728 640 S1148 568 1512 658" fill="none" stroke="#246b68" stroke-width="1.2" stroke-opacity="0.16" stroke-linecap="round"/>
  <path d="M-112 768 C252 696 448 840 728 768 S1148 696 1512 786" fill="none" stroke="#246b68" stroke-width="1.2" stroke-opacity="0.16" stroke-linecap="round"/>
  <path d="M-112 896 C252 824 448 968 728 896 S1148 824 1512 914" fill="none" stroke="#246b68" stroke-width="1.2" stroke-opacity="0.16" stroke-linecap="round"/>
  <path d="M-112 1024 C252 952 448 1096 728 1024 S1148 952 1512 1042" fill="none" stroke="#246b68" stroke-width="1.2" stroke-opacity="0.16" stroke-linecap="round"/>
  <path d="M-112 1152 C252 1080 448 1224 728 1152 S1148 1080 1512 1170" fill="none" stroke="#246b68" stroke-width="1.2" stroke-opacity="0.16" stroke-linecap="round"/>
  <path d="M-112 1280 C252 1208 448 1352 728 1280 S1148 1208 1512 1298" fill="none" stroke="#246b68" stroke-width="1.2" stroke-opacity="0.16" stroke-linecap="round"/>
  </g>
  <text x="82" y="260" fill="#20231f" fill-opacity="0.07" font-family="'Songti SC','STSong','Source Han Serif SC','Noto Serif CJK SC','SimSun',serif" font-size="168" font-weight="900" writing-mode="vertical-rl">丝路运河</text>
  <text x="1296" y="730" text-anchor="end" fill="#20231f" fill-opacity="0.08" font-family="'Avenir Next',Avenir,Arial,sans-serif" font-size="54" font-weight="900" letter-spacing="7">ROUTE 01</text>
  <g transform="translate(978 86)">
    <g transform="rotate(2 41 41)">
    <rect x="0" y="0" width="82" height="82" rx="11.48" fill="#9f3525"/>
    <rect x="8.200000000000001" y="8.200000000000001" width="65.60000000000001" height="65.60000000000001" rx="8.200000000000001" fill="none" stroke="#fff2df" stroke-opacity="0.72" stroke-width="2.87"/>
    <text x="41" y="49.199999999999996" text-anchor="middle" fill="#fff7e8" font-family="'Kaiti SC','STKaiti','FZKai-Z03S','KaiTi','Songti SC','STSong','Noto Serif CJK SC',serif" font-size="37.72" font-weight="900">路</text>
    <text x="41" y="63.96" text-anchor="middle" fill="#fff2df" font-family="'Avenir Next',Avenir,Arial,sans-serif" font-size="11.48" font-weight="900" letter-spacing="0.8">01</text>
  </g>
  </g>
  <g transform="translate(1060 86)">
    <text x="0" y="28" fill="#20231f" fill-opacity="0.68" font-family="'Kaiti SC','STKaiti','FZKai-Z03S','KaiTi','Songti SC','STSong','Noto Serif CJK SC',serif" font-size="25" font-weight="900">帕米尔以东，东海以西</text>
    <text x="0" y="64" fill="#c9652c" font-family="'Songti SC','STSong','Source Han Serif SC','Noto Serif CJK SC','SimSun',serif" font-size="36" font-weight="900">丝路与运河之路</text>
  </g>
  <g transform="translate(128 628)" opacity="0.82">
    <g transform="translate(0 0) scale(1.1)">
      <path d="M15 74 C46 34 80 97 116 62 S184 31 222 75" fill="none" stroke-linecap="round" stroke-linejoin="round" stroke="#246b68" stroke-width="8"/>
      <path d="M17 101 C68 68 119 124 222 92" fill="none" stroke-linecap="round" stroke-linejoin="round" stroke="#c9652c" stroke-width="5.4" stroke-dasharray="18 13"/>
      <path d="M48 42 C80 25 116 26 152 44" fill="none" stroke-linecap="round" stroke-linejoin="round" stroke="#c9652c" stroke-width="3.4" opacity="0.55"/>
      <circle cx="15" cy="74" r="5.8" fill="#c9652c"/>
      <circle cx="222" cy="75" r="5.8" fill="#246b68"/></g>
  </g>
  <g fill="none" filter="url(#assetShadow)">
    <path d="M155.3 507.5 L156.3 507.4 L157.5 504.9 L154.9 500.1 L154.9 497.8 L153.8 496.1 L153.6 494.8 L153 493.6 L152.9 492.9 L153.5 491.7 L153.3 490.5 L152.1 489.2 L151.1 487.2 L149.4 485.7 L149.2 482.6 L148.6 482.2 L147.9 482.3 L147.7 481.3 L144.3 478.4 L142.2 475.3 L142.2 473.9 L141.5 473.7 L141.7 473.2 L142.6 473 L143.2 472 L145.1 471 L145.4 469.3 L143.6 465.5 L143.6 464.2 L144.6 463.2 L145.6 462.8 L148.3 462.9 L148.9 462.2 L151.1 461.9 L151.7 462.1 L152.3 461.2 L155.5 461 L155.7 458.9 L156.4 457.4 L157.4 456.3 L157.9 454 L157.7 452.5 L156.6 450.2 L157.1 449.5 L162.6 448.9 L165.3 447.2 L166.1 446 L166.2 444.4 L167.5 444.3 L167.2 443 L166.4 442.4 L167.2 441.4 L170.3 440.5 L172.1 439.5 L178.1 437.8 L182 437.5 L182.1 435.8 L181.5 434.5 L182.3 434.2 L182.3 433.6 L182.8 433.1 L182.8 432 L185.1 431.2 L184.9 430.1 L185.3 429.4 L188.1 428.4 L194.3 427.7 L197.1 426.8 L197.9 425.1 L198 423.3 L199 421.8 L200.6 421.1 L203.4 420.8 L203.7 420.4 L205.2 420 L205.6 419.3 L204.6 417.6 L204 415.2 L205.6 414.5 L206.4 413.7 L210 412.5 L210.9 412.7 L213 412.3 L214.6 412.6 L217.3 412.5 L219.5 411.5 L223.6 411.4 L225.6 410.6 L228.5 410.8 L232 408.9 L234.7 408.1 L237.1 406.7 L238.3 407.2 L240.2 406 L242.8 405.2 L246.9 405.8 L251.9 405.1 L254.1 405.6 L257.3 407.2 L259.6 407.4 L261.3 406.8 L263.6 405.4 L264.6 406.5 L266.6 407.3 L267.1 406.7 L268.7 405.9 L269 404 L269.7 403.2 L278.2 401.8 L283.6 399.4 L283.3 399.6 L287.1 400.7 L299.9 400.5 L310.5 397.5 L319.5 396.9 L321.6 397.3 L323.1 396.9 L324.1 395.8 L324.6 394.4 L325.5 394 L327.3 393.9 L329.9 392.9 L331.9 393.3 L335.7 392.4 L340 392.2 L348.7 391.2 L351.8 390.4 L357.4 390.2 L360.4 391.5 L361.7 391.4 L369.2 387.6 L374.9 387 L378.6 386 L381.4 386.1 L382.6 386.6 L385.9 386.5 L390.8 388.3 L396.5 389.8 L404.1 390.4 L406.9 391.6 L407.8 392.7 L407.9 393.7 L409.9 393.7 L411.3 393 L412.9 392.8 L417.4 393.5 L420.4 392.4 L420.8 390.9 L420.1 390.4 L419.8 389.2 L418.9 388.8 L418.9 387.9 L417.4 387.2 L417.1 385.6 L414.4 383 L413.5 380.7 L412.2 379.5 L411.6 378.2 L411.3 378.3 L408.3 375.9 L408.1 375.4 L408.9 374.4 L408.3 373.7 L408.9 373.1 L409.1 369.9 L409.9 369.3 L411 366.9 L411 365.9 L409.2 364.9 L407.2 364.9 L406.4 364.6 L405.2 363.4 L405.1 362.4 L403.3 361.8 L402.3 361.9 L400 360.8 L398.3 360.9 L397.5 360.2 L391.6 360.1 L385 360.9 L378 359.7 L376.1 359 L376.4 358.4 L375.2 357.7 L375.4 358 L374.4 357.8 L374.4 358 L369 356.5 L366.1 356.5 L364.8 356.9 L362.5 356.5 L360.2 355.5 L356.6 354.9 L353.6 353.5 L349 352.8 L343.5 350.8 L339.5 349.9 L337.5 350.1 L326.3 349 L321.9 349.2 L317.9 348.5 L315.1 348.5 L313.6 348.8 L312 348.4 L310.6 347.3 L307.1 345.7 L306.4 344.5 L306.8 343.7 L298.3 341.7 L293.5 341 L290.4 340 L286.9 340.2 L281.7 338.5 L279.1 335 L281.3 334 L286.4 329.2 L288.4 328.3 L288.9 328.6 L288.2 328.1 L292.9 326.8 L294.1 325.4 L297.8 324.9 L298.9 325.4 L299.1 324.9 L301.9 323.8 L302.7 324.1 L303.5 325 L306.8 324.5 L310.4 324.6 L312.5 325.1 L315 326.7 L316.9 327 L322.5 327.1 L324.4 326.5 L326.6 326.7 L327 326.2 L329.8 325.5 L329.7 325 L331.2 324.1 L334.2 324.9 L337.8 325 L342.2 326.6 L344.6 326.4 L346.5 327.2 L347.3 328.2 L352.5 328.5 L356.3 329.5 L357.8 330.4 L364.6 330.6 L369 329 L373.6 329.9 L373.9 330.2 L378.5 330.3 L383.3 331.7 L391.6 331.5 L399.1 332.7 L401.6 332.6 L403.5 331.9 L406.1 332.3 L407.8 331.9 L407.8 332.3 L409.8 333.3 L409.6 333.9 L422.3 335.6 L434.3 339.5 L436.5 341.2 L436.7 341.8 L438.6 342.4 L439.4 344 L440 343.9 L439.8 346.7 L446.7 349.9 L448.2 350.1 L449.1 351.1 L450.6 351.7 L452.8 353.4 L454.7 354.1 L457.2 354.5 L458.1 355.8 L457.8 356.1 L458.1 356.6 L460.4 357.7 L462.4 360.9 L467.7 361.4 L470.7 362.5 L475.3 362.7 L481 364.7 L486 364.9 L487.4 364.2 L492.9 365.2 L494.7 365.1 L496.5 365.6 L499.9 365.4 L507.9 362.7 L513.6 361.9 L517.1 360.3 L518.8 359 L522.8 358.1 L530.4 354.7 L534 354 L532.3 353.2 L531.3 351.4 L534.2 349.4 L535 348.3 L535.5 346.2 L532.4 346 L533 345.7 L533.8 344.4 L535.3 344.1 L536.5 344.7 L540.3 344.9 L543 344.4 L546.1 344.7 L550.3 346.4 L558.7 348.5 L563.1 349 L565.4 348.4 L567.6 348.9 L570.9 348.5 L574.9 349.1 L577.3 350.5 L580.6 352.6 L580.4 353.2 L581.5 354.2 L581.3 354.8 L580.1 355.7 L579.8 357.1 L583.1 358.9 L579.5 360.5 L577.5 364.9 L579.3 365.5 L579.3 366.3 L580 367 L585 367.1 L589.7 369.5 L594.7 373.7 L594.3 377.3 L595.6 379.3 L602.7 384.7 L611.5 389.4 L612.2 390.3 L614.1 390.8 L616.4 390.5 L616.9 390.7 L617.5 392.1 L620 395.5 L621.3 396.8 L621.9 398.5 L622.8 405 L623.1 405.1 L623.4 406.4 L624.7 407.2 L625.1 408.1 L622.7 410 L609.7 425.6 L608.3 426.5 L606.8 428.4 L609.1 429.1 L610.9 429 L612.1 430 L613.4 429.8 L614.5 428.9 L613.1 429.8 L614.3 429.3 L614.6 428.6 L615.2 428.3 L617.7 427.6 L620.7 427.3 L625.3 425.5 L632.3 423.5 L632.5 422 L633.9 420.7 L635.1 421 L645 419.8 L650.2 419.9 L651.5 419.5 L652.4 419.9 L655 419.7 L658.4 420 L660.2 420.9 L660.7 422.5 L662.6 424.1 L662.8 424.8 L661.8 426.6 L662.9 426.9 L664.8 428.6 L669.7 432 L679 435.3 L680.8 436.3 L687.2 438.1 L688.9 438 L690.7 436.9 L690.7 436.4 L691.3 436.3 L693.2 437.2 L693.4 437.9 L692.8 438.6 L695.8 439 L696.1 439.8 L698.2 440.2 L701.6 442.9 L706.5 443.9 L707.7 445.9 L707.6 447.2 L708.4 448.1 L715 450 L716.5 450.9 L718.8 451.6 L719.6 451.2 L719.9 450.6 L721.3 450.6 L724.9 449.1 L728.9 450 L731.5 452.2 L733.9 452.9 L735.5 454.3 L736.7 453.9 L738.3 454.8 L740.1 456.5 L739.9 457.3 L740.9 458 L741.3 458.9 L743.3 458.9 L743.6 458.3 L746.3 458.2 L751.2 460.7 L756.9 461.1 L758.3 462.4 L759.2 462.6 L761.4 465.1 L763.6 466.5 L764.5 468.8 L769.5 471.1 L772.6 473.3 L779.3 475.1 L782.3 476.7 L788.6 479.3 L791 480.8 L792.2 482.3 L793.8 483 L795.1 484.8 L795.7 486.4 L799 489.5 L799.6 491.8 L800.1 492 L799.3 494.1 L800.4 494.5 L800.5 494.8 L799.5 497.1 L798.5 497.8 L798 499.5 L804.5 503.6 L805.4 504.8 L806 506.5 L806.8 507 L807.4 508.8 L809 509.6 L808.5 510.4 L808.6 510.9 L809.5 511.2 L810.4 512.3 L811.4 514.2 L811.5 519 L812.2 520.4 L812.6 523.2 L813.7 523.5 L814.8 524.6 L816.7 524 L818.4 525.3 L820.7 525.6 L820.2 526.1 L820.4 527.5 L820 528.2 L820.6 530.1 L820 531.2 L820.1 531.6 L819.7 532.3 L819.1 532.4 L817.4 534 L819.7 535.4 L822.6 539.2 L822.6 541.9 L821.7 544.9 L824.3 546 L824.9 547.6 L826.3 548.6 L827.1 550.1 L828.2 550.1 L828.8 549 L831 547.6 L839.7 550.1 L842.3 552.3 L842.5 553.9 L843.2 554.4 L843.5 555.4 L844.6 555.8 L844.7 556.2 L845.6 556.5 L846.4 557.3 L848.6 557.2 L850.3 556.3 L856.6 557 L857.2 557.6 L857.4 558.8 L858.2 559.1 L858 559.6 L859.1 559.9 L860.8 561.1 L865.1 561 L866.3 560.5 L872.8 561.9 L873.4 561.4 L874.1 561.9 L874.8 561.4 L875.4 561.6 L875.4 561.9 L876.4 562.1 L877.2 561.4 L879.1 562.1 L881.9 562.4 L882.2 562 L883.5 561.9 L884.5 562.3 L885.2 563.1 L886.2 563.2 L886.3 563.7 L886.8 563.7 L887.5 565.1 L889.8 565.8 L892 565.3 L892.4 565.6 L893.6 564.9 L894.3 565.2 L894.9 564.9 L895.3 565.6 L897.2 565.4 L897.7 566 L900.6 566.7 L905.5 566.7 L906.2 566.2 L908.7 567 L914 567.3 L915.6 568.1 L920.2 568.1 L923 568.5 L928.7 568.5 L934.8 566.8 L934.9 567.4 L936.8 567 L942.5 567.8 L944.7 567.2 L946.8 565.7 L948.2 565.5 L950.6 563.5 L952.3 563.1 L952.3 562.1 L953.9 562.1 L954 561.8 L955.5 562.2 L955.9 562.7 L960 563 L964.9 561.8 L967.7 562 L969.3 561.4 L969.5 561 L971 560.8 L972 561.2 L972 561.7 L972.7 561.7 L973.1 562.2 L975.4 561.9 L976.8 561 L984 561.1 L987.1 560.2 L990.5 560 L991.4 558.8 L992.5 558.4 L997.3 558.5 L999.2 558.1 L1000.5 558.8 L1004 559 L1005.7 558.3 L1008.8 558.7 L1009.9 558.4 L1011.8 558.6 L1013.8 557.8 L1014.6 556.7 L1015.3 556.4 L1017 557 L1018.6 556.6 L1020.6 556.9 L1024.7 556.2 L1027 556.4 L1028.1 555.4 L1028.3 551.7 L1029.4 549.4 L1029.7 547.5 L1031 545.5 L1030.7 543.5 L1031.7 543.1 L1032.4 540.5 L1033.8 540.3 L1035.3 539 L1035.5 537 L1037.6 537.5 L1038.3 536.6 L1038.8 536.6 L1041.8 534.7 L1043.3 533.1 L1043.4 532.2 L1044.2 531.7 L1045.6 531.7 L1046.2 532.2 L1048.5 532.2 L1049.2 532.8 L1051.8 532 L1053.4 532.5 L1056 532.8 L1057 532.1 L1055.4 530 L1054.6 529.6 L1054.3 528.2 L1055.5 527.1 L1056 526.1 L1057.7 525.6 L1058.2 526 L1058.1 526.3 L1061.1 525.7 L1062.8 524.9 L1064.9 525 L1065 524.6 L1064.7 524.3 L1066 524.5 L1066.4 524.9 L1066 524.6 L1066.8 523.8 L1068.4 523.9 L1069.3 517.1 L1070.6 516.2 L1071.6 513.5 L1072.6 513.6 L1073 512.7 L1075.1 513.1 L1077.5 512.9 L1086.1 513.4 L1090.7 514.1 L1092.2 514.8 L1102.6 516.4 L1104.4 516.5 L1106.4 516 L1107.2 516.4 L1107.2 517.6 L1107.6 517.9 L1108.8 517.9 L1111.6 518.9 L1112.7 518.9 L1113.1 518.5 L1114.5 518.6 L1114.4 519.1 L1115.8 519.6 L1116.5 520.8 L1118.8 522.4 L1121.3 523.6 L1123.9 523.9 L1129.2 523.2 L1130.4 523.1 L1130.7 523.4 L1130.6 522.9 L1130.7 524.8 L1132.2 524.9 L1133 525.4 L1132.6 531.8 L1132.9 532.1 L1132.3 533.4 L1131.4 534 L1131.1 536.1 L1129.8 536.3 L1129.5 538.2 L1130.5 538.6 L1130.6 540.5 L1131.5 540.6 L1131.5 541.5 L1130.5 542 L1130.8 543.3 L1134 547.9 L1133.3 548 L1133.7 550.3 L1134.7 550.3 L1135 553.3 L1134.5 554.6 L1134.7 555.8 L1136.1 557.1 L1138.4 558.3 L1139.7 560 L1138.7 561.3 L1138 563.6 L1138.2 564.4 L1137.4 565.2 L1137.3 568.6 L1137.8 569.1 L1137.6 570.2 L1141.7 571.9 L1143.8 573.2 L1144.7 573.5 L1145 572.5 L1145.6 572.6 L1152.9 575.4 L1158.3 576.8 L1160.1 575.8 L1161.5 575.7 L1161.9 576.8 L1166.6 577.1 L1168.5 578.1 L1169 580 L1172.9 580.4 L1173.4 581.2 L1177.9 581.4 L1179.1 582.3 L1180.8 582.3 L1181.6 582.8 L1184.4 589.7 L1186.7 591.9 L1188 595.2 L1189.4 601.3 L1189.3 605.8 L1189.6 607 L1189.2 607.3 L1189.6 607.2 L1191.6 609.6 L1192.4 611.6 L1186.5 613.4 L1186.5 616.1 L1186.9 616.9 L1187.4 617.7 L1189.1 618.2 L1190.6 620.3 L1190.3 621.4 L1191 622.6 L1193.9 623.6 L1196.4 625.4 L1198.2 626.1 L1198.4 626.9 L1198.8 627.2 L1199 626.9 L1201.4 627.3 L1201.5 628.3 L1201.8 628.5 L1205.4 629.4 L1205.9 630.2 L1208.1 630.4 L1207.9 630.9 L1208.4 631.9 L1210.1 632.7 L1210.4 632.4 L1211.3 633.1 L1211.6 633.8 L1210.9 634.1 L1211.6 635.2 L1212.8 635.7 L1214.3 637.1 L1214.9 637.2 L1215.9 639.4 L1215.7 641.1 L1216.9 641.3 L1217.3 642.1 L1216.4 645.8 L1218.2 647.7 L1218.4 649.6 L1218.8 649.8 L1217.4 651.3 L1213.4 653 L1213.7 654.3 L1212.9 655.4 L1209.9 657.5 L1208.3 657.8 L1206 659.2 L1206.2 662.5 L1205.5 663.2 L1205.9 664.2 L1210.6 664.2 L1211.1 664.9 L1211.1 665.8 L1214.1 667.5 L1215.9 667.8 L1216.2 668.2 L1218.7 667.8 L1220.5 668.1 L1220 667.6 L1220 666.7 L1223.4 667.2 L1224.7 666.8 L1228 668.2 L1230.8 668.6 L1230.8 668.1 L1232 668.2 L1235.9 669.6 L1235.6 669.5 L1238.5 668.5 L1239.6 668.5 L1240.1 668.9 L1241 668.1 L1243.1 667 L1246.4 667.1 L1247.5 665.9 L1252.5 667.1 L1255.3 669.1 L1257.1 669.5 L1257.5 670.5 L1258.5 671.3" stroke="#f0d0b9" stroke-width="34" stroke-linecap="round" stroke-linejoin="round" opacity="0.92"/>
    <path d="M440.3 342.1 L441.3 340.7 L440.6 340.6 L440.6 340 L442.3 338.3 L442.3 337.3 L442.8 336.9 L452.5 335.2 L458.3 337.2 L466.6 337 L466.9 336.2 L466.1 335.9 L466.4 333.9 L467.5 330.9 L468.9 329 L469.3 324.8 L469.6 324.1 L469.5 321.5 L470.1 320.6 L474 318.5 L475.1 316.8 L477.8 315.1 L483.7 310.3 L483.8 309.8 L482.6 307.9 L482.8 306.8 L484.3 305 L485.5 302.3 L485.3 296.6 L484.7 295.1 L484.5 293 L486.2 287.2 L486.3 286.1 L485.8 284 L486.7 280.1 L486.8 277.3 L488.3 274.6 L485.9 273.2 L478.1 271.6 L473.1 269.4 L470.9 267.1 L469.3 266.7 L465.4 264.7 L460.3 263.4 L456.9 263.5 L454.9 263.1 L450.5 261.6 L445.1 260.4 L446 259.6 L446.2 257.3 L449.5 254.6 L451 251.9 L451.2 250.4 L451.7 250.4 L452 249.5 L453.3 249.1 L452.6 248.8 L452.5 248 L452.8 246.8 L456.3 245.3 L457.8 245.4 L458.4 244.4 L458.7 243.1 L459.5 243.3 L459 242.5 L457.7 242.4 L457.8 241.7 L456.8 241.2 L457.1 240.9 L456.7 240 L457.8 239.3 L456.6 238.2 L456.7 237.8 L456.3 237.8 L457.2 237.4 L456.1 236.7 L453.7 237.2 L451.6 237 L450.9 236.4 L449 236.7 L448.6 236.1 L448.4 236.3 L444.6 235.1 L444.3 235.6 L440.1 236.6 L439.7 236.1 L439.7 235.3 L439.1 234.9 L439.3 234.5 L438.8 234.4 L439.2 234.1 L438.1 233.7 L438 233.1 L438.3 232.9 L437.6 232.8 L434.2 233.1 L433.8 234 L434.4 234.2 L433.9 234.5 L433.9 234.9 L432.7 234.8 L431.1 235.4 L430.5 234.6 L429.6 234.3 L429.7 233.9 L429.1 233.4 L429.4 233 L429.1 232.7 L429.6 232.5 L427.5 231.4 L426.6 228.7" stroke="#f0d0b9" stroke-width="25" stroke-linecap="round" stroke-linejoin="round" stroke-dasharray="28 30" opacity="0.76"/>
    <path d="M155.3 507.5 L156.3 507.4 L157.5 504.9 L154.9 500.1 L154.9 497.8 L153.8 496.1 L153.6 494.8 L153 493.6 L152.9 492.9 L153.5 491.7 L153.3 490.5 L152.1 489.2 L151.1 487.2 L149.4 485.7 L149.2 482.6 L148.6 482.2 L147.9 482.3 L147.7 481.3 L144.3 478.4 L142.2 475.3 L142.2 473.9 L141.5 473.7 L141.7 473.2 L142.6 473 L143.2 472 L145.1 471 L145.4 469.3 L143.6 465.5 L143.6 464.2 L144.6 463.2 L145.6 462.8 L148.3 462.9 L148.9 462.2 L151.1 461.9 L151.7 462.1 L152.3 461.2 L155.5 461 L155.7 458.9 L156.4 457.4 L157.4 456.3 L157.9 454 L157.7 452.5 L156.6 450.2 L157.1 449.5 L162.6 448.9 L165.3 447.2 L166.1 446 L166.2 444.4 L167.5 444.3 L167.2 443 L166.4 442.4 L167.2 441.4 L170.3 440.5 L172.1 439.5 L178.1 437.8 L182 437.5 L182.1 435.8 L181.5 434.5 L182.3 434.2 L182.3 433.6 L182.8 433.1 L182.8 432 L185.1 431.2 L184.9 430.1 L185.3 429.4 L188.1 428.4 L194.3 427.7 L197.1 426.8 L197.9 425.1 L198 423.3 L199 421.8 L200.6 421.1 L203.4 420.8 L203.7 420.4 L205.2 420 L205.6 419.3 L204.6 417.6 L204 415.2 L205.6 414.5 L206.4 413.7 L210 412.5 L210.9 412.7 L213 412.3 L214.6 412.6 L217.3 412.5 L219.5 411.5 L223.6 411.4 L225.6 410.6 L228.5 410.8 L232 408.9 L234.7 408.1 L237.1 406.7 L238.3 407.2 L240.2 406 L242.8 405.2 L246.9 405.8 L251.9 405.1 L254.1 405.6 L257.3 407.2 L259.6 407.4 L261.3 406.8 L263.6 405.4 L264.6 406.5 L266.6 407.3 L267.1 406.7 L268.7 405.9 L269 404 L269.7 403.2 L278.2 401.8 L283.6 399.4 L283.3 399.6 L287.1 400.7 L299.9 400.5 L310.5 397.5 L319.5 396.9 L321.6 397.3 L323.1 396.9 L324.1 395.8 L324.6 394.4 L325.5 394 L327.3 393.9 L329.9 392.9 L331.9 393.3 L335.7 392.4 L340 392.2 L348.7 391.2 L351.8 390.4 L357.4 390.2 L360.4 391.5 L361.7 391.4 L369.2 387.6 L374.9 387 L378.6 386 L381.4 386.1 L382.6 386.6 L385.9 386.5 L390.8 388.3 L396.5 389.8 L404.1 390.4 L406.9 391.6 L407.8 392.7 L407.9 393.7 L409.9 393.7 L411.3 393 L412.9 392.8 L417.4 393.5 L420.4 392.4 L420.8 390.9 L420.1 390.4 L419.8 389.2 L418.9 388.8 L418.9 387.9 L417.4 387.2 L417.1 385.6 L414.4 383 L413.5 380.7 L412.2 379.5 L411.6 378.2 L411.3 378.3 L408.3 375.9 L408.1 375.4 L408.9 374.4 L408.3 373.7 L408.9 373.1 L409.1 369.9 L409.9 369.3 L411 366.9 L411 365.9 L409.2 364.9 L407.2 364.9 L406.4 364.6 L405.2 363.4 L405.1 362.4 L403.3 361.8 L402.3 361.9 L400 360.8 L398.3 360.9 L397.5 360.2 L391.6 360.1 L385 360.9 L378 359.7 L376.1 359 L376.4 358.4 L375.2 357.7 L375.4 358 L374.4 357.8 L374.4 358 L369 356.5 L366.1 356.5 L364.8 356.9 L362.5 356.5 L360.2 355.5 L356.6 354.9 L353.6 353.5 L349 352.8 L343.5 350.8 L339.5 349.9 L337.5 350.1 L326.3 349 L321.9 349.2 L317.9 348.5 L315.1 348.5 L313.6 348.8 L312 348.4 L310.6 347.3 L307.1 345.7 L306.4 344.5 L306.8 343.7 L298.3 341.7 L293.5 341 L290.4 340 L286.9 340.2 L281.7 338.5 L279.1 335 L281.3 334 L286.4 329.2 L288.4 328.3 L288.9 328.6 L288.2 328.1 L292.9 326.8 L294.1 325.4 L297.8 324.9 L298.9 325.4 L299.1 324.9 L301.9 323.8 L302.7 324.1 L303.5 325 L306.8 324.5 L310.4 324.6 L312.5 325.1 L315 326.7 L316.9 327 L322.5 327.1 L324.4 326.5 L326.6 326.7 L327 326.2 L329.8 325.5 L329.7 325 L331.2 324.1 L334.2 324.9 L337.8 325 L342.2 326.6 L344.6 326.4 L346.5 327.2 L347.3 328.2 L352.5 328.5 L356.3 329.5 L357.8 330.4 L364.6 330.6 L369 329 L373.6 329.9 L373.9 330.2 L378.5 330.3 L383.3 331.7 L391.6 331.5 L399.1 332.7 L401.6 332.6 L403.5 331.9 L406.1 332.3 L407.8 331.9 L407.8 332.3 L409.8 333.3 L409.6 333.9 L422.3 335.6 L434.3 339.5 L436.5 341.2 L436.7 341.8 L438.6 342.4 L439.4 344 L440 343.9 L439.8 346.7 L446.7 349.9 L448.2 350.1 L449.1 351.1 L450.6 351.7 L452.8 353.4 L454.7 354.1 L457.2 354.5 L458.1 355.8 L457.8 356.1 L458.1 356.6 L460.4 357.7 L462.4 360.9 L467.7 361.4 L470.7 362.5 L475.3 362.7 L481 364.7 L486 364.9 L487.4 364.2 L492.9 365.2 L494.7 365.1 L496.5 365.6 L499.9 365.4 L507.9 362.7 L513.6 361.9 L517.1 360.3 L518.8 359 L522.8 358.1 L530.4 354.7 L534 354 L532.3 353.2 L531.3 351.4 L534.2 349.4 L535 348.3 L535.5 346.2 L532.4 346 L533 345.7 L533.8 344.4 L535.3 344.1 L536.5 344.7 L540.3 344.9 L543 344.4 L546.1 344.7 L550.3 346.4 L558.7 348.5 L563.1 349 L565.4 348.4 L567.6 348.9 L570.9 348.5 L574.9 349.1 L577.3 350.5 L580.6 352.6 L580.4 353.2 L581.5 354.2 L581.3 354.8 L580.1 355.7 L579.8 357.1 L583.1 358.9 L579.5 360.5 L577.5 364.9 L579.3 365.5 L579.3 366.3 L580 367 L585 367.1 L589.7 369.5 L594.7 373.7 L594.3 377.3 L595.6 379.3 L602.7 384.7 L611.5 389.4 L612.2 390.3 L614.1 390.8 L616.4 390.5 L616.9 390.7 L617.5 392.1 L620 395.5 L621.3 396.8 L621.9 398.5 L622.8 405 L623.1 405.1 L623.4 406.4 L624.7 407.2 L625.1 408.1 L622.7 410 L609.7 425.6 L608.3 426.5 L606.8 428.4 L609.1 429.1 L610.9 429 L612.1 430 L613.4 429.8 L614.5 428.9 L613.1 429.8 L614.3 429.3 L614.6 428.6 L615.2 428.3 L617.7 427.6 L620.7 427.3 L625.3 425.5 L632.3 423.5 L632.5 422 L633.9 420.7 L635.1 421 L645 419.8 L650.2 419.9 L651.5 419.5 L652.4 419.9 L655 419.7 L658.4 420 L660.2 420.9 L660.7 422.5 L662.6 424.1 L662.8 424.8 L661.8 426.6 L662.9 426.9 L664.8 428.6 L669.7 432 L679 435.3 L680.8 436.3 L687.2 438.1 L688.9 438 L690.7 436.9 L690.7 436.4 L691.3 436.3 L693.2 437.2 L693.4 437.9 L692.8 438.6 L695.8 439 L696.1 439.8 L698.2 440.2 L701.6 442.9 L706.5 443.9 L707.7 445.9 L707.6 447.2 L708.4 448.1 L715 450 L716.5 450.9 L718.8 451.6 L719.6 451.2 L719.9 450.6 L721.3 450.6 L724.9 449.1 L728.9 450 L731.5 452.2 L733.9 452.9 L735.5 454.3 L736.7 453.9 L738.3 454.8 L740.1 456.5 L739.9 457.3 L740.9 458 L741.3 458.9 L743.3 458.9 L743.6 458.3 L746.3 458.2 L751.2 460.7 L756.9 461.1 L758.3 462.4 L759.2 462.6 L761.4 465.1 L763.6 466.5 L764.5 468.8 L769.5 471.1 L772.6 473.3 L779.3 475.1 L782.3 476.7 L788.6 479.3 L791 480.8 L792.2 482.3 L793.8 483 L795.1 484.8 L795.7 486.4 L799 489.5 L799.6 491.8 L800.1 492 L799.3 494.1 L800.4 494.5 L800.5 494.8 L799.5 497.1 L798.5 497.8 L798 499.5 L804.5 503.6 L805.4 504.8 L806 506.5 L806.8 507 L807.4 508.8 L809 509.6 L808.5 510.4 L808.6 510.9 L809.5 511.2 L810.4 512.3 L811.4 514.2 L811.5 519 L812.2 520.4 L812.6 523.2 L813.7 523.5 L814.8 524.6 L816.7 524 L818.4 525.3 L820.7 525.6 L820.2 526.1 L820.4 527.5 L820 528.2 L820.6 530.1 L820 531.2 L820.1 531.6 L819.7 532.3 L819.1 532.4 L817.4 534 L819.7 535.4 L822.6 539.2 L822.6 541.9 L821.7 544.9 L824.3 546 L824.9 547.6 L826.3 548.6 L827.1 550.1 L828.2 550.1 L828.8 549 L831 547.6 L839.7 550.1 L842.3 552.3 L842.5 553.9 L843.2 554.4 L843.5 555.4 L844.6 555.8 L844.7 556.2 L845.6 556.5 L846.4 557.3 L848.6 557.2 L850.3 556.3 L856.6 557 L857.2 557.6 L857.4 558.8 L858.2 559.1 L858 559.6 L859.1 559.9 L860.8 561.1 L865.1 561 L866.3 560.5 L872.8 561.9 L873.4 561.4 L874.1 561.9 L874.8 561.4 L875.4 561.6 L875.4 561.9 L876.4 562.1 L877.2 561.4 L879.1 562.1 L881.9 562.4 L882.2 562 L883.5 561.9 L884.5 562.3 L885.2 563.1 L886.2 563.2 L886.3 563.7 L886.8 563.7 L887.5 565.1 L889.8 565.8 L892 565.3 L892.4 565.6 L893.6 564.9 L894.3 565.2 L894.9 564.9 L895.3 565.6 L897.2 565.4 L897.7 566 L900.6 566.7 L905.5 566.7 L906.2 566.2 L908.7 567 L914 567.3 L915.6 568.1 L920.2 568.1 L923 568.5 L928.7 568.5 L934.8 566.8 L934.9 567.4 L936.8 567 L942.5 567.8 L944.7 567.2 L946.8 565.7 L948.2 565.5 L950.6 563.5 L952.3 563.1 L952.3 562.1 L953.9 562.1 L954 561.8 L955.5 562.2 L955.9 562.7 L960 563 L964.9 561.8 L967.7 562 L969.3 561.4 L969.5 561 L971 560.8 L972 561.2 L972 561.7 L972.7 561.7 L973.1 562.2 L975.4 561.9 L976.8 561 L984 561.1 L987.1 560.2 L990.5 560 L991.4 558.8 L992.5 558.4 L997.3 558.5 L999.2 558.1 L1000.5 558.8 L1004 559 L1005.7 558.3 L1008.8 558.7 L1009.9 558.4 L1011.8 558.6 L1013.8 557.8 L1014.6 556.7 L1015.3 556.4 L1017 557 L1018.6 556.6 L1020.6 556.9 L1024.7 556.2 L1027 556.4 L1028.1 555.4 L1028.3 551.7 L1029.4 549.4 L1029.7 547.5 L1031 545.5 L1030.7 543.5 L1031.7 543.1 L1032.4 540.5 L1033.8 540.3 L1035.3 539 L1035.5 537 L1037.6 537.5 L1038.3 536.6 L1038.8 536.6 L1041.8 534.7 L1043.3 533.1 L1043.4 532.2 L1044.2 531.7 L1045.6 531.7 L1046.2 532.2 L1048.5 532.2 L1049.2 532.8 L1051.8 532 L1053.4 532.5 L1056 532.8 L1057 532.1 L1055.4 530 L1054.6 529.6 L1054.3 528.2 L1055.5 527.1 L1056 526.1 L1057.7 525.6 L1058.2 526 L1058.1 526.3 L1061.1 525.7 L1062.8 524.9 L1064.9 525 L1065 524.6 L1064.7 524.3 L1066 524.5 L1066.4 524.9 L1066 524.6 L1066.8 523.8 L1068.4 523.9 L1069.3 517.1 L1070.6 516.2 L1071.6 513.5 L1072.6 513.6 L1073 512.7 L1075.1 513.1 L1077.5 512.9 L1086.1 513.4 L1090.7 514.1 L1092.2 514.8 L1102.6 516.4 L1104.4 516.5 L1106.4 516 L1107.2 516.4 L1107.2 517.6 L1107.6 517.9 L1108.8 517.9 L1111.6 518.9 L1112.7 518.9 L1113.1 518.5 L1114.5 518.6 L1114.4 519.1 L1115.8 519.6 L1116.5 520.8 L1118.8 522.4 L1121.3 523.6 L1123.9 523.9 L1129.2 523.2 L1130.4 523.1 L1130.7 523.4 L1130.6 522.9 L1130.7 524.8 L1132.2 524.9 L1133 525.4 L1132.6 531.8 L1132.9 532.1 L1132.3 533.4 L1131.4 534 L1131.1 536.1 L1129.8 536.3 L1129.5 538.2 L1130.5 538.6 L1130.6 540.5 L1131.5 540.6 L1131.5 541.5 L1130.5 542 L1130.8 543.3 L1134 547.9 L1133.3 548 L1133.7 550.3 L1134.7 550.3 L1135 553.3 L1134.5 554.6 L1134.7 555.8 L1136.1 557.1 L1138.4 558.3 L1139.7 560 L1138.7 561.3 L1138 563.6 L1138.2 564.4 L1137.4 565.2 L1137.3 568.6 L1137.8 569.1 L1137.6 570.2 L1141.7 571.9 L1143.8 573.2 L1144.7 573.5 L1145 572.5 L1145.6 572.6 L1152.9 575.4 L1158.3 576.8 L1160.1 575.8 L1161.5 575.7 L1161.9 576.8 L1166.6 577.1 L1168.5 578.1 L1169 580 L1172.9 580.4 L1173.4 581.2 L1177.9 581.4 L1179.1 582.3 L1180.8 582.3 L1181.6 582.8 L1184.4 589.7 L1186.7 591.9 L1188 595.2 L1189.4 601.3 L1189.3 605.8 L1189.6 607 L1189.2 607.3 L1189.6 607.2 L1191.6 609.6 L1192.4 611.6 L1186.5 613.4 L1186.5 616.1 L1186.9 616.9 L1187.4 617.7 L1189.1 618.2 L1190.6 620.3 L1190.3 621.4 L1191 622.6 L1193.9 623.6 L1196.4 625.4 L1198.2 626.1 L1198.4 626.9 L1198.8 627.2 L1199 626.9 L1201.4 627.3 L1201.5 628.3 L1201.8 628.5 L1205.4 629.4 L1205.9 630.2 L1208.1 630.4 L1207.9 630.9 L1208.4 631.9 L1210.1 632.7 L1210.4 632.4 L1211.3 633.1 L1211.6 633.8 L1210.9 634.1 L1211.6 635.2 L1212.8 635.7 L1214.3 637.1 L1214.9 637.2 L1215.9 639.4 L1215.7 641.1 L1216.9 641.3 L1217.3 642.1 L1216.4 645.8 L1218.2 647.7 L1218.4 649.6 L1218.8 649.8 L1217.4 651.3 L1213.4 653 L1213.7 654.3 L1212.9 655.4 L1209.9 657.5 L1208.3 657.8 L1206 659.2 L1206.2 662.5 L1205.5 663.2 L1205.9 664.2 L1210.6 664.2 L1211.1 664.9 L1211.1 665.8 L1214.1 667.5 L1215.9 667.8 L1216.2 668.2 L1218.7 667.8 L1220.5 668.1 L1220 667.6 L1220 666.7 L1223.4 667.2 L1224.7 666.8 L1228 668.2 L1230.8 668.6 L1230.8 668.1 L1232 668.2 L1235.9 669.6 L1235.6 669.5 L1238.5 668.5 L1239.6 668.5 L1240.1 668.9 L1241 668.1 L1243.1 667 L1246.4 667.1 L1247.5 665.9 L1252.5 667.1 L1255.3 669.1 L1257.1 669.5 L1257.5 670.5 L1258.5 671.3" stroke="#c9652c" stroke-width="18" stroke-linecap="round" stroke-linejoin="round"/>
    <path d="M440.3 342.1 L441.3 340.7 L440.6 340.6 L440.6 340 L442.3 338.3 L442.3 337.3 L442.8 336.9 L452.5 335.2 L458.3 337.2 L466.6 337 L466.9 336.2 L466.1 335.9 L466.4 333.9 L467.5 330.9 L468.9 329 L469.3 324.8 L469.6 324.1 L469.5 321.5 L470.1 320.6 L474 318.5 L475.1 316.8 L477.8 315.1 L483.7 310.3 L483.8 309.8 L482.6 307.9 L482.8 306.8 L484.3 305 L485.5 302.3 L485.3 296.6 L484.7 295.1 L484.5 293 L486.2 287.2 L486.3 286.1 L485.8 284 L486.7 280.1 L486.8 277.3 L488.3 274.6 L485.9 273.2 L478.1 271.6 L473.1 269.4 L470.9 267.1 L469.3 266.7 L465.4 264.7 L460.3 263.4 L456.9 263.5 L454.9 263.1 L450.5 261.6 L445.1 260.4 L446 259.6 L446.2 257.3 L449.5 254.6 L451 251.9 L451.2 250.4 L451.7 250.4 L452 249.5 L453.3 249.1 L452.6 248.8 L452.5 248 L452.8 246.8 L456.3 245.3 L457.8 245.4 L458.4 244.4 L458.7 243.1 L459.5 243.3 L459 242.5 L457.7 242.4 L457.8 241.7 L456.8 241.2 L457.1 240.9 L456.7 240 L457.8 239.3 L456.6 238.2 L456.7 237.8 L456.3 237.8 L457.2 237.4 L456.1 236.7 L453.7 237.2 L451.6 237 L450.9 236.4 L449 236.7 L448.6 236.1 L448.4 236.3 L444.6 235.1 L444.3 235.6 L440.1 236.6 L439.7 236.1 L439.7 235.3 L439.1 234.9 L439.3 234.5 L438.8 234.4 L439.2 234.1 L438.1 233.7 L438 233.1 L438.3 232.9 L437.6 232.8 L434.2 233.1 L433.8 234 L434.4 234.2 L433.9 234.5 L433.9 234.9 L432.7 234.8 L431.1 235.4 L430.5 234.6 L429.6 234.3 L429.7 233.9 L429.1 233.4 L429.4 233 L429.1 232.7 L429.6 232.5 L427.5 231.4 L426.6 228.7" stroke="#c9652c" stroke-width="11" stroke-linecap="round" stroke-linejoin="round" stroke-dasharray="24 26" opacity="0.92"/>
  </g>
  <g fill="#fffaf0" stroke="#20231f" stroke-opacity="0.18" stroke-width="3.5">
    <circle cx="155.3" cy="507.5" r="13"/>
    <circle cx="1258.5" cy="671.3" r="13"/>
    <circle cx="440.3" cy="342.1" r="10"/>
    <circle cx="426.6" cy="228.7" r="10"/>
  </g>
  <path d="M72 76H1328V824H72Z" fill="none" stroke="#fffaf0" stroke-opacity="0.42" stroke-width="2"/>
  <rect width="1400" height="900" fill="#3b3020" filter="url(#paperGrain)" opacity="0.24"/>
</svg>
