<svg xmlns="http://www.w3.org/2000/svg" viewBox="0 0 1400 900" role="img" aria-label="徐霞客最后远游之路">
  <defs>
    
    <linearGradient id="paper" x1="0" x2="1" y1="0" y2="1">
      <stop offset="0" stop-color="#fffaf0"/>
      <stop offset="0.48" stop-color="#e4eadf"/>
      <stop offset="1" stop-color="#e5caa9"/>
    </linearGradient>
    <filter id="paperGrain" x="0" y="0" width="100%" height="100%">
      <feTurbulence baseFrequency="0.74" numOctaves="2" seed="26" type="fractalNoise"/>
      <feColorMatrix type="saturate" values="0"/>
      <feComponentTransfer>
        <feFuncA type="table" tableValues="0 0.13"/>
      </feComponentTransfer>
    </filter>
    <filter id="assetShadow" x="-18%" y="-18%" width="136%" height="136%">
      <feDropShadow dx="0" dy="18" stdDeviation="18" flood-color="#2f261a" flood-opacity="0.16"/>
    </filter>
    <linearGradient id="inkWash" x1="0" x2="1" y1="0" y2="1">
      <stop offset="0" stop-color="#17514a" stop-opacity="0.28"/>
      <stop offset="0.52" stop-color="#e0a772" stop-opacity="0.18"/>
      <stop offset="1" stop-color="#784f26" stop-opacity="0.22"/>
    </linearGradient>
  </defs>
  <rect width="1400" height="900" fill="url(#paper)"/>
  <rect width="1400" height="900" fill="url(#inkWash)"/>
  <g opacity="0.8">
    <path d="M-900 900 L0 0" fill="none" stroke="#0f766e" stroke-width="1" stroke-opacity="0.07"/>
  <path d="M-862 900 L38 0" fill="none" stroke="#0f766e" stroke-width="1" stroke-opacity="0.07"/>
  <path d="M-824 900 L76 0" fill="none" stroke="#0f766e" stroke-width="1" stroke-opacity="0.07"/>
  <path d="M-786 900 L114 0" fill="none" stroke="#0f766e" stroke-width="1" stroke-opacity="0.07"/>
  <path d="M-748 900 L152 0" fill="none" stroke="#0f766e" stroke-width="1" stroke-opacity="0.07"/>
  <path d="M-710 900 L190 0" fill="none" stroke="#0f766e" stroke-width="1" stroke-opacity="0.07"/>
  <path d="M-672 900 L228 0" fill="none" stroke="#0f766e" stroke-width="1" stroke-opacity="0.07"/>
  <path d="M-634 900 L266 0" fill="none" stroke="#0f766e" stroke-width="1" stroke-opacity="0.07"/>
  <path d="M-596 900 L304 0" fill="none" stroke="#0f766e" stroke-width="1" stroke-opacity="0.07"/>
  <path d="M-558 900 L342 0" fill="none" stroke="#0f766e" stroke-width="1" stroke-opacity="0.07"/>
  <path d="M-520 900 L380 0" fill="none" stroke="#0f766e" stroke-width="1" stroke-opacity="0.07"/>
  <path d="M-482 900 L418 0" fill="none" stroke="#0f766e" stroke-width="1" stroke-opacity="0.07"/>
  <path d="M-444 900 L456 0" fill="none" stroke="#0f766e" stroke-width="1" stroke-opacity="0.07"/>
  <path d="M-406 900 L494 0" fill="none" stroke="#0f766e" stroke-width="1" stroke-opacity="0.07"/>
  <path d="M-368 900 L532 0" fill="none" stroke="#0f766e" stroke-width="1" stroke-opacity="0.07"/>
  <path d="M-330 900 L570 0" fill="none" stroke="#0f766e" stroke-width="1" stroke-opacity="0.07"/>
  <path d="M-292 900 L608 0" fill="none" stroke="#0f766e" stroke-width="1" stroke-opacity="0.07"/>
  <path d="M-254 900 L646 0" fill="none" stroke="#0f766e" stroke-width="1" stroke-opacity="0.07"/>
  <path d="M-216 900 L684 0" fill="none" stroke="#0f766e" stroke-width="1" stroke-opacity="0.07"/>
  <path d="M-178 900 L722 0" fill="none" stroke="#0f766e" stroke-width="1" stroke-opacity="0.07"/>
  <path d="M-140 900 L760 0" fill="none" stroke="#0f766e" stroke-width="1" stroke-opacity="0.07"/>
  <path d="M-102 900 L798 0" fill="none" stroke="#0f766e" stroke-width="1" stroke-opacity="0.07"/>
  <path d="M-64 900 L836 0" fill="none" stroke="#0f766e" stroke-width="1" stroke-opacity="0.07"/>
  <path d="M-26 900 L874 0" fill="none" stroke="#0f766e" stroke-width="1" stroke-opacity="0.07"/>
  <path d="M12 900 L912 0" fill="none" stroke="#0f766e" stroke-width="1" stroke-opacity="0.07"/>
  <path d="M50 900 L950 0" fill="none" stroke="#0f766e" stroke-width="1" stroke-opacity="0.07"/>
  <path d="M88 900 L988 0" fill="none" stroke="#0f766e" stroke-width="1" stroke-opacity="0.07"/>
  <path d="M126 900 L1026 0" fill="none" stroke="#0f766e" stroke-width="1" stroke-opacity="0.07"/>
  <path d="M164 900 L1064 0" fill="none" stroke="#0f766e" stroke-width="1" stroke-opacity="0.07"/>
  <path d="M202 900 L1102 0" fill="none" stroke="#0f766e" stroke-width="1" stroke-opacity="0.07"/>
  <path d="M240 900 L1140 0" fill="none" stroke="#0f766e" stroke-width="1" stroke-opacity="0.07"/>
  <path d="M278 900 L1178 0" fill="none" stroke="#0f766e" stroke-width="1" stroke-opacity="0.07"/>
  <path d="M316 900 L1216 0" fill="none" stroke="#0f766e" stroke-width="1" stroke-opacity="0.07"/>
  <path d="M354 900 L1254 0" fill="none" stroke="#0f766e" stroke-width="1" stroke-opacity="0.07"/>
  <path d="M392 900 L1292 0" fill="none" stroke="#0f766e" stroke-width="1" stroke-opacity="0.07"/>
  <path d="M430 900 L1330 0" fill="none" stroke="#0f766e" stroke-width="1" stroke-opacity="0.07"/>
  <path d="M468 900 L1368 0" fill="none" stroke="#0f766e" stroke-width="1" stroke-opacity="0.07"/>
  <path d="M506 900 L1406 0" fill="none" stroke="#0f766e" stroke-width="1" stroke-opacity="0.07"/>
  <path d="M544 900 L1444 0" fill="none" stroke="#0f766e" stroke-width="1" stroke-opacity="0.07"/>
  <path d="M582 900 L1482 0" fill="none" stroke="#0f766e" stroke-width="1" stroke-opacity="0.07"/>
  <path d="M620 900 L1520 0" fill="none" stroke="#0f766e" stroke-width="1" stroke-opacity="0.07"/>
  <path d="M658 900 L1558 0" fill="none" stroke="#0f766e" stroke-width="1" stroke-opacity="0.07"/>
  <path d="M696 900 L1596 0" fill="none" stroke="#0f766e" stroke-width="1" stroke-opacity="0.07"/>
  <path d="M734 900 L1634 0" fill="none" stroke="#0f766e" stroke-width="1" stroke-opacity="0.07"/>
  <path d="M772 900 L1672 0" fill="none" stroke="#0f766e" stroke-width="1" stroke-opacity="0.07"/>
  <path d="M810 900 L1710 0" fill="none" stroke="#0f766e" stroke-width="1" stroke-opacity="0.07"/>
  <path d="M848 900 L1748 0" fill="none" stroke="#0f766e" stroke-width="1" stroke-opacity="0.07"/>
  <path d="M886 900 L1786 0" fill="none" stroke="#0f766e" stroke-width="1" stroke-opacity="0.07"/>
  <path d="M924 900 L1824 0" fill="none" stroke="#0f766e" stroke-width="1" stroke-opacity="0.07"/>
  <path d="M962 900 L1862 0" fill="none" stroke="#0f766e" stroke-width="1" stroke-opacity="0.07"/>
  <path d="M1000 900 L1900 0" fill="none" stroke="#0f766e" stroke-width="1" stroke-opacity="0.07"/>
  <path d="M1038 900 L1938 0" fill="none" stroke="#0f766e" stroke-width="1" stroke-opacity="0.07"/>
  <path d="M1076 900 L1976 0" fill="none" stroke="#0f766e" stroke-width="1" stroke-opacity="0.07"/>
  <path d="M1114 900 L2014 0" fill="none" stroke="#0f766e" stroke-width="1" stroke-opacity="0.07"/>
  <path d="M1152 900 L2052 0" fill="none" stroke="#0f766e" stroke-width="1" stroke-opacity="0.07"/>
  <path d="M1190 900 L2090 0" fill="none" stroke="#0f766e" stroke-width="1" stroke-opacity="0.07"/>
  <path d="M1228 900 L2128 0" fill="none" stroke="#0f766e" stroke-width="1" stroke-opacity="0.07"/>
  <path d="M1266 900 L2166 0" fill="none" stroke="#0f766e" stroke-width="1" stroke-opacity="0.07"/>
  <path d="M1304 900 L2204 0" fill="none" stroke="#0f766e" stroke-width="1" stroke-opacity="0.07"/>
  <path d="M1342 900 L2242 0" fill="none" stroke="#0f766e" stroke-width="1" stroke-opacity="0.07"/>
  <path d="M1380 900 L2280 0" fill="none" stroke="#0f766e" stroke-width="1" stroke-opacity="0.07"/>
    <path d="M-112 -128 C252 -200 448 -56 728 -128 S1148 -200 1512 -110" fill="none" stroke="#d07a2d" stroke-width="1.2" stroke-opacity="0.16" stroke-linecap="round"/>
  <path d="M-112 0 C252 -72 448 72 728 0 S1148 -72 1512 18" fill="none" stroke="#d07a2d" stroke-width="1.2" stroke-opacity="0.16" stroke-linecap="round"/>
  <path d="M-112 128 C252 56 448 200 728 128 S1148 56 1512 146" fill="none" stroke="#d07a2d" stroke-width="1.2" stroke-opacity="0.16" stroke-linecap="round"/>
  <path d="M-112 256 C252 184 448 328 728 256 S1148 184 1512 274" fill="none" stroke="#d07a2d" stroke-width="1.2" stroke-opacity="0.16" stroke-linecap="round"/>
  <path d="M-112 384 C252 312 448 456 728 384 S1148 312 1512 402" fill="none" stroke="#d07a2d" stroke-width="1.2" stroke-opacity="0.16" stroke-linecap="round"/>
  <path d="M-112 512 C252 440 448 584 728 512 S1148 440 1512 530" fill="none" stroke="#d07a2d" stroke-width="1.2" stroke-opacity="0.16" stroke-linecap="round"/>
  <path d="M-112 640 C252 568 448 712 728 640 S1148 568 1512 658" fill="none" stroke="#d07a2d" stroke-width="1.2" stroke-opacity="0.16" stroke-linecap="round"/>
  <path d="M-112 768 C252 696 448 840 728 768 S1148 696 1512 786" fill="none" stroke="#d07a2d" stroke-width="1.2" stroke-opacity="0.16" stroke-linecap="round"/>
  <path d="M-112 896 C252 824 448 968 728 896 S1148 824 1512 914" fill="none" stroke="#d07a2d" stroke-width="1.2" stroke-opacity="0.16" stroke-linecap="round"/>
  <path d="M-112 1024 C252 952 448 1096 728 1024 S1148 952 1512 1042" fill="none" stroke="#d07a2d" stroke-width="1.2" stroke-opacity="0.16" stroke-linecap="round"/>
  <path d="M-112 1152 C252 1080 448 1224 728 1152 S1148 1080 1512 1170" fill="none" stroke="#d07a2d" stroke-width="1.2" stroke-opacity="0.16" stroke-linecap="round"/>
  <path d="M-112 1280 C252 1208 448 1352 728 1280 S1148 1208 1512 1298" fill="none" stroke="#d07a2d" stroke-width="1.2" stroke-opacity="0.16" stroke-linecap="round"/>
  </g>
  <text x="82" y="260" fill="#20231f" fill-opacity="0.07" font-family="'Songti SC','STSong','Source Han Serif SC','Noto Serif CJK SC','SimSun',serif" font-size="168" font-weight="900" writing-mode="vertical-rl">华南之路</text>
  <text x="1296" y="730" text-anchor="end" fill="#20231f" fill-opacity="0.08" font-family="'Avenir Next',Avenir,Arial,sans-serif" font-size="54" font-weight="900" letter-spacing="7">ROUTE 08</text>
  <g transform="translate(978 86)">
    <g transform="rotate(2 41 41)">
    <rect x="0" y="0" width="82" height="82" rx="11.48" fill="#9f3525"/>
    <rect x="8.200000000000001" y="8.200000000000001" width="65.60000000000001" height="65.60000000000001" rx="8.200000000000001" fill="none" stroke="#fff2df" stroke-opacity="0.72" stroke-width="2.87"/>
    <text x="41" y="49.199999999999996" text-anchor="middle" fill="#fff7e8" font-family="'Kaiti SC','STKaiti','FZKai-Z03S','KaiTi','Songti SC','STSong','Noto Serif CJK SC',serif" font-size="37.72" font-weight="900">路</text>
    <text x="41" y="63.96" text-anchor="middle" fill="#fff2df" font-family="'Avenir Next',Avenir,Arial,sans-serif" font-size="11.48" font-weight="900" letter-spacing="0.8">08</text>
  </g>
  </g>
  <g transform="translate(1060 86)">
    <text x="0" y="28" fill="#20231f" fill-opacity="0.68" font-family="'Kaiti SC','STKaiti','FZKai-Z03S','KaiTi','Songti SC','STSong','Noto Serif CJK SC',serif" font-size="25" font-weight="900">循徐霞客最后远游入西南</text>
    <text x="0" y="64" fill="#0f766e" font-family="'Songti SC','STSong','Source Han Serif SC','Noto Serif CJK SC','SimSun',serif" font-size="36" font-weight="900">徐霞客最后远游之路</text>
  </g>
  <g transform="translate(128 628)" opacity="0.82">
    <g transform="translate(0 0) scale(1.1)">
      <path d="M8 128 C31 79 59 51 87 126 C112 67 149 35 179 126 C204 85 232 82 263 128" fill="none" stroke-linecap="round" stroke-linejoin="round" stroke="#0f766e" stroke-width="7"/>
      <path d="M48 142 C91 116 142 153 217 108" fill="none" stroke-linecap="round" stroke-linejoin="round" stroke="#d07a2d" stroke-width="5" stroke-dasharray="14 10"/>
      <path d="M69 53 C85 40 101 40 116 54" fill="none" stroke-linecap="round" stroke-linejoin="round" stroke="#d07a2d" stroke-width="4" opacity="0.72"/>
      <circle cx="179" cy="126" r="5" fill="#d07a2d"/></g>
  </g>
  <g fill="none" filter="url(#assetShadow)">
    <path d="M1232.7 251.9 L1234.2 257.3 L1234.8 265.3 L1232.5 264.4 L1223.9 268.8 L1224 270.9 L1224.8 272 L1223.9 273.8 L1219.3 275.5 L1215.3 274 L1212.8 277.3 L1209.7 276.1 L1208.8 277.1 L1208.6 278.8 L1193.6 276.3 L1193.1 282.2 L1193.6 284.6 L1191.1 285.4 L1190.6 286.4 L1191 287.6 L1189.5 290.6 L1190.7 294 L1192.6 295.6 L1191.6 299.6 L1190.4 299.6 L1190.9 301.4 L1189.7 302.7 L1186.4 303 L1185.8 304.6 L1183.7 305.9 L1182.9 308.6 L1176.3 309.8 L1171.2 314.9 L1169.3 315 L1169 316.2 L1166.6 317.2 L1166.3 318.6 L1166.9 319.2 L1165.8 320.1 L1165.7 321.9 L1162.9 324.6 L1162.7 326.4 L1160.5 328.3 L1153.1 338.4 L1149.8 340.3 L1149.5 344.6 L1148.3 344.6 L1147.1 347.7 L1145.2 348.4 L1145.6 347.5 L1144.7 349.1 L1141 351 L1142.3 353.2 L1141.2 355.3 L1138.4 356.3 L1139.1 358.2 L1138.5 362 L1137 363.2 L1136.3 366.2 L1135.3 366.8 L1137 367.3 L1137.9 369.1 L1138.5 368.7 L1141.1 370.7 L1142.3 370.8 L1143.9 373.5 L1141.9 379 L1143.6 385.6 L1141.9 387.5 L1141.3 389.8 L1146.7 393 L1148.1 395.5 L1145 397.1 L1137.8 403.5 L1134.7 404.4 L1132.4 408.5 L1130.8 408.9 L1129.6 414.4 L1120.6 420.2 L1119.1 420.5 L1116.5 418.4 L1113.8 418.1 L1112.6 417 L1109 417.9 L1107 419.3 L1103.3 418.6 L1090.3 423.7 L1084.4 424.4 L1081.4 426.2 L1077.7 427.1 L1077.8 430 L1076.1 431.1 L1075.4 433.1 L1071.1 435.4 L1065.8 440.6 L1066.7 442.7 L1066.1 446.6 L1066.8 449.6 L1064.5 452.7 L1062.2 453.9 L1061.9 456.2 L1059.7 457.5 L1059.2 461.5 L1056.2 466.5 L1055.6 472.7 L1054.4 474.1 L1050.6 475.6 L1046.7 474.7 L1043.7 477.3 L1043.2 480.1 L1042.5 480 L1039.8 479 L1036.8 476.3 L1037.7 471.2 L1036.1 470 L1035.8 468.6 L1033 466.4 L1031.1 466.1 L1030.4 464.6 L1027 463.3 L1024.5 463.4 L1023.2 464.6 L1021.5 464 L1020.4 465.1 L1017.4 463.5 L1015.4 463.7 L1014.9 464.6 L1010.3 465.6 L1007.1 468.2 L1005.4 468.5 L1001.2 467.8 L995.7 463.1 L991.1 468 L989.8 474.5 L985.6 477.6 L985.1 480.3 L982.9 482.2 L982.9 484.1 L979.8 484.3 L979.5 490 L979.9 489.7 L974.8 488 L970 485.1 L959.5 485.2 L956.5 483.9 L952 483.7 L950.8 482.4 L948.7 481.8 L946.1 482.2 L944.3 483.6 L939.7 483 L935.3 483.9 L930.6 483.5 L927.7 484.6 L926.4 486.2 L922.3 487.5 L916.1 492.5 L914.9 492.4 L914.5 493.4 L913.9 492.9 L913.6 495.2 L908.6 491.8 L904.3 490.7 L899.1 487.7 L897.1 485.4 L893.7 485.1 L888.3 483.1 L883.9 482.7 L882 484.4 L877.9 485.7 L869.5 486 L864.8 485.2 L866.8 489.9 L857.7 491.7 L854 491.1 L852.8 491.8 L852.6 493.1 L850.1 494.6 L843.1 493.1 L837.1 494.6 L833.7 496.9 L834.2 505.4 L831.3 508.2 L831 510.5 L825.2 518.9 L822.3 519.7 L821.5 521.6 L819.8 521.9 L817.3 520.9 L814.3 522.3 L813.7 523.9 L811.4 525.8 L808.4 525.7 L802.9 528 L796.6 534 L797.9 534.9 L796.6 534 L794.5 533.9 L791.9 535.8 L787.5 537.6 L785.7 539.1 L785.4 540.6 L779.1 549.4 L774.3 548.7 L771.2 549.7 L763.1 558.8 L761.4 564.4 L763.9 564.6 L766 569.5 L764.8 571.8 L761.4 571.9 L761.7 574 L763 578 L766 582.5 L766.9 586.8 L771.4 589.6 L771.6 591.1 L769.4 591.6 L770.1 593.5 L769.4 594.6 L767.9 595 L768.6 596.3 L768.1 598.2 L766 601.1 L767 603.2 L764.5 602.9 L754.6 606.4 L751.5 609.6 L750.2 609.7 L747.3 607.4 L745.8 604.9 L746.4 603.5 L746 601.9 L741.2 599.5 L739.2 602.2 L736.3 602.6 L733.4 604.9 L721.3 610.2 L720.8 616.5 L719.3 616.8 L715.5 615.2 L713.8 612.7 L714 609.7 L710.7 607.5 L709.1 604.4 L704.8 600.8 L697 601.1 L694 602.5 L689.7 603.2 L682.1 603 L676.9 601.2 L670.9 595.1 L670.4 593.1 L667.4 591.6 L659.8 592 L656.3 593.8 L655.4 593.1 L653.9 594.4 L650.4 594.4 L646.7 593.5 L640 588.8 L638.6 586.9 L638.9 586 L635.8 582.2 L630.4 577.7 L629.9 573 L630.7 571 L627 567.9 L627.2 567.3 L625.5 565.2 L627.6 562.2 L627.3 560.7 L628 560.1 L627 559 L626.5 556 L628.9 553.2 L629.8 549.4 L629.1 547.9 L630.5 545.9 L630.7 544 L630.2 543.5 L632.1 539.2 L632.4 534.8 L633.2 533.7 L632.7 531.7 L629.4 530.2 L628.1 528.7 L630.6 522.3 L630.6 515.3 L629.7 513.7 L631.4 512.3 L634.4 503.3 L634.1 501.5 L631.5 501.4 L623.3 504.5 L619 503.5 L616.7 504 L615.3 506.5 L614.5 506.2 L614.4 507.3 L612.8 507.9 L612.4 509 L606 510.2 L604.3 509.1 L601.4 509 L600.1 508.2 L601.4 508.7 L603.3 508.3 L605.6 509.4 L597.6 508.5 L595.6 506.8 L595.9 507.8 L594.2 509 L590.2 509.4 L589.4 507.3 L586.4 503.8 L582.6 504.5 L575.7 507.9 L573.2 511 L565.4 514.2 L561.4 516.7 L558.3 520 L553.9 521.9 L546.7 528.8 L543.3 530.7 L542.8 532.6 L539.6 534 L540.3 534.3 L538.4 533.7 L537.5 534.4 L536.9 533.8 L536 535.8 L532.5 537.1 L531.6 536.6 L531.9 537.5 L527.5 537.7 L525 538.9 L523.1 538.6 L523.1 539.2 L521.7 539.8 L522.1 540.1 L521.4 539.7 L519.3 541 L516.6 540.4 L516.5 541.1 L514.9 540.9 L513 539.9 L507.9 542.3 L505.7 541.9 L505.5 540.8 L494.2 539.5 L489.2 542.8 L487.7 543.2 L487.3 542.6 L486.1 543.6 L483.9 543.8 L483.6 545 L481.4 546.6 L481 548.2 L480 548.9 L478.4 546.9 L476.8 547.1 L476.2 545.3 L474.7 544.5 L473.7 545.3 L471.5 544.8 L465.5 547.3 L459.2 547 L455.6 550.7 L455.6 555.7 L452.9 553.8 L450.4 555.2 L450.5 556 L447.7 555.7 L445.1 556.8 L444.1 556 L440.2 555.5 L438.5 556.8 L436.3 557 L435.1 556.2 L432.6 557.5 L427.8 564.2 L425.3 564.7 L424.7 565.8 L421.6 567.8 L420.4 567.2 L420 568.7 L417.7 569.9 L415.3 574.3 L410.6 576.9 L409 578.7 L405.7 577 L403.7 577.6 L402.1 576.6 L399 579 L398.4 580.6 L393.1 582 L388 581.8 L387.3 580.6 L385.3 579.6 L383.3 579.8 L381.1 581.3 L378.7 580.1 L378 577.6 L376.2 577.7 L374.7 575.5 L373.7 571.7 L372.2 571.5 L371.2 570.4 L369 571 L365.7 570.6 L361.6 573.6 L361.1 575 L359.1 576.8 L358.1 576.9 L355.2 576.2 L353.4 574 L350.7 575 L347.8 573.8 L345.2 574.3 L342.2 572.4 L340.1 572 L337.7 568.6 L334 568.5 L329.9 566.9 L326.6 563.8 L324.4 563.6 L322.7 562 L321.5 562.4 L317.2 560.6 L313.7 558.1 L311.9 559.3 L309.4 558 L311.9 559.3 L313.2 558.2 L306.8 559 L302.4 557.2 L302.1 554.4 L305 550.6 L306.9 545.7 L303.9 545.6 L303.9 541.2 L303.2 541.5 L300.4 539.4 L299.7 537.4 L298.5 537.4 L296.7 535.3 L295.4 536.3 L293.5 540.3 L290.8 540.7 L288.8 538.9 L289.2 538.6 L287.2 539.2 L286.5 541.6 L287.4 544.9 L288.6 544.8 L289.4 547.1 L290 547.2 L287.1 551.2 L283.3 551.3 L281.6 552 L278.8 551 L275.6 555.2 L272 555.7 L268.4 557.2 L266.3 556.1 L265.5 553.8 L264.3 553.8 L263.9 552.9 L262.7 552.6 L261.3 554 L258 554.8 L256.2 556.4 L253.9 557.2 L253.9 558.6 L252.2 558 L251 558.5 L249.8 557.4 L246.2 556.8 L245 559 L240 556.4 L237.5 553.7 L235 553.3 L233.9 549.7 L234.1 547.9 L233.5 547.5 L230.4 547.1 L229.5 548.9 L227 548.2 L224.1 548.4 L223.2 547.1 L222.9 537.9 L221.5 535.5 L223.3 544.8 L222.8 548.9 L223.5 549.7 L223.2 550.9 L225.1 558.1 L228.1 559.9 L238 562.2 L239.1 564.3 L239.5 570.7 L236.6 573.9 L236.2 577.9 L232.2 578.5 L226.8 576.5 L225 579.1 L226.2 580.2 L225.2 580.1 L224.6 581.1 L224.7 585.3 L223.9 587.8 L223.3 587.7 L223.8 588.5 L221.3 586.7 L219.4 587.7 L217.9 585.6 L215.8 584.9 L215.3 583.5 L214 583.8 L212.7 582.1 L210.1 581.9 L206.8 579.9 L205 578.2 L205.2 577.2 L203.1 577.4 L201.3 575.9 L199.9 577.5 L200.5 580.3 L200 583.4 L195.2 587.8 L186.1 590.4 L183.4 592.4 L179.3 594 L176.8 592.8 L168.2 602.4 L169.1 602.9 L171.3 601.5 L170 603.3 L171 605.2 L174.1 606.6 L175.6 614.3 L172.8 616.1 L172.4 618.6 L174.9 620.5 L173.6 622 L176.6 624.5 L168.7 630.6 L166.4 631.5 L165.1 630.9" stroke="#bcd5cc" stroke-width="34" stroke-linecap="round" stroke-linejoin="round" opacity="0.92"/>
    <path d="M438.5 605.6 L440.9 605.3 L445.4 601.1 L447.8 600.6 L450.2 601.2 L453.4 600.2 L454.5 600.9 L455.4 600.2 L459.3 602.6 L463.3 600.7 L463.3 600 L464.1 600.4 L466.1 599.5 L468 600 L475.1 594.2 L475.9 595.7 L477.9 595.1 L480 598.3 L479.9 599.8 L481.1 599.5 L481.5 600.7 L480.1 602.7 L478.1 603.3 L476.9 606 L478.9 609.4 L479.8 609.5 L479.3 610.4 L480.3 611.8 L477.8 614.8 L473.3 616.8 L473.2 619 L471.5 621.3 L473 624.4 L473 627.1 L475.6 629 L474.2 632.5 L476.7 633.1 L477.4 634.6 L476.2 635 L473.7 638.4 L473.3 637.8 L468.4 637.5 L466.1 639.1 L462.3 638.8 L460.8 637.4 L456.7 637.6 L453.4 636.5 L447.9 636.3 L444.9 634.1 L436.2 638.4 L435.7 638.9 L436.1 639.6 L434.9 639.8 L435.9 639.7 L434.6 640.6 L431.2 639.2 L429.2 641.9 L430 645.7 L429 648.1 L425.2 647 L424.9 645.8 L423.4 644.6 L422.5 644.8 L420.3 642.7 L414.1 642.5 L409.8 644.8 L409.9 629.8 L408.5 627.6 L405.1 625.7 L404.8 624.4 L405.9 621.2 L403.6 618.1 L406.2 614 L406.3 611.6 L403.6 610.8 L401.4 611.6 L396.6 609.2 L396.9 606.4 L396.4 605.9 L397.3 602.5 L396.8 601.1 L397.7 599.7 L397.3 597.1 L399.4 594.6 L402.7 593.7 L403.9 594.8 L403.3 595.4 L403.7 594.8 L405.9 595 L407.8 596.6 L410.1 596.3 L411.1 594.7 L411 595.7 L412.3 595.5 L412.8 593.5 L411.8 593 L412.2 592.4 L410.8 590.6 L410.6 589.2 L407.8 587.8 L409.3 585.2 L408 583.3 L406.9 578.2 L407.2 576.2 L404.3 573.8 L401.1 572.9 L400.5 571.2 L397.7 568.3 L394.4 567.5 L392.7 566.2 L392.1 561.9 L392.6 561.3 L391.7 560.7 L391.7 559.8 L392.4 557.9 L393.5 557.6 L394.2 556.2 L394.2 554.9 L392.6 552.4 L389.7 552.7 L387.4 550 L386.1 550.3 L385.2 548.9 L383.8 550 L381.8 549 L379.9 549.2 L379.6 549.9 L378.3 548.5 L374.2 547.3 L369.9 548.6 L366.1 548 L364.3 546 L363.4 542.9 L364.1 539.6 L363 538.6 L363.8 536.3 L364.9 535.9 L365.4 533.2" stroke="#bcd5cc" stroke-width="25" stroke-linecap="round" stroke-linejoin="round" stroke-dasharray="28 30" opacity="0.76"/>
    <path d="M1232.7 251.9 L1234.2 257.3 L1234.8 265.3 L1232.5 264.4 L1223.9 268.8 L1224 270.9 L1224.8 272 L1223.9 273.8 L1219.3 275.5 L1215.3 274 L1212.8 277.3 L1209.7 276.1 L1208.8 277.1 L1208.6 278.8 L1193.6 276.3 L1193.1 282.2 L1193.6 284.6 L1191.1 285.4 L1190.6 286.4 L1191 287.6 L1189.5 290.6 L1190.7 294 L1192.6 295.6 L1191.6 299.6 L1190.4 299.6 L1190.9 301.4 L1189.7 302.7 L1186.4 303 L1185.8 304.6 L1183.7 305.9 L1182.9 308.6 L1176.3 309.8 L1171.2 314.9 L1169.3 315 L1169 316.2 L1166.6 317.2 L1166.3 318.6 L1166.9 319.2 L1165.8 320.1 L1165.7 321.9 L1162.9 324.6 L1162.7 326.4 L1160.5 328.3 L1153.1 338.4 L1149.8 340.3 L1149.5 344.6 L1148.3 344.6 L1147.1 347.7 L1145.2 348.4 L1145.6 347.5 L1144.7 349.1 L1141 351 L1142.3 353.2 L1141.2 355.3 L1138.4 356.3 L1139.1 358.2 L1138.5 362 L1137 363.2 L1136.3 366.2 L1135.3 366.8 L1137 367.3 L1137.9 369.1 L1138.5 368.7 L1141.1 370.7 L1142.3 370.8 L1143.9 373.5 L1141.9 379 L1143.6 385.6 L1141.9 387.5 L1141.3 389.8 L1146.7 393 L1148.1 395.5 L1145 397.1 L1137.8 403.5 L1134.7 404.4 L1132.4 408.5 L1130.8 408.9 L1129.6 414.4 L1120.6 420.2 L1119.1 420.5 L1116.5 418.4 L1113.8 418.1 L1112.6 417 L1109 417.9 L1107 419.3 L1103.3 418.6 L1090.3 423.7 L1084.4 424.4 L1081.4 426.2 L1077.7 427.1 L1077.8 430 L1076.1 431.1 L1075.4 433.1 L1071.1 435.4 L1065.8 440.6 L1066.7 442.7 L1066.1 446.6 L1066.8 449.6 L1064.5 452.7 L1062.2 453.9 L1061.9 456.2 L1059.7 457.5 L1059.2 461.5 L1056.2 466.5 L1055.6 472.7 L1054.4 474.1 L1050.6 475.6 L1046.7 474.7 L1043.7 477.3 L1043.2 480.1 L1042.5 480 L1039.8 479 L1036.8 476.3 L1037.7 471.2 L1036.1 470 L1035.8 468.6 L1033 466.4 L1031.1 466.1 L1030.4 464.6 L1027 463.3 L1024.5 463.4 L1023.2 464.6 L1021.5 464 L1020.4 465.1 L1017.4 463.5 L1015.4 463.7 L1014.9 464.6 L1010.3 465.6 L1007.1 468.2 L1005.4 468.5 L1001.2 467.8 L995.7 463.1 L991.1 468 L989.8 474.5 L985.6 477.6 L985.1 480.3 L982.9 482.2 L982.9 484.1 L979.8 484.3 L979.5 490 L979.9 489.7 L974.8 488 L970 485.1 L959.5 485.2 L956.5 483.9 L952 483.7 L950.8 482.4 L948.7 481.8 L946.1 482.2 L944.3 483.6 L939.7 483 L935.3 483.9 L930.6 483.5 L927.7 484.6 L926.4 486.2 L922.3 487.5 L916.1 492.5 L914.9 492.4 L914.5 493.4 L913.9 492.9 L913.6 495.2 L908.6 491.8 L904.3 490.7 L899.1 487.7 L897.1 485.4 L893.7 485.1 L888.3 483.1 L883.9 482.7 L882 484.4 L877.9 485.7 L869.5 486 L864.8 485.2 L866.8 489.9 L857.7 491.7 L854 491.1 L852.8 491.8 L852.6 493.1 L850.1 494.6 L843.1 493.1 L837.1 494.6 L833.7 496.9 L834.2 505.4 L831.3 508.2 L831 510.5 L825.2 518.9 L822.3 519.7 L821.5 521.6 L819.8 521.9 L817.3 520.9 L814.3 522.3 L813.7 523.9 L811.4 525.8 L808.4 525.7 L802.9 528 L796.6 534 L797.9 534.9 L796.6 534 L794.5 533.9 L791.9 535.8 L787.5 537.6 L785.7 539.1 L785.4 540.6 L779.1 549.4 L774.3 548.7 L771.2 549.7 L763.1 558.8 L761.4 564.4 L763.9 564.6 L766 569.5 L764.8 571.8 L761.4 571.9 L761.7 574 L763 578 L766 582.5 L766.9 586.8 L771.4 589.6 L771.6 591.1 L769.4 591.6 L770.1 593.5 L769.4 594.6 L767.9 595 L768.6 596.3 L768.1 598.2 L766 601.1 L767 603.2 L764.5 602.9 L754.6 606.4 L751.5 609.6 L750.2 609.7 L747.3 607.4 L745.8 604.9 L746.4 603.5 L746 601.9 L741.2 599.5 L739.2 602.2 L736.3 602.6 L733.4 604.9 L721.3 610.2 L720.8 616.5 L719.3 616.8 L715.5 615.2 L713.8 612.7 L714 609.7 L710.7 607.5 L709.1 604.4 L704.8 600.8 L697 601.1 L694 602.5 L689.7 603.2 L682.1 603 L676.9 601.2 L670.9 595.1 L670.4 593.1 L667.4 591.6 L659.8 592 L656.3 593.8 L655.4 593.1 L653.9 594.4 L650.4 594.4 L646.7 593.5 L640 588.8 L638.6 586.9 L638.9 586 L635.8 582.2 L630.4 577.7 L629.9 573 L630.7 571 L627 567.9 L627.2 567.3 L625.5 565.2 L627.6 562.2 L627.3 560.7 L628 560.1 L627 559 L626.5 556 L628.9 553.2 L629.8 549.4 L629.1 547.9 L630.5 545.9 L630.7 544 L630.2 543.5 L632.1 539.2 L632.4 534.8 L633.2 533.7 L632.7 531.7 L629.4 530.2 L628.1 528.7 L630.6 522.3 L630.6 515.3 L629.7 513.7 L631.4 512.3 L634.4 503.3 L634.1 501.5 L631.5 501.4 L623.3 504.5 L619 503.5 L616.7 504 L615.3 506.5 L614.5 506.2 L614.4 507.3 L612.8 507.9 L612.4 509 L606 510.2 L604.3 509.1 L601.4 509 L600.1 508.2 L601.4 508.7 L603.3 508.3 L605.6 509.4 L597.6 508.5 L595.6 506.8 L595.9 507.8 L594.2 509 L590.2 509.4 L589.4 507.3 L586.4 503.8 L582.6 504.5 L575.7 507.9 L573.2 511 L565.4 514.2 L561.4 516.7 L558.3 520 L553.9 521.9 L546.7 528.8 L543.3 530.7 L542.8 532.6 L539.6 534 L540.3 534.3 L538.4 533.7 L537.5 534.4 L536.9 533.8 L536 535.8 L532.5 537.1 L531.6 536.6 L531.9 537.5 L527.5 537.7 L525 538.9 L523.1 538.6 L523.1 539.2 L521.7 539.8 L522.1 540.1 L521.4 539.7 L519.3 541 L516.6 540.4 L516.5 541.1 L514.9 540.9 L513 539.9 L507.9 542.3 L505.7 541.9 L505.5 540.8 L494.2 539.5 L489.2 542.8 L487.7 543.2 L487.3 542.6 L486.1 543.6 L483.9 543.8 L483.6 545 L481.4 546.6 L481 548.2 L480 548.9 L478.4 546.9 L476.8 547.1 L476.2 545.3 L474.7 544.5 L473.7 545.3 L471.5 544.8 L465.5 547.3 L459.2 547 L455.6 550.7 L455.6 555.7 L452.9 553.8 L450.4 555.2 L450.5 556 L447.7 555.7 L445.1 556.8 L444.1 556 L440.2 555.5 L438.5 556.8 L436.3 557 L435.1 556.2 L432.6 557.5 L427.8 564.2 L425.3 564.7 L424.7 565.8 L421.6 567.8 L420.4 567.2 L420 568.7 L417.7 569.9 L415.3 574.3 L410.6 576.9 L409 578.7 L405.7 577 L403.7 577.6 L402.1 576.6 L399 579 L398.4 580.6 L393.1 582 L388 581.8 L387.3 580.6 L385.3 579.6 L383.3 579.8 L381.1 581.3 L378.7 580.1 L378 577.6 L376.2 577.7 L374.7 575.5 L373.7 571.7 L372.2 571.5 L371.2 570.4 L369 571 L365.7 570.6 L361.6 573.6 L361.1 575 L359.1 576.8 L358.1 576.9 L355.2 576.2 L353.4 574 L350.7 575 L347.8 573.8 L345.2 574.3 L342.2 572.4 L340.1 572 L337.7 568.6 L334 568.5 L329.9 566.9 L326.6 563.8 L324.4 563.6 L322.7 562 L321.5 562.4 L317.2 560.6 L313.7 558.1 L311.9 559.3 L309.4 558 L311.9 559.3 L313.2 558.2 L306.8 559 L302.4 557.2 L302.1 554.4 L305 550.6 L306.9 545.7 L303.9 545.6 L303.9 541.2 L303.2 541.5 L300.4 539.4 L299.7 537.4 L298.5 537.4 L296.7 535.3 L295.4 536.3 L293.5 540.3 L290.8 540.7 L288.8 538.9 L289.2 538.6 L287.2 539.2 L286.5 541.6 L287.4 544.9 L288.6 544.8 L289.4 547.1 L290 547.2 L287.1 551.2 L283.3 551.3 L281.6 552 L278.8 551 L275.6 555.2 L272 555.7 L268.4 557.2 L266.3 556.1 L265.5 553.8 L264.3 553.8 L263.9 552.9 L262.7 552.6 L261.3 554 L258 554.8 L256.2 556.4 L253.9 557.2 L253.9 558.6 L252.2 558 L251 558.5 L249.8 557.4 L246.2 556.8 L245 559 L240 556.4 L237.5 553.7 L235 553.3 L233.9 549.7 L234.1 547.9 L233.5 547.5 L230.4 547.1 L229.5 548.9 L227 548.2 L224.1 548.4 L223.2 547.1 L222.9 537.9 L221.5 535.5 L223.3 544.8 L222.8 548.9 L223.5 549.7 L223.2 550.9 L225.1 558.1 L228.1 559.9 L238 562.2 L239.1 564.3 L239.5 570.7 L236.6 573.9 L236.2 577.9 L232.2 578.5 L226.8 576.5 L225 579.1 L226.2 580.2 L225.2 580.1 L224.6 581.1 L224.7 585.3 L223.9 587.8 L223.3 587.7 L223.8 588.5 L221.3 586.7 L219.4 587.7 L217.9 585.6 L215.8 584.9 L215.3 583.5 L214 583.8 L212.7 582.1 L210.1 581.9 L206.8 579.9 L205 578.2 L205.2 577.2 L203.1 577.4 L201.3 575.9 L199.9 577.5 L200.5 580.3 L200 583.4 L195.2 587.8 L186.1 590.4 L183.4 592.4 L179.3 594 L176.8 592.8 L168.2 602.4 L169.1 602.9 L171.3 601.5 L170 603.3 L171 605.2 L174.1 606.6 L175.6 614.3 L172.8 616.1 L172.4 618.6 L174.9 620.5 L173.6 622 L176.6 624.5 L168.7 630.6 L166.4 631.5 L165.1 630.9" stroke="#0f766e" stroke-width="18" stroke-linecap="round" stroke-linejoin="round"/>
    <path d="M438.5 605.6 L440.9 605.3 L445.4 601.1 L447.8 600.6 L450.2 601.2 L453.4 600.2 L454.5 600.9 L455.4 600.2 L459.3 602.6 L463.3 600.7 L463.3 600 L464.1 600.4 L466.1 599.5 L468 600 L475.1 594.2 L475.9 595.7 L477.9 595.1 L480 598.3 L479.9 599.8 L481.1 599.5 L481.5 600.7 L480.1 602.7 L478.1 603.3 L476.9 606 L478.9 609.4 L479.8 609.5 L479.3 610.4 L480.3 611.8 L477.8 614.8 L473.3 616.8 L473.2 619 L471.5 621.3 L473 624.4 L473 627.1 L475.6 629 L474.2 632.5 L476.7 633.1 L477.4 634.6 L476.2 635 L473.7 638.4 L473.3 637.8 L468.4 637.5 L466.1 639.1 L462.3 638.8 L460.8 637.4 L456.7 637.6 L453.4 636.5 L447.9 636.3 L444.9 634.1 L436.2 638.4 L435.7 638.9 L436.1 639.6 L434.9 639.8 L435.9 639.7 L434.6 640.6 L431.2 639.2 L429.2 641.9 L430 645.7 L429 648.1 L425.2 647 L424.9 645.8 L423.4 644.6 L422.5 644.8 L420.3 642.7 L414.1 642.5 L409.8 644.8 L409.9 629.8 L408.5 627.6 L405.1 625.7 L404.8 624.4 L405.9 621.2 L403.6 618.1 L406.2 614 L406.3 611.6 L403.6 610.8 L401.4 611.6 L396.6 609.2 L396.9 606.4 L396.4 605.9 L397.3 602.5 L396.8 601.1 L397.7 599.7 L397.3 597.1 L399.4 594.6 L402.7 593.7 L403.9 594.8 L403.3 595.4 L403.7 594.8 L405.9 595 L407.8 596.6 L410.1 596.3 L411.1 594.7 L411 595.7 L412.3 595.5 L412.8 593.5 L411.8 593 L412.2 592.4 L410.8 590.6 L410.6 589.2 L407.8 587.8 L409.3 585.2 L408 583.3 L406.9 578.2 L407.2 576.2 L404.3 573.8 L401.1 572.9 L400.5 571.2 L397.7 568.3 L394.4 567.5 L392.7 566.2 L392.1 561.9 L392.6 561.3 L391.7 560.7 L391.7 559.8 L392.4 557.9 L393.5 557.6 L394.2 556.2 L394.2 554.9 L392.6 552.4 L389.7 552.7 L387.4 550 L386.1 550.3 L385.2 548.9 L383.8 550 L381.8 549 L379.9 549.2 L379.6 549.9 L378.3 548.5 L374.2 547.3 L369.9 548.6 L366.1 548 L364.3 546 L363.4 542.9 L364.1 539.6 L363 538.6 L363.8 536.3 L364.9 535.9 L365.4 533.2" stroke="#0f766e" stroke-width="11" stroke-linecap="round" stroke-linejoin="round" stroke-dasharray="24 26" opacity="0.92"/>
  </g>
  <g fill="#fffaf0" stroke="#20231f" stroke-opacity="0.18" stroke-width="3.5">
    <circle cx="1232.7" cy="251.9" r="13"/>
    <circle cx="165.1" cy="630.9" r="13"/>
    <circle cx="438.5" cy="605.6" r="10"/>
    <circle cx="365.4" cy="533.2" r="10"/>
  </g>
  <path d="M72 76H1328V824H72Z" fill="none" stroke="#fffaf0" stroke-opacity="0.42" stroke-width="2"/>
  <rect width="1400" height="900" fill="#3b3020" filter="url(#paperGrain)" opacity="0.24"/>
</svg>
