<svg xmlns="http://www.w3.org/2000/svg" viewBox="0 0 1400 900" role="img" aria-label="中国南北极之路">
  <defs>
    
    <linearGradient id="paper" x1="0" x2="1" y1="0" y2="1">
      <stop offset="0" stop-color="#fffaf0"/>
      <stop offset="0.48" stop-color="#f5e5db"/>
      <stop offset="1" stop-color="#c8cbbc"/>
    </linearGradient>
    <filter id="paperGrain" x="0" y="0" width="100%" height="100%">
      <feTurbulence baseFrequency="0.74" numOctaves="2" seed="47" type="fractalNoise"/>
      <feColorMatrix type="saturate" values="0"/>
      <feComponentTransfer>
        <feFuncA type="table" tableValues="0 0.13"/>
      </feComponentTransfer>
    </filter>
    <filter id="assetShadow" x="-18%" y="-18%" width="136%" height="136%">
      <feDropShadow dx="0" dy="18" stdDeviation="18" flood-color="#2f261a" flood-opacity="0.16"/>
    </filter>
    <linearGradient id="inkWash" x1="0" x2="1" y1="0" y2="1">
      <stop offset="0" stop-color="#723634" stop-opacity="0.28"/>
      <stop offset="0.52" stop-color="#78aab4" stop-opacity="0.18"/>
      <stop offset="1" stop-color="#27515a" stop-opacity="0.22"/>
    </linearGradient>
  </defs>
  <rect width="1400" height="900" fill="url(#paper)"/>
  <rect width="1400" height="900" fill="url(#inkWash)"/>
  <g opacity="0.8">
    <path d="M-900 900 L0 0" fill="none" stroke="#b54646" stroke-width="1" stroke-opacity="0.07"/>
  <path d="M-862 900 L38 0" fill="none" stroke="#b54646" stroke-width="1" stroke-opacity="0.07"/>
  <path d="M-824 900 L76 0" fill="none" stroke="#b54646" stroke-width="1" stroke-opacity="0.07"/>
  <path d="M-786 900 L114 0" fill="none" stroke="#b54646" stroke-width="1" stroke-opacity="0.07"/>
  <path d="M-748 900 L152 0" fill="none" stroke="#b54646" stroke-width="1" stroke-opacity="0.07"/>
  <path d="M-710 900 L190 0" fill="none" stroke="#b54646" stroke-width="1" stroke-opacity="0.07"/>
  <path d="M-672 900 L228 0" fill="none" stroke="#b54646" stroke-width="1" stroke-opacity="0.07"/>
  <path d="M-634 900 L266 0" fill="none" stroke="#b54646" stroke-width="1" stroke-opacity="0.07"/>
  <path d="M-596 900 L304 0" fill="none" stroke="#b54646" stroke-width="1" stroke-opacity="0.07"/>
  <path d="M-558 900 L342 0" fill="none" stroke="#b54646" stroke-width="1" stroke-opacity="0.07"/>
  <path d="M-520 900 L380 0" fill="none" stroke="#b54646" stroke-width="1" stroke-opacity="0.07"/>
  <path d="M-482 900 L418 0" fill="none" stroke="#b54646" stroke-width="1" stroke-opacity="0.07"/>
  <path d="M-444 900 L456 0" fill="none" stroke="#b54646" stroke-width="1" stroke-opacity="0.07"/>
  <path d="M-406 900 L494 0" fill="none" stroke="#b54646" stroke-width="1" stroke-opacity="0.07"/>
  <path d="M-368 900 L532 0" fill="none" stroke="#b54646" stroke-width="1" stroke-opacity="0.07"/>
  <path d="M-330 900 L570 0" fill="none" stroke="#b54646" stroke-width="1" stroke-opacity="0.07"/>
  <path d="M-292 900 L608 0" fill="none" stroke="#b54646" stroke-width="1" stroke-opacity="0.07"/>
  <path d="M-254 900 L646 0" fill="none" stroke="#b54646" stroke-width="1" stroke-opacity="0.07"/>
  <path d="M-216 900 L684 0" fill="none" stroke="#b54646" stroke-width="1" stroke-opacity="0.07"/>
  <path d="M-178 900 L722 0" fill="none" stroke="#b54646" stroke-width="1" stroke-opacity="0.07"/>
  <path d="M-140 900 L760 0" fill="none" stroke="#b54646" stroke-width="1" stroke-opacity="0.07"/>
  <path d="M-102 900 L798 0" fill="none" stroke="#b54646" stroke-width="1" stroke-opacity="0.07"/>
  <path d="M-64 900 L836 0" fill="none" stroke="#b54646" stroke-width="1" stroke-opacity="0.07"/>
  <path d="M-26 900 L874 0" fill="none" stroke="#b54646" stroke-width="1" stroke-opacity="0.07"/>
  <path d="M12 900 L912 0" fill="none" stroke="#b54646" stroke-width="1" stroke-opacity="0.07"/>
  <path d="M50 900 L950 0" fill="none" stroke="#b54646" stroke-width="1" stroke-opacity="0.07"/>
  <path d="M88 900 L988 0" fill="none" stroke="#b54646" stroke-width="1" stroke-opacity="0.07"/>
  <path d="M126 900 L1026 0" fill="none" stroke="#b54646" stroke-width="1" stroke-opacity="0.07"/>
  <path d="M164 900 L1064 0" fill="none" stroke="#b54646" stroke-width="1" stroke-opacity="0.07"/>
  <path d="M202 900 L1102 0" fill="none" stroke="#b54646" stroke-width="1" stroke-opacity="0.07"/>
  <path d="M240 900 L1140 0" fill="none" stroke="#b54646" stroke-width="1" stroke-opacity="0.07"/>
  <path d="M278 900 L1178 0" fill="none" stroke="#b54646" stroke-width="1" stroke-opacity="0.07"/>
  <path d="M316 900 L1216 0" fill="none" stroke="#b54646" stroke-width="1" stroke-opacity="0.07"/>
  <path d="M354 900 L1254 0" fill="none" stroke="#b54646" stroke-width="1" stroke-opacity="0.07"/>
  <path d="M392 900 L1292 0" fill="none" stroke="#b54646" stroke-width="1" stroke-opacity="0.07"/>
  <path d="M430 900 L1330 0" fill="none" stroke="#b54646" stroke-width="1" stroke-opacity="0.07"/>
  <path d="M468 900 L1368 0" fill="none" stroke="#b54646" stroke-width="1" stroke-opacity="0.07"/>
  <path d="M506 900 L1406 0" fill="none" stroke="#b54646" stroke-width="1" stroke-opacity="0.07"/>
  <path d="M544 900 L1444 0" fill="none" stroke="#b54646" stroke-width="1" stroke-opacity="0.07"/>
  <path d="M582 900 L1482 0" fill="none" stroke="#b54646" stroke-width="1" stroke-opacity="0.07"/>
  <path d="M620 900 L1520 0" fill="none" stroke="#b54646" stroke-width="1" stroke-opacity="0.07"/>
  <path d="M658 900 L1558 0" fill="none" stroke="#b54646" stroke-width="1" stroke-opacity="0.07"/>
  <path d="M696 900 L1596 0" fill="none" stroke="#b54646" stroke-width="1" stroke-opacity="0.07"/>
  <path d="M734 900 L1634 0" fill="none" stroke="#b54646" stroke-width="1" stroke-opacity="0.07"/>
  <path d="M772 900 L1672 0" fill="none" stroke="#b54646" stroke-width="1" stroke-opacity="0.07"/>
  <path d="M810 900 L1710 0" fill="none" stroke="#b54646" stroke-width="1" stroke-opacity="0.07"/>
  <path d="M848 900 L1748 0" fill="none" stroke="#b54646" stroke-width="1" stroke-opacity="0.07"/>
  <path d="M886 900 L1786 0" fill="none" stroke="#b54646" stroke-width="1" stroke-opacity="0.07"/>
  <path d="M924 900 L1824 0" fill="none" stroke="#b54646" stroke-width="1" stroke-opacity="0.07"/>
  <path d="M962 900 L1862 0" fill="none" stroke="#b54646" stroke-width="1" stroke-opacity="0.07"/>
  <path d="M1000 900 L1900 0" fill="none" stroke="#b54646" stroke-width="1" stroke-opacity="0.07"/>
  <path d="M1038 900 L1938 0" fill="none" stroke="#b54646" stroke-width="1" stroke-opacity="0.07"/>
  <path d="M1076 900 L1976 0" fill="none" stroke="#b54646" stroke-width="1" stroke-opacity="0.07"/>
  <path d="M1114 900 L2014 0" fill="none" stroke="#b54646" stroke-width="1" stroke-opacity="0.07"/>
  <path d="M1152 900 L2052 0" fill="none" stroke="#b54646" stroke-width="1" stroke-opacity="0.07"/>
  <path d="M1190 900 L2090 0" fill="none" stroke="#b54646" stroke-width="1" stroke-opacity="0.07"/>
  <path d="M1228 900 L2128 0" fill="none" stroke="#b54646" stroke-width="1" stroke-opacity="0.07"/>
  <path d="M1266 900 L2166 0" fill="none" stroke="#b54646" stroke-width="1" stroke-opacity="0.07"/>
  <path d="M1304 900 L2204 0" fill="none" stroke="#b54646" stroke-width="1" stroke-opacity="0.07"/>
  <path d="M1342 900 L2242 0" fill="none" stroke="#b54646" stroke-width="1" stroke-opacity="0.07"/>
  <path d="M1380 900 L2280 0" fill="none" stroke="#b54646" stroke-width="1" stroke-opacity="0.07"/>
    <path d="M-112 -128 C252 -200 448 -56 728 -128 S1148 -200 1512 -110" fill="none" stroke="#2d7f95" stroke-width="1.2" stroke-opacity="0.16" stroke-linecap="round"/>
  <path d="M-112 0 C252 -72 448 72 728 0 S1148 -72 1512 18" fill="none" stroke="#2d7f95" stroke-width="1.2" stroke-opacity="0.16" stroke-linecap="round"/>
  <path d="M-112 128 C252 56 448 200 728 128 S1148 56 1512 146" fill="none" stroke="#2d7f95" stroke-width="1.2" stroke-opacity="0.16" stroke-linecap="round"/>
  <path d="M-112 256 C252 184 448 328 728 256 S1148 184 1512 274" fill="none" stroke="#2d7f95" stroke-width="1.2" stroke-opacity="0.16" stroke-linecap="round"/>
  <path d="M-112 384 C252 312 448 456 728 384 S1148 312 1512 402" fill="none" stroke="#2d7f95" stroke-width="1.2" stroke-opacity="0.16" stroke-linecap="round"/>
  <path d="M-112 512 C252 440 448 584 728 512 S1148 440 1512 530" fill="none" stroke="#2d7f95" stroke-width="1.2" stroke-opacity="0.16" stroke-linecap="round"/>
  <path d="M-112 640 C252 568 448 712 728 640 S1148 568 1512 658" fill="none" stroke="#2d7f95" stroke-width="1.2" stroke-opacity="0.16" stroke-linecap="round"/>
  <path d="M-112 768 C252 696 448 840 728 768 S1148 696 1512 786" fill="none" stroke="#2d7f95" stroke-width="1.2" stroke-opacity="0.16" stroke-linecap="round"/>
  <path d="M-112 896 C252 824 448 968 728 896 S1148 824 1512 914" fill="none" stroke="#2d7f95" stroke-width="1.2" stroke-opacity="0.16" stroke-linecap="round"/>
  <path d="M-112 1024 C252 952 448 1096 728 1024 S1148 952 1512 1042" fill="none" stroke="#2d7f95" stroke-width="1.2" stroke-opacity="0.16" stroke-linecap="round"/>
  <path d="M-112 1152 C252 1080 448 1224 728 1152 S1148 1080 1512 1170" fill="none" stroke="#2d7f95" stroke-width="1.2" stroke-opacity="0.16" stroke-linecap="round"/>
  <path d="M-112 1280 C252 1208 448 1352 728 1280 S1148 1208 1512 1298" fill="none" stroke="#2d7f95" stroke-width="1.2" stroke-opacity="0.16" stroke-linecap="round"/>
  </g>
  <text x="82" y="260" fill="#20231f" fill-opacity="0.07" font-family="'Songti SC','STSong','Source Han Serif SC','Noto Serif CJK SC','SimSun',serif" font-size="168" font-weight="900" writing-mode="vertical-rl">南北极</text>
  <text x="1296" y="730" text-anchor="end" fill="#20231f" fill-opacity="0.08" font-family="'Avenir Next',Avenir,Arial,sans-serif" font-size="54" font-weight="900" letter-spacing="7">ROUTE 05</text>
  <g transform="translate(978 86)">
    <g transform="rotate(2 41 41)">
    <rect x="0" y="0" width="82" height="82" rx="11.48" fill="#9f3525"/>
    <rect x="8.200000000000001" y="8.200000000000001" width="65.60000000000001" height="65.60000000000001" rx="8.200000000000001" fill="none" stroke="#fff2df" stroke-opacity="0.72" stroke-width="2.87"/>
    <text x="41" y="49.199999999999996" text-anchor="middle" fill="#fff7e8" font-family="'Kaiti SC','STKaiti','FZKai-Z03S','KaiTi','Songti SC','STSong','Noto Serif CJK SC',serif" font-size="37.72" font-weight="900">路</text>
    <text x="41" y="63.96" text-anchor="middle" fill="#fff2df" font-family="'Avenir Next',Avenir,Arial,sans-serif" font-size="11.48" font-weight="900" letter-spacing="0.8">05</text>
  </g>
  </g>
  <g transform="translate(1060 86)">
    <text x="0" y="28" fill="#20231f" fill-opacity="0.68" font-family="'Kaiti SC','STKaiti','FZKai-Z03S','KaiTi','Songti SC','STSong','Noto Serif CJK SC',serif" font-size="25" font-weight="900">从热带海风到北国寒林</text>
    <text x="0" y="64" fill="#b54646" font-family="'Songti SC','STSong','Source Han Serif SC','Noto Serif CJK SC','SimSun',serif" font-size="36" font-weight="900">中国南北极之路</text>
  </g>
  <g transform="translate(128 628)" opacity="0.82">
    <g transform="translate(0 0) scale(1.1)">
      <path d="M132 18 V135" fill="none" stroke-linecap="round" stroke-linejoin="round" stroke="#b54646" stroke-width="8"/>
      <path d="M113 42 L132 16 L151 42" fill="none" stroke-linecap="round" stroke-linejoin="round" stroke="#b54646" stroke-width="5.5"/>
      <path d="M92 135 H172" fill="none" stroke-linecap="round" stroke-linejoin="round" stroke="#2d7f95" stroke-width="6"/>
      <path d="M65 79 H199" fill="none" stroke-linecap="round" stroke-linejoin="round" stroke="#2d7f95" stroke-width="4.4" stroke-dasharray="13 12"/>
      <circle cx="132" cy="16" r="5" fill="#2d7f95"/>
      <circle cx="132" cy="135" r="5" fill="#b54646"/></g>
  </g>
  <g fill="none" filter="url(#assetShadow)">
    <path d="M588.4 767.6 L588.5 766.8 L587.2 765.8 L586.6 766 L585.5 765.6 L583.8 765.8 L583.1 765.4 L580.7 765.3 L580.3 764.3 L580.1 764.3 L577.2 764.4 L576.3 762.8 L578.4 762.4 L578.7 761 L580.6 757.7 L581.9 757.4 L582.8 756 L585.1 755.2 L586.1 754.2 L586.9 754.2 L588.1 753.1 L589 752.9 L589.9 752.3 L592.5 752.3 L593 751.4 L594.7 750.2 L596.6 750.3 L597.5 750.9 L599 750.9 L600.1 751.6 L601.3 750.8 L602.4 750.7 L604.6 749.2 L605.6 747.1 L607 746.4 L607.9 744.7 L608.7 744 L609 742.9 L612 742.2 L612.4 741 L613.1 740.6 L613 738.1 L612.1 735.2 L610.2 735.4 L607.4 733.6 L606.9 733.6 L605.4 734.6 L604.5 734.9 L602.1 733.8 L601.1 733.9 L601.1 734.4 L600.5 734.7 L598.9 734 L597.8 734.1 L597.7 731 L598.2 729.5 L597 725.1 L596.4 724.2 L595.9 723.9 L596 723.2 L595.8 722.5 L596.3 722.5 L596.6 722.2 L596.5 721.5 L596.9 720.3 L596.4 719.1 L596.5 718.3 L595.3 716.1 L595.6 715.3 L597 713.8 L597.4 712.6 L600.7 709.6 L600.5 708.2 L599.7 707.6 L597.8 703.8 L598.5 701.5 L598.2 700 L598.9 698 L598.9 696.6 L599.8 692.4 L599.6 691.3 L597.8 688.9 L598 687.9 L597.7 687.7 L598 687.5 L598 686.7 L597.7 685.4 L594.4 684.7 L590.6 683.4 L591.1 682.1 L589.4 680.2 L589.8 679.9 L590 679 L589.7 678.6 L587.8 678.4 L587.2 679 L584.8 678.6 L584.6 677.9 L584.8 676.1 L585.5 676.1 L586.2 675.1 L587.8 674.1 L589.1 671.8 L589.6 671.7 L590.2 671.9 L590.4 670 L589.4 667.4 L588.4 666.2 L588.2 664.9 L587.7 663.6 L585.5 661.6 L584.7 660.3 L585.3 658.5 L585.2 656.4 L584.3 656 L584.3 655.2 L583.6 654 L583.6 653.3 L584 653 L583.3 652.2 L583.3 651.5 L583.8 651.1 L584.1 649.5 L583.6 648.9 L583.1 646.8 L583.6 645.2 L583.4 644.3 L583.6 643.3 L584.9 641.5 L584.9 639.5 L585.4 639.1 L585.5 638.1 L587.1 635.1 L588.6 631 L589.7 631.3 L589.8 631.1 L590 629.9 L590.4 629.4 L590.2 629 L590.7 628.7 L591.4 627 L591.4 626.2 L591.9 625.3 L591.5 625 L591.4 623.1 L590.9 622.9 L590.7 622.3 L589.7 622.5 L588.6 621.6 L589.2 620.7 L588.5 620.2 L588.3 619 L588 618.8 L589.4 617 L589.3 616.1 L589.6 616 L589.4 614.9 L590.3 614.2 L589.9 611.3 L590.7 610.7 L590.7 609.9 L591.6 609.2 L591.5 608.7 L590.9 608.5 L590.5 607.7 L590.7 607.2 L590.5 607.1 L591.6 606.1 L592 605.3 L592.8 605 L593.5 603.6 L594 603.1 L594.5 601 L594.5 600.3 L594.2 600.3 L594.1 599.6 L593.8 599.3 L594 599.3 L594.2 598.6 L594.6 598.4 L593.7 596.2 L593.9 595.8 L592.9 595.4 L592.9 594.9 L592.5 594.9 L592.1 594.5 L591.8 593.8 L590.9 593.9 L590.2 593.4 L589.8 592.8 L589.4 592.9 L589 592.6 L587.9 591.1 L588.2 589.2 L589.6 586.6 L589.7 585.4 L587.6 585.1 L587.1 584.2 L586.4 584.1 L586.6 583.6 L586.2 583.3 L586.3 582.5 L585.9 581 L586.4 580.4 L588.8 578.9 L589.2 577.9 L591.4 575.7 L591.3 575.2 L591.8 574.4 L592.2 574.2 L592.3 573.6 L591.8 573 L591.4 573 L591.1 572.6 L590.6 572.6 L588.7 570.9 L588.7 569.8 L589.2 568.6 L588.7 567.8 L589 567.5 L588.7 567 L588.1 566.8 L588.4 566.4 L588 565.3 L587.4 564.9 L585.7 564.9 L585.7 564.4 L585 564.6 L584.7 564 L584.9 564.1 L584.9 563.7 L585.5 563.2 L585.7 562.1 L587 560.9 L586.2 560 L587.4 557.8 L587.6 556.7 L587.2 555.7 L587.1 556.1 L586.6 556.1 L586.1 555.1 L586.4 554.9 L585.6 555 L585.2 554.1 L585.5 553.4 L585.6 552.2 L586.6 549.8 L586.4 548.3 L587.4 547.4 L588.2 547.3 L588.1 546.7 L589.9 545 L590.1 544 L591 543.5 L591 542.8 L592 542.4 L593.2 540.8 L594.1 541.3 L594.9 540.3 L595.4 540.8 L595.7 540.6 L596.5 540.8 L598.2 540.3 L599.6 540.4 L600.1 540 L600.6 540 L600.6 539.5 L602.2 537.4 L602.2 536.5 L602.4 536.5 L601.8 536.3 L601.3 536.5 L601.3 536.1 L601.8 535.9 L601.5 535.9 L601.5 535.6 L602.2 535.4 L602.2 534.5 L603.1 534.1 L604.1 534.2 L604.4 533.6 L606 532.5 L607.9 532.3 L608.6 532.5 L608.9 532 L608.7 531.5 L609.3 531.1 L609.2 530.5 L608.8 530.2 L610.1 529.3 L609.7 528.8 L609.9 527.5 L610.7 527.3 L611.8 525.5 L611.1 524.6 L610 523.9 L610 523.2 L608.7 521.9 L609.3 521.6 L609.3 521 L608.3 521 L608.6 520 L607.9 519.5 L607.6 518.8 L608.7 518.2 L608.1 516.7 L608.3 516.5 L608.2 515.8 L608.9 515 L609 513.8 L609.8 513.1 L609.6 512.6 L610.2 512.9 L610.5 512.4 L611.2 512.3 L613.2 509.6 L611.7 509 L611.3 508.1 L609.5 507.1 L609.7 507.1 L609.6 506.9 L609 506.5 L609.4 506 L609.3 505.4 L608.9 505.1 L609 504.6 L609.8 504.7 L610.6 504 L611.6 504.2 L612.4 502.6 L613.3 501.9 L613.4 501.5 L614.5 501.1 L614.9 500.6 L615.6 500.7 L615.9 500 L616.7 499.8 L617.2 500 L617.6 499.5 L616.4 498.9 L616.1 498.3 L616.4 497.7 L616.4 497 L615.3 495.2 L615.3 494.3 L614.8 494 L615.1 493.7 L614.7 493.6 L615 493.1 L614.4 492.3 L614.8 491.8 L614.7 491.3 L613.8 490.4 L615.1 488.2 L614.9 487.8 L614.1 487.7 L614.3 487.4 L613.7 487.2 L613.7 486.7 L613.1 486.3 L612.9 485.6 L613.3 485.3 L613 485.2 L613.1 484.4 L612.6 483.7 L612.8 483.2 L613.1 483.3 L614.9 482.1 L613.5 479.1 L614.3 478.1 L614.6 476.1 L613.4 475.5 L613.6 475.2 L613.3 475.1 L613.4 474.7 L612.2 473.5 L612.7 472.8 L613.4 472.4 L613.6 471.3 L616.2 469.6 L616.2 469.1 L617.4 467.8 L616.8 466.3 L617.1 465.1 L616.6 464.5 L616.9 464.6 L616.6 464.3 L616.6 463.8 L615.6 463.2 L612.8 464.6 L612.4 463.9 L610.4 463.3 L609.6 462.4 L608.9 462.1 L608.2 460.2 L608.1 459.6 L608.6 458.4 L608.1 457.9 L608 456.1 L608.7 454.9 L611.9 454.8 L613.8 454.2 L616.9 454.5 L618.1 454.3 L618.8 454.9 L622.7 454.2 L622.9 453.3 L622.3 452.8 L622.3 452.2 L621.7 451.6 L621.5 449.9 L621.1 449.5 L621.6 447.4 L622.8 445 L623.4 444.9 L624.8 443.5 L625.9 443 L626.4 441.3 L626.4 441.1 L625.8 440.9 L625.7 440.5 L625.2 440 L625.2 439.3 L626 438.4 L625.8 437.8 L626.1 436.8 L625.4 436.2 L625.7 435.1 L625.4 434.5 L625.7 434.3 L625.2 433.5 L625.9 432.5 L627.1 432.4 L627.2 431.8 L626.7 430.8 L627.7 430.1 L628.6 428.6 L630 427.4 L632.3 426.8 L633.9 425.7 L635.4 424.5 L636.8 422.5 L640.5 422.1 L641 421.4 L641.8 421.4 L642 421 L643.4 420 L644.1 418.4 L643.6 417.4 L643.5 416 L642.1 414.9 L642.5 413.5 L644 413.3 L644.5 413.5 L648.1 412.1 L649.8 412.1 L653.5 413.6 L656.6 413.7 L657 413.9 L657.8 413.6 L657.9 414.5 L659.1 415 L659.6 415.7 L660.2 415.7 L661.1 415.3 L662.8 415.1 L664.2 414.1 L664.7 414 L665.9 413 L666.1 412.4 L667.5 411.5 L667.9 411 L669.2 411.1 L670.1 409.9 L671.9 410.4 L672.7 409.8 L675.8 410.1 L675.9 409.4 L676.7 409.4 L677.3 408.2 L678.6 407.2 L679.6 405.2 L680.2 405.2 L680.2 404.7 L682.1 403.8 L684 402.1 L685.5 402.2 L685.6 401.9 L685.3 401.4 L685.8 400 L687.2 399.2 L688.8 399.1 L688.8 398.1 L690.1 397.2 L692.4 396.5 L695 396.7 L695.3 395.5 L697.9 395.4 L699.7 395.7 L701.6 395.3 L701.8 394.2 L701.2 391.9 L703.9 391.3 L703.7 389.1 L704 388.5 L704 386.7 L705.1 384.7 L705.3 383.2 L705.7 382.9 L705.9 380.7 L709.2 380.7 L709.5 380.2 L709.4 379.3 L709.9 379.3 L710.1 379.6 L710.7 379.5 L713.1 378 L713 376.3 L712.2 375.2 L713.2 374.1 L713.4 373.2 L714.8 372.2 L714.9 371.1 L714.7 370.4 L715.1 369.5 L717 369.1 L718.3 368 L719.2 368.2 L719.9 368 L720.4 367.4 L720.9 367.3 L720.9 366.9 L721.6 366.8 L722.1 366.2 L723.5 365.7 L723.9 365.1 L725.8 364 L725.7 363.2 L726.7 362.7 L727.4 361.5 L727.6 360.5 L728.6 360 L729.8 360 L730.4 359.6 L732.5 359.1 L733.7 359.4 L734.5 359.2 L735.8 359.4 L738 358.9 L738.7 359.1 L739.2 359.8 L740.1 360.4 L740.4 360 L741.8 359.8 L742.2 360.1 L743.5 359.5 L744 358.4 L746.5 357.3 L748 357.2 L749.5 356.6 L750.5 356.9 L752.6 356.1 L752.8 355.3 L752.6 353.9 L753.4 353.4 L753.1 353.3 L753.6 352.4 L753.9 350.3 L754.5 349.5 L754 348.8 L753.1 348.7 L752.7 347.6 L755.7 345.4 L757.8 342.4 L758.7 341.9 L758.8 341.5 L758.9 339.4 L757.5 338 L755.7 337.2 L756.2 336.4 L756.1 335.5 L754.8 335.1 L754.1 334.1 L754.6 333 L754.7 330.1 L755.4 329.4 L755.4 328 L756.8 326.3 L756.5 325.4 L756.9 322.5 L756.4 320.4 L755.5 319.6 L751.8 318.2 L750.6 317.1 L750.5 316.2 L748.6 315.2 L746.8 315.9 L744.1 315.9 L740.9 313.5 L740.2 312.1 L740.2 311 L741.4 310.7 L741.7 310 L740.6 308.5 L739.4 307.6 L738.4 304.9 L737 304.4 L735.1 302.9 L735.4 302.1 L735.2 301.6 L734.2 300.5 L733.6 298.7 L733.2 294.7 L733.8 294 L733.1 293.3 L733.2 292.6 L733.6 292.7 L736 291.7 L736.6 291.7 L740.3 289.8 L742.5 289.3 L743.9 289.7 L746.7 289.2 L747.6 289.4 L751.8 286.3 L753.4 284.7 L755.6 284.6 L757.3 284 L757.8 283.5 L759.9 283.1 L761 281.9 L762.8 280.9 L763.9 280.6 L765.6 278.8 L767.2 278.2 L766.4 277.5 L766.5 276.8 L766.9 276.1 L768.5 274.7 L769.7 274.9 L771.3 274.6 L773.3 273.4 L774.8 273.8 L775.8 273.5 L776.7 273.8 L777.3 273.6 L777.4 273.1 L779.8 272.4 L780.9 271.7 L781.2 270.3 L783 268.5 L783.1 268.1 L784 267.9 L787 266.3 L788 265.3 L792.2 263.6 L793.5 262.6 L792.3 262.3 L791.7 262.7 L791.1 262.6 L790.2 262.2 L789.8 262.3 L789.1 261.8 L787.8 261.5 L787.2 261.8 L786.1 261.2 L784.3 261.6 L783.8 261.2 L783.6 259.9 L782.5 259.5 L781.3 259.5 L780.3 258.3 L777.2 256.8 L777 256.6 L777.4 256.3 L777.4 255.6 L775.5 254.9 L775.5 254.1 L774.6 253.4 L774.8 252.8 L774.6 252.1 L774.7 251.4 L774.2 250.6 L774.4 250.3 L774.2 250 L774.4 249.3 L772.6 247.3 L772.1 245.8 L772.2 244.7 L771.8 243.9 L771.3 243.6 L768.7 243.1 L768.5 242 L765.7 241.5 L765.1 240.8 L765 239.8 L763.2 239 L762.7 237.9 L759.1 235.1 L757.3 234.3 L754 234.2 L751 231.9 L748.4 231 L747 229.5 L745.3 228.4 L743.6 228 L738.1 225.2 L733.5 224.5 L730.7 223.6 L723.3 222.4 L721 221.2 L719.4 220 L719.1 218.9 L718.3 218.1 L718.4 217.4 L720.1 214.3 L721.2 213.2 L721.4 212.5 L721.1 210.9 L721.3 209.8 L722.5 208.4 L722.7 207.5 L723.2 206.6 L726 204 L730.6 202.9 L739.8 208.1 L740.4 207.6 L739.7 207.1 L739.5 205.6 L738.9 204.6 L740 202.8 L742.2 201.6 L745 200.6 L746.5 199.6 L748.7 199.5 L749.6 198.7 L751.6 198.2 L753.2 197.1 L754.2 196.7 L754.3 196.3 L757 195.8 L757.9 196.1 L759.9 195.2 L761.3 195.1 L763 193.9 L763.4 192.6 L764.1 192.3 L764.3 191.7 L769.6 191.6 L771 192.2 L773.3 192.5 L777.9 191 L778.4 191.3 L780 189.6 L779.1 188.4 L777.6 187.3 L777.3 186.7 L777.4 185.7 L778 185.2 L777.9 184.4 L779.8 183.2 L779.5 182.5 L778.2 181.5 L774.1 180.6 L775 179.9 L776.3 177.5 L776.3 176.6 L775.9 176 L776.2 175.7 L776.1 174.8 L775.2 172.7 L777.7 172.2 L778.5 171.7 L780.1 171.7 L780.9 170.8 L782 171.7 L783.1 171.7 L783.6 172 L784.5 171.8 L784.6 171.4 L785.8 171.4 L786.4 170.8 L788.3 172.4 L790.5 172.5 L792.6 171.9 L793.3 171.1 L793.1 171 L793.7 170.9 L794.5 170 L800.1 170.8 L801.6 171.5 L802.3 171.2 L803.1 169.8 L802.7 169.5 L805.8 168.4 L807.6 166.3 L808.7 166.2 L809.3 165.7 L809 165.4 L809.1 165 L808.5 164.8 L808.3 164.4 L808.2 164.1 L809 163.5 L808.8 162.8 L809.4 162.1 L808.9 162 L808.9 161.7 L809.7 161.3 L809.7 160.9 L810.1 160.5 L811.3 160 L810.7 159.2 L811.4 159.2 L811.5 158.7 L812.7 158.3 L812.6 157.9 L812.8 157.3 L812.5 157 L812.9 156.3 L814.8 154.8 L817.1 154.3 L819.6 153.3 L819.7 152.7 L821 151.3 L821.3 150.2 L822.3 150.2 L823.7 148.7 L822.9 147.5 L823.1 146.9 L822.6 145.2 L821.3 143.2 L821.3 142.8 L821.7 142.4 L820.5 142.2 L819.9 142.4 L819.9 141.9 L819.5 141.2 L818.2 140.9 L817.1 138.6 L815.2 137 L815.6 136.7 L815.5 136 L816.5 135.5 L816 135.2 L815.7 133.9 L817.5 133.1 L817.6 132.8 L817.2 132.4" stroke="#eac8c0" stroke-width="34" stroke-linecap="round" stroke-linejoin="round" opacity="0.92"/>
    <path d="M608.4 455.1 L607.6 454.9 L606.9 453.4 L606.4 453.3 L605.9 453.6 L605.2 449.4 L604.5 449.3 L604.3 448.1 L604.5 447.7 L604.1 447.3 L604.2 447 L603.7 445.8 L603.4 444.2 L603.7 443.6 L604.9 443.5 L603.9 442.8 L603.6 441.2 L604.2 439.9 L603.9 439.1 L604.4 438.4 L604.4 437.6 L603.1 435.6 L602.4 435 L602.5 434.6 L603.1 435 L603.4 433.9 L602.8 434.3 L603.1 433.7 L602.2 433.3 L602.6 433.2 L602.9 432 L602.1 431.4 L602.6 431.1 L602.9 430.1 L602.2 428.8 L603.5 429 L602.8 428.6 L603.7 428.2 L604.7 427.4 L607.1 424.2 L607.8 424 L607.6 423.6 L607.9 423 L606.7 422.6 L606.8 421.9 L607 421.4 L608.9 421 L609.2 419.6 L609.6 419.1 L609.1 417.8 L609.6 417.7 L609.7 417.3 L608.1 416.5 L608.1 416.2 L608.9 415.9 L609 415.6 L607.4 414.9 L606 412.6 L604.7 412 L604.8 411.3 L604.4 410.7 L604.3 409.6 L604.7 409 L604.5 407.9 L604.8 407.5 L605.6 407.3 L605.8 405.8 L607.4 405.7 L607.8 405 L608.9 404.5 L609.5 403.2 L610.6 403.3 L611.1 403 L611 402.1 L611.6 402.1 L611.9 400.8 L611.2 400 L611.8 399.2 L611.8 398.6 L612.7 397.7 L612.5 397.3 L613.5 396.2 L613.2 395.6 L613.7 395.3 L613.6 394.5 L613 393.6 L613.8 393 L614.9 392.8 L615.8 392.1 L616.5 390.8 L616.3 390.5 L617.9 387.8 L616.8 387.5 L616.5 386.1 L616.9 385.7 L619.8 385.6 L620.2 384.6 L621.1 384 L621.1 382.2 L621.4 382.3 L621.6 382 L619.7 379.9 L620 379.1 L620.9 378.4" stroke="#eac8c0" stroke-width="25" stroke-linecap="round" stroke-linejoin="round" stroke-dasharray="28 30" opacity="0.76"/>
    <path d="M588.4 767.6 L588.5 766.8 L587.2 765.8 L586.6 766 L585.5 765.6 L583.8 765.8 L583.1 765.4 L580.7 765.3 L580.3 764.3 L580.1 764.3 L577.2 764.4 L576.3 762.8 L578.4 762.4 L578.7 761 L580.6 757.7 L581.9 757.4 L582.8 756 L585.1 755.2 L586.1 754.2 L586.9 754.2 L588.1 753.1 L589 752.9 L589.9 752.3 L592.5 752.3 L593 751.4 L594.7 750.2 L596.6 750.3 L597.5 750.9 L599 750.9 L600.1 751.6 L601.3 750.8 L602.4 750.7 L604.6 749.2 L605.6 747.1 L607 746.4 L607.9 744.7 L608.7 744 L609 742.9 L612 742.2 L612.4 741 L613.1 740.6 L613 738.1 L612.1 735.2 L610.2 735.4 L607.4 733.6 L606.9 733.6 L605.4 734.6 L604.5 734.9 L602.1 733.8 L601.1 733.9 L601.1 734.4 L600.5 734.7 L598.9 734 L597.8 734.1 L597.7 731 L598.2 729.5 L597 725.1 L596.4 724.2 L595.9 723.9 L596 723.2 L595.8 722.5 L596.3 722.5 L596.6 722.2 L596.5 721.5 L596.9 720.3 L596.4 719.1 L596.5 718.3 L595.3 716.1 L595.6 715.3 L597 713.8 L597.4 712.6 L600.7 709.6 L600.5 708.2 L599.7 707.6 L597.8 703.8 L598.5 701.5 L598.2 700 L598.9 698 L598.9 696.6 L599.8 692.4 L599.6 691.3 L597.8 688.9 L598 687.9 L597.7 687.7 L598 687.5 L598 686.7 L597.7 685.4 L594.4 684.7 L590.6 683.4 L591.1 682.1 L589.4 680.2 L589.8 679.9 L590 679 L589.7 678.6 L587.8 678.4 L587.2 679 L584.8 678.6 L584.6 677.9 L584.8 676.1 L585.5 676.1 L586.2 675.1 L587.8 674.1 L589.1 671.8 L589.6 671.7 L590.2 671.9 L590.4 670 L589.4 667.4 L588.4 666.2 L588.2 664.9 L587.7 663.6 L585.5 661.6 L584.7 660.3 L585.3 658.5 L585.2 656.4 L584.3 656 L584.3 655.2 L583.6 654 L583.6 653.3 L584 653 L583.3 652.2 L583.3 651.5 L583.8 651.1 L584.1 649.5 L583.6 648.9 L583.1 646.8 L583.6 645.2 L583.4 644.3 L583.6 643.3 L584.9 641.5 L584.9 639.5 L585.4 639.1 L585.5 638.1 L587.1 635.1 L588.6 631 L589.7 631.3 L589.8 631.1 L590 629.9 L590.4 629.4 L590.2 629 L590.7 628.7 L591.4 627 L591.4 626.2 L591.9 625.3 L591.5 625 L591.4 623.1 L590.9 622.9 L590.7 622.3 L589.7 622.5 L588.6 621.6 L589.2 620.7 L588.5 620.2 L588.3 619 L588 618.8 L589.4 617 L589.3 616.1 L589.6 616 L589.4 614.9 L590.3 614.2 L589.9 611.3 L590.7 610.7 L590.7 609.9 L591.6 609.2 L591.5 608.7 L590.9 608.5 L590.5 607.7 L590.7 607.2 L590.5 607.1 L591.6 606.1 L592 605.3 L592.8 605 L593.5 603.6 L594 603.1 L594.5 601 L594.5 600.3 L594.2 600.3 L594.1 599.6 L593.8 599.3 L594 599.3 L594.2 598.6 L594.6 598.4 L593.7 596.2 L593.9 595.8 L592.9 595.4 L592.9 594.9 L592.5 594.9 L592.1 594.5 L591.8 593.8 L590.9 593.9 L590.2 593.4 L589.8 592.8 L589.4 592.9 L589 592.6 L587.9 591.1 L588.2 589.2 L589.6 586.6 L589.7 585.4 L587.6 585.1 L587.1 584.2 L586.4 584.1 L586.6 583.6 L586.2 583.3 L586.3 582.5 L585.9 581 L586.4 580.4 L588.8 578.9 L589.2 577.9 L591.4 575.7 L591.3 575.2 L591.8 574.4 L592.2 574.2 L592.3 573.6 L591.8 573 L591.4 573 L591.1 572.6 L590.6 572.6 L588.7 570.9 L588.7 569.8 L589.2 568.6 L588.7 567.8 L589 567.5 L588.7 567 L588.1 566.8 L588.4 566.4 L588 565.3 L587.4 564.9 L585.7 564.9 L585.7 564.4 L585 564.6 L584.7 564 L584.9 564.1 L584.9 563.7 L585.5 563.2 L585.7 562.1 L587 560.9 L586.2 560 L587.4 557.8 L587.6 556.7 L587.2 555.7 L587.1 556.1 L586.6 556.1 L586.1 555.1 L586.4 554.9 L585.6 555 L585.2 554.1 L585.5 553.4 L585.6 552.2 L586.6 549.8 L586.4 548.3 L587.4 547.4 L588.2 547.3 L588.1 546.7 L589.9 545 L590.1 544 L591 543.5 L591 542.8 L592 542.4 L593.2 540.8 L594.1 541.3 L594.9 540.3 L595.4 540.8 L595.7 540.6 L596.5 540.8 L598.2 540.3 L599.6 540.4 L600.1 540 L600.6 540 L600.6 539.5 L602.2 537.4 L602.2 536.5 L602.4 536.5 L601.8 536.3 L601.3 536.5 L601.3 536.1 L601.8 535.9 L601.5 535.9 L601.5 535.6 L602.2 535.4 L602.2 534.5 L603.1 534.1 L604.1 534.2 L604.4 533.6 L606 532.5 L607.9 532.3 L608.6 532.5 L608.9 532 L608.7 531.5 L609.3 531.1 L609.2 530.5 L608.8 530.2 L610.1 529.3 L609.7 528.8 L609.9 527.5 L610.7 527.3 L611.8 525.5 L611.1 524.6 L610 523.9 L610 523.2 L608.7 521.9 L609.3 521.6 L609.3 521 L608.3 521 L608.6 520 L607.9 519.5 L607.6 518.8 L608.7 518.2 L608.1 516.7 L608.3 516.5 L608.2 515.8 L608.9 515 L609 513.8 L609.8 513.1 L609.6 512.6 L610.2 512.9 L610.5 512.4 L611.2 512.3 L613.2 509.6 L611.7 509 L611.3 508.1 L609.5 507.1 L609.7 507.1 L609.6 506.9 L609 506.5 L609.4 506 L609.3 505.4 L608.9 505.1 L609 504.6 L609.8 504.7 L610.6 504 L611.6 504.2 L612.4 502.6 L613.3 501.9 L613.4 501.5 L614.5 501.1 L614.9 500.6 L615.6 500.7 L615.9 500 L616.7 499.8 L617.2 500 L617.6 499.5 L616.4 498.9 L616.1 498.3 L616.4 497.7 L616.4 497 L615.3 495.2 L615.3 494.3 L614.8 494 L615.1 493.7 L614.7 493.6 L615 493.1 L614.4 492.3 L614.8 491.8 L614.7 491.3 L613.8 490.4 L615.1 488.2 L614.9 487.8 L614.1 487.7 L614.3 487.4 L613.7 487.2 L613.7 486.7 L613.1 486.3 L612.9 485.6 L613.3 485.3 L613 485.2 L613.1 484.4 L612.6 483.7 L612.8 483.2 L613.1 483.3 L614.9 482.1 L613.5 479.1 L614.3 478.1 L614.6 476.1 L613.4 475.5 L613.6 475.2 L613.3 475.1 L613.4 474.7 L612.2 473.5 L612.7 472.8 L613.4 472.4 L613.6 471.3 L616.2 469.6 L616.2 469.1 L617.4 467.8 L616.8 466.3 L617.1 465.1 L616.6 464.5 L616.9 464.6 L616.6 464.3 L616.6 463.8 L615.6 463.2 L612.8 464.6 L612.4 463.9 L610.4 463.3 L609.6 462.4 L608.9 462.1 L608.2 460.2 L608.1 459.6 L608.6 458.4 L608.1 457.9 L608 456.1 L608.7 454.9 L611.9 454.8 L613.8 454.2 L616.9 454.5 L618.1 454.3 L618.8 454.9 L622.7 454.2 L622.9 453.3 L622.3 452.8 L622.3 452.2 L621.7 451.6 L621.5 449.9 L621.1 449.5 L621.6 447.4 L622.8 445 L623.4 444.9 L624.8 443.5 L625.9 443 L626.4 441.3 L626.4 441.1 L625.8 440.9 L625.7 440.5 L625.2 440 L625.2 439.3 L626 438.4 L625.8 437.8 L626.1 436.8 L625.4 436.2 L625.7 435.1 L625.4 434.5 L625.7 434.3 L625.2 433.5 L625.9 432.5 L627.1 432.4 L627.2 431.8 L626.7 430.8 L627.7 430.1 L628.6 428.6 L630 427.4 L632.3 426.8 L633.9 425.7 L635.4 424.5 L636.8 422.5 L640.5 422.1 L641 421.4 L641.8 421.4 L642 421 L643.4 420 L644.1 418.4 L643.6 417.4 L643.5 416 L642.1 414.9 L642.5 413.5 L644 413.3 L644.5 413.5 L648.1 412.1 L649.8 412.1 L653.5 413.6 L656.6 413.7 L657 413.9 L657.8 413.6 L657.9 414.5 L659.1 415 L659.6 415.7 L660.2 415.7 L661.1 415.3 L662.8 415.1 L664.2 414.1 L664.7 414 L665.9 413 L666.1 412.4 L667.5 411.5 L667.9 411 L669.2 411.1 L670.1 409.9 L671.9 410.4 L672.7 409.8 L675.8 410.1 L675.9 409.4 L676.7 409.4 L677.3 408.2 L678.6 407.2 L679.6 405.2 L680.2 405.2 L680.2 404.7 L682.1 403.8 L684 402.1 L685.5 402.2 L685.6 401.9 L685.3 401.4 L685.8 400 L687.2 399.2 L688.8 399.1 L688.8 398.1 L690.1 397.2 L692.4 396.5 L695 396.7 L695.3 395.5 L697.9 395.4 L699.7 395.7 L701.6 395.3 L701.8 394.2 L701.2 391.9 L703.9 391.3 L703.7 389.1 L704 388.5 L704 386.7 L705.1 384.7 L705.3 383.2 L705.7 382.9 L705.9 380.7 L709.2 380.7 L709.5 380.2 L709.4 379.3 L709.9 379.3 L710.1 379.6 L710.7 379.5 L713.1 378 L713 376.3 L712.2 375.2 L713.2 374.1 L713.4 373.2 L714.8 372.2 L714.9 371.1 L714.7 370.4 L715.1 369.5 L717 369.1 L718.3 368 L719.2 368.2 L719.9 368 L720.4 367.4 L720.9 367.3 L720.9 366.9 L721.6 366.8 L722.1 366.2 L723.5 365.7 L723.9 365.1 L725.8 364 L725.7 363.2 L726.7 362.7 L727.4 361.5 L727.6 360.5 L728.6 360 L729.8 360 L730.4 359.6 L732.5 359.1 L733.7 359.4 L734.5 359.2 L735.8 359.4 L738 358.9 L738.7 359.1 L739.2 359.8 L740.1 360.4 L740.4 360 L741.8 359.8 L742.2 360.1 L743.5 359.5 L744 358.4 L746.5 357.3 L748 357.2 L749.5 356.6 L750.5 356.9 L752.6 356.1 L752.8 355.3 L752.6 353.9 L753.4 353.4 L753.1 353.3 L753.6 352.4 L753.9 350.3 L754.5 349.5 L754 348.8 L753.1 348.7 L752.7 347.6 L755.7 345.4 L757.8 342.4 L758.7 341.9 L758.8 341.5 L758.9 339.4 L757.5 338 L755.7 337.2 L756.2 336.4 L756.1 335.5 L754.8 335.1 L754.1 334.1 L754.6 333 L754.7 330.1 L755.4 329.4 L755.4 328 L756.8 326.3 L756.5 325.4 L756.9 322.5 L756.4 320.4 L755.5 319.6 L751.8 318.2 L750.6 317.1 L750.5 316.2 L748.6 315.2 L746.8 315.9 L744.1 315.9 L740.9 313.5 L740.2 312.1 L740.2 311 L741.4 310.7 L741.7 310 L740.6 308.5 L739.4 307.6 L738.4 304.9 L737 304.4 L735.1 302.9 L735.4 302.1 L735.2 301.6 L734.2 300.5 L733.6 298.7 L733.2 294.7 L733.8 294 L733.1 293.3 L733.2 292.6 L733.6 292.7 L736 291.7 L736.6 291.7 L740.3 289.8 L742.5 289.3 L743.9 289.7 L746.7 289.2 L747.6 289.4 L751.8 286.3 L753.4 284.7 L755.6 284.6 L757.3 284 L757.8 283.5 L759.9 283.1 L761 281.9 L762.8 280.9 L763.9 280.6 L765.6 278.8 L767.2 278.2 L766.4 277.5 L766.5 276.8 L766.9 276.1 L768.5 274.7 L769.7 274.9 L771.3 274.6 L773.3 273.4 L774.8 273.8 L775.8 273.5 L776.7 273.8 L777.3 273.6 L777.4 273.1 L779.8 272.4 L780.9 271.7 L781.2 270.3 L783 268.5 L783.1 268.1 L784 267.9 L787 266.3 L788 265.3 L792.2 263.6 L793.5 262.6 L792.3 262.3 L791.7 262.7 L791.1 262.6 L790.2 262.2 L789.8 262.3 L789.1 261.8 L787.8 261.5 L787.2 261.8 L786.1 261.2 L784.3 261.6 L783.8 261.2 L783.6 259.9 L782.5 259.5 L781.3 259.5 L780.3 258.3 L777.2 256.8 L777 256.6 L777.4 256.3 L777.4 255.6 L775.5 254.9 L775.5 254.1 L774.6 253.4 L774.8 252.8 L774.6 252.1 L774.7 251.4 L774.2 250.6 L774.4 250.3 L774.2 250 L774.4 249.3 L772.6 247.3 L772.1 245.8 L772.2 244.7 L771.8 243.9 L771.3 243.6 L768.7 243.1 L768.5 242 L765.7 241.5 L765.1 240.8 L765 239.8 L763.2 239 L762.7 237.9 L759.1 235.1 L757.3 234.3 L754 234.2 L751 231.9 L748.4 231 L747 229.5 L745.3 228.4 L743.6 228 L738.1 225.2 L733.5 224.5 L730.7 223.6 L723.3 222.4 L721 221.2 L719.4 220 L719.1 218.9 L718.3 218.1 L718.4 217.4 L720.1 214.3 L721.2 213.2 L721.4 212.5 L721.1 210.9 L721.3 209.8 L722.5 208.4 L722.7 207.5 L723.2 206.6 L726 204 L730.6 202.9 L739.8 208.1 L740.4 207.6 L739.7 207.1 L739.5 205.6 L738.9 204.6 L740 202.8 L742.2 201.6 L745 200.6 L746.5 199.6 L748.7 199.5 L749.6 198.7 L751.6 198.2 L753.2 197.1 L754.2 196.7 L754.3 196.3 L757 195.8 L757.9 196.1 L759.9 195.2 L761.3 195.1 L763 193.9 L763.4 192.6 L764.1 192.3 L764.3 191.7 L769.6 191.6 L771 192.2 L773.3 192.5 L777.9 191 L778.4 191.3 L780 189.6 L779.1 188.4 L777.6 187.3 L777.3 186.7 L777.4 185.7 L778 185.2 L777.9 184.4 L779.8 183.2 L779.5 182.5 L778.2 181.5 L774.1 180.6 L775 179.9 L776.3 177.5 L776.3 176.6 L775.9 176 L776.2 175.7 L776.1 174.8 L775.2 172.7 L777.7 172.2 L778.5 171.7 L780.1 171.7 L780.9 170.8 L782 171.7 L783.1 171.7 L783.6 172 L784.5 171.8 L784.6 171.4 L785.8 171.4 L786.4 170.8 L788.3 172.4 L790.5 172.5 L792.6 171.9 L793.3 171.1 L793.1 171 L793.7 170.9 L794.5 170 L800.1 170.8 L801.6 171.5 L802.3 171.2 L803.1 169.8 L802.7 169.5 L805.8 168.4 L807.6 166.3 L808.7 166.2 L809.3 165.7 L809 165.4 L809.1 165 L808.5 164.8 L808.3 164.4 L808.2 164.1 L809 163.5 L808.8 162.8 L809.4 162.1 L808.9 162 L808.9 161.7 L809.7 161.3 L809.7 160.9 L810.1 160.5 L811.3 160 L810.7 159.2 L811.4 159.2 L811.5 158.7 L812.7 158.3 L812.6 157.9 L812.8 157.3 L812.5 157 L812.9 156.3 L814.8 154.8 L817.1 154.3 L819.6 153.3 L819.7 152.7 L821 151.3 L821.3 150.2 L822.3 150.2 L823.7 148.7 L822.9 147.5 L823.1 146.9 L822.6 145.2 L821.3 143.2 L821.3 142.8 L821.7 142.4 L820.5 142.2 L819.9 142.4 L819.9 141.9 L819.5 141.2 L818.2 140.9 L817.1 138.6 L815.2 137 L815.6 136.7 L815.5 136 L816.5 135.5 L816 135.2 L815.7 133.9 L817.5 133.1 L817.6 132.8 L817.2 132.4" stroke="#b54646" stroke-width="18" stroke-linecap="round" stroke-linejoin="round"/>
    <path d="M608.4 455.1 L607.6 454.9 L606.9 453.4 L606.4 453.3 L605.9 453.6 L605.2 449.4 L604.5 449.3 L604.3 448.1 L604.5 447.7 L604.1 447.3 L604.2 447 L603.7 445.8 L603.4 444.2 L603.7 443.6 L604.9 443.5 L603.9 442.8 L603.6 441.2 L604.2 439.9 L603.9 439.1 L604.4 438.4 L604.4 437.6 L603.1 435.6 L602.4 435 L602.5 434.6 L603.1 435 L603.4 433.9 L602.8 434.3 L603.1 433.7 L602.2 433.3 L602.6 433.2 L602.9 432 L602.1 431.4 L602.6 431.1 L602.9 430.1 L602.2 428.8 L603.5 429 L602.8 428.6 L603.7 428.2 L604.7 427.4 L607.1 424.2 L607.8 424 L607.6 423.6 L607.9 423 L606.7 422.6 L606.8 421.9 L607 421.4 L608.9 421 L609.2 419.6 L609.6 419.1 L609.1 417.8 L609.6 417.7 L609.7 417.3 L608.1 416.5 L608.1 416.2 L608.9 415.9 L609 415.6 L607.4 414.9 L606 412.6 L604.7 412 L604.8 411.3 L604.4 410.7 L604.3 409.6 L604.7 409 L604.5 407.9 L604.8 407.5 L605.6 407.3 L605.8 405.8 L607.4 405.7 L607.8 405 L608.9 404.5 L609.5 403.2 L610.6 403.3 L611.1 403 L611 402.1 L611.6 402.1 L611.9 400.8 L611.2 400 L611.8 399.2 L611.8 398.6 L612.7 397.7 L612.5 397.3 L613.5 396.2 L613.2 395.6 L613.7 395.3 L613.6 394.5 L613 393.6 L613.8 393 L614.9 392.8 L615.8 392.1 L616.5 390.8 L616.3 390.5 L617.9 387.8 L616.8 387.5 L616.5 386.1 L616.9 385.7 L619.8 385.6 L620.2 384.6 L621.1 384 L621.1 382.2 L621.4 382.3 L621.6 382 L619.7 379.9 L620 379.1 L620.9 378.4" stroke="#b54646" stroke-width="11" stroke-linecap="round" stroke-linejoin="round" stroke-dasharray="24 26" opacity="0.92"/>
  </g>
  <g fill="#fffaf0" stroke="#20231f" stroke-opacity="0.18" stroke-width="3.5">
    <circle cx="588.4" cy="767.6" r="13"/>
    <circle cx="817.2" cy="132.4" r="13"/>
    <circle cx="608.4" cy="455.1" r="10"/>
    <circle cx="620.9" cy="378.4" r="10"/>
  </g>
  <path d="M72 76H1328V824H72Z" fill="none" stroke="#fffaf0" stroke-opacity="0.42" stroke-width="2"/>
  <rect width="1400" height="900" fill="#3b3020" filter="url(#paperGrain)" opacity="0.24"/>
</svg>
