<svg xmlns="http://www.w3.org/2000/svg" viewBox="0 0 1400 900" role="img" aria-label="西部纵贯之路">
  <defs>
    
    <linearGradient id="paper" x1="0" x2="1" y1="0" y2="1">
      <stop offset="0" stop-color="#fffaf0"/>
      <stop offset="0.48" stop-color="#f1ebd9"/>
      <stop offset="1" stop-color="#c9c5ba"/>
    </linearGradient>
    <filter id="paperGrain" x="0" y="0" width="100%" height="100%">
      <feTurbulence baseFrequency="0.74" numOctaves="2" seed="70" type="fractalNoise"/>
      <feColorMatrix type="saturate" values="0"/>
      <feComponentTransfer>
        <feFuncA type="table" tableValues="0 0.13"/>
      </feComponentTransfer>
    </filter>
    <filter id="assetShadow" x="-18%" y="-18%" width="136%" height="136%">
      <feDropShadow dx="0" dy="18" stdDeviation="18" flood-color="#2f261a" flood-opacity="0.16"/>
    </filter>
    <linearGradient id="inkWash" x1="0" x2="1" y1="0" y2="1">
      <stop offset="0" stop-color="#5a5327" stop-opacity="0.28"/>
      <stop offset="0.52" stop-color="#7a93af" stop-opacity="0.18"/>
      <stop offset="1" stop-color="#293f56" stop-opacity="0.22"/>
    </linearGradient>
  </defs>
  <rect width="1400" height="900" fill="url(#paper)"/>
  <rect width="1400" height="900" fill="url(#inkWash)"/>
  <g opacity="0.8">
    <path d="M-900 900 L0 0" fill="none" stroke="#8a7a2d" stroke-width="1" stroke-opacity="0.07"/>
  <path d="M-862 900 L38 0" fill="none" stroke="#8a7a2d" stroke-width="1" stroke-opacity="0.07"/>
  <path d="M-824 900 L76 0" fill="none" stroke="#8a7a2d" stroke-width="1" stroke-opacity="0.07"/>
  <path d="M-786 900 L114 0" fill="none" stroke="#8a7a2d" stroke-width="1" stroke-opacity="0.07"/>
  <path d="M-748 900 L152 0" fill="none" stroke="#8a7a2d" stroke-width="1" stroke-opacity="0.07"/>
  <path d="M-710 900 L190 0" fill="none" stroke="#8a7a2d" stroke-width="1" stroke-opacity="0.07"/>
  <path d="M-672 900 L228 0" fill="none" stroke="#8a7a2d" stroke-width="1" stroke-opacity="0.07"/>
  <path d="M-634 900 L266 0" fill="none" stroke="#8a7a2d" stroke-width="1" stroke-opacity="0.07"/>
  <path d="M-596 900 L304 0" fill="none" stroke="#8a7a2d" stroke-width="1" stroke-opacity="0.07"/>
  <path d="M-558 900 L342 0" fill="none" stroke="#8a7a2d" stroke-width="1" stroke-opacity="0.07"/>
  <path d="M-520 900 L380 0" fill="none" stroke="#8a7a2d" stroke-width="1" stroke-opacity="0.07"/>
  <path d="M-482 900 L418 0" fill="none" stroke="#8a7a2d" stroke-width="1" stroke-opacity="0.07"/>
  <path d="M-444 900 L456 0" fill="none" stroke="#8a7a2d" stroke-width="1" stroke-opacity="0.07"/>
  <path d="M-406 900 L494 0" fill="none" stroke="#8a7a2d" stroke-width="1" stroke-opacity="0.07"/>
  <path d="M-368 900 L532 0" fill="none" stroke="#8a7a2d" stroke-width="1" stroke-opacity="0.07"/>
  <path d="M-330 900 L570 0" fill="none" stroke="#8a7a2d" stroke-width="1" stroke-opacity="0.07"/>
  <path d="M-292 900 L608 0" fill="none" stroke="#8a7a2d" stroke-width="1" stroke-opacity="0.07"/>
  <path d="M-254 900 L646 0" fill="none" stroke="#8a7a2d" stroke-width="1" stroke-opacity="0.07"/>
  <path d="M-216 900 L684 0" fill="none" stroke="#8a7a2d" stroke-width="1" stroke-opacity="0.07"/>
  <path d="M-178 900 L722 0" fill="none" stroke="#8a7a2d" stroke-width="1" stroke-opacity="0.07"/>
  <path d="M-140 900 L760 0" fill="none" stroke="#8a7a2d" stroke-width="1" stroke-opacity="0.07"/>
  <path d="M-102 900 L798 0" fill="none" stroke="#8a7a2d" stroke-width="1" stroke-opacity="0.07"/>
  <path d="M-64 900 L836 0" fill="none" stroke="#8a7a2d" stroke-width="1" stroke-opacity="0.07"/>
  <path d="M-26 900 L874 0" fill="none" stroke="#8a7a2d" stroke-width="1" stroke-opacity="0.07"/>
  <path d="M12 900 L912 0" fill="none" stroke="#8a7a2d" stroke-width="1" stroke-opacity="0.07"/>
  <path d="M50 900 L950 0" fill="none" stroke="#8a7a2d" stroke-width="1" stroke-opacity="0.07"/>
  <path d="M88 900 L988 0" fill="none" stroke="#8a7a2d" stroke-width="1" stroke-opacity="0.07"/>
  <path d="M126 900 L1026 0" fill="none" stroke="#8a7a2d" stroke-width="1" stroke-opacity="0.07"/>
  <path d="M164 900 L1064 0" fill="none" stroke="#8a7a2d" stroke-width="1" stroke-opacity="0.07"/>
  <path d="M202 900 L1102 0" fill="none" stroke="#8a7a2d" stroke-width="1" stroke-opacity="0.07"/>
  <path d="M240 900 L1140 0" fill="none" stroke="#8a7a2d" stroke-width="1" stroke-opacity="0.07"/>
  <path d="M278 900 L1178 0" fill="none" stroke="#8a7a2d" stroke-width="1" stroke-opacity="0.07"/>
  <path d="M316 900 L1216 0" fill="none" stroke="#8a7a2d" stroke-width="1" stroke-opacity="0.07"/>
  <path d="M354 900 L1254 0" fill="none" stroke="#8a7a2d" stroke-width="1" stroke-opacity="0.07"/>
  <path d="M392 900 L1292 0" fill="none" stroke="#8a7a2d" stroke-width="1" stroke-opacity="0.07"/>
  <path d="M430 900 L1330 0" fill="none" stroke="#8a7a2d" stroke-width="1" stroke-opacity="0.07"/>
  <path d="M468 900 L1368 0" fill="none" stroke="#8a7a2d" stroke-width="1" stroke-opacity="0.07"/>
  <path d="M506 900 L1406 0" fill="none" stroke="#8a7a2d" stroke-width="1" stroke-opacity="0.07"/>
  <path d="M544 900 L1444 0" fill="none" stroke="#8a7a2d" stroke-width="1" stroke-opacity="0.07"/>
  <path d="M582 900 L1482 0" fill="none" stroke="#8a7a2d" stroke-width="1" stroke-opacity="0.07"/>
  <path d="M620 900 L1520 0" fill="none" stroke="#8a7a2d" stroke-width="1" stroke-opacity="0.07"/>
  <path d="M658 900 L1558 0" fill="none" stroke="#8a7a2d" stroke-width="1" stroke-opacity="0.07"/>
  <path d="M696 900 L1596 0" fill="none" stroke="#8a7a2d" stroke-width="1" stroke-opacity="0.07"/>
  <path d="M734 900 L1634 0" fill="none" stroke="#8a7a2d" stroke-width="1" stroke-opacity="0.07"/>
  <path d="M772 900 L1672 0" fill="none" stroke="#8a7a2d" stroke-width="1" stroke-opacity="0.07"/>
  <path d="M810 900 L1710 0" fill="none" stroke="#8a7a2d" stroke-width="1" stroke-opacity="0.07"/>
  <path d="M848 900 L1748 0" fill="none" stroke="#8a7a2d" stroke-width="1" stroke-opacity="0.07"/>
  <path d="M886 900 L1786 0" fill="none" stroke="#8a7a2d" stroke-width="1" stroke-opacity="0.07"/>
  <path d="M924 900 L1824 0" fill="none" stroke="#8a7a2d" stroke-width="1" stroke-opacity="0.07"/>
  <path d="M962 900 L1862 0" fill="none" stroke="#8a7a2d" stroke-width="1" stroke-opacity="0.07"/>
  <path d="M1000 900 L1900 0" fill="none" stroke="#8a7a2d" stroke-width="1" stroke-opacity="0.07"/>
  <path d="M1038 900 L1938 0" fill="none" stroke="#8a7a2d" stroke-width="1" stroke-opacity="0.07"/>
  <path d="M1076 900 L1976 0" fill="none" stroke="#8a7a2d" stroke-width="1" stroke-opacity="0.07"/>
  <path d="M1114 900 L2014 0" fill="none" stroke="#8a7a2d" stroke-width="1" stroke-opacity="0.07"/>
  <path d="M1152 900 L2052 0" fill="none" stroke="#8a7a2d" stroke-width="1" stroke-opacity="0.07"/>
  <path d="M1190 900 L2090 0" fill="none" stroke="#8a7a2d" stroke-width="1" stroke-opacity="0.07"/>
  <path d="M1228 900 L2128 0" fill="none" stroke="#8a7a2d" stroke-width="1" stroke-opacity="0.07"/>
  <path d="M1266 900 L2166 0" fill="none" stroke="#8a7a2d" stroke-width="1" stroke-opacity="0.07"/>
  <path d="M1304 900 L2204 0" fill="none" stroke="#8a7a2d" stroke-width="1" stroke-opacity="0.07"/>
  <path d="M1342 900 L2242 0" fill="none" stroke="#8a7a2d" stroke-width="1" stroke-opacity="0.07"/>
  <path d="M1380 900 L2280 0" fill="none" stroke="#8a7a2d" stroke-width="1" stroke-opacity="0.07"/>
    <path d="M-112 -128 C252 -200 448 -56 728 -128 S1148 -200 1512 -110" fill="none" stroke="#315a8c" stroke-width="1.2" stroke-opacity="0.16" stroke-linecap="round"/>
  <path d="M-112 0 C252 -72 448 72 728 0 S1148 -72 1512 18" fill="none" stroke="#315a8c" stroke-width="1.2" stroke-opacity="0.16" stroke-linecap="round"/>
  <path d="M-112 128 C252 56 448 200 728 128 S1148 56 1512 146" fill="none" stroke="#315a8c" stroke-width="1.2" stroke-opacity="0.16" stroke-linecap="round"/>
  <path d="M-112 256 C252 184 448 328 728 256 S1148 184 1512 274" fill="none" stroke="#315a8c" stroke-width="1.2" stroke-opacity="0.16" stroke-linecap="round"/>
  <path d="M-112 384 C252 312 448 456 728 384 S1148 312 1512 402" fill="none" stroke="#315a8c" stroke-width="1.2" stroke-opacity="0.16" stroke-linecap="round"/>
  <path d="M-112 512 C252 440 448 584 728 512 S1148 440 1512 530" fill="none" stroke="#315a8c" stroke-width="1.2" stroke-opacity="0.16" stroke-linecap="round"/>
  <path d="M-112 640 C252 568 448 712 728 640 S1148 568 1512 658" fill="none" stroke="#315a8c" stroke-width="1.2" stroke-opacity="0.16" stroke-linecap="round"/>
  <path d="M-112 768 C252 696 448 840 728 768 S1148 696 1512 786" fill="none" stroke="#315a8c" stroke-width="1.2" stroke-opacity="0.16" stroke-linecap="round"/>
  <path d="M-112 896 C252 824 448 968 728 896 S1148 824 1512 914" fill="none" stroke="#315a8c" stroke-width="1.2" stroke-opacity="0.16" stroke-linecap="round"/>
  <path d="M-112 1024 C252 952 448 1096 728 1024 S1148 952 1512 1042" fill="none" stroke="#315a8c" stroke-width="1.2" stroke-opacity="0.16" stroke-linecap="round"/>
  <path d="M-112 1152 C252 1080 448 1224 728 1152 S1148 1080 1512 1170" fill="none" stroke="#315a8c" stroke-width="1.2" stroke-opacity="0.16" stroke-linecap="round"/>
  <path d="M-112 1280 C252 1208 448 1352 728 1280 S1148 1208 1512 1298" fill="none" stroke="#315a8c" stroke-width="1.2" stroke-opacity="0.16" stroke-linecap="round"/>
  </g>
  <text x="82" y="260" fill="#20231f" fill-opacity="0.07" font-family="'Songti SC','STSong','Source Han Serif SC','Noto Serif CJK SC','SimSun',serif" font-size="168" font-weight="900" writing-mode="vertical-rl">西纵之路</text>
  <text x="1296" y="730" text-anchor="end" fill="#20231f" fill-opacity="0.08" font-family="'Avenir Next',Avenir,Arial,sans-serif" font-size="54" font-weight="900" letter-spacing="7">ROUTE 06</text>
  <g transform="translate(978 86)">
    <g transform="rotate(2 41 41)">
    <rect x="0" y="0" width="82" height="82" rx="11.48" fill="#9f3525"/>
    <rect x="8.200000000000001" y="8.200000000000001" width="65.60000000000001" height="65.60000000000001" rx="8.200000000000001" fill="none" stroke="#fff2df" stroke-opacity="0.72" stroke-width="2.87"/>
    <text x="41" y="49.199999999999996" text-anchor="middle" fill="#fff7e8" font-family="'Kaiti SC','STKaiti','FZKai-Z03S','KaiTi','Songti SC','STSong','Noto Serif CJK SC',serif" font-size="37.72" font-weight="900">路</text>
    <text x="41" y="63.96" text-anchor="middle" fill="#fff2df" font-family="'Avenir Next',Avenir,Arial,sans-serif" font-size="11.48" font-weight="900" letter-spacing="0.8">06</text>
  </g>
  </g>
  <g transform="translate(1060 86)">
    <text x="0" y="28" fill="#20231f" fill-opacity="0.68" font-family="'Kaiti SC','STKaiti','FZKai-Z03S','KaiTi','Songti SC','STSong','Noto Serif CJK SC',serif" font-size="25" font-weight="900">沿横断与边地北上</text>
    <text x="0" y="64" fill="#8a7a2d" font-family="'Songti SC','STSong','Source Han Serif SC','Noto Serif CJK SC','SimSun',serif" font-size="36" font-weight="900">西部纵贯之路</text>
  </g>
  <g transform="translate(128 628)" opacity="0.82">
    <g transform="translate(0 0) scale(1.1)">
      <path d="M5 126 L62 52 L111 102 L161 29 L255 126" fill="none" stroke-linecap="round" stroke-linejoin="round" stroke="#8a7a2d" stroke-width="7"/>
      <path d="M62 52 L111 102 L161 29" fill="none" stroke-linecap="round" stroke-linejoin="round" stroke="#fffaf0" stroke-width="2.8" opacity="0.9"/>
      <path d="M129 139 C137 102 153 69 181 36" fill="none" stroke-linecap="round" stroke-linejoin="round" stroke="#315a8c" stroke-width="5" stroke-dasharray="14 10"/>
      <path d="M24 151 H268" fill="none" stroke-linecap="round" stroke-linejoin="round" stroke="#315a8c" stroke-width="3.8" opacity="0.58"/></g>
  </g>
  <g fill="none" filter="url(#assetShadow)">
    <path d="M961.2 763.8 L962 762 L961.4 760.9 L961.2 758.5 L959.6 758.9 L959 758.7 L958.8 758 L957.9 758 L957.8 757.1 L957.1 756.3 L956.1 754 L954.2 753.1 L954.4 748.1 L952.4 747.7 L952 747 L950.5 746 L946.8 745.3 L945.3 743.9 L943.6 743.6 L943.2 743.1 L943.2 741.6 L942.5 741.2 L943.2 740.2 L943.2 739.4 L945.6 737.2 L945.8 735.3 L946.6 734.9 L947.1 735.1 L947.7 734.4 L947.5 733.8 L947 733.7 L946.1 731.8 L944.5 730.1 L944.3 729.4 L945.4 727 L946.9 725.5 L946.5 724.1 L946.9 723.2 L946.7 722.1 L947 720.6 L946.5 720.2 L946.2 719.2 L943.6 717.1 L943.8 716 L943.5 715 L943.9 714.3 L943.6 714.1 L942.8 714.2 L941.9 712.4 L941.3 712.3 L941.5 711.6 L940.4 710.9 L939.4 710.9 L939.3 710.2 L938.3 709.2 L938.2 708 L937.3 706.6 L937.1 704.9 L937.7 701.4 L938.2 700.9 L937.5 701.8 L935.3 702.2 L934.1 702.1 L932.8 701 L931.2 702 L930.2 703.3 L929.2 704 L928.4 702.8 L927.3 703 L926.1 702.4 L926 701.7 L925.3 701.7 L925.2 700 L924.3 698.1 L924.7 696.3 L923.6 695.5 L923.9 694 L925.3 692.1 L925.4 690.5 L926.2 689.7 L928.2 685.7 L928.2 684.3 L929.9 682.8 L931 683.1 L931.3 682.6 L930.7 681.3 L929.9 680.6 L930.1 678.4 L930.4 678 L932.1 677.5 L933.4 676.4 L934.6 676.2 L935.5 675.3 L935.7 674.4 L936.7 674.1 L936 672.5 L936.2 672.2 L932.7 667.6 L932.6 666.3 L931.7 667.2 L930.4 665.7 L930.6 663.1 L930.4 662.5 L930.7 661.6 L929.1 660.4 L928.3 660.9 L927.9 659.2 L928.2 658.4 L927.8 657.9 L927.9 656.7 L927.2 655.8 L926.8 655.7 L926.5 655 L926 655.3 L925.3 653.9 L925.6 653.6 L925.4 653.3 L925.6 653.4 L925.7 652.9 L926.9 652 L926.3 649.8 L927 648.2 L927 647.2 L927.6 646.4 L927.2 644.5 L926.6 644 L927.2 643.1 L926.9 641.9 L927.7 640.9 L928.1 639.6 L928.8 639.1 L928.9 637.6 L929.6 636.2 L929.4 635.2 L928.7 634.4 L927.3 634.5 L927 634.1 L925.8 635.6 L923.8 634.5 L923.5 634.7 L924.9 631.1 L924.6 628.2 L925 627.6 L924.2 626.9 L924.6 627.5 L924.3 627.5 L923.6 626.4 L922.6 623.8 L922 623.8 L921.7 623.1 L920.5 623.6 L920.8 623 L918.7 621 L918.5 620.4 L919.1 619.3 L917 616.5 L915.5 612.5 L915.8 612.1 L915.3 611.3 L912.1 607.9 L909.8 608.1 L909.5 607 L909.8 606.4 L909.1 605.7 L909.4 605.2 L907.1 603.4 L907.1 603.1 L904.7 602.7 L904 602.1 L904.7 602.1 L901.1 600.8 L899 598.7 L898.3 597.6 L898.2 598 L897.6 598 L897.4 598.6 L897.3 598.3 L896.9 598.4 L896.7 598.1 L896.9 597.8 L896.1 597.5 L895.8 597 L896.1 596.9 L895.6 596.6 L895.9 596 L895.5 596.2 L894.6 594.8 L894.3 594.8 L893.4 592.9 L892.9 592.8 L892.9 591 L892.3 590.1 L892.6 589.4 L892.1 588.3 L892.4 587.5 L891.8 587.2 L891.8 586.5 L891.2 585.9 L891.4 583.9 L892.4 582.5 L892.4 582 L891.7 581.6 L892.4 581.5 L892.6 580.9 L893.2 580.6 L892.7 579.5 L893.2 579.3 L892.8 578.9 L892.8 577.6 L892.2 576.7 L892.1 575.2 L890.9 573.3 L890.7 571.6 L891 570 L890.2 569.8 L889.8 570.2 L889.2 570.1 L888.2 569.6 L887.1 569.6 L886.1 570.2 L884.9 572.7 L884.4 572.7 L884.3 573.3 L882.9 573.7 L881.6 573.1 L880.1 570.3 L879.2 569.4 L877.5 569.8 L876.2 569.2 L876 570.3 L875 571.3 L873.6 570.3 L873.3 570.4 L872.2 569.1 L871.2 568.7 L870.3 566.4 L869.4 565.7 L866.7 564.1 L865.2 564.4 L864.7 561.2 L861.3 558.4 L861 558.6 L861.4 558.6 L861.2 559.4 L861.7 559.6 L861.4 559.7 L861.3 560.2 L860.9 560.1 L861.7 560.5 L861.5 561 L860.9 561.4 L858.7 560.8 L858.3 561.1 L858.1 562.1 L857.4 562.7 L855.6 562.8 L854.4 561.8 L853.4 561.6 L848.5 562.3 L847.4 563.2 L846.9 564.3 L848.5 569.9 L848.2 571 L849.6 573.6 L849.3 574.4 L846.6 575 L844.3 573.5 L843.3 573.7 L842 573.2 L840.6 572 L837.5 571.5 L836.6 571 L836.5 570.2 L835.2 569.7 L834.2 568.9 L833 569.2 L830.1 568.5 L830 568.1 L829 567.6 L827.1 567.4 L826.9 566.5 L826.2 566 L823.6 565.1 L821.6 565.7 L820.3 565.2 L819.2 565.2 L817.4 564 L817.3 563.5 L815.9 563.1 L815.3 562.3 L814.2 562.3 L813.7 561.7 L812.7 561.7 L811.7 561.3 L811.7 560.8 L811 560.8 L808.9 562.9 L807.2 563.3 L806.7 563.1 L806.1 563.9 L804.6 564.3 L804.3 565.8 L803.2 567.2 L803.5 567.9 L802.9 568.9 L802.9 571 L802.3 571.3 L802.7 571.4 L802.4 571.8 L801.2 572 L800.6 571.5 L799.5 573.1 L796.5 572.7 L796.1 572.9 L796.7 574 L796.4 574.9 L796.8 576.8 L796.3 577.6 L795 578.7 L794 578.9 L793.5 579.7 L791.4 580.8 L790.8 581.7 L788.3 581.4 L785.4 581.7 L784.5 582.1 L784.1 583 L782.4 583.3 L781.4 583.2 L781 582.6 L780.4 583.1 L779.2 582.4 L778.3 582.6 L777.6 582 L774.4 582.2 L773.8 583 L773.9 583.5 L772.7 583.8 L770.7 586.1 L769.4 586.1 L768.6 585.4 L767.2 585.5 L767.4 584.6 L767 583 L766.6 582.8 L765.5 583.8 L765.2 584.8 L763.4 584.9 L762.1 584.3 L761.4 584.6 L760.2 584 L759.3 584.6 L758.3 584 L757.7 584.3 L757 583.4 L756.4 583.5 L756.7 583.2 L756.6 582.8 L755.9 582.6 L755.7 583.2 L754.8 583.5 L754.1 582.7 L752.6 582.7 L752.1 584.1 L750.9 584.7 L749.7 584.5 L749.5 584.8 L749.7 584.9 L749.2 585.3 L748.9 585.1 L749.1 585.3 L748.8 585.1 L748.9 585.3 L748.3 584.9 L748.5 585.2 L745.5 584.7 L743.8 583.1 L742.2 582.8 L741.1 580.8 L740.4 580.1 L739.4 579.9 L736.6 579.9 L735.1 580.5 L730.4 579.7 L730.1 580.2 L728.9 579.9 L727 580.3 L721.5 579.4 L720.3 579.6 L719.8 578.9 L718.6 579.5 L715.1 579.2 L713.8 579.8 L712.5 579.5 L712.2 578.6 L711.3 578.3 L711 578.5 L711 579.1 L709.5 579.9 L709.9 580.7 L709.6 580.9 L710 581.1 L709.4 581.5 L709.5 581.7 L707.9 581.7 L704.3 583.8 L703.3 583.4 L704.3 584.2 L704.4 585.4 L704.1 585.7 L704.5 586.5 L703.4 588.2 L702.8 588.6 L697.8 588.1 L696.2 590 L695.2 590 L694 589.1 L692.4 589.7 L691.8 589.3 L689.9 589.5 L686.6 588 L686.4 588.2 L683 585.4 L681.2 584.5 L679 583.9 L678 582.4 L676.6 581.9 L673 582.4 L671.1 581.7 L668.5 582 L667 581.8 L664.8 582.5 L660.9 582.2 L659 581.7 L658.3 581.1 L656.6 581.4 L655.4 580.9 L654.2 581.1 L653.5 582.6 L651 582.3 L650.8 583.9 L649.8 584.4 L649.1 584.2 L648.9 584.6 L646.6 584.8 L643.4 584.6 L640.3 583.4 L639 585.2 L637.8 585.9 L637.6 586.6 L637.1 586.6 L637.1 587.4 L636.6 588.3 L634.7 589.3 L634.3 590.2 L633 590.5 L631.5 592.8 L631 594.3 L628.1 595.6 L626.7 595.2 L620.1 594.9 L618.5 595.4 L615.7 595 L613.7 593.7 L612 590.6 L610.8 590.3 L607.9 591.6 L607 593.8 L603 594 L600.8 593.5 L595.9 591.3 L595.3 591.6 L594 591.4 L593 590.7 L592 589.3 L592.4 588 L591.5 587.4 L591.9 585.4 L590.1 583.7 L589.7 582.5 L589.9 581.8 L589.6 581.4 L589.8 581.3 L589.4 580.5 L587.4 579.9 L587.2 579.1 L587.4 578.7 L586.8 578.2 L586.8 576.2 L584.1 574.7 L581.2 574.9 L580.2 574.5 L580.4 573.2 L578.2 573.1 L575.6 572.4 L573.4 573.2 L572.2 574.4 L570.8 574.5 L569.5 573.4 L568.9 572.4 L565.8 571.3 L562.8 571.1 L561.8 570.1 L558 569 L554.7 566.6 L553.7 566.1 L552.9 566.1 L550.4 564.3 L547.6 563.2 L544.9 560.5 L539.4 559.4 L536.4 558.3 L535 557.1 L534.1 555.6 L531.4 553.8 L527.9 552.6 L527 551.3 L525.2 549.8 L522.6 549.1 L520.8 549.4 L518.8 549 L515.8 547.6 L513 547.5 L511 547 L509.2 547.6 L508 547.5 L505.7 546.4 L505 546.4 L504.4 545.3 L503.2 544.5 L501 544.2 L499.6 543 L498.1 542.5 L496.8 541.4 L494.6 541 L487.2 536.5 L485 536.4 L483.5 534.9 L482.4 533.3 L480.4 532 L479.6 530.1 L478.2 529.8 L477.3 529.1 L476.6 528.1 L476.1 526.2 L475 525.5 L473.9 522.7 L471.6 520.5 L468.3 512 L468.6 511.3 L467.7 510.8 L468.8 509.1 L468.5 508 L469.9 506.2 L469.1 505.8 L468.8 504.4 L466.7 503.3 L465.5 501.7 L463.8 501.2 L463 500.4 L462.8 498.4 L464.1 490.8 L462.8 489.4 L461.2 488.9 L460.7 488 L461.1 487.2 L460.9 486.6 L461.5 486.3 L461.8 485.1 L463.5 484.7 L464.1 484.1 L465 484.3 L465.5 483.7 L465.5 482.8 L466.4 481.9 L469.7 482.4 L471 482.2 L474.2 482.9 L475.1 481 L477.8 479.7 L476.3 478.8 L476 478.2 L476.6 477.6 L478.2 477.8 L479.3 476 L478.9 473.4 L478 472.5 L476.9 472.3 L476.6 471.7 L476.4 469.3 L476.7 467.7 L475.9 466.5 L476.4 464.3 L476.4 461.2 L477.3 459.8 L477.1 459.4 L475.9 459.1 L475.1 459.1 L474.8 458.3 L475.2 457.7 L474.4 457.2 L474.5 456.6 L471.6 455.4 L469.5 453.9 L469.1 452.7 L466.3 451.7 L460 448.1 L457.2 443 L457.3 441.9 L460.2 439.9 L460.1 438.3 L459.4 437.5 L456.9 436.5 L456.4 433.9 L456 433.8 L454.7 432 L453.8 429.7 L453.3 429.7 L452.1 428.6 L446.8 425.6 L444.9 423.8 L443.3 423.1 L442.7 422.4 L440.9 421.8 L438 421.8 L438.2 421.4 L438 421.2 L439.8 421.1 L440.5 420.3 L440.3 420 L442 419.1 L442.3 419.3 L442.5 419 L443.4 419 L444.7 417.9 L446.1 413.8 L446.6 413.9 L446.8 412.4 L447.7 412.1 L448.8 412.3 L449.3 411.1 L449.9 410.6 L450.9 410.5 L450.2 409.1 L451.4 408.2 L451.3 407.2 L452 406.4 L451.9 405.7 L454 405.1 L454.6 406 L457 406 L458.4 406.5 L462.3 404.3 L462.3 404 L464.7 402.4 L465 402 L464.6 401.5 L465 399.8 L465.4 399.3 L466.8 398.9 L467 396.5 L468 395.3 L476.1 391.1 L476.7 389.2 L479.4 386 L479.8 384.6 L481.8 381.4 L481.7 378.8 L482.5 377.7 L485 376.3 L486.9 373.5 L489 372 L489.6 371.1 L490.2 369.3 L489.8 367.1 L490.3 366.1 L490.2 364.1 L488.8 360.4 L489.5 356.6 L489 351.5 L489.8 349.9 L489.6 348.8 L490.1 347.6 L489.7 337.4 L490.1 333.6 L491.1 330.8 L493 327.9 L498.7 324.7 L501 324.4 L504.5 322.5 L506.3 322.3 L513.1 320.2 L516.3 316.5 L516.7 315.4 L518.9 314.1 L519.7 312.5 L520.7 311.7 L522.8 310.8 L523.6 309.5 L526.8 309.3 L530.1 308.1 L531.9 303.2 L533.4 301.5 L533.8 299.4 L533.5 297.8 L533.8 295.8 L533 294.1 L531.5 293.2 L531.5 292.6 L533.4 291.3 L536.9 290.8 L537.3 289.8 L536.9 287.8 L539.2 287.7 L539.5 287.1 L538.5 287 L538.6 286.3 L541.2 285.2 L542.2 283.6 L541.7 282.7 L542.3 281.7 L541.8 279.8 L545.4 279.5 L546.1 278.6 L548.9 277.6 L551.2 275.9 L552.3 273 L552.4 269.5 L561.3 267.4 L561.9 266.7 L563.5 266.1 L566.2 265.6 L566.4 264 L567.4 263.6 L566.1 263 L566.7 262.6 L566.3 262.6 L566.1 262.1 L565.8 262.4 L566.2 262 L565.2 260.9 L566.3 260.5 L567.1 259.4 L566.9 258.9 L567.1 259.1 L567.5 258.8 L567.5 257.8 L567.2 258.4 L567.5 257.6 L568.8 256.9 L568.5 255.7 L569.5 255.6 L567 254.5 L565.7 252.7 L568 252.3 L568.3 251.7 L567.9 251.6 L569.1 251.2 L568.1 250.5 L569.4 249.3 L569.6 248.5 L569.5 247.6 L570.6 246.4 L572.5 245.5 L573.6 244 L574.7 243.5 L575.2 242.4 L576.9 242.7 L576.8 242.4 L577.8 241.2 L577.7 240.5 L578.8 238 L578.8 237.3 L578.2 237.4 L577.6 235.6 L579.1 233.5 L579.3 232.7 L579.4 230.5 L578.2 224.7 L577.8 224.1 L575.8 222.8 L574.8 219.7 L577.6 211.9 L578.2 210.9 L580.9 208.6 L583.1 207.4 L583.5 206.7 L586.4 205.4 L587.6 204.1 L588.3 202.1 L595.6 199.2 L596.3 197.7 L597.3 197.1 L597.6 196.1 L601.9 193.2 L603.8 188.3 L604.1 186.6 L603.7 185.7 L602 185.3 L598.7 183.1 L598.7 181.8 L598 181 L597.2 180.8 L598.1 180.2 L600.2 179.8 L601.8 178.7 L603.3 176.4 L603.1 175.5 L604.6 175.2 L605.8 174.1 L606.8 173.9 L606.8 173.5 L607.4 173 L606.9 171.8 L607.1 170.3 L606.8 170 L603.3 168.8 L600.9 167.2 L601.2 166.2 L602.1 165 L601.5 163.4 L603.8 160 L605.7 159.1 L606.9 158.8 L608.2 157.2 L610.7 157 L611.2 154.3 L612.3 153.4 L613.1 152.1 L613.5 152.1 L613.4 151.4 L614.1 149.9 L617.1 150.1 L622.3 149.6 L622.3 148.4 L620.7 146.1 L621.2 145.7 L620.9 144.8 L621.4 144.3 L621 144.3 L620.3 142.7 L620 142.7 L620.4 140.9 L619.9 140.1 L620.7 138.9 L620.2 139 L622.8 137.7 L623.5 137 L624.1 136.9 L623.9 136.6 L624.8 136.2 L627.6 137.6 L627.4 137.2" stroke="#ded6b9" stroke-width="34" stroke-linecap="round" stroke-linejoin="round" opacity="0.92"/>
    <path d="M597.8 180.4 L597.2 180.5 L594.3 179.6 L588.4 179.8 L586.9 179.1 L585 178.9 L580.3 179.7 L579.1 179.5 L574.9 180 L573.8 179.3 L575.2 178.2 L574.8 178.1 L575 177.7 L574.6 177.9 L573.4 177.2 L570.1 177.4 L568 178.3 L567.3 178.2 L566.7 179.4 L564.9 179.4 L561.9 180.5 L557.5 180.6 L554.6 181.3 L551.6 181.2 L548.3 181.7 L543.5 181 L542.2 179.9 L539.7 179.8 L538.6 180.2 L538.2 180.9 L538.1 182.1 L536.2 183 L534.7 183.1 L534.5 185.9 L531.7 188.4 L532.2 190.1 L535.3 193.2 L535.4 193.7 L535 193.8 L535.1 194.5 L532.8 195.4 L531.3 196.4 L529.4 196.9 L528.9 197.4 L528.8 198.8 L527.9 199.8 L526.8 200.1 L524.7 199.9 L524.6 200.4 L523.1 200.5 L523 201 L521.9 201.2 L521.6 202.2 L522 203 L521.9 204.1 L521.4 204.4 L521 205.4 L520.3 206 L520.5 207.4 L522.1 207.9 L523.1 209.4 L527.1 211.5 L527.1 212.7 L527.7 213.5 L527.4 217.1 L526.1 217.5 L526 219.8 L526.3 220.7 L527.6 222.3 L527.9 223.3 L525.4 224 L515.8 223.7 L515.2 224.5 L515.4 225 L515 226.1 L514.5 226.5 L515.3 227.7 L515 230.2 L503.1 230.4 L499.3 230.9 L497.9 232.3 L493.4 233.6 L494.1 234 L493.6 233.8 L491.7 234.6 L489.9 236.7 L486.2 239.5 L483.4 240.3 L479.6 240.7 L477.8 240.5 L478.5 243.9 L479.7 244.1 L479.8 245.1 L480.4 245.3 L480.5 246.6 L481.4 247.2 L482.3 247.2 L482.4 248 L484 248.7 L483.9 249.4 L484.5 250.2 L483.1 250.5 L482.4 251.6 L483.4 252.4 L485.6 251.8 L485.8 253.8 L484.8 256.1 L485.7 258.1 L489.3 259.3 L492 259.7 L492.1 260.8 L493.3 262.2 L493.5 263.2 L490.4 265.8 L489.7 268.4 L488.4 269.1 L486.5 271.1 L485.3 273.2 L482.3 274.3" stroke="#ded6b9" stroke-width="25" stroke-linecap="round" stroke-linejoin="round" stroke-dasharray="28 30" opacity="0.76"/>
    <path d="M961.2 763.8 L962 762 L961.4 760.9 L961.2 758.5 L959.6 758.9 L959 758.7 L958.8 758 L957.9 758 L957.8 757.1 L957.1 756.3 L956.1 754 L954.2 753.1 L954.4 748.1 L952.4 747.7 L952 747 L950.5 746 L946.8 745.3 L945.3 743.9 L943.6 743.6 L943.2 743.1 L943.2 741.6 L942.5 741.2 L943.2 740.2 L943.2 739.4 L945.6 737.2 L945.8 735.3 L946.6 734.9 L947.1 735.1 L947.7 734.4 L947.5 733.8 L947 733.7 L946.1 731.8 L944.5 730.1 L944.3 729.4 L945.4 727 L946.9 725.5 L946.5 724.1 L946.9 723.2 L946.7 722.1 L947 720.6 L946.5 720.2 L946.2 719.2 L943.6 717.1 L943.8 716 L943.5 715 L943.9 714.3 L943.6 714.1 L942.8 714.2 L941.9 712.4 L941.3 712.3 L941.5 711.6 L940.4 710.9 L939.4 710.9 L939.3 710.2 L938.3 709.2 L938.2 708 L937.3 706.6 L937.1 704.9 L937.7 701.4 L938.2 700.9 L937.5 701.8 L935.3 702.2 L934.1 702.1 L932.8 701 L931.2 702 L930.2 703.3 L929.2 704 L928.4 702.8 L927.3 703 L926.1 702.4 L926 701.7 L925.3 701.7 L925.2 700 L924.3 698.1 L924.7 696.3 L923.6 695.5 L923.9 694 L925.3 692.1 L925.4 690.5 L926.2 689.7 L928.2 685.7 L928.2 684.3 L929.9 682.8 L931 683.1 L931.3 682.6 L930.7 681.3 L929.9 680.6 L930.1 678.4 L930.4 678 L932.1 677.5 L933.4 676.4 L934.6 676.2 L935.5 675.3 L935.7 674.4 L936.7 674.1 L936 672.5 L936.2 672.2 L932.7 667.6 L932.6 666.3 L931.7 667.2 L930.4 665.7 L930.6 663.1 L930.4 662.5 L930.7 661.6 L929.1 660.4 L928.3 660.9 L927.9 659.2 L928.2 658.4 L927.8 657.9 L927.9 656.7 L927.2 655.8 L926.8 655.7 L926.5 655 L926 655.3 L925.3 653.9 L925.6 653.6 L925.4 653.3 L925.6 653.4 L925.7 652.9 L926.9 652 L926.3 649.8 L927 648.2 L927 647.2 L927.6 646.4 L927.2 644.5 L926.6 644 L927.2 643.1 L926.9 641.9 L927.7 640.9 L928.1 639.6 L928.8 639.1 L928.9 637.6 L929.6 636.2 L929.4 635.2 L928.7 634.4 L927.3 634.5 L927 634.1 L925.8 635.6 L923.8 634.5 L923.5 634.7 L924.9 631.1 L924.6 628.2 L925 627.6 L924.2 626.9 L924.6 627.5 L924.3 627.5 L923.6 626.4 L922.6 623.8 L922 623.8 L921.7 623.1 L920.5 623.6 L920.8 623 L918.7 621 L918.5 620.4 L919.1 619.3 L917 616.5 L915.5 612.5 L915.8 612.1 L915.3 611.3 L912.1 607.9 L909.8 608.1 L909.5 607 L909.8 606.4 L909.1 605.7 L909.4 605.2 L907.1 603.4 L907.1 603.1 L904.7 602.7 L904 602.1 L904.7 602.1 L901.1 600.8 L899 598.7 L898.3 597.6 L898.2 598 L897.6 598 L897.4 598.6 L897.3 598.3 L896.9 598.4 L896.7 598.1 L896.9 597.8 L896.1 597.5 L895.8 597 L896.1 596.9 L895.6 596.6 L895.9 596 L895.5 596.2 L894.6 594.8 L894.3 594.8 L893.4 592.9 L892.9 592.8 L892.9 591 L892.3 590.1 L892.6 589.4 L892.1 588.3 L892.4 587.5 L891.8 587.2 L891.8 586.5 L891.2 585.9 L891.4 583.9 L892.4 582.5 L892.4 582 L891.7 581.6 L892.4 581.5 L892.6 580.9 L893.2 580.6 L892.7 579.5 L893.2 579.3 L892.8 578.9 L892.8 577.6 L892.2 576.7 L892.1 575.2 L890.9 573.3 L890.7 571.6 L891 570 L890.2 569.8 L889.8 570.2 L889.2 570.1 L888.2 569.6 L887.1 569.6 L886.1 570.2 L884.9 572.7 L884.4 572.7 L884.3 573.3 L882.9 573.7 L881.6 573.1 L880.1 570.3 L879.2 569.4 L877.5 569.8 L876.2 569.2 L876 570.3 L875 571.3 L873.6 570.3 L873.3 570.4 L872.2 569.1 L871.2 568.7 L870.3 566.4 L869.4 565.7 L866.7 564.1 L865.2 564.4 L864.7 561.2 L861.3 558.4 L861 558.6 L861.4 558.6 L861.2 559.4 L861.7 559.6 L861.4 559.7 L861.3 560.2 L860.9 560.1 L861.7 560.5 L861.5 561 L860.9 561.4 L858.7 560.8 L858.3 561.1 L858.1 562.1 L857.4 562.7 L855.6 562.8 L854.4 561.8 L853.4 561.6 L848.5 562.3 L847.4 563.2 L846.9 564.3 L848.5 569.9 L848.2 571 L849.6 573.6 L849.3 574.4 L846.6 575 L844.3 573.5 L843.3 573.7 L842 573.2 L840.6 572 L837.5 571.5 L836.6 571 L836.5 570.2 L835.2 569.7 L834.2 568.9 L833 569.2 L830.1 568.5 L830 568.1 L829 567.6 L827.1 567.4 L826.9 566.5 L826.2 566 L823.6 565.1 L821.6 565.7 L820.3 565.2 L819.2 565.2 L817.4 564 L817.3 563.5 L815.9 563.1 L815.3 562.3 L814.2 562.3 L813.7 561.7 L812.7 561.7 L811.7 561.3 L811.7 560.8 L811 560.8 L808.9 562.9 L807.2 563.3 L806.7 563.1 L806.1 563.9 L804.6 564.3 L804.3 565.8 L803.2 567.2 L803.5 567.9 L802.9 568.9 L802.9 571 L802.3 571.3 L802.7 571.4 L802.4 571.8 L801.2 572 L800.6 571.5 L799.5 573.1 L796.5 572.7 L796.1 572.9 L796.7 574 L796.4 574.9 L796.8 576.8 L796.3 577.6 L795 578.7 L794 578.9 L793.5 579.7 L791.4 580.8 L790.8 581.7 L788.3 581.4 L785.4 581.7 L784.5 582.1 L784.1 583 L782.4 583.3 L781.4 583.2 L781 582.6 L780.4 583.1 L779.2 582.4 L778.3 582.6 L777.6 582 L774.4 582.2 L773.8 583 L773.9 583.5 L772.7 583.8 L770.7 586.1 L769.4 586.1 L768.6 585.4 L767.2 585.5 L767.4 584.6 L767 583 L766.6 582.8 L765.5 583.8 L765.2 584.8 L763.4 584.9 L762.1 584.3 L761.4 584.6 L760.2 584 L759.3 584.6 L758.3 584 L757.7 584.3 L757 583.4 L756.4 583.5 L756.7 583.2 L756.6 582.8 L755.9 582.6 L755.7 583.2 L754.8 583.5 L754.1 582.7 L752.6 582.7 L752.1 584.1 L750.9 584.7 L749.7 584.5 L749.5 584.8 L749.7 584.9 L749.2 585.3 L748.9 585.1 L749.1 585.3 L748.8 585.1 L748.9 585.3 L748.3 584.9 L748.5 585.2 L745.5 584.7 L743.8 583.1 L742.2 582.8 L741.1 580.8 L740.4 580.1 L739.4 579.9 L736.6 579.9 L735.1 580.5 L730.4 579.7 L730.1 580.2 L728.9 579.9 L727 580.3 L721.5 579.4 L720.3 579.6 L719.8 578.9 L718.6 579.5 L715.1 579.2 L713.8 579.8 L712.5 579.5 L712.2 578.6 L711.3 578.3 L711 578.5 L711 579.1 L709.5 579.9 L709.9 580.7 L709.6 580.9 L710 581.1 L709.4 581.5 L709.5 581.7 L707.9 581.7 L704.3 583.8 L703.3 583.4 L704.3 584.2 L704.4 585.4 L704.1 585.7 L704.5 586.5 L703.4 588.2 L702.8 588.6 L697.8 588.1 L696.2 590 L695.2 590 L694 589.1 L692.4 589.7 L691.8 589.3 L689.9 589.5 L686.6 588 L686.4 588.2 L683 585.4 L681.2 584.5 L679 583.9 L678 582.4 L676.6 581.9 L673 582.4 L671.1 581.7 L668.5 582 L667 581.8 L664.8 582.5 L660.9 582.2 L659 581.7 L658.3 581.1 L656.6 581.4 L655.4 580.9 L654.2 581.1 L653.5 582.6 L651 582.3 L650.8 583.9 L649.8 584.4 L649.1 584.2 L648.9 584.6 L646.6 584.8 L643.4 584.6 L640.3 583.4 L639 585.2 L637.8 585.9 L637.6 586.6 L637.1 586.6 L637.1 587.4 L636.6 588.3 L634.7 589.3 L634.3 590.2 L633 590.5 L631.5 592.8 L631 594.3 L628.1 595.6 L626.7 595.2 L620.1 594.9 L618.5 595.4 L615.7 595 L613.7 593.7 L612 590.6 L610.8 590.3 L607.9 591.6 L607 593.8 L603 594 L600.8 593.5 L595.9 591.3 L595.3 591.6 L594 591.4 L593 590.7 L592 589.3 L592.4 588 L591.5 587.4 L591.9 585.4 L590.1 583.7 L589.7 582.5 L589.9 581.8 L589.6 581.4 L589.8 581.3 L589.4 580.5 L587.4 579.9 L587.2 579.1 L587.4 578.7 L586.8 578.2 L586.8 576.2 L584.1 574.7 L581.2 574.9 L580.2 574.5 L580.4 573.2 L578.2 573.1 L575.6 572.4 L573.4 573.2 L572.2 574.4 L570.8 574.5 L569.5 573.4 L568.9 572.4 L565.8 571.3 L562.8 571.1 L561.8 570.1 L558 569 L554.7 566.6 L553.7 566.1 L552.9 566.1 L550.4 564.3 L547.6 563.2 L544.9 560.5 L539.4 559.4 L536.4 558.3 L535 557.1 L534.1 555.6 L531.4 553.8 L527.9 552.6 L527 551.3 L525.2 549.8 L522.6 549.1 L520.8 549.4 L518.8 549 L515.8 547.6 L513 547.5 L511 547 L509.2 547.6 L508 547.5 L505.7 546.4 L505 546.4 L504.4 545.3 L503.2 544.5 L501 544.2 L499.6 543 L498.1 542.5 L496.8 541.4 L494.6 541 L487.2 536.5 L485 536.4 L483.5 534.9 L482.4 533.3 L480.4 532 L479.6 530.1 L478.2 529.8 L477.3 529.1 L476.6 528.1 L476.1 526.2 L475 525.5 L473.9 522.7 L471.6 520.5 L468.3 512 L468.6 511.3 L467.7 510.8 L468.8 509.1 L468.5 508 L469.9 506.2 L469.1 505.8 L468.8 504.4 L466.7 503.3 L465.5 501.7 L463.8 501.2 L463 500.4 L462.8 498.4 L464.1 490.8 L462.8 489.4 L461.2 488.9 L460.7 488 L461.1 487.2 L460.9 486.6 L461.5 486.3 L461.8 485.1 L463.5 484.7 L464.1 484.1 L465 484.3 L465.5 483.7 L465.5 482.8 L466.4 481.9 L469.7 482.4 L471 482.2 L474.2 482.9 L475.1 481 L477.8 479.7 L476.3 478.8 L476 478.2 L476.6 477.6 L478.2 477.8 L479.3 476 L478.9 473.4 L478 472.5 L476.9 472.3 L476.6 471.7 L476.4 469.3 L476.7 467.7 L475.9 466.5 L476.4 464.3 L476.4 461.2 L477.3 459.8 L477.1 459.4 L475.9 459.1 L475.1 459.1 L474.8 458.3 L475.2 457.7 L474.4 457.2 L474.5 456.6 L471.6 455.4 L469.5 453.9 L469.1 452.7 L466.3 451.7 L460 448.1 L457.2 443 L457.3 441.9 L460.2 439.9 L460.1 438.3 L459.4 437.5 L456.9 436.5 L456.4 433.9 L456 433.8 L454.7 432 L453.8 429.7 L453.3 429.7 L452.1 428.6 L446.8 425.6 L444.9 423.8 L443.3 423.1 L442.7 422.4 L440.9 421.8 L438 421.8 L438.2 421.4 L438 421.2 L439.8 421.1 L440.5 420.3 L440.3 420 L442 419.1 L442.3 419.3 L442.5 419 L443.4 419 L444.7 417.9 L446.1 413.8 L446.6 413.9 L446.8 412.4 L447.7 412.1 L448.8 412.3 L449.3 411.1 L449.9 410.6 L450.9 410.5 L450.2 409.1 L451.4 408.2 L451.3 407.2 L452 406.4 L451.9 405.7 L454 405.1 L454.6 406 L457 406 L458.4 406.5 L462.3 404.3 L462.3 404 L464.7 402.4 L465 402 L464.6 401.5 L465 399.8 L465.4 399.3 L466.8 398.9 L467 396.5 L468 395.3 L476.1 391.1 L476.7 389.2 L479.4 386 L479.8 384.6 L481.8 381.4 L481.7 378.8 L482.5 377.7 L485 376.3 L486.9 373.5 L489 372 L489.6 371.1 L490.2 369.3 L489.8 367.1 L490.3 366.1 L490.2 364.1 L488.8 360.4 L489.5 356.6 L489 351.5 L489.8 349.9 L489.6 348.8 L490.1 347.6 L489.7 337.4 L490.1 333.6 L491.1 330.8 L493 327.9 L498.7 324.7 L501 324.4 L504.5 322.5 L506.3 322.3 L513.1 320.2 L516.3 316.5 L516.7 315.4 L518.9 314.1 L519.7 312.5 L520.7 311.7 L522.8 310.8 L523.6 309.5 L526.8 309.3 L530.1 308.1 L531.9 303.2 L533.4 301.5 L533.8 299.4 L533.5 297.8 L533.8 295.8 L533 294.1 L531.5 293.2 L531.5 292.6 L533.4 291.3 L536.9 290.8 L537.3 289.8 L536.9 287.8 L539.2 287.7 L539.5 287.1 L538.5 287 L538.6 286.3 L541.2 285.2 L542.2 283.6 L541.7 282.7 L542.3 281.7 L541.8 279.8 L545.4 279.5 L546.1 278.6 L548.9 277.6 L551.2 275.9 L552.3 273 L552.4 269.5 L561.3 267.4 L561.9 266.7 L563.5 266.1 L566.2 265.6 L566.4 264 L567.4 263.6 L566.1 263 L566.7 262.6 L566.3 262.6 L566.1 262.1 L565.8 262.4 L566.2 262 L565.2 260.9 L566.3 260.5 L567.1 259.4 L566.9 258.9 L567.1 259.1 L567.5 258.8 L567.5 257.8 L567.2 258.4 L567.5 257.6 L568.8 256.9 L568.5 255.7 L569.5 255.6 L567 254.5 L565.7 252.7 L568 252.3 L568.3 251.7 L567.9 251.6 L569.1 251.2 L568.1 250.5 L569.4 249.3 L569.6 248.5 L569.5 247.6 L570.6 246.4 L572.5 245.5 L573.6 244 L574.7 243.5 L575.2 242.4 L576.9 242.7 L576.8 242.4 L577.8 241.2 L577.7 240.5 L578.8 238 L578.8 237.3 L578.2 237.4 L577.6 235.6 L579.1 233.5 L579.3 232.7 L579.4 230.5 L578.2 224.7 L577.8 224.1 L575.8 222.8 L574.8 219.7 L577.6 211.9 L578.2 210.9 L580.9 208.6 L583.1 207.4 L583.5 206.7 L586.4 205.4 L587.6 204.1 L588.3 202.1 L595.6 199.2 L596.3 197.7 L597.3 197.1 L597.6 196.1 L601.9 193.2 L603.8 188.3 L604.1 186.6 L603.7 185.7 L602 185.3 L598.7 183.1 L598.7 181.8 L598 181 L597.2 180.8 L598.1 180.2 L600.2 179.8 L601.8 178.7 L603.3 176.4 L603.1 175.5 L604.6 175.2 L605.8 174.1 L606.8 173.9 L606.8 173.5 L607.4 173 L606.9 171.8 L607.1 170.3 L606.8 170 L603.3 168.8 L600.9 167.2 L601.2 166.2 L602.1 165 L601.5 163.4 L603.8 160 L605.7 159.1 L606.9 158.8 L608.2 157.2 L610.7 157 L611.2 154.3 L612.3 153.4 L613.1 152.1 L613.5 152.1 L613.4 151.4 L614.1 149.9 L617.1 150.1 L622.3 149.6 L622.3 148.4 L620.7 146.1 L621.2 145.7 L620.9 144.8 L621.4 144.3 L621 144.3 L620.3 142.7 L620 142.7 L620.4 140.9 L619.9 140.1 L620.7 138.9 L620.2 139 L622.8 137.7 L623.5 137 L624.1 136.9 L623.9 136.6 L624.8 136.2 L627.6 137.6 L627.4 137.2" stroke="#8a7a2d" stroke-width="18" stroke-linecap="round" stroke-linejoin="round"/>
    <path d="M597.8 180.4 L597.2 180.5 L594.3 179.6 L588.4 179.8 L586.9 179.1 L585 178.9 L580.3 179.7 L579.1 179.5 L574.9 180 L573.8 179.3 L575.2 178.2 L574.8 178.1 L575 177.7 L574.6 177.9 L573.4 177.2 L570.1 177.4 L568 178.3 L567.3 178.2 L566.7 179.4 L564.9 179.4 L561.9 180.5 L557.5 180.6 L554.6 181.3 L551.6 181.2 L548.3 181.7 L543.5 181 L542.2 179.9 L539.7 179.8 L538.6 180.2 L538.2 180.9 L538.1 182.1 L536.2 183 L534.7 183.1 L534.5 185.9 L531.7 188.4 L532.2 190.1 L535.3 193.2 L535.4 193.7 L535 193.8 L535.1 194.5 L532.8 195.4 L531.3 196.4 L529.4 196.9 L528.9 197.4 L528.8 198.8 L527.9 199.8 L526.8 200.1 L524.7 199.9 L524.6 200.4 L523.1 200.5 L523 201 L521.9 201.2 L521.6 202.2 L522 203 L521.9 204.1 L521.4 204.4 L521 205.4 L520.3 206 L520.5 207.4 L522.1 207.9 L523.1 209.4 L527.1 211.5 L527.1 212.7 L527.7 213.5 L527.4 217.1 L526.1 217.5 L526 219.8 L526.3 220.7 L527.6 222.3 L527.9 223.3 L525.4 224 L515.8 223.7 L515.2 224.5 L515.4 225 L515 226.1 L514.5 226.5 L515.3 227.7 L515 230.2 L503.1 230.4 L499.3 230.9 L497.9 232.3 L493.4 233.6 L494.1 234 L493.6 233.8 L491.7 234.6 L489.9 236.7 L486.2 239.5 L483.4 240.3 L479.6 240.7 L477.8 240.5 L478.5 243.9 L479.7 244.1 L479.8 245.1 L480.4 245.3 L480.5 246.6 L481.4 247.2 L482.3 247.2 L482.4 248 L484 248.7 L483.9 249.4 L484.5 250.2 L483.1 250.5 L482.4 251.6 L483.4 252.4 L485.6 251.8 L485.8 253.8 L484.8 256.1 L485.7 258.1 L489.3 259.3 L492 259.7 L492.1 260.8 L493.3 262.2 L493.5 263.2 L490.4 265.8 L489.7 268.4 L488.4 269.1 L486.5 271.1 L485.3 273.2 L482.3 274.3" stroke="#8a7a2d" stroke-width="11" stroke-linecap="round" stroke-linejoin="round" stroke-dasharray="24 26" opacity="0.92"/>
  </g>
  <g fill="#fffaf0" stroke="#20231f" stroke-opacity="0.18" stroke-width="3.5">
    <circle cx="961.2" cy="763.8" r="13"/>
    <circle cx="627.4" cy="137.2" r="13"/>
    <circle cx="597.8" cy="180.4" r="10"/>
    <circle cx="482.3" cy="274.3" r="10"/>
  </g>
  <path d="M72 76H1328V824H72Z" fill="none" stroke="#fffaf0" stroke-opacity="0.42" stroke-width="2"/>
  <rect width="1400" height="900" fill="#3b3020" filter="url(#paperGrain)" opacity="0.24"/>
</svg>
