<svg xmlns="http://www.w3.org/2000/svg" viewBox="0 0 1400 900" role="img" aria-label="长江源海之路">
  <defs>
    
    <linearGradient id="paper" x1="0" x2="1" y1="0" y2="1">
      <stop offset="0" stop-color="#fffaf0"/>
      <stop offset="0.48" stop-color="#e8e9dc"/>
      <stop offset="1" stop-color="#dac5be"/>
    </linearGradient>
    <filter id="paperGrain" x="0" y="0" width="100%" height="100%">
      <feTurbulence baseFrequency="0.74" numOctaves="2" seed="77" type="fractalNoise"/>
      <feColorMatrix type="saturate" values="0"/>
      <feComponentTransfer>
        <feFuncA type="table" tableValues="0 0.13"/>
      </feComponentTransfer>
    </filter>
    <filter id="assetShadow" x="-18%" y="-18%" width="136%" height="136%">
      <feDropShadow dx="0" dy="18" stdDeviation="18" flood-color="#2f261a" flood-opacity="0.16"/>
    </filter>
    <linearGradient id="inkWash" x1="0" x2="1" y1="0" y2="1">
      <stop offset="0" stop-color="#284d39" stop-opacity="0.28"/>
      <stop offset="0.52" stop-color="#b693bd" stop-opacity="0.18"/>
      <stop offset="1" stop-color="#583f61" stop-opacity="0.22"/>
    </linearGradient>
  </defs>
  <rect width="1400" height="900" fill="url(#paper)"/>
  <rect width="1400" height="900" fill="url(#inkWash)"/>
  <g opacity="0.8">
    <path d="M-900 900 L0 0" fill="none" stroke="#2f6f4e" stroke-width="1" stroke-opacity="0.07"/>
  <path d="M-862 900 L38 0" fill="none" stroke="#2f6f4e" stroke-width="1" stroke-opacity="0.07"/>
  <path d="M-824 900 L76 0" fill="none" stroke="#2f6f4e" stroke-width="1" stroke-opacity="0.07"/>
  <path d="M-786 900 L114 0" fill="none" stroke="#2f6f4e" stroke-width="1" stroke-opacity="0.07"/>
  <path d="M-748 900 L152 0" fill="none" stroke="#2f6f4e" stroke-width="1" stroke-opacity="0.07"/>
  <path d="M-710 900 L190 0" fill="none" stroke="#2f6f4e" stroke-width="1" stroke-opacity="0.07"/>
  <path d="M-672 900 L228 0" fill="none" stroke="#2f6f4e" stroke-width="1" stroke-opacity="0.07"/>
  <path d="M-634 900 L266 0" fill="none" stroke="#2f6f4e" stroke-width="1" stroke-opacity="0.07"/>
  <path d="M-596 900 L304 0" fill="none" stroke="#2f6f4e" stroke-width="1" stroke-opacity="0.07"/>
  <path d="M-558 900 L342 0" fill="none" stroke="#2f6f4e" stroke-width="1" stroke-opacity="0.07"/>
  <path d="M-520 900 L380 0" fill="none" stroke="#2f6f4e" stroke-width="1" stroke-opacity="0.07"/>
  <path d="M-482 900 L418 0" fill="none" stroke="#2f6f4e" stroke-width="1" stroke-opacity="0.07"/>
  <path d="M-444 900 L456 0" fill="none" stroke="#2f6f4e" stroke-width="1" stroke-opacity="0.07"/>
  <path d="M-406 900 L494 0" fill="none" stroke="#2f6f4e" stroke-width="1" stroke-opacity="0.07"/>
  <path d="M-368 900 L532 0" fill="none" stroke="#2f6f4e" stroke-width="1" stroke-opacity="0.07"/>
  <path d="M-330 900 L570 0" fill="none" stroke="#2f6f4e" stroke-width="1" stroke-opacity="0.07"/>
  <path d="M-292 900 L608 0" fill="none" stroke="#2f6f4e" stroke-width="1" stroke-opacity="0.07"/>
  <path d="M-254 900 L646 0" fill="none" stroke="#2f6f4e" stroke-width="1" stroke-opacity="0.07"/>
  <path d="M-216 900 L684 0" fill="none" stroke="#2f6f4e" stroke-width="1" stroke-opacity="0.07"/>
  <path d="M-178 900 L722 0" fill="none" stroke="#2f6f4e" stroke-width="1" stroke-opacity="0.07"/>
  <path d="M-140 900 L760 0" fill="none" stroke="#2f6f4e" stroke-width="1" stroke-opacity="0.07"/>
  <path d="M-102 900 L798 0" fill="none" stroke="#2f6f4e" stroke-width="1" stroke-opacity="0.07"/>
  <path d="M-64 900 L836 0" fill="none" stroke="#2f6f4e" stroke-width="1" stroke-opacity="0.07"/>
  <path d="M-26 900 L874 0" fill="none" stroke="#2f6f4e" stroke-width="1" stroke-opacity="0.07"/>
  <path d="M12 900 L912 0" fill="none" stroke="#2f6f4e" stroke-width="1" stroke-opacity="0.07"/>
  <path d="M50 900 L950 0" fill="none" stroke="#2f6f4e" stroke-width="1" stroke-opacity="0.07"/>
  <path d="M88 900 L988 0" fill="none" stroke="#2f6f4e" stroke-width="1" stroke-opacity="0.07"/>
  <path d="M126 900 L1026 0" fill="none" stroke="#2f6f4e" stroke-width="1" stroke-opacity="0.07"/>
  <path d="M164 900 L1064 0" fill="none" stroke="#2f6f4e" stroke-width="1" stroke-opacity="0.07"/>
  <path d="M202 900 L1102 0" fill="none" stroke="#2f6f4e" stroke-width="1" stroke-opacity="0.07"/>
  <path d="M240 900 L1140 0" fill="none" stroke="#2f6f4e" stroke-width="1" stroke-opacity="0.07"/>
  <path d="M278 900 L1178 0" fill="none" stroke="#2f6f4e" stroke-width="1" stroke-opacity="0.07"/>
  <path d="M316 900 L1216 0" fill="none" stroke="#2f6f4e" stroke-width="1" stroke-opacity="0.07"/>
  <path d="M354 900 L1254 0" fill="none" stroke="#2f6f4e" stroke-width="1" stroke-opacity="0.07"/>
  <path d="M392 900 L1292 0" fill="none" stroke="#2f6f4e" stroke-width="1" stroke-opacity="0.07"/>
  <path d="M430 900 L1330 0" fill="none" stroke="#2f6f4e" stroke-width="1" stroke-opacity="0.07"/>
  <path d="M468 900 L1368 0" fill="none" stroke="#2f6f4e" stroke-width="1" stroke-opacity="0.07"/>
  <path d="M506 900 L1406 0" fill="none" stroke="#2f6f4e" stroke-width="1" stroke-opacity="0.07"/>
  <path d="M544 900 L1444 0" fill="none" stroke="#2f6f4e" stroke-width="1" stroke-opacity="0.07"/>
  <path d="M582 900 L1482 0" fill="none" stroke="#2f6f4e" stroke-width="1" stroke-opacity="0.07"/>
  <path d="M620 900 L1520 0" fill="none" stroke="#2f6f4e" stroke-width="1" stroke-opacity="0.07"/>
  <path d="M658 900 L1558 0" fill="none" stroke="#2f6f4e" stroke-width="1" stroke-opacity="0.07"/>
  <path d="M696 900 L1596 0" fill="none" stroke="#2f6f4e" stroke-width="1" stroke-opacity="0.07"/>
  <path d="M734 900 L1634 0" fill="none" stroke="#2f6f4e" stroke-width="1" stroke-opacity="0.07"/>
  <path d="M772 900 L1672 0" fill="none" stroke="#2f6f4e" stroke-width="1" stroke-opacity="0.07"/>
  <path d="M810 900 L1710 0" fill="none" stroke="#2f6f4e" stroke-width="1" stroke-opacity="0.07"/>
  <path d="M848 900 L1748 0" fill="none" stroke="#2f6f4e" stroke-width="1" stroke-opacity="0.07"/>
  <path d="M886 900 L1786 0" fill="none" stroke="#2f6f4e" stroke-width="1" stroke-opacity="0.07"/>
  <path d="M924 900 L1824 0" fill="none" stroke="#2f6f4e" stroke-width="1" stroke-opacity="0.07"/>
  <path d="M962 900 L1862 0" fill="none" stroke="#2f6f4e" stroke-width="1" stroke-opacity="0.07"/>
  <path d="M1000 900 L1900 0" fill="none" stroke="#2f6f4e" stroke-width="1" stroke-opacity="0.07"/>
  <path d="M1038 900 L1938 0" fill="none" stroke="#2f6f4e" stroke-width="1" stroke-opacity="0.07"/>
  <path d="M1076 900 L1976 0" fill="none" stroke="#2f6f4e" stroke-width="1" stroke-opacity="0.07"/>
  <path d="M1114 900 L2014 0" fill="none" stroke="#2f6f4e" stroke-width="1" stroke-opacity="0.07"/>
  <path d="M1152 900 L2052 0" fill="none" stroke="#2f6f4e" stroke-width="1" stroke-opacity="0.07"/>
  <path d="M1190 900 L2090 0" fill="none" stroke="#2f6f4e" stroke-width="1" stroke-opacity="0.07"/>
  <path d="M1228 900 L2128 0" fill="none" stroke="#2f6f4e" stroke-width="1" stroke-opacity="0.07"/>
  <path d="M1266 900 L2166 0" fill="none" stroke="#2f6f4e" stroke-width="1" stroke-opacity="0.07"/>
  <path d="M1304 900 L2204 0" fill="none" stroke="#2f6f4e" stroke-width="1" stroke-opacity="0.07"/>
  <path d="M1342 900 L2242 0" fill="none" stroke="#2f6f4e" stroke-width="1" stroke-opacity="0.07"/>
  <path d="M1380 900 L2280 0" fill="none" stroke="#2f6f4e" stroke-width="1" stroke-opacity="0.07"/>
    <path d="M-112 -128 C252 -200 448 -56 728 -128 S1148 -200 1512 -110" fill="none" stroke="#8f5aa2" stroke-width="1.2" stroke-opacity="0.16" stroke-linecap="round"/>
  <path d="M-112 0 C252 -72 448 72 728 0 S1148 -72 1512 18" fill="none" stroke="#8f5aa2" stroke-width="1.2" stroke-opacity="0.16" stroke-linecap="round"/>
  <path d="M-112 128 C252 56 448 200 728 128 S1148 56 1512 146" fill="none" stroke="#8f5aa2" stroke-width="1.2" stroke-opacity="0.16" stroke-linecap="round"/>
  <path d="M-112 256 C252 184 448 328 728 256 S1148 184 1512 274" fill="none" stroke="#8f5aa2" stroke-width="1.2" stroke-opacity="0.16" stroke-linecap="round"/>
  <path d="M-112 384 C252 312 448 456 728 384 S1148 312 1512 402" fill="none" stroke="#8f5aa2" stroke-width="1.2" stroke-opacity="0.16" stroke-linecap="round"/>
  <path d="M-112 512 C252 440 448 584 728 512 S1148 440 1512 530" fill="none" stroke="#8f5aa2" stroke-width="1.2" stroke-opacity="0.16" stroke-linecap="round"/>
  <path d="M-112 640 C252 568 448 712 728 640 S1148 568 1512 658" fill="none" stroke="#8f5aa2" stroke-width="1.2" stroke-opacity="0.16" stroke-linecap="round"/>
  <path d="M-112 768 C252 696 448 840 728 768 S1148 696 1512 786" fill="none" stroke="#8f5aa2" stroke-width="1.2" stroke-opacity="0.16" stroke-linecap="round"/>
  <path d="M-112 896 C252 824 448 968 728 896 S1148 824 1512 914" fill="none" stroke="#8f5aa2" stroke-width="1.2" stroke-opacity="0.16" stroke-linecap="round"/>
  <path d="M-112 1024 C252 952 448 1096 728 1024 S1148 952 1512 1042" fill="none" stroke="#8f5aa2" stroke-width="1.2" stroke-opacity="0.16" stroke-linecap="round"/>
  <path d="M-112 1152 C252 1080 448 1224 728 1152 S1148 1080 1512 1170" fill="none" stroke="#8f5aa2" stroke-width="1.2" stroke-opacity="0.16" stroke-linecap="round"/>
  <path d="M-112 1280 C252 1208 448 1352 728 1280 S1148 1208 1512 1298" fill="none" stroke="#8f5aa2" stroke-width="1.2" stroke-opacity="0.16" stroke-linecap="round"/>
  </g>
  <text x="82" y="260" fill="#20231f" fill-opacity="0.07" font-family="'Songti SC','STSong','Source Han Serif SC','Noto Serif CJK SC','SimSun',serif" font-size="168" font-weight="900" writing-mode="vertical-rl">长江之路</text>
  <text x="1296" y="730" text-anchor="end" fill="#20231f" fill-opacity="0.08" font-family="'Avenir Next',Avenir,Arial,sans-serif" font-size="54" font-weight="900" letter-spacing="7">ROUTE 03</text>
  <g transform="translate(978 86)">
    <g transform="rotate(2 41 41)">
    <rect x="0" y="0" width="82" height="82" rx="11.48" fill="#9f3525"/>
    <rect x="8.200000000000001" y="8.200000000000001" width="65.60000000000001" height="65.60000000000001" rx="8.200000000000001" fill="none" stroke="#fff2df" stroke-opacity="0.72" stroke-width="2.87"/>
    <text x="41" y="49.199999999999996" text-anchor="middle" fill="#fff7e8" font-family="'Kaiti SC','STKaiti','FZKai-Z03S','KaiTi','Songti SC','STSong','Noto Serif CJK SC',serif" font-size="37.72" font-weight="900">路</text>
    <text x="41" y="63.96" text-anchor="middle" fill="#fff2df" font-family="'Avenir Next',Avenir,Arial,sans-serif" font-size="11.48" font-weight="900" letter-spacing="0.8">03</text>
  </g>
  </g>
  <g transform="translate(1060 86)">
    <text x="0" y="28" fill="#20231f" fill-opacity="0.68" font-family="'Kaiti SC','STKaiti','FZKai-Z03S','KaiTi','Songti SC','STSong','Noto Serif CJK SC',serif" font-size="25" font-weight="900">逆江而上，追水到云端</text>
    <text x="0" y="64" fill="#2f6f4e" font-family="'Songti SC','STSong','Source Han Serif SC','Noto Serif CJK SC','SimSun',serif" font-size="36" font-weight="900">长江源海之路</text>
  </g>
  <g transform="translate(128 628)" opacity="0.82">
    <g transform="translate(0 0) scale(1.1)">
      <path d="M5 88 C47 40 91 119 136 77 S207 36 274 88" fill="none" stroke-linecap="round" stroke-linejoin="round" stroke="#2f6f4e" stroke-width="8"/>
      <path d="M36 60 C76 55 104 88 136 77 S205 55 244 59" fill="none" stroke-linecap="round" stroke-linejoin="round" stroke="#8f5aa2" stroke-width="5"/>
      <path d="M123 101 C153 86 177 101 207 88" fill="none" stroke-linecap="round" stroke-linejoin="round" stroke="#8f5aa2" stroke-width="4" opacity="0.62"/>
      <circle cx="5" cy="88" r="5.4" fill="#8f5aa2"/>
      <circle cx="274" cy="88" r="7" fill="#8f5aa2"/></g>
  </g>
  <g fill="none" filter="url(#assetShadow)">
    <path d="M1255.6 512.9 L1252.3 511.3 L1249.9 506.3 L1248.3 504.9 L1246.2 504.2 L1246.3 499.5 L1245.5 497.1 L1243.8 494.5 L1242.7 494.3 L1241.4 493.1 L1239.6 492.5 L1238.7 491.4 L1231.7 493.1 L1228.1 487.3 L1224 484.8 L1225.5 482.5 L1225.7 481.4 L1225.4 480 L1225.6 477.2 L1224.8 474.7 L1221.4 474.9 L1220.8 475.4 L1215.8 473.8 L1211.9 473.5 L1206 477.2 L1201.7 476.6 L1200.6 476.3 L1200.5 475.2 L1196.6 468.7 L1196.5 467.3 L1191.1 466.8 L1189.8 467.6 L1182.5 469.2 L1182.4 470.2 L1183.4 472 L1182.7 471.5 L1181.1 471.9 L1176.1 472.3 L1173 472.1 L1171.2 472.4 L1169.7 473.4 L1166.3 474.1 L1166.5 475.7 L1165.3 477.1 L1162.2 479.2 L1162.2 480.2 L1158.8 484.6 L1159.2 486.1 L1159 487.8 L1157.1 490.3 L1156.6 492.2 L1156.9 495 L1155.6 495.2 L1155.7 495.7 L1154.7 496.7 L1150.5 497.3 L1147.1 498.5 L1146.6 499.4 L1147.9 501 L1148 502.7 L1144.3 504.1 L1142.8 503.9 L1142.4 505.3 L1140 507.6 L1134.8 509.4 L1134.7 510.2 L1133.2 511 L1133.2 511.7 L1132.7 512 L1131.6 511.7 L1127.9 512.1 L1127.3 515.5 L1125.3 516.7 L1121.3 515.9 L1120 515.1 L1118.6 516.1 L1116.7 516.4 L1113.1 520.4 L1112 524.3 L1111 525.7 L1108.8 527.3 L1107.3 530.2 L1104.4 530.6 L1097.8 532.7 L1095.7 533.6 L1094.9 534.5 L1092.3 534.8 L1091.9 535.2 L1090.7 535.1 L1089.4 533.9 L1088.9 532.3 L1088.2 532.1 L1086.4 531.9 L1083.2 532.5 L1083.2 532.2 L1079.8 532.2 L1078.1 531 L1077.1 528.9 L1076.8 526.9 L1075.1 523.9 L1073.8 523.1 L1071.2 522.7 L1069.9 522 L1067.3 522.2 L1066.3 520 L1064.4 519.7 L1064.9 519.1 L1063.5 519.1 L1063.9 518 L1062.5 517.4 L1062.4 514.8 L1058.6 514.5 L1056.1 515.3 L1054.2 515.1 L1052.2 515.5 L1049 514.6 L1047.6 517.1 L1047.4 520.1 L1044.9 519.5 L1044.2 520.9 L1043.4 521.5 L1042.5 523.5 L1043.8 525.6 L1042.4 527.8 L1040.3 528.5 L1040.6 528.3 L1039.6 526.9 L1036.2 525.3 L1033 528.4 L1033.1 529.3 L1031.9 529.7 L1028.2 533.1 L1026.3 533.6 L1021.5 538.9 L1019.6 540.4 L1020.6 541.2 L1021.1 543.5 L1019.2 544.4 L1019 545.9 L1020.6 546.9 L1018.6 553.6 L1017.4 555 L1017 554.9 L1017.3 556.2 L1016.8 556.8 L1016.5 559.2 L1015.5 560.1 L1015.7 561.8 L1012.2 563.4 L1011.9 563.4 L1011.9 562.6 L1010.8 562.7 L1007.3 564.4 L1005.2 564.6 L1002.3 566.3 L1000.8 567.8 L1000.3 567.3 L1000.1 566 L996.3 563.9 L996 562.6 L997.1 560 L996.3 558.8 L995.8 558.9 L995.4 557.4 L995.9 554.7 L997.3 553.6 L997.7 551.3 L997 545.1 L1000.2 544.2 L1000.9 543.2 L1001.2 541.2 L1001.8 540.9 L1001.1 540.4 L1000.9 539.4 L999.1 538 L1000.8 535.9 L1001.4 533.1 L1001.7 529 L999.6 528.3 L996.4 522.2 L995.7 522.2 L995.9 521.7 L993.7 520.3 L990.8 519.7 L991 519.2 L988.8 518.8 L987.6 517.9 L986.1 518 L983.8 517.2 L980.1 516.9 L978.2 518.3 L975.3 517.5 L973.7 517.5 L972.9 514.6 L971.3 512.4 L970.8 512.7 L969.7 511.7 L968.1 511.2 L968 510 L969.2 510.2 L969.6 509.1 L967.6 508 L967.3 507.1 L966.2 507.4 L965.6 506.5 L963.9 506.3 L962.7 507.2 L960.9 507.7 L960.7 506.2 L959.3 506.3 L959.2 505.6 L957.2 505.4 L956.6 504.5 L955.1 503.6 L954.4 504.3 L954.7 504.6 L953 504.6 L952.6 505.5 L951.5 505.4 L950.9 506 L950.3 505.7 L951.2 503.1 L947.2 502.7 L946.6 501.9 L946.6 502.2 L945.9 502 L945.1 502.6 L945.1 501.5 L945.4 501.5 L944.5 501.2 L943.7 501.4 L944.5 498.1 L945 498 L945.1 497.4 L944.5 497.1 L944.6 497.5 L943.8 497.5 L943.2 497.3 L943.1 496.7 L942.7 496.5 L941.4 496.6 L941.7 496.9 L939.2 496.1 L938.5 496.5 L938.7 497.2 L937.4 497 L935.8 497.8 L936 498.3 L935.6 498.9 L933.2 499.8 L933.5 499.4 L933.2 498.9 L931.2 499.4 L931.4 499.6 L931.1 499.3 L929.2 499.8 L928.3 499.4 L928.6 499.1 L927.3 499 L923.3 501.3 L922.2 500.6 L920.3 501.7 L916 501.4 L914.7 502.3 L913.3 502.5 L902.2 503.1 L902.6 504.3 L902.3 504.4 L901.9 503.6 L900.6 503.9 L899.5 503.1 L898.4 502.8 L897.4 503.9 L896.3 503.7 L892.1 505.9 L891.8 505.7 L890.9 506.8 L892.2 507.2 L892.8 508.8 L891.2 509.4 L890.6 510.3 L889.8 510.2 L889.9 511.1 L889.4 511.5 L888.6 511.2 L888.6 511.9 L887.7 512.4 L887.2 513.7 L885.7 514.9 L884.7 514.9 L884.2 515.8 L885.5 517.3 L885.2 518.4 L883.8 519.7 L883.5 520.5 L882.6 520.9 L880.4 523.1 L876.1 528.6 L874.8 529.8 L874.5 530.4 L874.9 531.2 L873.9 531.8 L874.2 532.3 L873.6 532.8 L871.6 533.3 L869.8 532.7 L866.9 535 L866.6 536.5 L863.9 535.8 L863.5 536.6 L862.5 536.8 L861.6 537.8 L858.2 537 L857.5 537.4 L854.9 537.7 L853.5 539.3 L852.7 539.2 L851.5 540.6 L849.4 540.7 L848.4 541.8 L844.2 540.3 L844.8 540.5 L844.2 540.7 L844.5 542.2 L843.5 545.2 L842.2 545.3 L841.1 546.6 L839.8 547 L839.7 548.7 L838.4 548.4 L837.3 549.7 L837 549.7 L837 549.2 L836.1 548.2 L835.8 548.5 L835.4 548.2 L834.8 548.8 L832.9 548.9 L835.5 551.6 L835.3 552 L834.1 553.2 L832 554 L830.8 555.8 L830 555.9 L829 557.4 L828 557.7 L827.8 558.6 L825.3 560.9 L824.6 560.9 L824.1 560 L819.5 559.2 L819.1 558.6 L818 558.3 L817.1 558.9 L815.2 558.6 L814.7 559.1 L814.6 558.6 L812.9 558.6 L811.9 560.4 L810.9 561.2 L807.2 561.1 L806.5 561.5 L806.7 562.4 L806.2 562.5 L804.8 560.6 L804.6 559.5 L801.7 558.7 L800.1 560.3 L797.7 559.9 L796.8 560.4 L796.1 560.2 L793.7 561.2 L792.7 561.1 L792.5 561.6 L791.6 560.8 L788.8 561.5 L787.6 560.7 L785.9 560.3 L785.3 559.8 L785.4 559.4 L783.6 558.3 L782.3 555.4 L782.7 554.6 L781.3 554.2 L780.1 553.2 L778.4 553 L778.1 552.1 L776.7 551.9 L776.1 550.6 L775.4 550.9 L774.6 548.9 L772.9 548.5 L773.3 546.8 L771.9 545.9 L771.4 544 L770.7 544.3 L770 541.4 L769.2 540.8 L769.4 540.2 L768.6 539.7 L767.5 537.2 L768.5 533.8 L770.3 530.4 L770.3 528.7 L770.7 528.2 L771 528.5 L772.5 527 L772.5 525.7 L773.3 523.5 L772.7 519.2 L771.8 518.1 L771.2 517.9 L772.9 516.9 L769.7 513 L768.7 510.8 L768.9 509.9 L771.9 506.8 L768.2 503.8 L767 503.1 L765.8 503.2 L765.7 502.5 L763.1 500.7 L763.3 497.3 L762.5 494.5 L764.5 490.7 L765.6 489.6 L763.3 487.8 L759 487.3 L756.1 488.7 L754.6 490.2 L754.8 490.8 L754.2 490.9 L753.9 491.6 L753.7 491.4 L752.3 491.9 L751.9 491.3 L751.2 491.3 L749.3 489.1 L747.1 488.3 L745.4 487.2 L745.6 485.6 L743.3 483.9 L743.3 482.8 L742.4 482 L741.8 480.4 L740.2 479.9 L740.4 479.4 L739.5 480.6 L738.1 480.4 L736.4 479.5 L733.1 479.7 L732.1 479.2 L731.5 479.5 L727.6 477.6 L726.4 478.3 L724.8 478.5 L723.2 479.9 L721.4 480.8 L720.1 480.7 L719.5 480 L715.6 480.1 L714.5 481.2 L714.1 480.8 L712.6 481.4 L709.9 481.2 L708.5 482.5 L707.6 482.5 L706.9 482 L704.6 482 L703.2 481.2 L701.5 480.9 L699.3 477.9 L697.7 477.4 L696.9 476.5 L696 476.5 L695.1 478.1 L693.3 478.7 L692.5 479.5 L691.6 479.6 L690.7 479 L690.1 479.4 L690.7 482 L690.2 482.8 L690.2 483.5 L689.7 483.4 L689.4 483.9 L689.9 487.3 L689.1 488.8 L689.5 489.1 L689.6 490.1 L688.9 491.7 L688.4 491.9 L686.2 490.6 L682.8 487.6 L682 487.6 L679 485.5 L677.7 485.3 L675.9 486.5 L674.8 486.5 L674.4 487.4 L671.2 486.3 L667.8 485.8 L667 486.1 L662.4 484.5 L657.3 481.4 L655.5 481 L650.5 478 L648.7 478.3 L648 479.5 L647.2 479.6 L643.1 478.3 L641.3 477.2 L640.5 477.2 L639.5 478.1 L638.1 477 L635.9 476.7 L634.3 477.5 L633.3 479.7 L633.6 480.5 L632.7 481.7 L632.8 483.3 L634 484.9 L633 487.3 L632.1 487.3 L629.4 485.4 L627.9 485.2 L628.2 486.8 L626.5 487.1 L625.5 488 L624.1 488.6 L622.6 490.5 L621.6 490.9 L622.3 491.8 L621.8 492.2 L621.4 493.7 L619.5 493.3 L619.4 493.8 L618.5 493.8 L618.6 494.4 L617.4 495 L615.3 492.1 L614.6 491.7 L612.6 492.9 L610.3 492.7 L607.9 494.5 L605.9 495.2 L604.1 493.8 L604.8 492.7 L603.8 491.5 L602.9 491 L602.8 489.9 L602 489 L599.5 489 L598 489.8 L597.1 489.1 L596.8 490.2 L596.3 490.4 L597.4 493 L597.3 493.6 L595.6 494.6 L596.1 496.5 L596.8 497.2 L595.8 498.5 L595 498.4 L593.5 497.4 L592.2 497.5 L592.2 499.2 L590.8 500.4 L588.6 499.6 L586.4 499.6 L585.5 499.1 L583.5 499.5 L582.6 499 L581.6 497.5 L581.1 497.5 L581.1 496.5 L578.8 496.1 L577.7 498.2 L578.8 499.8 L576.9 500.3 L572 499.4 L568.9 497.1 L566.6 496.2 L564.9 496.8 L562.1 495.6 L560.7 495.4 L553.3 490.8 L549.5 490.1 L546.8 488.4 L547.1 488.3 L545.9 488.3 L542.4 486.5 L540.6 486.4 L540 484.3 L536.2 484 L535.4 484.6 L533.7 484.7 L532.2 486.4 L529.5 487.7 L528.5 486.9 L528.3 484.8 L527.1 484 L526.1 484 L525 482.5 L525.5 481.5 L524.3 480.3 L522.7 480.5 L518.9 480.1 L516.1 478.6 L512.7 477.8 L511.5 478 L509.9 477.6 L506.8 478.8 L507.1 479.7 L506.8 480.4 L505.4 481 L505.6 482.4 L503.5 482.1 L501.4 482.6 L501 480.7 L499.8 479.5 L498.5 479.2 L497.2 478.2 L489.5 477.8 L487.6 478.1 L482.3 480.5 L479.7 482.7 L478.8 482.4 L477.2 482.8 L475.6 482 L472.8 482.4 L472 482.9 L472 483.4 L468.3 485 L465.5 487.2 L465.4 487.7 L465.1 487.6 L464.8 488.3 L464.1 488.4 L463.9 489.1 L462 489.8 L461 489.8 L461.1 488.9 L460.4 488.4 L457 487.3 L453.5 486.8 L452.5 485.9 L448.8 487.4 L446.4 487.3 L445.6 486.8 L444.1 487.6 L443.8 488.2 L441.7 489.2 L439.2 489.7 L436.9 489.6 L435.9 489.1 L434.4 489.4 L433.7 491.2 L431.7 492.1 L428.6 491.6 L427.6 492.1 L423.5 492.7 L417.9 492.8 L416 492.1 L411 492.6 L410.2 492.5 L409 491.2 L406.9 491.6 L406.2 490.5 L406.3 489.9 L404.7 489.5 L404 490 L402 489.7 L401.7 489.3 L399 488.2 L396.8 486.3 L390.6 485.5 L388.4 486.3 L385.7 488.7 L379.5 490.1 L378.7 489.4 L377.3 489.5 L376.6 489 L376.8 486.4 L375 484.2 L372.1 484 L370.6 484.4 L369.6 483.9 L368 484.6 L367.3 483.8 L367.4 481.8 L363.8 481 L361.7 479.5 L357.6 479.5 L355.1 480.6 L353.1 480.7 L351.1 479.6 L349.6 479.4 L346.7 480 L346 480.6 L340.9 480.8 L338.2 481.8 L337.1 481.4 L334.1 481.5 L324.7 477.4 L322.5 477.6 L320.7 477.1 L315.6 478 L312.8 478 L311.1 478.6 L306.3 478.3 L303.4 479.6 L302.3 479.3 L299.9 479.4 L294 476.7 L291.5 476.2 L289.6 476.3 L287.5 475.4 L285 475.7 L284.4 475 L281 475.4 L278.4 476.8 L275.2 476.4 L273.5 475.3 L273.2 474.1 L272.6 473.5 L270.1 473.7 L268.1 473.3 L266.3 471.8 L265 471.3 L256.1 468.9 L253.5 469.1 L251.5 468.4 L247.4 467.8 L245.6 468.9 L243.6 468.9 L240.2 466.5 L234.7 466.4 L231.4 465 L228.5 465.1 L226.8 464.2 L223.6 465.4 L221.4 464.7 L220.6 465.6 L218.2 466.4 L215.1 463.8 L212 462.4 L207.9 462.2 L207 462.6 L206.3 463.5 L207 466.4 L205 468.9 L202.7 470 L199.4 469.5 L198.1 472.3 L196.7 473.5 L194.1 474.2 L193 475 L191.5 474.7 L190 473.5 L187.3 472.8 L186.3 471.4 L184.6 471.3 L183.1 470.3 L181.7 470.3 L180.4 471.2 L175.7 471.2 L175.2 468.6 L172.8 466 L172.8 465.7 L170.8 465.6 L167.8 464 L164.5 463.5 L164.8 464.2 L164.6 465 L161.8 466.8 L160.4 466.9 L159 466.1 L154.1 466.8 L153.3 466.3 L151.5 466.4 L149.1 465.6 L146.9 464.1 L145.9 462.9 L144.4 463.4" stroke="#c5d3c3" stroke-width="34" stroke-linecap="round" stroke-linejoin="round" opacity="0.92"/>
    <path d="M460.7 489.8 L461.1 488.9 L460.4 488.4 L457 487.3 L453.5 486.8 L452.5 486.2 L453 485.4 L455.6 484.4 L451.4 479.8 L451.4 478.8 L452.2 477.9 L450.8 473.7 L452 473 L452.1 472.1 L451.8 471 L451.3 471.2 L450.9 470.6 L451 469.1 L452.5 468 L451.8 466.9 L451.8 465.8 L454.1 465.1 L453.9 464.4 L455.1 462.5 L454.8 461.7 L454.9 461.3 L455.5 461.4 L455.9 460.2 L455.4 459.5 L456.8 455.6 L457.4 452.2 L458.5 451.4 L459.1 450.4 L459 449.6 L455.8 445.7 L455.6 443.6 L456 441.7 L457.9 439.4 L457.7 437.8 L458.4 436.3 L459.8 434.8 L461.3 434.4 L461.2 433.9 L461.6 433.5 L460.9 431.5 L462.7 430.2 L467.1 428.6 L468.9 427.1 L469.1 425.9 L468.5 420.6 L469.3 420 L469.7 418.9 L470.6 418.2 L472.5 415.6 L474.9 414.7 L475.3 413.3 L477.1 412.9 L478.5 412.1 L478.7 408.6 L479.1 407.6 L483 406.2 L483.8 405.6 L482.8 404.2 L483.4 402.1 L484.5 400.8 L484.1 399.9 L484.6 397.9 L486.3 395.7 L486.2 395.1 L486.8 394.1 L486.8 392.3 L488.2 390.4 L493.6 388.9 L495.3 387.6 L500.9 385.9 L503.9 383.5 L506.8 382.8 L508.1 383.2 L510.1 383 L511.7 381.8 L512.5 381.8 L514.2 380.1 L513.6 379 L513.9 378 L521.2 376.8 L521.6 373.8 L522 373.3 L523.9 373.1 L527.3 373.7 L528.2 372.9 L529.7 372.6 L532 373 L533.7 371.8 L534.2 370.3 L534 368.2 L533.5 367.9 L533.9 367 L532.8 366.6 L532.7 364.6 L533 363.1 L534.3 361.4 L533.8 360.5 L534.5 358.9 L537.6 356.5 L541.4 351.4 L542.8 350.6 L544.9 350.2 L546.6 349.2 L550.6 341.7 L551.9 337.7 L552.2 334.6 L550.9 333.5 L550.5 332.8 L550.7 332.2" stroke="#c5d3c3" stroke-width="25" stroke-linecap="round" stroke-linejoin="round" stroke-dasharray="28 30" opacity="0.76"/>
    <path d="M1255.6 512.9 L1252.3 511.3 L1249.9 506.3 L1248.3 504.9 L1246.2 504.2 L1246.3 499.5 L1245.5 497.1 L1243.8 494.5 L1242.7 494.3 L1241.4 493.1 L1239.6 492.5 L1238.7 491.4 L1231.7 493.1 L1228.1 487.3 L1224 484.8 L1225.5 482.5 L1225.7 481.4 L1225.4 480 L1225.6 477.2 L1224.8 474.7 L1221.4 474.9 L1220.8 475.4 L1215.8 473.8 L1211.9 473.5 L1206 477.2 L1201.7 476.6 L1200.6 476.3 L1200.5 475.2 L1196.6 468.7 L1196.5 467.3 L1191.1 466.8 L1189.8 467.6 L1182.5 469.2 L1182.4 470.2 L1183.4 472 L1182.7 471.5 L1181.1 471.9 L1176.1 472.3 L1173 472.1 L1171.2 472.4 L1169.7 473.4 L1166.3 474.1 L1166.5 475.7 L1165.3 477.1 L1162.2 479.2 L1162.2 480.2 L1158.8 484.6 L1159.2 486.1 L1159 487.8 L1157.1 490.3 L1156.6 492.2 L1156.9 495 L1155.6 495.2 L1155.7 495.7 L1154.7 496.7 L1150.5 497.3 L1147.1 498.5 L1146.6 499.4 L1147.9 501 L1148 502.7 L1144.3 504.1 L1142.8 503.9 L1142.4 505.3 L1140 507.6 L1134.8 509.4 L1134.7 510.2 L1133.2 511 L1133.2 511.7 L1132.7 512 L1131.6 511.7 L1127.9 512.1 L1127.3 515.5 L1125.3 516.7 L1121.3 515.9 L1120 515.1 L1118.6 516.1 L1116.7 516.4 L1113.1 520.4 L1112 524.3 L1111 525.7 L1108.8 527.3 L1107.3 530.2 L1104.4 530.6 L1097.8 532.7 L1095.7 533.6 L1094.9 534.5 L1092.3 534.8 L1091.9 535.2 L1090.7 535.1 L1089.4 533.9 L1088.9 532.3 L1088.2 532.1 L1086.4 531.9 L1083.2 532.5 L1083.2 532.2 L1079.8 532.2 L1078.1 531 L1077.1 528.9 L1076.8 526.9 L1075.1 523.9 L1073.8 523.1 L1071.2 522.7 L1069.9 522 L1067.3 522.2 L1066.3 520 L1064.4 519.7 L1064.9 519.1 L1063.5 519.1 L1063.9 518 L1062.5 517.4 L1062.4 514.8 L1058.6 514.5 L1056.1 515.3 L1054.2 515.1 L1052.2 515.5 L1049 514.6 L1047.6 517.1 L1047.4 520.1 L1044.9 519.5 L1044.2 520.9 L1043.4 521.5 L1042.5 523.5 L1043.8 525.6 L1042.4 527.8 L1040.3 528.5 L1040.6 528.3 L1039.6 526.9 L1036.2 525.3 L1033 528.4 L1033.1 529.3 L1031.9 529.7 L1028.2 533.1 L1026.3 533.6 L1021.5 538.9 L1019.6 540.4 L1020.6 541.2 L1021.1 543.5 L1019.2 544.4 L1019 545.9 L1020.6 546.9 L1018.6 553.6 L1017.4 555 L1017 554.9 L1017.3 556.2 L1016.8 556.8 L1016.5 559.2 L1015.5 560.1 L1015.7 561.8 L1012.2 563.4 L1011.9 563.4 L1011.9 562.6 L1010.8 562.7 L1007.3 564.4 L1005.2 564.6 L1002.3 566.3 L1000.8 567.8 L1000.3 567.3 L1000.1 566 L996.3 563.9 L996 562.6 L997.1 560 L996.3 558.8 L995.8 558.9 L995.4 557.4 L995.9 554.7 L997.3 553.6 L997.7 551.3 L997 545.1 L1000.2 544.2 L1000.9 543.2 L1001.2 541.2 L1001.8 540.9 L1001.1 540.4 L1000.9 539.4 L999.1 538 L1000.8 535.9 L1001.4 533.1 L1001.7 529 L999.6 528.3 L996.4 522.2 L995.7 522.2 L995.9 521.7 L993.7 520.3 L990.8 519.7 L991 519.2 L988.8 518.8 L987.6 517.9 L986.1 518 L983.8 517.2 L980.1 516.9 L978.2 518.3 L975.3 517.5 L973.7 517.5 L972.9 514.6 L971.3 512.4 L970.8 512.7 L969.7 511.7 L968.1 511.2 L968 510 L969.2 510.2 L969.6 509.1 L967.6 508 L967.3 507.1 L966.2 507.4 L965.6 506.5 L963.9 506.3 L962.7 507.2 L960.9 507.7 L960.7 506.2 L959.3 506.3 L959.2 505.6 L957.2 505.4 L956.6 504.5 L955.1 503.6 L954.4 504.3 L954.7 504.6 L953 504.6 L952.6 505.5 L951.5 505.4 L950.9 506 L950.3 505.7 L951.2 503.1 L947.2 502.7 L946.6 501.9 L946.6 502.2 L945.9 502 L945.1 502.6 L945.1 501.5 L945.4 501.5 L944.5 501.2 L943.7 501.4 L944.5 498.1 L945 498 L945.1 497.4 L944.5 497.1 L944.6 497.5 L943.8 497.5 L943.2 497.3 L943.1 496.7 L942.7 496.5 L941.4 496.6 L941.7 496.9 L939.2 496.1 L938.5 496.5 L938.7 497.2 L937.4 497 L935.8 497.8 L936 498.3 L935.6 498.9 L933.2 499.8 L933.5 499.4 L933.2 498.9 L931.2 499.4 L931.4 499.6 L931.1 499.3 L929.2 499.8 L928.3 499.4 L928.6 499.1 L927.3 499 L923.3 501.3 L922.2 500.6 L920.3 501.7 L916 501.4 L914.7 502.3 L913.3 502.5 L902.2 503.1 L902.6 504.3 L902.3 504.4 L901.9 503.6 L900.6 503.9 L899.5 503.1 L898.4 502.8 L897.4 503.9 L896.3 503.7 L892.1 505.9 L891.8 505.7 L890.9 506.8 L892.2 507.2 L892.8 508.8 L891.2 509.4 L890.6 510.3 L889.8 510.2 L889.9 511.1 L889.4 511.5 L888.6 511.2 L888.6 511.9 L887.7 512.4 L887.2 513.7 L885.7 514.9 L884.7 514.9 L884.2 515.8 L885.5 517.3 L885.2 518.4 L883.8 519.7 L883.5 520.5 L882.6 520.9 L880.4 523.1 L876.1 528.6 L874.8 529.8 L874.5 530.4 L874.9 531.2 L873.9 531.8 L874.2 532.3 L873.6 532.8 L871.6 533.3 L869.8 532.7 L866.9 535 L866.6 536.5 L863.9 535.8 L863.5 536.6 L862.5 536.8 L861.6 537.8 L858.2 537 L857.5 537.4 L854.9 537.7 L853.5 539.3 L852.7 539.2 L851.5 540.6 L849.4 540.7 L848.4 541.8 L844.2 540.3 L844.8 540.5 L844.2 540.7 L844.5 542.2 L843.5 545.2 L842.2 545.3 L841.1 546.6 L839.8 547 L839.7 548.7 L838.4 548.4 L837.3 549.7 L837 549.7 L837 549.2 L836.1 548.2 L835.8 548.5 L835.4 548.2 L834.8 548.8 L832.9 548.9 L835.5 551.6 L835.3 552 L834.1 553.2 L832 554 L830.8 555.8 L830 555.9 L829 557.4 L828 557.7 L827.8 558.6 L825.3 560.9 L824.6 560.9 L824.1 560 L819.5 559.2 L819.1 558.6 L818 558.3 L817.1 558.9 L815.2 558.6 L814.7 559.1 L814.6 558.6 L812.9 558.6 L811.9 560.4 L810.9 561.2 L807.2 561.1 L806.5 561.5 L806.7 562.4 L806.2 562.5 L804.8 560.6 L804.6 559.5 L801.7 558.7 L800.1 560.3 L797.7 559.9 L796.8 560.4 L796.1 560.2 L793.7 561.2 L792.7 561.1 L792.5 561.6 L791.6 560.8 L788.8 561.5 L787.6 560.7 L785.9 560.3 L785.3 559.8 L785.4 559.4 L783.6 558.3 L782.3 555.4 L782.7 554.6 L781.3 554.2 L780.1 553.2 L778.4 553 L778.1 552.1 L776.7 551.9 L776.1 550.6 L775.4 550.9 L774.6 548.9 L772.9 548.5 L773.3 546.8 L771.9 545.9 L771.4 544 L770.7 544.3 L770 541.4 L769.2 540.8 L769.4 540.2 L768.6 539.7 L767.5 537.2 L768.5 533.8 L770.3 530.4 L770.3 528.7 L770.7 528.2 L771 528.5 L772.5 527 L772.5 525.7 L773.3 523.5 L772.7 519.2 L771.8 518.1 L771.2 517.9 L772.9 516.9 L769.7 513 L768.7 510.8 L768.9 509.9 L771.9 506.8 L768.2 503.8 L767 503.1 L765.8 503.2 L765.7 502.5 L763.1 500.7 L763.3 497.3 L762.5 494.5 L764.5 490.7 L765.6 489.6 L763.3 487.8 L759 487.3 L756.1 488.7 L754.6 490.2 L754.8 490.8 L754.2 490.9 L753.9 491.6 L753.7 491.4 L752.3 491.9 L751.9 491.3 L751.2 491.3 L749.3 489.1 L747.1 488.3 L745.4 487.2 L745.6 485.6 L743.3 483.9 L743.3 482.8 L742.4 482 L741.8 480.4 L740.2 479.9 L740.4 479.4 L739.5 480.6 L738.1 480.4 L736.4 479.5 L733.1 479.7 L732.1 479.2 L731.5 479.5 L727.6 477.6 L726.4 478.3 L724.8 478.5 L723.2 479.9 L721.4 480.8 L720.1 480.7 L719.5 480 L715.6 480.1 L714.5 481.2 L714.1 480.8 L712.6 481.4 L709.9 481.2 L708.5 482.5 L707.6 482.5 L706.9 482 L704.6 482 L703.2 481.2 L701.5 480.9 L699.3 477.9 L697.7 477.4 L696.9 476.5 L696 476.5 L695.1 478.1 L693.3 478.7 L692.5 479.5 L691.6 479.6 L690.7 479 L690.1 479.4 L690.7 482 L690.2 482.8 L690.2 483.5 L689.7 483.4 L689.4 483.9 L689.9 487.3 L689.1 488.8 L689.5 489.1 L689.6 490.1 L688.9 491.7 L688.4 491.9 L686.2 490.6 L682.8 487.6 L682 487.6 L679 485.5 L677.7 485.3 L675.9 486.5 L674.8 486.5 L674.4 487.4 L671.2 486.3 L667.8 485.8 L667 486.1 L662.4 484.5 L657.3 481.4 L655.5 481 L650.5 478 L648.7 478.3 L648 479.5 L647.2 479.6 L643.1 478.3 L641.3 477.2 L640.5 477.2 L639.5 478.1 L638.1 477 L635.9 476.7 L634.3 477.5 L633.3 479.7 L633.6 480.5 L632.7 481.7 L632.8 483.3 L634 484.9 L633 487.3 L632.1 487.3 L629.4 485.4 L627.9 485.2 L628.2 486.8 L626.5 487.1 L625.5 488 L624.1 488.6 L622.6 490.5 L621.6 490.9 L622.3 491.8 L621.8 492.2 L621.4 493.7 L619.5 493.3 L619.4 493.8 L618.5 493.8 L618.6 494.4 L617.4 495 L615.3 492.1 L614.6 491.7 L612.6 492.9 L610.3 492.7 L607.9 494.5 L605.9 495.2 L604.1 493.8 L604.8 492.7 L603.8 491.5 L602.9 491 L602.8 489.9 L602 489 L599.5 489 L598 489.8 L597.1 489.1 L596.8 490.2 L596.3 490.4 L597.4 493 L597.3 493.6 L595.6 494.6 L596.1 496.5 L596.8 497.2 L595.8 498.5 L595 498.4 L593.5 497.4 L592.2 497.5 L592.2 499.2 L590.8 500.4 L588.6 499.6 L586.4 499.6 L585.5 499.1 L583.5 499.5 L582.6 499 L581.6 497.5 L581.1 497.5 L581.1 496.5 L578.8 496.1 L577.7 498.2 L578.8 499.8 L576.9 500.3 L572 499.4 L568.9 497.1 L566.6 496.2 L564.9 496.8 L562.1 495.6 L560.7 495.4 L553.3 490.8 L549.5 490.1 L546.8 488.4 L547.1 488.3 L545.9 488.3 L542.4 486.5 L540.6 486.4 L540 484.3 L536.2 484 L535.4 484.6 L533.7 484.7 L532.2 486.4 L529.5 487.7 L528.5 486.9 L528.3 484.8 L527.1 484 L526.1 484 L525 482.5 L525.5 481.5 L524.3 480.3 L522.7 480.5 L518.9 480.1 L516.1 478.6 L512.7 477.8 L511.5 478 L509.9 477.6 L506.8 478.8 L507.1 479.7 L506.8 480.4 L505.4 481 L505.6 482.4 L503.5 482.1 L501.4 482.6 L501 480.7 L499.8 479.5 L498.5 479.2 L497.2 478.2 L489.5 477.8 L487.6 478.1 L482.3 480.5 L479.7 482.7 L478.8 482.4 L477.2 482.8 L475.6 482 L472.8 482.4 L472 482.9 L472 483.4 L468.3 485 L465.5 487.2 L465.4 487.7 L465.1 487.6 L464.8 488.3 L464.1 488.4 L463.9 489.1 L462 489.8 L461 489.8 L461.1 488.9 L460.4 488.4 L457 487.3 L453.5 486.8 L452.5 485.9 L448.8 487.4 L446.4 487.3 L445.6 486.8 L444.1 487.6 L443.8 488.2 L441.7 489.2 L439.2 489.7 L436.9 489.6 L435.9 489.1 L434.4 489.4 L433.7 491.2 L431.7 492.1 L428.6 491.6 L427.6 492.1 L423.5 492.7 L417.9 492.8 L416 492.1 L411 492.6 L410.2 492.5 L409 491.2 L406.9 491.6 L406.2 490.5 L406.3 489.9 L404.7 489.5 L404 490 L402 489.7 L401.7 489.3 L399 488.2 L396.8 486.3 L390.6 485.5 L388.4 486.3 L385.7 488.7 L379.5 490.1 L378.7 489.4 L377.3 489.5 L376.6 489 L376.8 486.4 L375 484.2 L372.1 484 L370.6 484.4 L369.6 483.9 L368 484.6 L367.3 483.8 L367.4 481.8 L363.8 481 L361.7 479.5 L357.6 479.5 L355.1 480.6 L353.1 480.7 L351.1 479.6 L349.6 479.4 L346.7 480 L346 480.6 L340.9 480.8 L338.2 481.8 L337.1 481.4 L334.1 481.5 L324.7 477.4 L322.5 477.6 L320.7 477.1 L315.6 478 L312.8 478 L311.1 478.6 L306.3 478.3 L303.4 479.6 L302.3 479.3 L299.9 479.4 L294 476.7 L291.5 476.2 L289.6 476.3 L287.5 475.4 L285 475.7 L284.4 475 L281 475.4 L278.4 476.8 L275.2 476.4 L273.5 475.3 L273.2 474.1 L272.6 473.5 L270.1 473.7 L268.1 473.3 L266.3 471.8 L265 471.3 L256.1 468.9 L253.5 469.1 L251.5 468.4 L247.4 467.8 L245.6 468.9 L243.6 468.9 L240.2 466.5 L234.7 466.4 L231.4 465 L228.5 465.1 L226.8 464.2 L223.6 465.4 L221.4 464.7 L220.6 465.6 L218.2 466.4 L215.1 463.8 L212 462.4 L207.9 462.2 L207 462.6 L206.3 463.5 L207 466.4 L205 468.9 L202.7 470 L199.4 469.5 L198.1 472.3 L196.7 473.5 L194.1 474.2 L193 475 L191.5 474.7 L190 473.5 L187.3 472.8 L186.3 471.4 L184.6 471.3 L183.1 470.3 L181.7 470.3 L180.4 471.2 L175.7 471.2 L175.2 468.6 L172.8 466 L172.8 465.7 L170.8 465.6 L167.8 464 L164.5 463.5 L164.8 464.2 L164.6 465 L161.8 466.8 L160.4 466.9 L159 466.1 L154.1 466.8 L153.3 466.3 L151.5 466.4 L149.1 465.6 L146.9 464.1 L145.9 462.9 L144.4 463.4" stroke="#2f6f4e" stroke-width="18" stroke-linecap="round" stroke-linejoin="round"/>
    <path d="M460.7 489.8 L461.1 488.9 L460.4 488.4 L457 487.3 L453.5 486.8 L452.5 486.2 L453 485.4 L455.6 484.4 L451.4 479.8 L451.4 478.8 L452.2 477.9 L450.8 473.7 L452 473 L452.1 472.1 L451.8 471 L451.3 471.2 L450.9 470.6 L451 469.1 L452.5 468 L451.8 466.9 L451.8 465.8 L454.1 465.1 L453.9 464.4 L455.1 462.5 L454.8 461.7 L454.9 461.3 L455.5 461.4 L455.9 460.2 L455.4 459.5 L456.8 455.6 L457.4 452.2 L458.5 451.4 L459.1 450.4 L459 449.6 L455.8 445.7 L455.6 443.6 L456 441.7 L457.9 439.4 L457.7 437.8 L458.4 436.3 L459.8 434.8 L461.3 434.4 L461.2 433.9 L461.6 433.5 L460.9 431.5 L462.7 430.2 L467.1 428.6 L468.9 427.1 L469.1 425.9 L468.5 420.6 L469.3 420 L469.7 418.9 L470.6 418.2 L472.5 415.6 L474.9 414.7 L475.3 413.3 L477.1 412.9 L478.5 412.1 L478.7 408.6 L479.1 407.6 L483 406.2 L483.8 405.6 L482.8 404.2 L483.4 402.1 L484.5 400.8 L484.1 399.9 L484.6 397.9 L486.3 395.7 L486.2 395.1 L486.8 394.1 L486.8 392.3 L488.2 390.4 L493.6 388.9 L495.3 387.6 L500.9 385.9 L503.9 383.5 L506.8 382.8 L508.1 383.2 L510.1 383 L511.7 381.8 L512.5 381.8 L514.2 380.1 L513.6 379 L513.9 378 L521.2 376.8 L521.6 373.8 L522 373.3 L523.9 373.1 L527.3 373.7 L528.2 372.9 L529.7 372.6 L532 373 L533.7 371.8 L534.2 370.3 L534 368.2 L533.5 367.9 L533.9 367 L532.8 366.6 L532.7 364.6 L533 363.1 L534.3 361.4 L533.8 360.5 L534.5 358.9 L537.6 356.5 L541.4 351.4 L542.8 350.6 L544.9 350.2 L546.6 349.2 L550.6 341.7 L551.9 337.7 L552.2 334.6 L550.9 333.5 L550.5 332.8 L550.7 332.2" stroke="#2f6f4e" stroke-width="11" stroke-linecap="round" stroke-linejoin="round" stroke-dasharray="24 26" opacity="0.92"/>
  </g>
  <g fill="#fffaf0" stroke="#20231f" stroke-opacity="0.18" stroke-width="3.5">
    <circle cx="1255.6" cy="512.9" r="13"/>
    <circle cx="144.4" cy="463.4" r="13"/>
    <circle cx="460.7" cy="489.8" r="10"/>
    <circle cx="550.7" cy="332.2" r="10"/>
  </g>
  <path d="M72 76H1328V824H72Z" fill="none" stroke="#fffaf0" stroke-opacity="0.42" stroke-width="2"/>
  <rect width="1400" height="900" fill="#3b3020" filter="url(#paperGrain)" opacity="0.24"/>
</svg>
