<svg xmlns="http://www.w3.org/2000/svg" viewBox="0 0 1800 1120" role="img" aria-label="柳州、恩施、神农架之间，路线进入南方山地。 武陵山、峡谷、森林和高差让湿润南方变得立体，也为北方段做铺垫。">
  <defs>
    
    <linearGradient id="paper" x1="0" x2="1" y1="0" y2="1">
      <stop offset="0" stop-color="#fffaf0"/>
      <stop offset="0.48" stop-color="#f5e5db"/>
      <stop offset="1" stop-color="#c8cbbc"/>
    </linearGradient>
    <filter id="paperGrain" x="0" y="0" width="100%" height="100%">
      <feTurbulence baseFrequency="0.74" numOctaves="2" seed="82" type="fractalNoise"/>
      <feColorMatrix type="saturate" values="0"/>
      <feComponentTransfer>
        <feFuncA type="table" tableValues="0 0.13"/>
      </feComponentTransfer>
    </filter>
    <filter id="assetShadow" x="-18%" y="-18%" width="136%" height="136%">
      <feDropShadow dx="0" dy="18" stdDeviation="18" flood-color="#2f261a" flood-opacity="0.16"/>
    </filter>
    <clipPath id="frameClip">
      <rect x="64" y="64" width="1672" height="992" rx="28"/>
    </clipPath>
    <linearGradient id="wash" x1="0" x2="1" y1="0" y2="1">
      <stop offset="0" stop-color="#cddcda"/>
      <stop offset="0.52" stop-color="#f2ded5"/>
      <stop offset="1" stop-color="#d39a8d"/>
    </linearGradient>
  </defs>
  <rect width="1800" height="1120" fill="url(#paper)"/>
  <g opacity="0.72">
    <path d="M-1120 1120 L0 0" fill="none" stroke="#b54646" stroke-width="1" stroke-opacity="0.055"/>
  <path d="M-1078 1120 L42 0" fill="none" stroke="#b54646" stroke-width="1" stroke-opacity="0.055"/>
  <path d="M-1036 1120 L84 0" fill="none" stroke="#b54646" stroke-width="1" stroke-opacity="0.055"/>
  <path d="M-994 1120 L126 0" fill="none" stroke="#b54646" stroke-width="1" stroke-opacity="0.055"/>
  <path d="M-952 1120 L168 0" fill="none" stroke="#b54646" stroke-width="1" stroke-opacity="0.055"/>
  <path d="M-910 1120 L210 0" fill="none" stroke="#b54646" stroke-width="1" stroke-opacity="0.055"/>
  <path d="M-868 1120 L252 0" fill="none" stroke="#b54646" stroke-width="1" stroke-opacity="0.055"/>
  <path d="M-826 1120 L294 0" fill="none" stroke="#b54646" stroke-width="1" stroke-opacity="0.055"/>
  <path d="M-784 1120 L336 0" fill="none" stroke="#b54646" stroke-width="1" stroke-opacity="0.055"/>
  <path d="M-742 1120 L378 0" fill="none" stroke="#b54646" stroke-width="1" stroke-opacity="0.055"/>
  <path d="M-700 1120 L420 0" fill="none" stroke="#b54646" stroke-width="1" stroke-opacity="0.055"/>
  <path d="M-658 1120 L462 0" fill="none" stroke="#b54646" stroke-width="1" stroke-opacity="0.055"/>
  <path d="M-616 1120 L504 0" fill="none" stroke="#b54646" stroke-width="1" stroke-opacity="0.055"/>
  <path d="M-574 1120 L546 0" fill="none" stroke="#b54646" stroke-width="1" stroke-opacity="0.055"/>
  <path d="M-532 1120 L588 0" fill="none" stroke="#b54646" stroke-width="1" stroke-opacity="0.055"/>
  <path d="M-490 1120 L630 0" fill="none" stroke="#b54646" stroke-width="1" stroke-opacity="0.055"/>
  <path d="M-448 1120 L672 0" fill="none" stroke="#b54646" stroke-width="1" stroke-opacity="0.055"/>
  <path d="M-406 1120 L714 0" fill="none" stroke="#b54646" stroke-width="1" stroke-opacity="0.055"/>
  <path d="M-364 1120 L756 0" fill="none" stroke="#b54646" stroke-width="1" stroke-opacity="0.055"/>
  <path d="M-322 1120 L798 0" fill="none" stroke="#b54646" stroke-width="1" stroke-opacity="0.055"/>
  <path d="M-280 1120 L840 0" fill="none" stroke="#b54646" stroke-width="1" stroke-opacity="0.055"/>
  <path d="M-238 1120 L882 0" fill="none" stroke="#b54646" stroke-width="1" stroke-opacity="0.055"/>
  <path d="M-196 1120 L924 0" fill="none" stroke="#b54646" stroke-width="1" stroke-opacity="0.055"/>
  <path d="M-154 1120 L966 0" fill="none" stroke="#b54646" stroke-width="1" stroke-opacity="0.055"/>
  <path d="M-112 1120 L1008 0" fill="none" stroke="#b54646" stroke-width="1" stroke-opacity="0.055"/>
  <path d="M-70 1120 L1050 0" fill="none" stroke="#b54646" stroke-width="1" stroke-opacity="0.055"/>
  <path d="M-28 1120 L1092 0" fill="none" stroke="#b54646" stroke-width="1" stroke-opacity="0.055"/>
  <path d="M14 1120 L1134 0" fill="none" stroke="#b54646" stroke-width="1" stroke-opacity="0.055"/>
  <path d="M56 1120 L1176 0" fill="none" stroke="#b54646" stroke-width="1" stroke-opacity="0.055"/>
  <path d="M98 1120 L1218 0" fill="none" stroke="#b54646" stroke-width="1" stroke-opacity="0.055"/>
  <path d="M140 1120 L1260 0" fill="none" stroke="#b54646" stroke-width="1" stroke-opacity="0.055"/>
  <path d="M182 1120 L1302 0" fill="none" stroke="#b54646" stroke-width="1" stroke-opacity="0.055"/>
  <path d="M224 1120 L1344 0" fill="none" stroke="#b54646" stroke-width="1" stroke-opacity="0.055"/>
  <path d="M266 1120 L1386 0" fill="none" stroke="#b54646" stroke-width="1" stroke-opacity="0.055"/>
  <path d="M308 1120 L1428 0" fill="none" stroke="#b54646" stroke-width="1" stroke-opacity="0.055"/>
  <path d="M350 1120 L1470 0" fill="none" stroke="#b54646" stroke-width="1" stroke-opacity="0.055"/>
  <path d="M392 1120 L1512 0" fill="none" stroke="#b54646" stroke-width="1" stroke-opacity="0.055"/>
  <path d="M434 1120 L1554 0" fill="none" stroke="#b54646" stroke-width="1" stroke-opacity="0.055"/>
  <path d="M476 1120 L1596 0" fill="none" stroke="#b54646" stroke-width="1" stroke-opacity="0.055"/>
  <path d="M518 1120 L1638 0" fill="none" stroke="#b54646" stroke-width="1" stroke-opacity="0.055"/>
  <path d="M560 1120 L1680 0" fill="none" stroke="#b54646" stroke-width="1" stroke-opacity="0.055"/>
  <path d="M602 1120 L1722 0" fill="none" stroke="#b54646" stroke-width="1" stroke-opacity="0.055"/>
  <path d="M644 1120 L1764 0" fill="none" stroke="#b54646" stroke-width="1" stroke-opacity="0.055"/>
  <path d="M686 1120 L1806 0" fill="none" stroke="#b54646" stroke-width="1" stroke-opacity="0.055"/>
  <path d="M728 1120 L1848 0" fill="none" stroke="#b54646" stroke-width="1" stroke-opacity="0.055"/>
  <path d="M770 1120 L1890 0" fill="none" stroke="#b54646" stroke-width="1" stroke-opacity="0.055"/>
  <path d="M812 1120 L1932 0" fill="none" stroke="#b54646" stroke-width="1" stroke-opacity="0.055"/>
  <path d="M854 1120 L1974 0" fill="none" stroke="#b54646" stroke-width="1" stroke-opacity="0.055"/>
  <path d="M896 1120 L2016 0" fill="none" stroke="#b54646" stroke-width="1" stroke-opacity="0.055"/>
  <path d="M938 1120 L2058 0" fill="none" stroke="#b54646" stroke-width="1" stroke-opacity="0.055"/>
  <path d="M980 1120 L2100 0" fill="none" stroke="#b54646" stroke-width="1" stroke-opacity="0.055"/>
  <path d="M1022 1120 L2142 0" fill="none" stroke="#b54646" stroke-width="1" stroke-opacity="0.055"/>
  <path d="M1064 1120 L2184 0" fill="none" stroke="#b54646" stroke-width="1" stroke-opacity="0.055"/>
  <path d="M1106 1120 L2226 0" fill="none" stroke="#b54646" stroke-width="1" stroke-opacity="0.055"/>
  <path d="M1148 1120 L2268 0" fill="none" stroke="#b54646" stroke-width="1" stroke-opacity="0.055"/>
  <path d="M1190 1120 L2310 0" fill="none" stroke="#b54646" stroke-width="1" stroke-opacity="0.055"/>
  <path d="M1232 1120 L2352 0" fill="none" stroke="#b54646" stroke-width="1" stroke-opacity="0.055"/>
  <path d="M1274 1120 L2394 0" fill="none" stroke="#b54646" stroke-width="1" stroke-opacity="0.055"/>
  <path d="M1316 1120 L2436 0" fill="none" stroke="#b54646" stroke-width="1" stroke-opacity="0.055"/>
  <path d="M1358 1120 L2478 0" fill="none" stroke="#b54646" stroke-width="1" stroke-opacity="0.055"/>
  <path d="M1400 1120 L2520 0" fill="none" stroke="#b54646" stroke-width="1" stroke-opacity="0.055"/>
  <path d="M1442 1120 L2562 0" fill="none" stroke="#b54646" stroke-width="1" stroke-opacity="0.055"/>
  <path d="M1484 1120 L2604 0" fill="none" stroke="#b54646" stroke-width="1" stroke-opacity="0.055"/>
  <path d="M1526 1120 L2646 0" fill="none" stroke="#b54646" stroke-width="1" stroke-opacity="0.055"/>
  <path d="M1568 1120 L2688 0" fill="none" stroke="#b54646" stroke-width="1" stroke-opacity="0.055"/>
  <path d="M1610 1120 L2730 0" fill="none" stroke="#b54646" stroke-width="1" stroke-opacity="0.055"/>
  <path d="M1652 1120 L2772 0" fill="none" stroke="#b54646" stroke-width="1" stroke-opacity="0.055"/>
  <path d="M1694 1120 L2814 0" fill="none" stroke="#b54646" stroke-width="1" stroke-opacity="0.055"/>
  <path d="M1736 1120 L2856 0" fill="none" stroke="#b54646" stroke-width="1" stroke-opacity="0.055"/>
  <path d="M1778 1120 L2898 0" fill="none" stroke="#b54646" stroke-width="1" stroke-opacity="0.055"/>
    <path d="M-144 -150 C324 -224 576 -76 936 -150 S1476 -224 1944.0000000000002 -131.5" fill="none" stroke="#2d7f95" stroke-width="1.2" stroke-opacity="0.1" stroke-linecap="round"/>
  <path d="M-144 0 C324 -74 576 74 936 0 S1476 -74 1944.0000000000002 18.5" fill="none" stroke="#2d7f95" stroke-width="1.2" stroke-opacity="0.1" stroke-linecap="round"/>
  <path d="M-144 150 C324 76 576 224 936 150 S1476 76 1944.0000000000002 168.5" fill="none" stroke="#2d7f95" stroke-width="1.2" stroke-opacity="0.1" stroke-linecap="round"/>
  <path d="M-144 300 C324 226 576 374 936 300 S1476 226 1944.0000000000002 318.5" fill="none" stroke="#2d7f95" stroke-width="1.2" stroke-opacity="0.1" stroke-linecap="round"/>
  <path d="M-144 450 C324 376 576 524 936 450 S1476 376 1944.0000000000002 468.5" fill="none" stroke="#2d7f95" stroke-width="1.2" stroke-opacity="0.1" stroke-linecap="round"/>
  <path d="M-144 600 C324 526 576 674 936 600 S1476 526 1944.0000000000002 618.5" fill="none" stroke="#2d7f95" stroke-width="1.2" stroke-opacity="0.1" stroke-linecap="round"/>
  <path d="M-144 750 C324 676 576 824 936 750 S1476 676 1944.0000000000002 768.5" fill="none" stroke="#2d7f95" stroke-width="1.2" stroke-opacity="0.1" stroke-linecap="round"/>
  <path d="M-144 900 C324 826 576 974 936 900 S1476 826 1944.0000000000002 918.5" fill="none" stroke="#2d7f95" stroke-width="1.2" stroke-opacity="0.1" stroke-linecap="round"/>
  <path d="M-144 1050 C324 976 576 1124 936 1050 S1476 976 1944.0000000000002 1068.5" fill="none" stroke="#2d7f95" stroke-width="1.2" stroke-opacity="0.1" stroke-linecap="round"/>
  <path d="M-144 1200 C324 1126 576 1274 936 1200 S1476 1126 1944.0000000000002 1218.5" fill="none" stroke="#2d7f95" stroke-width="1.2" stroke-opacity="0.1" stroke-linecap="round"/>
  <path d="M-144 1350 C324 1276 576 1424 936 1350 S1476 1276 1944.0000000000002 1368.5" fill="none" stroke="#2d7f95" stroke-width="1.2" stroke-opacity="0.1" stroke-linecap="round"/>
  <path d="M-144 1500 C324 1426 576 1574 936 1500 S1476 1426 1944.0000000000002 1518.5" fill="none" stroke="#2d7f95" stroke-width="1.2" stroke-opacity="0.1" stroke-linecap="round"/>
  </g>
  <g clip-path="url(#frameClip)">
    <rect x="64" y="64" width="1672" height="992" fill="url(#wash)"/>
    <circle cx="427.2" cy="268.0" r="108.9" fill="#7caba1" opacity="0.52"/>
    <path d="M64 500 L64.0 391.3 L249.8 458.0 L435.6 425.5 L621.3 397.6 L807.1 378.6 L992.9 353.7 L1178.7 434.1 L1364.4 389.6 L1550.2 456.2 L1736.0 444.5 L1736 500 L1736 1120 L64 1120Z" fill="#5b888d" opacity="0.74"/>
    <path d="M53.77587574720383 693.4464746504091 L88.77587574720383 541.1562387039885 L123.77587574720383 693.4464746504091Z" fill="#28656e" opacity="0.82"/>
    <path d="M87.10505913943052 700.3097618091851 L122.10505913943052 456.3807376753539 L157.10505913943052 700.3097618091851Z" fill="#7f413c" opacity="0.82"/>
    <path d="M127.99736439064145 679.7816278436221 L162.99736439064145 480.469563473016 L197.99736439064145 679.7816278436221Z" fill="#28656e" opacity="0.82"/>
    <path d="M183.06735256686807 775.982372444123 L218.06735256686807 600.5086972331628 L253.06735256686807 775.982372444123Z" fill="#7f413c" opacity="0.82"/>
    <path d="M216.67245035991073 694.3337432295084 L251.67245035991073 557.5293618859723 L286.6724503599107 694.3337432295084Z" fill="#28656e" opacity="0.82"/>
    <path d="M262.68827620893717 724.155973631423 L297.68827620893717 490.20774588920176 L332.68827620893717 724.155973631423Z" fill="#7f413c" opacity="0.82"/>
    <path d="M301.8158915452659 689.9538763728924 L336.8158915452659 411.21660090750083 L371.8158915452659 689.9538763728924Z" fill="#28656e" opacity="0.82"/>
    <path d="M349.5884119346738 849.1182320914231 L384.5884119346738 619.7105539473705 L419.5884119346738 849.1182320914231Z" fill="#7f413c" opacity="0.82"/>
    <path d="M384.50738890096545 752.570476103574 L419.50738890096545 601.5218907198869 L454.50738890096545 752.570476103574Z" fill="#28656e" opacity="0.82"/>
    <path d="M429.77397026121616 802.2238083742559 L464.77397026121616 504.49260431108996 L499.77397026121616 802.2238083742559Z" fill="#7f413c" opacity="0.82"/>
    <path d="M476.7487564198673 847.4023122596554 L511.7487564198673 670.5185147025622 L546.7487564198673 847.4023122596554Z" fill="#28656e" opacity="0.82"/>
    <path d="M507.78327133506536 778.3404539013281 L542.7832713350654 640.5167457624339 L577.7832713350654 778.3404539013281Z" fill="#7f413c" opacity="0.82"/>
    <path d="M555.9331604540348 717.8621899522841 L590.9331604540348 475.51321749575436 L625.9331604540348 717.8621899522841Z" fill="#28656e" opacity="0.82"/>
    <path d="M603.255823366344 809.5595446811058 L638.255823366344 630.255374610424 L673.255823366344 809.5595446811058Z" fill="#7f413c" opacity="0.82"/>
    <path d="M639.087677821517 786.1652143392712 L674.087677821517 641.8253941973671 L709.087677821517 786.1652143392712Z" fill="#28656e" opacity="0.82"/>
    <path d="M685.7679687179625 748.2345957541838 L720.7679687179625 551.521632662043 L755.7679687179625 748.2345957541838Z" fill="#7f413c" opacity="0.82"/>
    <path d="M723.536807924509 704.3519545556046 L758.536807924509 446.5988758066669 L793.536807924509 704.3519545556046Z" fill="#28656e" opacity="0.82"/>
    <path d="M763.9603480063379 838.6985246604308 L798.9603480063379 585.0923852389678 L833.9603480063379 838.6985246604308Z" fill="#7f413c" opacity="0.82"/>
    <path d="M813.7893063724041 800.2096675802022 L848.7893063724041 532.5550375971943 L883.7893063724041 800.2096675802022Z" fill="#28656e" opacity="0.82"/>
    <path d="M845.0247751176357 731.2574489042163 L880.0247751176357 465.3686040244065 L915.0247751176357 731.2574489042163Z" fill="#7f413c" opacity="0.82"/>
    <path d="M885.9872598350048 821.9553193589672 L920.9872598350048 698.4006265294738 L955.9872598350048 821.9553193589672Z" fill="#28656e" opacity="0.82"/>
    <path d="M927.9274463169277 737.725539910607 L962.9274463169277 566.4288312452845 L997.9274463169277 737.725539910607Z" fill="#7f413c" opacity="0.82"/>
    <path d="M967.5515031553805 820.7865992700681 L1002.5515031553805 623.3069204865023 L1037.5515031553805 820.7865992700681Z" fill="#28656e" opacity="0.82"/>
    <path d="M1020.0005444474518 778.4425827092491 L1055.0005444474518 475.4575067269616 L1090.0005444474518 778.4425827092491Z" fill="#7f413c" opacity="0.82"/>
    <path d="M1052.4525880515575 717.1546099660918 L1087.4525880515575 432.94669937575236 L1122.4525880515575 717.1546099660918Z" fill="#28656e" opacity="0.82"/>
    <path d="M1099.0917772762477 740.8499134820886 L1134.0917772762477 545.9953940007836 L1169.0917772762477 740.8499134820886Z" fill="#7f413c" opacity="0.82"/>
    <path d="M1146.8407054655254 711.0446259449236 L1181.8407054655254 406.34712111437693 L1216.8407054655254 711.0446259449236Z" fill="#28656e" opacity="0.82"/>
    <path d="M1189.0729651860893 695.9861771413125 L1224.0729651860893 538.4124339162372 L1259.0729651860893 695.9861771413125Z" fill="#7f413c" opacity="0.82"/>
    <path d="M1227.2213759347796 684.4902225956321 L1262.2213759347796 449.7443234361708 L1297.2213759347796 684.4902225956321Z" fill="#28656e" opacity="0.82"/>
    <path d="M1271.6591444984078 808.934620898217 L1306.6591444984078 578.4805464814417 L1341.6591444984078 808.934620898217Z" fill="#7f413c" opacity="0.82"/>
    <path d="M1307.9366544149816 819.7057787608355 L1342.9366544149816 524.8859727499075 L1377.9366544149816 819.7057787608355Z" fill="#28656e" opacity="0.82"/>
    <path d="M1355.6668930537999 786.3597333081998 L1390.6668930537999 590.6926114810631 L1425.6668930537999 786.3597333081998Z" fill="#7f413c" opacity="0.82"/>
    <path d="M1392.8476953431964 745.1409103581682 L1427.8476953431964 589.2763925879262 L1462.8476953431964 745.1409103581682Z" fill="#28656e" opacity="0.82"/>
    <path d="M1429.6976928152144 733.453357911203 L1464.6976928152144 565.1667409064248 L1499.6976928152144 733.453357911203Z" fill="#7f413c" opacity="0.82"/>
    <path d="M1472.8704634048045 848.6302195908502 L1507.8704634048045 719.8604527395219 L1542.8704634048045 848.6302195908502Z" fill="#28656e" opacity="0.82"/>
    <path d="M1521.3791513033211 833.4207961685024 L1556.3791513033211 648.9109178865328 L1591.3791513033211 833.4207961685024Z" fill="#7f413c" opacity="0.82"/>
    <path d="M1568.4503938220441 735.4233668767847 L1603.4503938220441 577.1230086172 L1638.4503938220441 735.4233668767847Z" fill="#28656e" opacity="0.82"/>
    <path d="M1601.5817003436387 758.1310184090398 L1636.5817003436387 563.0861603002995 L1671.5817003436387 758.1310184090398Z" fill="#7f413c" opacity="0.82"/>
    <path d="M1645.005626603961 778.8113539293408 L1680.005626603961 616.181979260873 L1715.005626603961 778.8113539293408Z" fill="#28656e" opacity="0.82"/>
    <path d="M1686.5849037654698 702.4331595841795 L1721.5849037654698 565.6391177256592 L1756.5849037654698 702.4331595841795Z" fill="#7f413c" opacity="0.82"/>
    <path d="M1727.4236278235912 825.673150527291 L1762.4236278235912 623.1065351841971 L1797.4236278235912 825.673150527291Z" fill="#28656e" opacity="0.82"/>
    <path d="M1769.7814734913409 779.8884875699878 L1804.7814734913409 616.4992959657684 L1839.7814734913409 779.8884875699878Z" fill="#7f413c" opacity="0.82"/>
    <path d="M64 860 C320 800 590 890 910 820 C1230 750 1460 830 1736 770 L1736 1056 L64 1056Z" fill="#79413c"/>
    <path d="M180 907.6 C400 799.6 560 995.6 770 887.6 S1130 747.6 1328 855.6 S1540 945.6 1644 825.6" fill="none" stroke="#e4b9b3" stroke-width="24" stroke-linecap="round" stroke-linejoin="round" opacity="0.74" filter="url(#assetShadow)"/>
    <path d="M180 907.6 C400 799.6 560 995.6 770 887.6 S1130 747.6 1328 855.6 S1540 945.6 1644 825.6" fill="none" stroke="#b54646" stroke-width="13" stroke-linecap="round" stroke-linejoin="round" opacity="0.82"/>
    <path d="M180 907.6 C400 799.6 560 995.6 770 887.6 S1130 747.6 1328 855.6 S1540 945.6 1644 825.6" fill="none" stroke="#2d7f95" stroke-width="4.5" stroke-linecap="round" stroke-linejoin="round" stroke-dasharray="16 18" opacity="0.58"/>
    <rect x="64" y="64" width="1672" height="992" fill="#20231f" opacity="0.035"/>
  </g>
  <rect x="64" y="64" width="1672" height="992" rx="28" fill="none" stroke="#fffaf0" stroke-opacity="0.52" stroke-width="3"/>
  <rect x="88" y="88" width="1624" height="944" rx="20" fill="none" stroke="#20231f" stroke-opacity="0.1" stroke-width="1.5"/>
  <g transform="translate(112 100)">
    <g transform="rotate(-3 36 36)">
    <rect x="0" y="0" width="72" height="72" rx="10.080000000000002" fill="#9f3525"/>
    <rect x="7.2" y="7.2" width="57.6" height="57.6" rx="7.2" fill="none" stroke="#fff2df" stroke-opacity="0.72" stroke-width="2.5200000000000005"/>
    <text x="36" y="43.199999999999996" text-anchor="middle" fill="#fff7e8" font-family="'Kaiti SC','STKaiti','FZKai-Z03S','KaiTi','Songti SC','STSong','Noto Serif CJK SC',serif" font-size="33.120000000000005" font-weight="900">段</text>
    <text x="36" y="56.160000000000004" text-anchor="middle" fill="#fff2df" font-family="'Avenir Next',Avenir,Arial,sans-serif" font-size="10.080000000000002" font-weight="900" letter-spacing="0.8">03</text>
  </g>
    <text x="92" y="30" fill="#20231f" fill-opacity="0.62" font-family="'Kaiti SC','STKaiti','FZKai-Z03S','KaiTi','Songti SC','STSong','Noto Serif CJK SC',serif" font-size="23" font-weight="900">南北极 / 第 03 段</text>
    <text x="92" y="70" fill="#b54646" font-family="'Songti SC','STSong','Source Han Serif SC','Noto Serif CJK SC','SimSun',serif" font-size="44" font-weight="900">恩施</text>
  </g>
  <text x="1688" y="994" text-anchor="end" fill="#fffaf0" fill-opacity="0.72" font-family="'Avenir Next',Avenir,Arial,sans-serif" font-size="18" font-weight="900" letter-spacing="4">ROADTRIP CHINA</text>
  <rect width="1800" height="1120" fill="#3b3020" filter="url(#paperGrain)" opacity="0.22"/>
</svg>
