<svg xmlns="http://www.w3.org/2000/svg" viewBox="0 0 1800 1120" role="img" aria-label="勐腊、景洪、普洱、临沧让西部纵贯从热带边地起步。 雨林、茶山、澜沧江谷地和傣乡城市，给全线留下湿热而丰盛的南端。">
  <defs>
    
    <linearGradient id="paper" x1="0" x2="1" y1="0" y2="1">
      <stop offset="0" stop-color="#fffaf0"/>
      <stop offset="0.48" stop-color="#f1ebd9"/>
      <stop offset="1" stop-color="#c9c5ba"/>
    </linearGradient>
    <filter id="paperGrain" x="0" y="0" width="100%" height="100%">
      <feTurbulence baseFrequency="0.74" numOctaves="2" seed="73" type="fractalNoise"/>
      <feColorMatrix type="saturate" values="0"/>
      <feComponentTransfer>
        <feFuncA type="table" tableValues="0 0.13"/>
      </feComponentTransfer>
    </filter>
    <filter id="assetShadow" x="-18%" y="-18%" width="136%" height="136%">
      <feDropShadow dx="0" dy="18" stdDeviation="18" flood-color="#2f261a" flood-opacity="0.16"/>
    </filter>
    <clipPath id="frameClip">
      <rect x="64" y="64" width="1672" height="992" rx="28"/>
    </clipPath>
    <linearGradient id="wash" x1="0" x2="1" y1="0" y2="1">
      <stop offset="0" stop-color="#ced4d8"/>
      <stop offset="0.52" stop-color="#ece6d1"/>
      <stop offset="1" stop-color="#c0b182"/>
    </linearGradient>
  </defs>
  <rect width="1800" height="1120" fill="url(#paper)"/>
  <g opacity="0.72">
    <path d="M-1120 1120 L0 0" fill="none" stroke="#8a7a2d" stroke-width="1" stroke-opacity="0.055"/>
  <path d="M-1078 1120 L42 0" fill="none" stroke="#8a7a2d" stroke-width="1" stroke-opacity="0.055"/>
  <path d="M-1036 1120 L84 0" fill="none" stroke="#8a7a2d" stroke-width="1" stroke-opacity="0.055"/>
  <path d="M-994 1120 L126 0" fill="none" stroke="#8a7a2d" stroke-width="1" stroke-opacity="0.055"/>
  <path d="M-952 1120 L168 0" fill="none" stroke="#8a7a2d" stroke-width="1" stroke-opacity="0.055"/>
  <path d="M-910 1120 L210 0" fill="none" stroke="#8a7a2d" stroke-width="1" stroke-opacity="0.055"/>
  <path d="M-868 1120 L252 0" fill="none" stroke="#8a7a2d" stroke-width="1" stroke-opacity="0.055"/>
  <path d="M-826 1120 L294 0" fill="none" stroke="#8a7a2d" stroke-width="1" stroke-opacity="0.055"/>
  <path d="M-784 1120 L336 0" fill="none" stroke="#8a7a2d" stroke-width="1" stroke-opacity="0.055"/>
  <path d="M-742 1120 L378 0" fill="none" stroke="#8a7a2d" stroke-width="1" stroke-opacity="0.055"/>
  <path d="M-700 1120 L420 0" fill="none" stroke="#8a7a2d" stroke-width="1" stroke-opacity="0.055"/>
  <path d="M-658 1120 L462 0" fill="none" stroke="#8a7a2d" stroke-width="1" stroke-opacity="0.055"/>
  <path d="M-616 1120 L504 0" fill="none" stroke="#8a7a2d" stroke-width="1" stroke-opacity="0.055"/>
  <path d="M-574 1120 L546 0" fill="none" stroke="#8a7a2d" stroke-width="1" stroke-opacity="0.055"/>
  <path d="M-532 1120 L588 0" fill="none" stroke="#8a7a2d" stroke-width="1" stroke-opacity="0.055"/>
  <path d="M-490 1120 L630 0" fill="none" stroke="#8a7a2d" stroke-width="1" stroke-opacity="0.055"/>
  <path d="M-448 1120 L672 0" fill="none" stroke="#8a7a2d" stroke-width="1" stroke-opacity="0.055"/>
  <path d="M-406 1120 L714 0" fill="none" stroke="#8a7a2d" stroke-width="1" stroke-opacity="0.055"/>
  <path d="M-364 1120 L756 0" fill="none" stroke="#8a7a2d" stroke-width="1" stroke-opacity="0.055"/>
  <path d="M-322 1120 L798 0" fill="none" stroke="#8a7a2d" stroke-width="1" stroke-opacity="0.055"/>
  <path d="M-280 1120 L840 0" fill="none" stroke="#8a7a2d" stroke-width="1" stroke-opacity="0.055"/>
  <path d="M-238 1120 L882 0" fill="none" stroke="#8a7a2d" stroke-width="1" stroke-opacity="0.055"/>
  <path d="M-196 1120 L924 0" fill="none" stroke="#8a7a2d" stroke-width="1" stroke-opacity="0.055"/>
  <path d="M-154 1120 L966 0" fill="none" stroke="#8a7a2d" stroke-width="1" stroke-opacity="0.055"/>
  <path d="M-112 1120 L1008 0" fill="none" stroke="#8a7a2d" stroke-width="1" stroke-opacity="0.055"/>
  <path d="M-70 1120 L1050 0" fill="none" stroke="#8a7a2d" stroke-width="1" stroke-opacity="0.055"/>
  <path d="M-28 1120 L1092 0" fill="none" stroke="#8a7a2d" stroke-width="1" stroke-opacity="0.055"/>
  <path d="M14 1120 L1134 0" fill="none" stroke="#8a7a2d" stroke-width="1" stroke-opacity="0.055"/>
  <path d="M56 1120 L1176 0" fill="none" stroke="#8a7a2d" stroke-width="1" stroke-opacity="0.055"/>
  <path d="M98 1120 L1218 0" fill="none" stroke="#8a7a2d" stroke-width="1" stroke-opacity="0.055"/>
  <path d="M140 1120 L1260 0" fill="none" stroke="#8a7a2d" stroke-width="1" stroke-opacity="0.055"/>
  <path d="M182 1120 L1302 0" fill="none" stroke="#8a7a2d" stroke-width="1" stroke-opacity="0.055"/>
  <path d="M224 1120 L1344 0" fill="none" stroke="#8a7a2d" stroke-width="1" stroke-opacity="0.055"/>
  <path d="M266 1120 L1386 0" fill="none" stroke="#8a7a2d" stroke-width="1" stroke-opacity="0.055"/>
  <path d="M308 1120 L1428 0" fill="none" stroke="#8a7a2d" stroke-width="1" stroke-opacity="0.055"/>
  <path d="M350 1120 L1470 0" fill="none" stroke="#8a7a2d" stroke-width="1" stroke-opacity="0.055"/>
  <path d="M392 1120 L1512 0" fill="none" stroke="#8a7a2d" stroke-width="1" stroke-opacity="0.055"/>
  <path d="M434 1120 L1554 0" fill="none" stroke="#8a7a2d" stroke-width="1" stroke-opacity="0.055"/>
  <path d="M476 1120 L1596 0" fill="none" stroke="#8a7a2d" stroke-width="1" stroke-opacity="0.055"/>
  <path d="M518 1120 L1638 0" fill="none" stroke="#8a7a2d" stroke-width="1" stroke-opacity="0.055"/>
  <path d="M560 1120 L1680 0" fill="none" stroke="#8a7a2d" stroke-width="1" stroke-opacity="0.055"/>
  <path d="M602 1120 L1722 0" fill="none" stroke="#8a7a2d" stroke-width="1" stroke-opacity="0.055"/>
  <path d="M644 1120 L1764 0" fill="none" stroke="#8a7a2d" stroke-width="1" stroke-opacity="0.055"/>
  <path d="M686 1120 L1806 0" fill="none" stroke="#8a7a2d" stroke-width="1" stroke-opacity="0.055"/>
  <path d="M728 1120 L1848 0" fill="none" stroke="#8a7a2d" stroke-width="1" stroke-opacity="0.055"/>
  <path d="M770 1120 L1890 0" fill="none" stroke="#8a7a2d" stroke-width="1" stroke-opacity="0.055"/>
  <path d="M812 1120 L1932 0" fill="none" stroke="#8a7a2d" stroke-width="1" stroke-opacity="0.055"/>
  <path d="M854 1120 L1974 0" fill="none" stroke="#8a7a2d" stroke-width="1" stroke-opacity="0.055"/>
  <path d="M896 1120 L2016 0" fill="none" stroke="#8a7a2d" stroke-width="1" stroke-opacity="0.055"/>
  <path d="M938 1120 L2058 0" fill="none" stroke="#8a7a2d" stroke-width="1" stroke-opacity="0.055"/>
  <path d="M980 1120 L2100 0" fill="none" stroke="#8a7a2d" stroke-width="1" stroke-opacity="0.055"/>
  <path d="M1022 1120 L2142 0" fill="none" stroke="#8a7a2d" stroke-width="1" stroke-opacity="0.055"/>
  <path d="M1064 1120 L2184 0" fill="none" stroke="#8a7a2d" stroke-width="1" stroke-opacity="0.055"/>
  <path d="M1106 1120 L2226 0" fill="none" stroke="#8a7a2d" stroke-width="1" stroke-opacity="0.055"/>
  <path d="M1148 1120 L2268 0" fill="none" stroke="#8a7a2d" stroke-width="1" stroke-opacity="0.055"/>
  <path d="M1190 1120 L2310 0" fill="none" stroke="#8a7a2d" stroke-width="1" stroke-opacity="0.055"/>
  <path d="M1232 1120 L2352 0" fill="none" stroke="#8a7a2d" stroke-width="1" stroke-opacity="0.055"/>
  <path d="M1274 1120 L2394 0" fill="none" stroke="#8a7a2d" stroke-width="1" stroke-opacity="0.055"/>
  <path d="M1316 1120 L2436 0" fill="none" stroke="#8a7a2d" stroke-width="1" stroke-opacity="0.055"/>
  <path d="M1358 1120 L2478 0" fill="none" stroke="#8a7a2d" stroke-width="1" stroke-opacity="0.055"/>
  <path d="M1400 1120 L2520 0" fill="none" stroke="#8a7a2d" stroke-width="1" stroke-opacity="0.055"/>
  <path d="M1442 1120 L2562 0" fill="none" stroke="#8a7a2d" stroke-width="1" stroke-opacity="0.055"/>
  <path d="M1484 1120 L2604 0" fill="none" stroke="#8a7a2d" stroke-width="1" stroke-opacity="0.055"/>
  <path d="M1526 1120 L2646 0" fill="none" stroke="#8a7a2d" stroke-width="1" stroke-opacity="0.055"/>
  <path d="M1568 1120 L2688 0" fill="none" stroke="#8a7a2d" stroke-width="1" stroke-opacity="0.055"/>
  <path d="M1610 1120 L2730 0" fill="none" stroke="#8a7a2d" stroke-width="1" stroke-opacity="0.055"/>
  <path d="M1652 1120 L2772 0" fill="none" stroke="#8a7a2d" stroke-width="1" stroke-opacity="0.055"/>
  <path d="M1694 1120 L2814 0" fill="none" stroke="#8a7a2d" stroke-width="1" stroke-opacity="0.055"/>
  <path d="M1736 1120 L2856 0" fill="none" stroke="#8a7a2d" stroke-width="1" stroke-opacity="0.055"/>
  <path d="M1778 1120 L2898 0" fill="none" stroke="#8a7a2d" stroke-width="1" stroke-opacity="0.055"/>
    <path d="M-144 -150 C324 -224 576 -76 936 -150 S1476 -224 1944.0000000000002 -131.5" fill="none" stroke="#315a8c" stroke-width="1.2" stroke-opacity="0.1" stroke-linecap="round"/>
  <path d="M-144 0 C324 -74 576 74 936 0 S1476 -74 1944.0000000000002 18.5" fill="none" stroke="#315a8c" stroke-width="1.2" stroke-opacity="0.1" stroke-linecap="round"/>
  <path d="M-144 150 C324 76 576 224 936 150 S1476 76 1944.0000000000002 168.5" fill="none" stroke="#315a8c" stroke-width="1.2" stroke-opacity="0.1" stroke-linecap="round"/>
  <path d="M-144 300 C324 226 576 374 936 300 S1476 226 1944.0000000000002 318.5" fill="none" stroke="#315a8c" stroke-width="1.2" stroke-opacity="0.1" stroke-linecap="round"/>
  <path d="M-144 450 C324 376 576 524 936 450 S1476 376 1944.0000000000002 468.5" fill="none" stroke="#315a8c" stroke-width="1.2" stroke-opacity="0.1" stroke-linecap="round"/>
  <path d="M-144 600 C324 526 576 674 936 600 S1476 526 1944.0000000000002 618.5" fill="none" stroke="#315a8c" stroke-width="1.2" stroke-opacity="0.1" stroke-linecap="round"/>
  <path d="M-144 750 C324 676 576 824 936 750 S1476 676 1944.0000000000002 768.5" fill="none" stroke="#315a8c" stroke-width="1.2" stroke-opacity="0.1" stroke-linecap="round"/>
  <path d="M-144 900 C324 826 576 974 936 900 S1476 826 1944.0000000000002 918.5" fill="none" stroke="#315a8c" stroke-width="1.2" stroke-opacity="0.1" stroke-linecap="round"/>
  <path d="M-144 1050 C324 976 576 1124 936 1050 S1476 976 1944.0000000000002 1068.5" fill="none" stroke="#315a8c" stroke-width="1.2" stroke-opacity="0.1" stroke-linecap="round"/>
  <path d="M-144 1200 C324 1126 576 1274 936 1200 S1476 1126 1944.0000000000002 1218.5" fill="none" stroke="#315a8c" stroke-width="1.2" stroke-opacity="0.1" stroke-linecap="round"/>
  <path d="M-144 1350 C324 1276 576 1424 936 1350 S1476 1276 1944.0000000000002 1368.5" fill="none" stroke="#315a8c" stroke-width="1.2" stroke-opacity="0.1" stroke-linecap="round"/>
  <path d="M-144 1500 C324 1426 576 1574 936 1500 S1476 1426 1944.0000000000002 1518.5" fill="none" stroke="#315a8c" stroke-width="1.2" stroke-opacity="0.1" stroke-linecap="round"/>
  </g>
  <g clip-path="url(#frameClip)">
    <rect x="64" y="64" width="1672" height="992" fill="url(#wash)"/>
    <circle cx="590.1" cy="269.1" r="115.0" fill="#7e979d" opacity="0.52"/>
    <path d="M64 500 L64.0 394.4 L249.8 447.0 L435.6 393.6 L621.3 386.3 L807.1 394.9 L992.9 385.7 L1178.7 445.7 L1364.4 378.4 L1550.2 391.3 L1736.0 353.7 L1736 500 L1736 1120 L64 1120Z" fill="#5d798a" opacity="0.74"/>
    <path d="M51.41255493834615 671.354711856693 L86.41255493834615 366.30162633024156 L121.41255493834615 671.354711856693Z" fill="#2b4e68" opacity="0.82"/>
    <path d="M87.07101522758603 746.8628350319341 L122.07101522758603 453.4254744602367 L157.07101522758603 746.8628350319341Z" fill="#64622c" opacity="0.82"/>
    <path d="M129.0401823669672 787.5866752816364 L164.0401823669672 590.7933329069056 L199.0401823669672 787.5866752816364Z" fill="#2b4e68" opacity="0.82"/>
    <path d="M176.95310872793198 721.0087157017551 L211.95310872793198 598.0806051753461 L246.95310872793198 721.0087157017551Z" fill="#64622c" opacity="0.82"/>
    <path d="M210.8816009759903 677.7161170728505 L245.8816009759903 523.7442541448399 L280.8816009759903 677.7161170728505Z" fill="#2b4e68" opacity="0.82"/>
    <path d="M257.1063672378659 822.6119492738508 L292.1063672378659 621.5799904358573 L327.1063672378659 822.6119492738508Z" fill="#64622c" opacity="0.82"/>
    <path d="M308.4559292830527 694.1739782015793 L343.4559292830527 559.8157498473302 L378.4559292830527 694.1739782015793Z" fill="#2b4e68" opacity="0.82"/>
    <path d="M349.9089458025992 842.0291987503879 L384.9089458025992 683.2485838537104 L419.9089458025992 842.0291987503879Z" fill="#64622c" opacity="0.82"/>
    <path d="M392.2618282549083 739.0416299877688 L427.2618282549083 519.6856552711688 L462.2618282549083 739.0416299877688Z" fill="#2b4e68" opacity="0.82"/>
    <path d="M420.4280707202852 849.5800880063325 L455.4280707202852 661.5006775828078 L490.4280707202852 849.5800880063325Z" fill="#64622c" opacity="0.82"/>
    <path d="M477.7755138576031 725.8829034608789 L512.7755138576031 479.5575870969333 L547.7755138576031 725.8829034608789Z" fill="#2b4e68" opacity="0.82"/>
    <path d="M508.2291308157146 804.1090528061613 L543.2291308157146 663.5115757002495 L578.2291308157146 804.1090528061613Z" fill="#64622c" opacity="0.82"/>
    <path d="M561.248993229121 762.6420120103285 L596.248993229121 564.6996946563013 L631.248993229121 762.6420120103285Z" fill="#2b4e68" opacity="0.82"/>
    <path d="M596.4884936138988 752.2505298582837 L631.4884936138988 607.2095986269414 L666.4884936138988 752.2505298582837Z" fill="#64622c" opacity="0.82"/>
    <path d="M634.7669800594449 770.1236715074629 L669.7669800594449 470.9237600211054 L704.7669800594449 770.1236715074629Z" fill="#2b4e68" opacity="0.82"/>
    <path d="M673.1981307864189 751.849869848229 L708.1981307864189 528.824204003904 L743.1981307864189 751.849869848229Z" fill="#64622c" opacity="0.82"/>
    <path d="M718.7758378311992 783.2543290476315 L753.7758378311992 590.8076986973174 L788.7758378311992 783.2543290476315Z" fill="#2b4e68" opacity="0.82"/>
    <path d="M757.1000266745687 707.9484239034355 L792.1000266745687 587.3562870710157 L827.1000266745687 707.9484239034355Z" fill="#64622c" opacity="0.82"/>
    <path d="M800.1388923600316 717.2408525738865 L835.1388923600316 507.8703908412717 L870.1388923600316 717.2408525738865Z" fill="#2b4e68" opacity="0.82"/>
    <path d="M855.6540747620165 729.5423766691238 L890.6540747620165 470.24827908724546 L925.6540747620165 729.5423766691238Z" fill="#64622c" opacity="0.82"/>
    <path d="M886.4644723013043 749.5759821683168 L921.4644723013043 470.25324071291834 L956.4644723013043 749.5759821683168Z" fill="#2b4e68" opacity="0.82"/>
    <path d="M928.7718081213534 840.8398910867982 L963.7718081213534 712.3684147396125 L998.7718081213534 840.8398910867982Z" fill="#64622c" opacity="0.82"/>
    <path d="M974.3782625570893 712.7616115100682 L1009.3782625570893 554.8914113058709 L1044.3782625570893 712.7616115100682Z" fill="#2b4e68" opacity="0.82"/>
    <path d="M1011.9774180017412 778.7419812381268 L1046.9774180017412 520.6738478410989 L1081.9774180017412 778.7419812381268Z" fill="#64622c" opacity="0.82"/>
    <path d="M1065.497165799141 687.9063969827257 L1100.497165799141 439.2450476018712 L1135.497165799141 687.9063969827257Z" fill="#2b4e68" opacity="0.82"/>
    <path d="M1103.9048104062676 732.6234311051667 L1138.9048104062676 550.0943736894988 L1173.9048104062676 732.6234311051667Z" fill="#64622c" opacity="0.82"/>
    <path d="M1141.1866070330143 831.9542238395661 L1176.1866070330143 633.9588925871067 L1211.1866070330143 831.9542238395661Z" fill="#2b4e68" opacity="0.82"/>
    <path d="M1190.3654878512025 770.9447236312553 L1225.3654878512025 643.4044150449336 L1260.3654878512025 770.9447236312553Z" fill="#64622c" opacity="0.82"/>
    <path d="M1232.7950886115432 753.4863527072594 L1267.7950886115432 444.8189934808761 L1302.7950886115432 753.4863527072594Z" fill="#2b4e68" opacity="0.82"/>
    <path d="M1269.8007867597044 772.6857651490718 L1304.8007867597044 548.9727530791424 L1339.8007867597044 772.6857651490718Z" fill="#64622c" opacity="0.82"/>
    <path d="M1310.5185342244804 729.2563204886392 L1345.5185342244804 554.6521996171214 L1380.5185342244804 729.2563204886392Z" fill="#2b4e68" opacity="0.82"/>
    <path d="M1357.350537776947 677.5527302501723 L1392.350537776947 423.5156613541767 L1427.350537776947 677.5527302501723Z" fill="#64622c" opacity="0.82"/>
    <path d="M1390.050814166665 674.4188391324133 L1425.050814166665 501.6028243978508 L1460.050814166665 674.4188391324133Z" fill="#2b4e68" opacity="0.82"/>
    <path d="M1431.8425006270409 718.6100905016065 L1466.8425006270409 518.6088924761862 L1501.8425006270409 718.6100905016065Z" fill="#64622c" opacity="0.82"/>
    <path d="M1485.5061292648315 848.6200153408572 L1520.5061292648315 588.6279249051586 L1555.5061292648315 848.6200153408572Z" fill="#2b4e68" opacity="0.82"/>
    <path d="M1520.154934220016 742.9020839836448 L1555.154934220016 487.6780391554348 L1590.154934220016 742.9020839836448Z" fill="#64622c" opacity="0.82"/>
    <path d="M1567.3478622734547 836.185244359076 L1602.3478622734547 663.9922116766684 L1637.3478622734547 836.185244359076Z" fill="#2b4e68" opacity="0.82"/>
    <path d="M1598.6098961532116 751.8076952337287 L1633.6098961532116 576.5451379073784 L1668.6098961532116 751.8076952337287Z" fill="#64622c" opacity="0.82"/>
    <path d="M1649.3056969083846 841.7704159393907 L1684.3056969083846 572.3597512673587 L1719.3056969083846 841.7704159393907Z" fill="#2b4e68" opacity="0.82"/>
    <path d="M1688.6246797516942 848.2576636923477 L1723.6246797516942 703.5779960360378 L1758.6246797516942 848.2576636923477Z" fill="#64622c" opacity="0.82"/>
    <path d="M1722.346581198275 774.570657403674 L1757.346581198275 474.1756645985879 L1792.346581198275 774.570657403674Z" fill="#2b4e68" opacity="0.82"/>
    <path d="M1764.4746166877449 786.5613586409017 L1799.4746166877449 619.2511914973147 L1834.4746166877449 786.5613586409017Z" fill="#64622c" opacity="0.82"/>
    <path d="M64 860 C320 800 590 890 910 820 C1230 750 1460 830 1736 770 L1736 1056 L64 1056Z" fill="#605f2d"/>
    <path d="M180 848.0 C400 740.0 560 936.0 770 828.0 S1130 688.0 1328 796.0 S1540 886.0 1644 766.0" fill="none" stroke="#d5ccaa" stroke-width="24" stroke-linecap="round" stroke-linejoin="round" opacity="0.74" filter="url(#assetShadow)"/>
    <path d="M180 848.0 C400 740.0 560 936.0 770 828.0 S1130 688.0 1328 796.0 S1540 886.0 1644 766.0" fill="none" stroke="#8a7a2d" stroke-width="13" stroke-linecap="round" stroke-linejoin="round" opacity="0.82"/>
    <path d="M180 848.0 C400 740.0 560 936.0 770 828.0 S1130 688.0 1328 796.0 S1540 886.0 1644 766.0" fill="none" stroke="#315a8c" stroke-width="4.5" stroke-linecap="round" stroke-linejoin="round" stroke-dasharray="16 18" opacity="0.58"/>
    <rect x="64" y="64" width="1672" height="992" fill="#20231f" opacity="0.035"/>
  </g>
  <rect x="64" y="64" width="1672" height="992" rx="28" fill="none" stroke="#fffaf0" stroke-opacity="0.52" stroke-width="3"/>
  <rect x="88" y="88" width="1624" height="944" rx="20" fill="none" stroke="#20231f" stroke-opacity="0.1" stroke-width="1.5"/>
  <g transform="translate(112 100)">
    <g transform="rotate(-3 36 36)">
    <rect x="0" y="0" width="72" height="72" rx="10.080000000000002" fill="#9f3525"/>
    <rect x="7.2" y="7.2" width="57.6" height="57.6" rx="7.2" fill="none" stroke="#fff2df" stroke-opacity="0.72" stroke-width="2.5200000000000005"/>
    <text x="36" y="43.199999999999996" text-anchor="middle" fill="#fff7e8" font-family="'Kaiti SC','STKaiti','FZKai-Z03S','KaiTi','Songti SC','STSong','Noto Serif CJK SC',serif" font-size="33.120000000000005" font-weight="900">段</text>
    <text x="36" y="56.160000000000004" text-anchor="middle" fill="#fff2df" font-family="'Avenir Next',Avenir,Arial,sans-serif" font-size="10.080000000000002" font-weight="900" letter-spacing="0.8">01</text>
  </g>
    <text x="92" y="30" fill="#20231f" fill-opacity="0.62" font-family="'Kaiti SC','STKaiti','FZKai-Z03S','KaiTi','Songti SC','STSong','Noto Serif CJK SC',serif" font-size="23" font-weight="900">西纵 / 第 01 段</text>
    <text x="92" y="70" fill="#8a7a2d" font-family="'Songti SC','STSong','Source Han Serif SC','Noto Serif CJK SC','SimSun',serif" font-size="44" font-weight="900">勐腊</text>
  </g>
  <text x="1688" y="994" text-anchor="end" fill="#fffaf0" fill-opacity="0.72" font-family="'Avenir Next',Avenir,Arial,sans-serif" font-size="18" font-weight="900" letter-spacing="4">ROADTRIP CHINA</text>
  <rect width="1800" height="1120" fill="#3b3020" filter="url(#paperGrain)" opacity="0.22"/>
</svg>
