<svg xmlns="http://www.w3.org/2000/svg" viewBox="0 0 1800 1120" role="img" aria-label="库车、独山子、克拉玛依、喀纳斯把路线翻过天山并带入北疆。 峡谷、独库意象、油城、阿尔泰山和喀纳斯湖泊共同构成北端高潮。">
  <defs>
    
    <linearGradient id="paper" x1="0" x2="1" y1="0" y2="1">
      <stop offset="0" stop-color="#fffaf0"/>
      <stop offset="0.48" stop-color="#f1ebd9"/>
      <stop offset="1" stop-color="#c9c5ba"/>
    </linearGradient>
    <filter id="paperGrain" x="0" y="0" width="100%" height="100%">
      <feTurbulence baseFrequency="0.74" numOctaves="2" seed="9" type="fractalNoise"/>
      <feColorMatrix type="saturate" values="0"/>
      <feComponentTransfer>
        <feFuncA type="table" tableValues="0 0.13"/>
      </feComponentTransfer>
    </filter>
    <filter id="assetShadow" x="-18%" y="-18%" width="136%" height="136%">
      <feDropShadow dx="0" dy="18" stdDeviation="18" flood-color="#2f261a" flood-opacity="0.16"/>
    </filter>
    <clipPath id="frameClip">
      <rect x="64" y="64" width="1672" height="992" rx="28"/>
    </clipPath>
    <linearGradient id="wash" x1="0" x2="1" y1="0" y2="1">
      <stop offset="0" stop-color="#ced4d8"/>
      <stop offset="0.52" stop-color="#ece6d1"/>
      <stop offset="1" stop-color="#c0b182"/>
    </linearGradient>
  </defs>
  <rect width="1800" height="1120" fill="url(#paper)"/>
  <g opacity="0.72">
    <path d="M-1120 1120 L0 0" fill="none" stroke="#8a7a2d" stroke-width="1" stroke-opacity="0.055"/>
  <path d="M-1078 1120 L42 0" fill="none" stroke="#8a7a2d" stroke-width="1" stroke-opacity="0.055"/>
  <path d="M-1036 1120 L84 0" fill="none" stroke="#8a7a2d" stroke-width="1" stroke-opacity="0.055"/>
  <path d="M-994 1120 L126 0" fill="none" stroke="#8a7a2d" stroke-width="1" stroke-opacity="0.055"/>
  <path d="M-952 1120 L168 0" fill="none" stroke="#8a7a2d" stroke-width="1" stroke-opacity="0.055"/>
  <path d="M-910 1120 L210 0" fill="none" stroke="#8a7a2d" stroke-width="1" stroke-opacity="0.055"/>
  <path d="M-868 1120 L252 0" fill="none" stroke="#8a7a2d" stroke-width="1" stroke-opacity="0.055"/>
  <path d="M-826 1120 L294 0" fill="none" stroke="#8a7a2d" stroke-width="1" stroke-opacity="0.055"/>
  <path d="M-784 1120 L336 0" fill="none" stroke="#8a7a2d" stroke-width="1" stroke-opacity="0.055"/>
  <path d="M-742 1120 L378 0" fill="none" stroke="#8a7a2d" stroke-width="1" stroke-opacity="0.055"/>
  <path d="M-700 1120 L420 0" fill="none" stroke="#8a7a2d" stroke-width="1" stroke-opacity="0.055"/>
  <path d="M-658 1120 L462 0" fill="none" stroke="#8a7a2d" stroke-width="1" stroke-opacity="0.055"/>
  <path d="M-616 1120 L504 0" fill="none" stroke="#8a7a2d" stroke-width="1" stroke-opacity="0.055"/>
  <path d="M-574 1120 L546 0" fill="none" stroke="#8a7a2d" stroke-width="1" stroke-opacity="0.055"/>
  <path d="M-532 1120 L588 0" fill="none" stroke="#8a7a2d" stroke-width="1" stroke-opacity="0.055"/>
  <path d="M-490 1120 L630 0" fill="none" stroke="#8a7a2d" stroke-width="1" stroke-opacity="0.055"/>
  <path d="M-448 1120 L672 0" fill="none" stroke="#8a7a2d" stroke-width="1" stroke-opacity="0.055"/>
  <path d="M-406 1120 L714 0" fill="none" stroke="#8a7a2d" stroke-width="1" stroke-opacity="0.055"/>
  <path d="M-364 1120 L756 0" fill="none" stroke="#8a7a2d" stroke-width="1" stroke-opacity="0.055"/>
  <path d="M-322 1120 L798 0" fill="none" stroke="#8a7a2d" stroke-width="1" stroke-opacity="0.055"/>
  <path d="M-280 1120 L840 0" fill="none" stroke="#8a7a2d" stroke-width="1" stroke-opacity="0.055"/>
  <path d="M-238 1120 L882 0" fill="none" stroke="#8a7a2d" stroke-width="1" stroke-opacity="0.055"/>
  <path d="M-196 1120 L924 0" fill="none" stroke="#8a7a2d" stroke-width="1" stroke-opacity="0.055"/>
  <path d="M-154 1120 L966 0" fill="none" stroke="#8a7a2d" stroke-width="1" stroke-opacity="0.055"/>
  <path d="M-112 1120 L1008 0" fill="none" stroke="#8a7a2d" stroke-width="1" stroke-opacity="0.055"/>
  <path d="M-70 1120 L1050 0" fill="none" stroke="#8a7a2d" stroke-width="1" stroke-opacity="0.055"/>
  <path d="M-28 1120 L1092 0" fill="none" stroke="#8a7a2d" stroke-width="1" stroke-opacity="0.055"/>
  <path d="M14 1120 L1134 0" fill="none" stroke="#8a7a2d" stroke-width="1" stroke-opacity="0.055"/>
  <path d="M56 1120 L1176 0" fill="none" stroke="#8a7a2d" stroke-width="1" stroke-opacity="0.055"/>
  <path d="M98 1120 L1218 0" fill="none" stroke="#8a7a2d" stroke-width="1" stroke-opacity="0.055"/>
  <path d="M140 1120 L1260 0" fill="none" stroke="#8a7a2d" stroke-width="1" stroke-opacity="0.055"/>
  <path d="M182 1120 L1302 0" fill="none" stroke="#8a7a2d" stroke-width="1" stroke-opacity="0.055"/>
  <path d="M224 1120 L1344 0" fill="none" stroke="#8a7a2d" stroke-width="1" stroke-opacity="0.055"/>
  <path d="M266 1120 L1386 0" fill="none" stroke="#8a7a2d" stroke-width="1" stroke-opacity="0.055"/>
  <path d="M308 1120 L1428 0" fill="none" stroke="#8a7a2d" stroke-width="1" stroke-opacity="0.055"/>
  <path d="M350 1120 L1470 0" fill="none" stroke="#8a7a2d" stroke-width="1" stroke-opacity="0.055"/>
  <path d="M392 1120 L1512 0" fill="none" stroke="#8a7a2d" stroke-width="1" stroke-opacity="0.055"/>
  <path d="M434 1120 L1554 0" fill="none" stroke="#8a7a2d" stroke-width="1" stroke-opacity="0.055"/>
  <path d="M476 1120 L1596 0" fill="none" stroke="#8a7a2d" stroke-width="1" stroke-opacity="0.055"/>
  <path d="M518 1120 L1638 0" fill="none" stroke="#8a7a2d" stroke-width="1" stroke-opacity="0.055"/>
  <path d="M560 1120 L1680 0" fill="none" stroke="#8a7a2d" stroke-width="1" stroke-opacity="0.055"/>
  <path d="M602 1120 L1722 0" fill="none" stroke="#8a7a2d" stroke-width="1" stroke-opacity="0.055"/>
  <path d="M644 1120 L1764 0" fill="none" stroke="#8a7a2d" stroke-width="1" stroke-opacity="0.055"/>
  <path d="M686 1120 L1806 0" fill="none" stroke="#8a7a2d" stroke-width="1" stroke-opacity="0.055"/>
  <path d="M728 1120 L1848 0" fill="none" stroke="#8a7a2d" stroke-width="1" stroke-opacity="0.055"/>
  <path d="M770 1120 L1890 0" fill="none" stroke="#8a7a2d" stroke-width="1" stroke-opacity="0.055"/>
  <path d="M812 1120 L1932 0" fill="none" stroke="#8a7a2d" stroke-width="1" stroke-opacity="0.055"/>
  <path d="M854 1120 L1974 0" fill="none" stroke="#8a7a2d" stroke-width="1" stroke-opacity="0.055"/>
  <path d="M896 1120 L2016 0" fill="none" stroke="#8a7a2d" stroke-width="1" stroke-opacity="0.055"/>
  <path d="M938 1120 L2058 0" fill="none" stroke="#8a7a2d" stroke-width="1" stroke-opacity="0.055"/>
  <path d="M980 1120 L2100 0" fill="none" stroke="#8a7a2d" stroke-width="1" stroke-opacity="0.055"/>
  <path d="M1022 1120 L2142 0" fill="none" stroke="#8a7a2d" stroke-width="1" stroke-opacity="0.055"/>
  <path d="M1064 1120 L2184 0" fill="none" stroke="#8a7a2d" stroke-width="1" stroke-opacity="0.055"/>
  <path d="M1106 1120 L2226 0" fill="none" stroke="#8a7a2d" stroke-width="1" stroke-opacity="0.055"/>
  <path d="M1148 1120 L2268 0" fill="none" stroke="#8a7a2d" stroke-width="1" stroke-opacity="0.055"/>
  <path d="M1190 1120 L2310 0" fill="none" stroke="#8a7a2d" stroke-width="1" stroke-opacity="0.055"/>
  <path d="M1232 1120 L2352 0" fill="none" stroke="#8a7a2d" stroke-width="1" stroke-opacity="0.055"/>
  <path d="M1274 1120 L2394 0" fill="none" stroke="#8a7a2d" stroke-width="1" stroke-opacity="0.055"/>
  <path d="M1316 1120 L2436 0" fill="none" stroke="#8a7a2d" stroke-width="1" stroke-opacity="0.055"/>
  <path d="M1358 1120 L2478 0" fill="none" stroke="#8a7a2d" stroke-width="1" stroke-opacity="0.055"/>
  <path d="M1400 1120 L2520 0" fill="none" stroke="#8a7a2d" stroke-width="1" stroke-opacity="0.055"/>
  <path d="M1442 1120 L2562 0" fill="none" stroke="#8a7a2d" stroke-width="1" stroke-opacity="0.055"/>
  <path d="M1484 1120 L2604 0" fill="none" stroke="#8a7a2d" stroke-width="1" stroke-opacity="0.055"/>
  <path d="M1526 1120 L2646 0" fill="none" stroke="#8a7a2d" stroke-width="1" stroke-opacity="0.055"/>
  <path d="M1568 1120 L2688 0" fill="none" stroke="#8a7a2d" stroke-width="1" stroke-opacity="0.055"/>
  <path d="M1610 1120 L2730 0" fill="none" stroke="#8a7a2d" stroke-width="1" stroke-opacity="0.055"/>
  <path d="M1652 1120 L2772 0" fill="none" stroke="#8a7a2d" stroke-width="1" stroke-opacity="0.055"/>
  <path d="M1694 1120 L2814 0" fill="none" stroke="#8a7a2d" stroke-width="1" stroke-opacity="0.055"/>
  <path d="M1736 1120 L2856 0" fill="none" stroke="#8a7a2d" stroke-width="1" stroke-opacity="0.055"/>
  <path d="M1778 1120 L2898 0" fill="none" stroke="#8a7a2d" stroke-width="1" stroke-opacity="0.055"/>
    <path d="M-144 -150 C324 -224 576 -76 936 -150 S1476 -224 1944.0000000000002 -131.5" fill="none" stroke="#315a8c" stroke-width="1.2" stroke-opacity="0.1" stroke-linecap="round"/>
  <path d="M-144 0 C324 -74 576 74 936 0 S1476 -74 1944.0000000000002 18.5" fill="none" stroke="#315a8c" stroke-width="1.2" stroke-opacity="0.1" stroke-linecap="round"/>
  <path d="M-144 150 C324 76 576 224 936 150 S1476 76 1944.0000000000002 168.5" fill="none" stroke="#315a8c" stroke-width="1.2" stroke-opacity="0.1" stroke-linecap="round"/>
  <path d="M-144 300 C324 226 576 374 936 300 S1476 226 1944.0000000000002 318.5" fill="none" stroke="#315a8c" stroke-width="1.2" stroke-opacity="0.1" stroke-linecap="round"/>
  <path d="M-144 450 C324 376 576 524 936 450 S1476 376 1944.0000000000002 468.5" fill="none" stroke="#315a8c" stroke-width="1.2" stroke-opacity="0.1" stroke-linecap="round"/>
  <path d="M-144 600 C324 526 576 674 936 600 S1476 526 1944.0000000000002 618.5" fill="none" stroke="#315a8c" stroke-width="1.2" stroke-opacity="0.1" stroke-linecap="round"/>
  <path d="M-144 750 C324 676 576 824 936 750 S1476 676 1944.0000000000002 768.5" fill="none" stroke="#315a8c" stroke-width="1.2" stroke-opacity="0.1" stroke-linecap="round"/>
  <path d="M-144 900 C324 826 576 974 936 900 S1476 826 1944.0000000000002 918.5" fill="none" stroke="#315a8c" stroke-width="1.2" stroke-opacity="0.1" stroke-linecap="round"/>
  <path d="M-144 1050 C324 976 576 1124 936 1050 S1476 976 1944.0000000000002 1068.5" fill="none" stroke="#315a8c" stroke-width="1.2" stroke-opacity="0.1" stroke-linecap="round"/>
  <path d="M-144 1200 C324 1126 576 1274 936 1200 S1476 1126 1944.0000000000002 1218.5" fill="none" stroke="#315a8c" stroke-width="1.2" stroke-opacity="0.1" stroke-linecap="round"/>
  <path d="M-144 1350 C324 1276 576 1424 936 1350 S1476 1276 1944.0000000000002 1368.5" fill="none" stroke="#315a8c" stroke-width="1.2" stroke-opacity="0.1" stroke-linecap="round"/>
  <path d="M-144 1500 C324 1426 576 1574 936 1500 S1476 1426 1944.0000000000002 1518.5" fill="none" stroke="#315a8c" stroke-width="1.2" stroke-opacity="0.1" stroke-linecap="round"/>
  </g>
  <g clip-path="url(#frameClip)">
    <rect x="64" y="64" width="1672" height="992" fill="url(#wash)"/>
    <circle cx="530.0" cy="247.4" r="127.2" fill="#7e979d" opacity="0.52"/>
    <path d="M64 500 L64.0 388.1 L249.8 450.0 L435.6 369.2 L621.3 387.9 L807.1 436.2 L992.9 388.3 L1178.7 393.2 L1364.4 435.5 L1550.2 452.1 L1736.0 355.0 L1736 500 L1736 1120 L64 1120Z" fill="#5d798a" opacity="0.74"/>
    <path d="M46.365599758923054 678.5299185290933 L81.36559975892305 499.4856869382784 L116.36559975892305 678.5299185290933Z" fill="#2b4e68" opacity="0.82"/>
    <path d="M90.25031605735421 769.525968185626 L125.25031605735421 503.9544146624394 L160.2503160573542 769.525968185626Z" fill="#64622c" opacity="0.82"/>
    <path d="M134.99546029046178 732.9319581086747 L169.99546029046178 598.7341881217435 L204.99546029046178 732.9319581086747Z" fill="#2b4e68" opacity="0.82"/>
    <path d="M172.3979333229363 807.0996923884377 L207.3979333229363 655.2350558782928 L242.3979333229363 807.0996923884377Z" fill="#64622c" opacity="0.82"/>
    <path d="M221.63260788097978 728.6364598572254 L256.6326078809798 521.9568760739639 L291.6326078809798 728.6364598572254Z" fill="#2b4e68" opacity="0.82"/>
    <path d="M263.3891534693539 729.640973971691 L298.3891534693539 478.6144994548522 L333.3891534693539 729.640973971691Z" fill="#64622c" opacity="0.82"/>
    <path d="M305.9465520083904 692.1650777757168 L340.9465520083904 568.4234092338011 L375.9465520083904 692.1650777757168Z" fill="#2b4e68" opacity="0.82"/>
    <path d="M339.38657419383526 732.698160908185 L374.38657419383526 571.2633508164436 L409.38657419383526 732.698160908185Z" fill="#64622c" opacity="0.82"/>
    <path d="M382.753622636199 751.865062310826 L417.753622636199 584.7219144459814 L452.753622636199 751.865062310826Z" fill="#2b4e68" opacity="0.82"/>
    <path d="M428.2246569059789 698.0515479436144 L463.2246569059789 523.2952028675936 L498.2246569059789 698.0515479436144Z" fill="#64622c" opacity="0.82"/>
    <path d="M462.8371541760862 713.691168660298 L497.8371541760862 503.98702647536993 L532.8371541760862 713.691168660298Z" fill="#2b4e68" opacity="0.82"/>
    <path d="M512.2061114832759 682.5397710828111 L547.2061114832759 516.2085691187531 L582.2061114832759 682.5397710828111Z" fill="#64622c" opacity="0.82"/>
    <path d="M556.1164172962308 805.4944383795373 L591.1164172962308 627.4076672992669 L626.1164172962308 805.4944383795373Z" fill="#2b4e68" opacity="0.82"/>
    <path d="M600.2088490389287 694.9403617554344 L635.2088490389287 565.440205365885 L670.2088490389287 694.9403617554344Z" fill="#64622c" opacity="0.82"/>
    <path d="M638.7061248086393 854.5881989598274 L673.7061248086393 570.9074444859289 L708.7061248086393 854.5881989598274Z" fill="#2b4e68" opacity="0.82"/>
    <path d="M682.6685959286988 737.5426337681711 L717.6685959286988 615.6470369780436 L752.6685959286988 737.5426337681711Z" fill="#64622c" opacity="0.82"/>
    <path d="M716.21546632424 687.9506048117764 L751.21546632424 437.37349287373945 L786.21546632424 687.9506048117764Z" fill="#2b4e68" opacity="0.82"/>
    <path d="M758.1455142647028 831.9367104838602 L793.1455142647028 697.2966722934507 L828.1455142647028 831.9367104838602Z" fill="#64622c" opacity="0.82"/>
    <path d="M808.9915903881192 756.3205514685251 L843.9915903881192 468.6518302629702 L878.9915903881192 756.3205514685251Z" fill="#2b4e68" opacity="0.82"/>
    <path d="M840.6152124218643 672.7796777174808 L875.6152124218643 417.54537059925497 L910.6152124218643 672.7796777174808Z" fill="#64622c" opacity="0.82"/>
    <path d="M896.4263309240341 851.4558886364102 L931.4263309240341 727.7305406215601 L966.4263309240341 851.4558886364102Z" fill="#2b4e68" opacity="0.82"/>
    <path d="M934.59107735008 756.9230623356998 L969.59107735008 509.3120243190788 L1004.59107735008 756.9230623356998Z" fill="#64622c" opacity="0.82"/>
    <path d="M971.8052168190479 740.3261909284629 L1006.8052168190479 599.3218469363637 L1041.805216819048 740.3261909284629Z" fill="#2b4e68" opacity="0.82"/>
    <path d="M1015.152825333178 710.4964520409703 L1050.152825333178 529.2359502334148 L1085.152825333178 710.4964520409703Z" fill="#64622c" opacity="0.82"/>
    <path d="M1061.1654729247093 762.1513293590397 L1096.1654729247093 496.7175939050503 L1131.1654729247093 762.1513293590397Z" fill="#2b4e68" opacity="0.82"/>
    <path d="M1107.2318275421858 672.1703641791828 L1142.2318275421858 531.1131098051555 L1177.2318275421858 672.1703641791828Z" fill="#64622c" opacity="0.82"/>
    <path d="M1143.6432730704546 799.032569732517 L1178.6432730704546 665.79459534958 L1213.6432730704546 799.032569732517Z" fill="#2b4e68" opacity="0.82"/>
    <path d="M1188.8778973668814 810.7378671201877 L1223.8778973668814 668.1195901450701 L1258.8778973668814 810.7378671201877Z" fill="#64622c" opacity="0.82"/>
    <path d="M1221.83855387941 815.099659729749 L1256.83855387941 532.7779309265316 L1291.83855387941 815.099659729749Z" fill="#2b4e68" opacity="0.82"/>
    <path d="M1262.045993693173 842.7218982391059 L1297.045993693173 680.3682400449179 L1332.045993693173 842.7218982391059Z" fill="#64622c" opacity="0.82"/>
    <path d="M1303.0592337995768 840.0784566393122 L1338.0592337995768 655.9804525668733 L1373.0592337995768 840.0784566393122Z" fill="#2b4e68" opacity="0.82"/>
    <path d="M1347.317098416388 785.780144976452 L1382.317098416388 656.8050998984836 L1417.317098416388 785.780144976452Z" fill="#64622c" opacity="0.82"/>
    <path d="M1394.9589746408165 807.7606373489834 L1429.9589746408165 570.4055056534708 L1464.9589746408165 807.7606373489834Z" fill="#2b4e68" opacity="0.82"/>
    <path d="M1429.940818876028 781.7985812271945 L1464.940818876028 659.9209384457208 L1499.940818876028 781.7985812271945Z" fill="#64622c" opacity="0.82"/>
    <path d="M1478.7365030869842 700.0589938298799 L1513.7365030869842 475.7445366703905 L1548.7365030869842 700.0589938298799Z" fill="#2b4e68" opacity="0.82"/>
    <path d="M1519.0159067772329 797.4773779860698 L1554.0159067772329 636.1503954185173 L1589.0159067772329 797.4773779860698Z" fill="#64622c" opacity="0.82"/>
    <path d="M1564.696764178574 848.8329227338545 L1599.696764178574 675.6299465405755 L1634.696764178574 848.8329227338545Z" fill="#2b4e68" opacity="0.82"/>
    <path d="M1604.8081374876201 783.6998496158049 L1639.8081374876201 624.8687049956061 L1674.8081374876201 783.6998496158049Z" fill="#64622c" opacity="0.82"/>
    <path d="M1641.475953862071 714.5082860952243 L1676.475953862071 592.7503708563745 L1711.475953862071 714.5082860952243Z" fill="#2b4e68" opacity="0.82"/>
    <path d="M1688.90430149436 723.1290288618766 L1723.90430149436 503.3040273678489 L1758.90430149436 723.1290288618766Z" fill="#64622c" opacity="0.82"/>
    <path d="M1732.4539579078555 852.3494109837338 L1767.4539579078555 583.4075439814478 L1802.4539579078555 852.3494109837338Z" fill="#2b4e68" opacity="0.82"/>
    <path d="M1773.8496227152646 749.8310017562471 L1808.8496227152646 581.4784269989468 L1843.8496227152646 749.8310017562471Z" fill="#64622c" opacity="0.82"/>
    <path d="M64 860 C320 800 590 890 910 820 C1230 750 1460 830 1736 770 L1736 1056 L64 1056Z" fill="#605f2d"/>
    <path d="M180 868.8 C400 760.8 560 956.8 770 848.8 S1130 708.8 1328 816.8 S1540 906.8 1644 786.8" fill="none" stroke="#d5ccaa" stroke-width="24" stroke-linecap="round" stroke-linejoin="round" opacity="0.74" filter="url(#assetShadow)"/>
    <path d="M180 868.8 C400 760.8 560 956.8 770 848.8 S1130 708.8 1328 816.8 S1540 906.8 1644 786.8" fill="none" stroke="#8a7a2d" stroke-width="13" stroke-linecap="round" stroke-linejoin="round" opacity="0.82"/>
    <path d="M180 868.8 C400 760.8 560 956.8 770 848.8 S1130 708.8 1328 816.8 S1540 906.8 1644 786.8" fill="none" stroke="#315a8c" stroke-width="4.5" stroke-linecap="round" stroke-linejoin="round" stroke-dasharray="16 18" opacity="0.58"/>
    <rect x="64" y="64" width="1672" height="992" fill="#20231f" opacity="0.035"/>
  </g>
  <rect x="64" y="64" width="1672" height="992" rx="28" fill="none" stroke="#fffaf0" stroke-opacity="0.52" stroke-width="3"/>
  <rect x="88" y="88" width="1624" height="944" rx="20" fill="none" stroke="#20231f" stroke-opacity="0.1" stroke-width="1.5"/>
  <g transform="translate(112 100)">
    <g transform="rotate(-3 36 36)">
    <rect x="0" y="0" width="72" height="72" rx="10.080000000000002" fill="#9f3525"/>
    <rect x="7.2" y="7.2" width="57.6" height="57.6" rx="7.2" fill="none" stroke="#fff2df" stroke-opacity="0.72" stroke-width="2.5200000000000005"/>
    <text x="36" y="43.199999999999996" text-anchor="middle" fill="#fff7e8" font-family="'Kaiti SC','STKaiti','FZKai-Z03S','KaiTi','Songti SC','STSong','Noto Serif CJK SC',serif" font-size="33.120000000000005" font-weight="900">段</text>
    <text x="36" y="56.160000000000004" text-anchor="middle" fill="#fff2df" font-family="'Avenir Next',Avenir,Arial,sans-serif" font-size="10.080000000000002" font-weight="900" letter-spacing="0.8">07</text>
  </g>
    <text x="92" y="30" fill="#20231f" fill-opacity="0.62" font-family="'Kaiti SC','STKaiti','FZKai-Z03S','KaiTi','Songti SC','STSong','Noto Serif CJK SC',serif" font-size="23" font-weight="900">西纵 / 第 07 段</text>
    <text x="92" y="70" fill="#8a7a2d" font-family="'Songti SC','STSong','Source Han Serif SC','Noto Serif CJK SC','SimSun',serif" font-size="44" font-weight="900">独山子</text>
  </g>
  <text x="1688" y="994" text-anchor="end" fill="#fffaf0" fill-opacity="0.72" font-family="'Avenir Next',Avenir,Arial,sans-serif" font-size="18" font-weight="900" letter-spacing="4">ROADTRIP CHINA</text>
  <rect width="1800" height="1120" fill="#3b3020" filter="url(#paperGrain)" opacity="0.22"/>
</svg>
