<?xml version="1.0" encoding="UTF-8"?>
<svg xmlns="http://www.w3.org/2000/svg" viewBox="0 0 640 420" role="img" aria-labelledby="title desc">
  <title id="title">东北林海存档标识</title>
  <desc id="desc">东北林海专题封面存档。</desc>
  <defs>
    
    <linearGradient id="coverPaper" x1="0" x2="1" y1="0" y2="1">
      <stop offset="0" stop-color="#fbf7ed"/>
      <stop offset="0.55" stop-color="#f2eee3"/>
      <stop offset="1" stop-color="#e6eee9"/>
    </linearGradient>
    <filter id="paperGrain" x="0" y="0" width="100%" height="100%">
      <feTurbulence baseFrequency="0.68" numOctaves="2" seed="24" type="fractalNoise"/>
      <feColorMatrix type="saturate" values="0"/>
      <feComponentTransfer>
        <feFuncA type="table" tableValues="0 0.16"/>
      </feComponentTransfer>
    </filter>
    <clipPath id="coverClip">
      <path d="M18 18C128 8 246 22 338 15C445 7 532 16 622 12V394C510 410 420 393 316 404C206 416 103 397 18 406Z"/>
    </clipPath>
  </defs>
  <rect width="640" height="420" fill="#f7f2e7"/>
  <g clip-path="url(#coverClip)">
    <rect x="18" y="12" width="604" height="398" fill="url(#coverPaper)"/>
    <path d="M-24 305C104 226 205 285 326 224C438 167 514 192 664 122V430H-24Z" fill="#e8c5ab" opacity="0.42"/>
    <path d="M-18 344C112 294 236 340 360 288C470 242 550 264 666 226V430H-18Z" fill="#cfd6ba" opacity="0.34"/>
    <path d="M52 306C112 282 184 319 252 290S385 260 460 282S584 282 628 250" fill="none" stroke="#6f817b" stroke-opacity="0.32" stroke-width="3" stroke-linecap="round"/>
    <path d="M318 150C368 118 420 172 472 143S574 124 626 158" fill="none" stroke="#4f7f2d" stroke-opacity="0.13" stroke-width="1.5" stroke-linecap="round"/>
    <path d="M318 178C368 146 420 200 472 171S574 152 626 186" fill="none" stroke="#c9652c" stroke-opacity="0.13" stroke-width="1.5" stroke-linecap="round"/>
    <path d="M318 206C368 174 420 228 472 199S574 180 626 214" fill="none" stroke="#4f7f2d" stroke-opacity="0.13" stroke-width="1.5" stroke-linecap="round"/>
    <path d="M318 234C368 202 420 256 472 227S574 208 626 242" fill="none" stroke="#c9652c" stroke-opacity="0.13" stroke-width="1.5" stroke-linecap="round"/>
    <path d="M318 262C368 230 420 284 472 255S574 236 626 270" fill="none" stroke="#4f7f2d" stroke-opacity="0.13" stroke-width="1.5" stroke-linecap="round"/>
    <path d="M318 290C368 258 420 312 472 283S574 264 626 298" fill="none" stroke="#c9652c" stroke-opacity="0.13" stroke-width="1.5" stroke-linecap="round"/>
    <path d="M318 318C368 286 420 340 472 311S574 292 626 326" fill="none" stroke="#4f7f2d" stroke-opacity="0.13" stroke-width="1.5" stroke-linecap="round"/>
    <path d="M46 48H120" fill="none" stroke="#4f7f2d" stroke-opacity="0.72" stroke-width="3.2" stroke-linecap="round"/>
    <path d="M46 61H138" fill="none" stroke="#c9652c" stroke-opacity="0.72" stroke-width="3.2" stroke-linecap="round"/>
    <text x="490" y="305" text-anchor="middle" fill="#667a74" fill-opacity="0.15" font-family="'Kaiti SC','STKaiti','FZKai-Z03S','KaiTi','Songti SC','STSong','Noto Serif CJK SC',serif" font-size="152" font-weight="900">东</text>
  </g>
  <path d="M18 18C128 8 246 22 338 15C445 7 532 16 622 12" fill="none" stroke="#88a66c" stroke-opacity="0.55" stroke-width="3" stroke-linecap="round"/>
  <path d="M18 406C103 397 206 416 316 404C420 393 510 410 622 394" fill="none" stroke="#d9956c" stroke-opacity="0.42" stroke-width="3" stroke-linecap="round"/>
  <text x="48" y="112" fill="#466d2a" font-family="'Kaiti SC','STKaiti','FZKai-Z03S','KaiTi','Songti SC','STSong','Noto Serif CJK SC',serif" font-size="18" font-weight="900" letter-spacing="5">专题成卷</text>
  <text x="46" y="198" fill="#20231f" font-family="'Songti SC','STSong','Source Han Serif SC','Noto Serif CJK SC','SimSun',serif" font-size="84" font-weight="900">东北林海</text>
  <text x="49" y="242" fill="#213733" font-family="'Songti SC','STSong','Source Han Serif SC','Noto Serif CJK SC','SimSun',serif" font-size="23" font-weight="900">专题存档</text>
  <text x="50" y="356" fill="#4a762c" font-family="'PingFang SC','Hiragino Sans GB','Noto Sans CJK SC','Microsoft YaHei',Arial,sans-serif" font-size="13" font-weight="900" letter-spacing="1.2">TOPIC / 02 ROUTES</text>
  <g transform="rotate(4 565 82)">
    <rect x="535" y="52" width="60" height="60" rx="12" fill="#a73a2b" opacity="0.9"/>
    <rect x="543" y="60" width="44" height="44" rx="8" fill="none" stroke="#fff4e6" stroke-opacity="0.72" stroke-width="2"/>
    <text x="565" y="88" text-anchor="middle" fill="#fff7eb" font-family="'Kaiti SC','STKaiti','FZKai-Z03S','KaiTi','Songti SC','STSong','Noto Serif CJK SC',serif" font-size="28" font-weight="900">东</text>
    <text x="565" y="102" text-anchor="middle" fill="#fff7eb" fill-opacity="0.76" font-family="'Avenir Next',Avenir,Arial,sans-serif" font-size="8" font-weight="900">2</text>
  </g>
  <rect width="640" height="420" fill="#3b3020" filter="url(#paperGrain)" opacity="0.16"/>
</svg>
